%TF.GenerationSoftware,KiCad,Pcbnew,8.0.5*%
%TF.CreationDate,2025-06-15T08:35:33-07:00*%
%TF.ProjectId,Full Keyboard,46756c6c-204b-4657-9962-6f6172642e6b,2.0.0*%
%TF.SameCoordinates,Original*%
%TF.FileFunction,Paste,Bot*%
%TF.FilePolarity,Positive*%
%FSLAX46Y46*%
G04 Gerber Fmt 4.6, Leading zero omitted, Abs format (unit mm)*
G04 Created by KiCad (PCBNEW 8.0.5) date 2025-06-15 08:35:33*
%MOMM*%
%LPD*%
G01*
G04 APERTURE LIST*
G04 Aperture macros list*
%AMRoundRect*
0 Rectangle with rounded corners*
0 $1 Rounding radius*
0 $2 $3 $4 $5 $6 $7 $8 $9 X,Y pos of 4 corners*
0 Add a 4 corners polygon primitive as box body*
4,1,4,$2,$3,$4,$5,$6,$7,$8,$9,$2,$3,0*
0 Add four circle primitives for the rounded corners*
1,1,$1+$1,$2,$3*
1,1,$1+$1,$4,$5*
1,1,$1+$1,$6,$7*
1,1,$1+$1,$8,$9*
0 Add four rect primitives between the rounded corners*
20,1,$1+$1,$2,$3,$4,$5,0*
20,1,$1+$1,$4,$5,$6,$7,0*
20,1,$1+$1,$6,$7,$8,$9,0*
20,1,$1+$1,$8,$9,$2,$3,0*%
G04 Aperture macros list end*
%ADD10RoundRect,0.225000X0.375000X-0.225000X0.375000X0.225000X-0.375000X0.225000X-0.375000X-0.225000X0*%
%ADD11RoundRect,0.140000X-0.140000X-0.170000X0.140000X-0.170000X0.140000X0.170000X-0.140000X0.170000X0*%
%ADD12RoundRect,0.140000X0.170000X-0.140000X0.170000X0.140000X-0.170000X0.140000X-0.170000X-0.140000X0*%
%ADD13RoundRect,0.140000X-0.170000X0.140000X-0.170000X-0.140000X0.170000X-0.140000X0.170000X0.140000X0*%
%ADD14R,1.000000X1.700000*%
%ADD15RoundRect,0.075000X-0.662500X-0.075000X0.662500X-0.075000X0.662500X0.075000X-0.662500X0.075000X0*%
%ADD16RoundRect,0.075000X-0.075000X-0.662500X0.075000X-0.662500X0.075000X0.662500X-0.075000X0.662500X0*%
%ADD17RoundRect,0.135000X-0.135000X-0.185000X0.135000X-0.185000X0.135000X0.185000X-0.135000X0.185000X0*%
%ADD18RoundRect,0.140000X0.140000X0.170000X-0.140000X0.170000X-0.140000X-0.170000X0.140000X-0.170000X0*%
G04 APERTURE END LIST*
D10*
%TO.C,D93*%
X142111246Y-336796529D03*
X142111246Y-333496529D03*
%TD*%
%TO.C,D20*%
X173065546Y-260538729D03*
X173065546Y-257238729D03*
%TD*%
%TO.C,D77*%
X177827746Y-317747729D03*
X177827746Y-314447729D03*
%TD*%
%TO.C,D51*%
X377840146Y-279587529D03*
X377840146Y-276287529D03*
%TD*%
D11*
%TO.C,C17*%
X496312443Y-238390029D03*
X497272443Y-238390029D03*
%TD*%
D10*
%TO.C,D45*%
X258785146Y-279587529D03*
X258785146Y-276287529D03*
%TD*%
%TO.C,D81*%
X254022946Y-317747729D03*
X254022946Y-314447729D03*
%TD*%
%TO.C,D30*%
X373077946Y-260538729D03*
X373077946Y-257238729D03*
%TD*%
%TO.C,D95*%
X237355246Y-336796529D03*
X237355246Y-333496529D03*
%TD*%
%TO.C,D53*%
X425462146Y-279587529D03*
X425462146Y-276287529D03*
%TD*%
%TO.C,D86*%
X365934646Y-317747729D03*
X365934646Y-314447729D03*
%TD*%
%TO.C,D50*%
X354029146Y-279587529D03*
X354029146Y-276287529D03*
%TD*%
%TO.C,D70*%
X339742546Y-298636329D03*
X339742546Y-295336329D03*
%TD*%
%TO.C,D71*%
X370696846Y-298636329D03*
X370696846Y-295336329D03*
%TD*%
%TO.C,D91*%
X525468346Y-327272129D03*
X525468346Y-323972129D03*
%TD*%
%TO.C,D85*%
X330218146Y-317747729D03*
X330218146Y-314447729D03*
%TD*%
%TO.C,D2*%
X154016746Y-231965529D03*
X154016746Y-228665529D03*
%TD*%
%TO.C,D27*%
X306407146Y-260601329D03*
X306407146Y-257301329D03*
%TD*%
%TO.C,D66*%
X263547346Y-298636329D03*
X263547346Y-295336329D03*
%TD*%
%TO.C,D90*%
X506419546Y-317747729D03*
X506419546Y-314447729D03*
%TD*%
%TO.C,D9*%
X296882746Y-232028129D03*
X296882746Y-228728129D03*
%TD*%
%TO.C,D14*%
X425462146Y-231965529D03*
X425462146Y-228665529D03*
%TD*%
%TO.C,D92*%
X118300246Y-336796529D03*
X118300246Y-333496529D03*
%TD*%
%TO.C,D5*%
X211163146Y-232028129D03*
X211163146Y-228728129D03*
%TD*%
%TO.C,D47*%
X296882746Y-279587529D03*
X296882746Y-276287529D03*
%TD*%
%TO.C,D35*%
X487370746Y-260601329D03*
X487370746Y-257301329D03*
%TD*%
%TO.C,D65*%
X244498546Y-298698929D03*
X244498546Y-295398929D03*
%TD*%
%TO.C,D96*%
X308788246Y-336796529D03*
X308788246Y-333496529D03*
%TD*%
%TO.C,D28*%
X325455946Y-260601329D03*
X325455946Y-257301329D03*
%TD*%
%TO.C,D73*%
X506419546Y-298698929D03*
X506419546Y-295398929D03*
%TD*%
D11*
%TO.C,C14*%
X485467446Y-232735029D03*
X486427446Y-232735029D03*
%TD*%
D10*
%TO.C,D8*%
X277833946Y-232028129D03*
X277833946Y-228728129D03*
%TD*%
%TO.C,D33*%
X444510946Y-260601329D03*
X444510946Y-257301329D03*
%TD*%
%TO.C,D24*%
X249260746Y-260601329D03*
X249260746Y-257301329D03*
%TD*%
%TO.C,D36*%
X506419546Y-260663929D03*
X506419546Y-257363929D03*
%TD*%
%TO.C,D75*%
X127824646Y-317747729D03*
X127824646Y-314447729D03*
%TD*%
D12*
%TO.C,C13*%
X489319946Y-240337529D03*
X489319946Y-239377529D03*
%TD*%
D10*
%TO.C,D13*%
X406413346Y-232028129D03*
X406413346Y-228728129D03*
%TD*%
%TO.C,D54*%
X444510946Y-279650129D03*
X444510946Y-276350129D03*
%TD*%
%TO.C,D76*%
X158778946Y-317747729D03*
X158778946Y-314447729D03*
%TD*%
%TO.C,D88*%
X468321946Y-317685129D03*
X468321946Y-314385129D03*
%TD*%
%TO.C,D94*%
X165922246Y-336796529D03*
X165922246Y-333496529D03*
%TD*%
%TO.C,D68*%
X301644946Y-298636329D03*
X301644946Y-295336329D03*
%TD*%
%TO.C,D21*%
X192114346Y-260538729D03*
X192114346Y-257238729D03*
%TD*%
%TO.C,D42*%
X201638746Y-279650129D03*
X201638746Y-276350129D03*
%TD*%
%TO.C,D22*%
X211163146Y-260538729D03*
X211163146Y-257238729D03*
%TD*%
D13*
%TO.C,C12*%
X495802449Y-227132521D03*
X495802449Y-228092521D03*
%TD*%
D10*
%TO.C,D43*%
X220687546Y-279587529D03*
X220687546Y-276287529D03*
%TD*%
%TO.C,D23*%
X230211946Y-260601329D03*
X230211946Y-257301329D03*
%TD*%
%TO.C,D78*%
X196876546Y-317747729D03*
X196876546Y-314447729D03*
%TD*%
%TO.C,D39*%
X144492346Y-279587529D03*
X144492346Y-276287529D03*
%TD*%
%TO.C,D16*%
X382602346Y-232028129D03*
X382602346Y-228728129D03*
%TD*%
%TO.C,D56*%
X487370746Y-279650129D03*
X487370746Y-276350129D03*
%TD*%
%TO.C,D46*%
X277833946Y-279650129D03*
X277833946Y-276350129D03*
%TD*%
%TO.C,D74*%
X468321946Y-298698929D03*
X468321946Y-295398929D03*
%TD*%
%TO.C,D34*%
X468321946Y-260601329D03*
X468321946Y-257301329D03*
%TD*%
%TO.C,D3*%
X173065546Y-231965529D03*
X173065546Y-228665529D03*
%TD*%
%TO.C,D25*%
X268309546Y-260538729D03*
X268309546Y-257238729D03*
%TD*%
%TO.C,D1*%
X115919146Y-232028129D03*
X115919146Y-228728129D03*
%TD*%
%TO.C,D11*%
X344504746Y-232028129D03*
X344504746Y-228728129D03*
%TD*%
%TO.C,D79*%
X215925346Y-317747729D03*
X215925346Y-314447729D03*
%TD*%
D14*
%TO.C,SW1*%
X508782445Y-225572529D03*
X508782445Y-231872529D03*
X512582445Y-225572529D03*
X512582445Y-231872529D03*
%TD*%
D10*
%TO.C,D67*%
X282596146Y-298698929D03*
X282596146Y-295398929D03*
%TD*%
%TO.C,D101*%
X425462146Y-336733929D03*
X425462146Y-333433929D03*
%TD*%
%TO.C,D102*%
X444510946Y-336796529D03*
X444510946Y-333496529D03*
%TD*%
%TO.C,D44*%
X239736346Y-279587529D03*
X239736346Y-276287529D03*
%TD*%
%TO.C,D52*%
X406413346Y-279587529D03*
X406413346Y-276287529D03*
%TD*%
%TO.C,D64*%
X225449746Y-298636329D03*
X225449746Y-295336329D03*
%TD*%
%TO.C,D97*%
X332599246Y-336796529D03*
X332599246Y-333496529D03*
%TD*%
%TO.C,D32*%
X425462146Y-260538729D03*
X425462146Y-257238729D03*
%TD*%
%TO.C,D60*%
X149254546Y-298636329D03*
X149254546Y-295336329D03*
%TD*%
%TO.C,D87*%
X425462146Y-317747729D03*
X425462146Y-314447729D03*
%TD*%
D13*
%TO.C,C11*%
X494819949Y-227132528D03*
X494819949Y-228092528D03*
%TD*%
D10*
%TO.C,D55*%
X468321946Y-279650129D03*
X468321946Y-276350129D03*
%TD*%
D11*
%TO.C,C15*%
X485467445Y-231752529D03*
X486427445Y-231752529D03*
%TD*%
D10*
%TO.C,D41*%
X182589946Y-279650129D03*
X182589946Y-276350129D03*
%TD*%
%TO.C,D61*%
X168303346Y-298636329D03*
X168303346Y-295336329D03*
%TD*%
%TO.C,D58*%
X525468346Y-289174529D03*
X525468346Y-285874529D03*
%TD*%
%TO.C,D59*%
X123062446Y-298698929D03*
X123062446Y-295398929D03*
%TD*%
%TO.C,D103*%
X477846346Y-336733929D03*
X477846346Y-333433929D03*
%TD*%
%TO.C,D40*%
X163541146Y-279587529D03*
X163541146Y-276287529D03*
%TD*%
%TO.C,D100*%
X406413346Y-336796529D03*
X406413346Y-333496529D03*
%TD*%
D15*
%TO.C,U1*%
X487907446Y-236485029D03*
X487907446Y-235985029D03*
X487907446Y-235485029D03*
X487907446Y-234985029D03*
X487907446Y-234485029D03*
X487907446Y-233985029D03*
X487907446Y-233485029D03*
X487907446Y-232985029D03*
X487907446Y-232485029D03*
X487907446Y-231985029D03*
X487907446Y-231485029D03*
X487907446Y-230985029D03*
D16*
X489319946Y-229572529D03*
X489819946Y-229572529D03*
X490319946Y-229572529D03*
X490819946Y-229572529D03*
X491319946Y-229572529D03*
X491819946Y-229572529D03*
X492319946Y-229572529D03*
X492819946Y-229572529D03*
X493319946Y-229572529D03*
X493819946Y-229572529D03*
X494319946Y-229572529D03*
X494819946Y-229572529D03*
D15*
X496232446Y-230985029D03*
X496232446Y-231485029D03*
X496232446Y-231985029D03*
X496232446Y-232485029D03*
X496232446Y-232985029D03*
X496232446Y-233485029D03*
X496232446Y-233985029D03*
X496232446Y-234485029D03*
X496232446Y-234985029D03*
X496232446Y-235485029D03*
X496232446Y-235985029D03*
X496232446Y-236485029D03*
D16*
X494819946Y-237897529D03*
X494319946Y-237897529D03*
X493819946Y-237897529D03*
X493319946Y-237897529D03*
X492819946Y-237897529D03*
X492319946Y-237897529D03*
X491819946Y-237897529D03*
X491319946Y-237897529D03*
X490819946Y-237897529D03*
X490319946Y-237897529D03*
X489819946Y-237897529D03*
X489319946Y-237897529D03*
%TD*%
D10*
%TO.C,D80*%
X234974146Y-317747729D03*
X234974146Y-314447729D03*
%TD*%
%TO.C,D98*%
X356410246Y-336733929D03*
X356410246Y-333433929D03*
%TD*%
D17*
%TO.C,R1*%
X511559951Y-223940033D03*
X512579951Y-223940033D03*
%TD*%
D18*
%TO.C,C7*%
X486427446Y-233735028D03*
X485467446Y-233735028D03*
%TD*%
D10*
%TO.C,D89*%
X487370746Y-317685129D03*
X487370746Y-314385129D03*
%TD*%
%TO.C,D19*%
X154016746Y-260601329D03*
X154016746Y-257301329D03*
%TD*%
%TO.C,D99*%
X380221246Y-336796529D03*
X380221246Y-333496529D03*
%TD*%
%TO.C,D12*%
X363553546Y-231965529D03*
X363553546Y-228665529D03*
%TD*%
D11*
%TO.C,C16*%
X496312445Y-237407536D03*
X497272445Y-237407536D03*
%TD*%
D10*
%TO.C,D26*%
X287358346Y-260601329D03*
X287358346Y-257301329D03*
%TD*%
%TO.C,D84*%
X311169346Y-317747729D03*
X311169346Y-314447729D03*
%TD*%
%TO.C,D38*%
X120681346Y-279650129D03*
X120681346Y-276350129D03*
%TD*%
%TO.C,D69*%
X320693746Y-298636329D03*
X320693746Y-295336329D03*
%TD*%
%TO.C,D7*%
X258785146Y-232028129D03*
X258785146Y-228728129D03*
%TD*%
%TO.C,D49*%
X334980346Y-279650129D03*
X334980346Y-276350129D03*
%TD*%
%TO.C,D31*%
X406413346Y-260601329D03*
X406413346Y-257301329D03*
%TD*%
%TO.C,D15*%
X444510946Y-231965529D03*
X444510946Y-228665529D03*
%TD*%
%TO.C,D10*%
X325455946Y-232028129D03*
X325455946Y-228728129D03*
%TD*%
D11*
%TO.C,C10*%
X485467445Y-236485028D03*
X486427445Y-236485028D03*
%TD*%
D10*
%TO.C,D83*%
X292120546Y-317747729D03*
X292120546Y-314447729D03*
%TD*%
%TO.C,D48*%
X315931546Y-279650129D03*
X315931546Y-276350129D03*
%TD*%
%TO.C,D4*%
X192114346Y-232028129D03*
X192114346Y-228728129D03*
%TD*%
%TO.C,D37*%
X525468346Y-260601329D03*
X525468346Y-257301329D03*
%TD*%
%TO.C,D104*%
X506419546Y-336733929D03*
X506419546Y-333433929D03*
%TD*%
%TO.C,D18*%
X134967946Y-260601329D03*
X134967946Y-257301329D03*
%TD*%
%TO.C,D6*%
X239736346Y-232028129D03*
X239736346Y-228728129D03*
%TD*%
%TO.C,D17*%
X115919146Y-260601329D03*
X115919146Y-257301329D03*
%TD*%
%TO.C,D82*%
X273071746Y-317747729D03*
X273071746Y-314447729D03*
%TD*%
%TO.C,D62*%
X187352146Y-298636329D03*
X187352146Y-295336329D03*
%TD*%
%TO.C,D63*%
X206400946Y-298698929D03*
X206400946Y-295398929D03*
%TD*%
%TO.C,D57*%
X506419546Y-279587529D03*
X506419546Y-276287529D03*
%TD*%
%TO.C,D72*%
X487370746Y-298636329D03*
X487370746Y-295336329D03*
%TD*%
%TO.C,D29*%
X344504746Y-260601329D03*
X344504746Y-257301329D03*
%TD*%
M02*
