%TF.GenerationSoftware,KiCad,Pcbnew,8.0.5*%
%TF.CreationDate,2025-06-07T17:07:02-07:00*%
%TF.ProjectId,Full Keyboard,46756c6c-204b-4657-9962-6f6172642e6b,2.0.0*%
%TF.SameCoordinates,Original*%
%TF.FileFunction,Legend,Bot*%
%TF.FilePolarity,Positive*%
%FSLAX46Y46*%
G04 Gerber Fmt 4.6, Leading zero omitted, Abs format (unit mm)*
G04 Created by KiCad (PCBNEW 8.0.5) date 2025-06-07 17:07:02*
%MOMM*%
%LPD*%
G01*
G04 APERTURE LIST*
%ADD10C,0.150000*%
%ADD11C,0.120000*%
G04 APERTURE END LIST*
D10*
D11*
%TO.C,"3"1*%
X165794946Y-251260029D02*
X170894946Y-251260029D01*
X169694946Y-255460029D02*
X174794946Y-255460029D01*
X163794946Y-253260029D02*
G75*
G02*
X165794946Y-251260029I1999999J1D01*
G01*
X167694946Y-257460029D02*
G75*
G02*
X169694946Y-255460029I1999999J1D01*
G01*
%TO.C,F5*%
X232469946Y-222685029D02*
X237569946Y-222685029D01*
X236369946Y-226885029D02*
X241469946Y-226885029D01*
X230469946Y-224685029D02*
G75*
G02*
X232469946Y-222685029I1999999J1D01*
G01*
X234369946Y-228885029D02*
G75*
G02*
X236369946Y-226885029I1999999J1D01*
G01*
%TO.C,PgDn1*%
X437257446Y-270310029D02*
X442357446Y-270310029D01*
X441157446Y-274510029D02*
X446257446Y-274510029D01*
X435257446Y-272310029D02*
G75*
G02*
X437257446Y-270310029I1999999J1D01*
G01*
X439157446Y-276510029D02*
G75*
G02*
X441157446Y-274510029I1999999J1D01*
G01*
%TO.C,Space1*%
X230088696Y-327460029D02*
X235188696Y-327460029D01*
X233988696Y-331660029D02*
X239088696Y-331660029D01*
X228088696Y-329460029D02*
G75*
G02*
X230088696Y-327460029I1999999J1D01*
G01*
X231988696Y-333660029D02*
G75*
G02*
X233988696Y-331660029I1999999J1D01*
G01*
%TO.C,"0"1*%
X299144946Y-251260029D02*
X304244946Y-251260029D01*
X303044946Y-255460029D02*
X308144946Y-255460029D01*
X297144946Y-253260029D02*
G75*
G02*
X299144946Y-251260029I1999999J1D01*
G01*
X301044946Y-257460029D02*
G75*
G02*
X303044946Y-255460029I1999999J1D01*
G01*
%TO.C,LeftWin1*%
X134838696Y-327460029D02*
X139938696Y-327460029D01*
X138738696Y-331660029D02*
X143838696Y-331660029D01*
X132838696Y-329460029D02*
G75*
G02*
X134838696Y-327460029I1999999J1D01*
G01*
X136738696Y-333660029D02*
G75*
G02*
X138738696Y-331660029I1999999J1D01*
G01*
%TO.C,}1*%
X346769946Y-270310029D02*
X351869946Y-270310029D01*
X350669946Y-274510029D02*
X355769946Y-274510029D01*
X344769946Y-272310029D02*
G75*
G02*
X346769946Y-270310029I1999999J1D01*
G01*
X348669946Y-276510029D02*
G75*
G02*
X350669946Y-274510029I1999999J1D01*
G01*
%TO.C,Tilde1*%
X108644946Y-251260029D02*
X113744946Y-251260029D01*
X112544946Y-255460029D02*
X117644946Y-255460029D01*
X106644946Y-253260029D02*
G75*
G02*
X108644946Y-251260029I1999999J1D01*
G01*
X110544946Y-257460029D02*
G75*
G02*
X112544946Y-255460029I1999999J1D01*
G01*
%TO.C,End1*%
X418207446Y-270310029D02*
X423307446Y-270310029D01*
X422107446Y-274510029D02*
X427207446Y-274510029D01*
X416207446Y-272310029D02*
G75*
G02*
X418207446Y-270310029I1999999J1D01*
G01*
X420107446Y-276510029D02*
G75*
G02*
X422107446Y-274510029I1999999J1D01*
G01*
%TO.C,Num+1*%
X518219946Y-279835029D02*
X523319946Y-279835029D01*
X522119946Y-284035029D02*
X527219946Y-284035029D01*
X516219946Y-281835029D02*
G75*
G02*
X518219946Y-279835029I1999999J1D01*
G01*
X520119946Y-286035029D02*
G75*
G02*
X522119946Y-284035029I1999999J1D01*
G01*
%TO.C,;1*%
X313432446Y-289360029D02*
X318532446Y-289360029D01*
X317332446Y-293560029D02*
X322432446Y-293560029D01*
X311432446Y-291360029D02*
G75*
G02*
X313432446Y-289360029I1999999J1D01*
G01*
X315332446Y-295560029D02*
G75*
G02*
X317332446Y-293560029I1999999J1D01*
G01*
%TO.C,\u005C1*%
X370582446Y-270310029D02*
X375682446Y-270310029D01*
X374482446Y-274510029D02*
X379582446Y-274510029D01*
X368582446Y-272310029D02*
G75*
G02*
X370582446Y-270310029I1999999J1D01*
G01*
X372482446Y-276510029D02*
G75*
G02*
X374482446Y-274510029I1999999J1D01*
G01*
%TO.C,D105*%
X180082446Y-289360029D02*
X185182446Y-289360029D01*
X183982446Y-293560029D02*
X189082446Y-293560029D01*
X178082446Y-291360029D02*
G75*
G02*
X180082446Y-289360029I1999999J1D01*
G01*
X181982446Y-295560029D02*
G75*
G02*
X183982446Y-293560029I1999999J1D01*
G01*
%TO.C,"1"1*%
X127694946Y-251260029D02*
X132794946Y-251260029D01*
X131594946Y-255460029D02*
X136694946Y-255460029D01*
X125694946Y-253260029D02*
G75*
G02*
X127694946Y-251260029I1999999J1D01*
G01*
X129594946Y-257460029D02*
G75*
G02*
X131594946Y-255460029I1999999J1D01*
G01*
%TO.C,Backspace1*%
X365819946Y-251260029D02*
X370919946Y-251260029D01*
X369719946Y-255460029D02*
X374819946Y-255460029D01*
X363819946Y-253260029D02*
G75*
G02*
X365819946Y-251260029I1999999J1D01*
G01*
X367719946Y-257460029D02*
G75*
G02*
X369719946Y-255460029I1999999J1D01*
G01*
%TO.C,"8"1*%
X261044946Y-251260029D02*
X266144946Y-251260029D01*
X264944946Y-255460029D02*
X270044946Y-255460029D01*
X259044946Y-253260029D02*
G75*
G02*
X261044946Y-251260029I1999999J1D01*
G01*
X262944946Y-257460029D02*
G75*
G02*
X264944946Y-255460029I1999999J1D01*
G01*
%TO.C,RightControl1*%
X372963696Y-327460029D02*
X378063696Y-327460029D01*
X376863696Y-331660029D02*
X381963696Y-331660029D01*
X370963696Y-329460029D02*
G75*
G02*
X372963696Y-327460029I1999999J1D01*
G01*
X374863696Y-333660029D02*
G75*
G02*
X376863696Y-331660029I1999999J1D01*
G01*
%TO.C,LeftArrow1*%
X399157446Y-327460029D02*
X404257446Y-327460029D01*
X403057446Y-331660029D02*
X408157446Y-331660029D01*
X397157446Y-329460029D02*
G75*
G02*
X399157446Y-327460029I1999999J1D01*
G01*
X401057446Y-333660029D02*
G75*
G02*
X403057446Y-331660029I1999999J1D01*
G01*
%TO.C,PgUp1*%
X437257446Y-251260029D02*
X442357446Y-251260029D01*
X441157446Y-255460029D02*
X446257446Y-255460029D01*
X435257446Y-253260029D02*
G75*
G02*
X437257446Y-251260029I1999999J1D01*
G01*
X439157446Y-257460029D02*
G75*
G02*
X441157446Y-255460029I1999999J1D01*
G01*
%TO.C,J2*%
X256282446Y-289360029D02*
X261382446Y-289360029D01*
X260182446Y-293560029D02*
X265282446Y-293560029D01*
X254282446Y-291360029D02*
G75*
G02*
X256282446Y-289360029I1999999J1D01*
G01*
X258182446Y-295560029D02*
G75*
G02*
X260182446Y-293560029I1999999J1D01*
G01*
%TO.C,Num3*%
X499169946Y-308410029D02*
X504269946Y-308410029D01*
X503069946Y-312610029D02*
X508169946Y-312610029D01*
X497169946Y-310410029D02*
G75*
G02*
X499169946Y-308410029I1999999J1D01*
G01*
X501069946Y-314610029D02*
G75*
G02*
X503069946Y-312610029I1999999J1D01*
G01*
%TO.C,P1*%
X308669946Y-270310029D02*
X313769946Y-270310029D01*
X312569946Y-274510029D02*
X317669946Y-274510029D01*
X306669946Y-272310029D02*
G75*
G02*
X308669946Y-270310029I1999999J1D01*
G01*
X310569946Y-276510029D02*
G75*
G02*
X312569946Y-274510029I1999999J1D01*
G01*
%TO.C,Num.1*%
X499169946Y-327460029D02*
X504269946Y-327460029D01*
X503069946Y-331660029D02*
X508169946Y-331660029D01*
X497169946Y-329460029D02*
G75*
G02*
X499169946Y-327460029I1999999J1D01*
G01*
X501069946Y-333660029D02*
G75*
G02*
X503069946Y-331660029I1999999J1D01*
G01*
%TO.C,"4"1*%
X184844946Y-251260029D02*
X189944946Y-251260029D01*
X188744946Y-255460029D02*
X193844946Y-255460029D01*
X182844946Y-253260029D02*
G75*
G02*
X184844946Y-251260029I1999999J1D01*
G01*
X186744946Y-257460029D02*
G75*
G02*
X188744946Y-255460029I1999999J1D01*
G01*
%TO.C,Home1*%
X418207446Y-251260029D02*
X423307446Y-251260029D01*
X422107446Y-255460029D02*
X427207446Y-255460029D01*
X416207446Y-253260029D02*
G75*
G02*
X418207446Y-251260029I1999999J1D01*
G01*
X420107446Y-257460029D02*
G75*
G02*
X422107446Y-255460029I1999999J1D01*
G01*
%TO.C,Num-1*%
X518219946Y-251260029D02*
X523319946Y-251260029D01*
X522119946Y-255460029D02*
X527219946Y-255460029D01*
X516219946Y-253260029D02*
G75*
G02*
X518219946Y-251260029I1999999J1D01*
G01*
X520119946Y-257460029D02*
G75*
G02*
X522119946Y-255460029I1999999J1D01*
G01*
%TO.C,F10*%
X337194946Y-222685029D02*
X342294946Y-222685029D01*
X341094946Y-226885029D02*
X346194946Y-226885029D01*
X335194946Y-224685029D02*
G75*
G02*
X337194946Y-222685029I1999999J1D01*
G01*
X339094946Y-228885029D02*
G75*
G02*
X341094946Y-226885029I1999999J1D01*
G01*
%TO.C,F8*%
X289469946Y-222685029D02*
X294569946Y-222685029D01*
X293369946Y-226885029D02*
X298469946Y-226885029D01*
X287469946Y-224685029D02*
G75*
G02*
X289469946Y-222685029I1999999J1D01*
G01*
X291369946Y-228885029D02*
G75*
G02*
X293369946Y-226885029I1999999J1D01*
G01*
%TO.C,F4*%
X203894946Y-222685029D02*
X208994946Y-222685029D01*
X207794946Y-226885029D02*
X212894946Y-226885029D01*
X201894946Y-224685029D02*
G75*
G02*
X203894946Y-222685029I1999999J1D01*
G01*
X205794946Y-228885029D02*
G75*
G02*
X207794946Y-226885029I1999999J1D01*
G01*
%TO.C,"1*%
X332482446Y-289360029D02*
X337582446Y-289360029D01*
X336382446Y-293560029D02*
X341482446Y-293560029D01*
X330482446Y-291360029D02*
G75*
G02*
X332482446Y-289360029I1999999J1D01*
G01*
X334382446Y-295560029D02*
G75*
G02*
X336382446Y-293560029I1999999J1D01*
G01*
%TO.C,Func1*%
X146744946Y-222685029D02*
X151844946Y-222685029D01*
X150644946Y-226885029D02*
X155744946Y-226885029D01*
X144744946Y-224685029D02*
G75*
G02*
X146744946Y-222685029I1999999J1D01*
G01*
X148644946Y-228885029D02*
G75*
G02*
X150644946Y-226885029I1999999J1D01*
G01*
%TO.C,"5"1*%
X203894946Y-251260029D02*
X208994946Y-251260029D01*
X207794946Y-255460029D02*
X212894946Y-255460029D01*
X201894946Y-253260029D02*
G75*
G02*
X203894946Y-251260029I1999999J1D01*
G01*
X205794946Y-257460029D02*
G75*
G02*
X207794946Y-255460029I1999999J1D01*
G01*
%TO.C,"-"1*%
X318194946Y-251260029D02*
X323294946Y-251260029D01*
X322094946Y-255460029D02*
X327194946Y-255460029D01*
X316194946Y-253260029D02*
G75*
G02*
X318194946Y-251260029I1999999J1D01*
G01*
X320094946Y-257460029D02*
G75*
G02*
X322094946Y-255460029I1999999J1D01*
G01*
%TO.C,"6"1*%
X222944946Y-251260029D02*
X228044946Y-251260029D01*
X226844946Y-255460029D02*
X231944946Y-255460029D01*
X220944946Y-253260029D02*
G75*
G02*
X222944946Y-251260029I1999999J1D01*
G01*
X224844946Y-257460029D02*
G75*
G02*
X226844946Y-255460029I1999999J1D01*
G01*
%TO.C,F13*%
X199132446Y-289360029D02*
X204232446Y-289360029D01*
X203032446Y-293560029D02*
X208132446Y-293560029D01*
X197132446Y-291360029D02*
G75*
G02*
X199132446Y-289360029I1999999J1D01*
G01*
X201032446Y-295560029D02*
G75*
G02*
X203032446Y-293560029I1999999J1D01*
G01*
%TO.C,L1*%
X294382446Y-289360029D02*
X299482446Y-289360029D01*
X298282446Y-293560029D02*
X303382446Y-293560029D01*
X292382446Y-291360029D02*
G75*
G02*
X294382446Y-289360029I1999999J1D01*
G01*
X296282446Y-295560029D02*
G75*
G02*
X298282446Y-293560029I1999999J1D01*
G01*
%TO.C,Shift1*%
X120551196Y-308410029D02*
X125651196Y-308410029D01*
X124451196Y-312610029D02*
X129551196Y-312610029D01*
X118551196Y-310410029D02*
G75*
G02*
X120551196Y-308410029I1999999J1D01*
G01*
X122451196Y-314610029D02*
G75*
G02*
X124451196Y-312610029I1999999J1D01*
G01*
%TO.C,Delete1*%
X399157446Y-270310029D02*
X404257446Y-270310029D01*
X403057446Y-274510029D02*
X408157446Y-274510029D01*
X397157446Y-272310029D02*
G75*
G02*
X399157446Y-270310029I1999999J1D01*
G01*
X401057446Y-276510029D02*
G75*
G02*
X403057446Y-274510029I1999999J1D01*
G01*
%TO.C,Num9*%
X499169946Y-270310029D02*
X504269946Y-270310029D01*
X503069946Y-274510029D02*
X508169946Y-274510029D01*
X497169946Y-272310029D02*
G75*
G02*
X499169946Y-270310029I1999999J1D01*
G01*
X501069946Y-276510029D02*
G75*
G02*
X503069946Y-274510029I1999999J1D01*
G01*
%TO.C,F7*%
X270469946Y-222685029D02*
X275569946Y-222685029D01*
X274369946Y-226885029D02*
X279469946Y-226885029D01*
X268469946Y-224685029D02*
G75*
G02*
X270469946Y-222685029I1999999J1D01*
G01*
X272369946Y-228885029D02*
G75*
G02*
X274369946Y-226885029I1999999J1D01*
G01*
%TO.C,Menu1*%
X349151196Y-327460029D02*
X354251196Y-327460029D01*
X353051196Y-331660029D02*
X358151196Y-331660029D01*
X347151196Y-329460029D02*
G75*
G02*
X349151196Y-327460029I1999999J1D01*
G01*
X351051196Y-333660029D02*
G75*
G02*
X353051196Y-331660029I1999999J1D01*
G01*
%TO.C,Num6*%
X499169946Y-289360029D02*
X504269946Y-289360029D01*
X503069946Y-293560029D02*
X508169946Y-293560029D01*
X497169946Y-291360029D02*
G75*
G02*
X499169946Y-289360029I1999999J1D01*
G01*
X501069946Y-295560029D02*
G75*
G02*
X503069946Y-293560029I1999999J1D01*
G01*
%TO.C,NumEnter1*%
X518219946Y-317935029D02*
X523319946Y-317935029D01*
X522119946Y-322135029D02*
X527219946Y-322135029D01*
X516219946Y-319935029D02*
G75*
G02*
X518219946Y-317935029I1999999J1D01*
G01*
X520119946Y-324135029D02*
G75*
G02*
X522119946Y-322135029I1999999J1D01*
G01*
%TO.C,T1*%
X213419946Y-270310029D02*
X218519946Y-270310029D01*
X217319946Y-274510029D02*
X222419946Y-274510029D01*
X211419946Y-272310029D02*
G75*
G02*
X213419946Y-270310029I1999999J1D01*
G01*
X215319946Y-276510029D02*
G75*
G02*
X217319946Y-274510029I1999999J1D01*
G01*
%TO.C,F11*%
X356194946Y-222685029D02*
X361294946Y-222685029D01*
X360094946Y-226885029D02*
X365194946Y-226885029D01*
X354194946Y-224685029D02*
G75*
G02*
X356194946Y-222685029I1999999J1D01*
G01*
X358094946Y-228885029D02*
G75*
G02*
X360094946Y-226885029I1999999J1D01*
G01*
%TO.C,I1*%
X270569946Y-270310029D02*
X275669946Y-270310029D01*
X274469946Y-274510029D02*
X279569946Y-274510029D01*
X268569946Y-272310029D02*
G75*
G02*
X270569946Y-270310029I1999999J1D01*
G01*
X272469946Y-276510029D02*
G75*
G02*
X274469946Y-274510029I1999999J1D01*
G01*
%TO.C,Q1*%
X137219946Y-270310029D02*
X142319946Y-270310029D01*
X141119946Y-274510029D02*
X146219946Y-274510029D01*
X135219946Y-272310029D02*
G75*
G02*
X137219946Y-270310029I1999999J1D01*
G01*
X139119946Y-276510029D02*
G75*
G02*
X141119946Y-274510029I1999999J1D01*
G01*
%TO.C,{1*%
X327719946Y-270310029D02*
X332819946Y-270310029D01*
X331619946Y-274510029D02*
X336719946Y-274510029D01*
X325719946Y-272310029D02*
G75*
G02*
X327719946Y-270310029I1999999J1D01*
G01*
X329619946Y-276510029D02*
G75*
G02*
X331619946Y-274510029I1999999J1D01*
G01*
%TO.C,F9*%
X318194946Y-222685029D02*
X323294946Y-222685029D01*
X322094946Y-226885029D02*
X327194946Y-226885029D01*
X316194946Y-224685029D02*
G75*
G02*
X318194946Y-222685029I1999999J1D01*
G01*
X320094946Y-228885029D02*
G75*
G02*
X322094946Y-226885029I1999999J1D01*
G01*
%TO.C,G1*%
X218182446Y-289360029D02*
X223282446Y-289360029D01*
X222082446Y-293560029D02*
X227182446Y-293560029D01*
X216182446Y-291360029D02*
G75*
G02*
X218182446Y-289360029I1999999J1D01*
G01*
X220082446Y-295560029D02*
G75*
G02*
X222082446Y-293560029I1999999J1D01*
G01*
%TO.C,RightWin1*%
X325338696Y-327460029D02*
X330438696Y-327460029D01*
X329238696Y-331660029D02*
X334338696Y-331660029D01*
X323338696Y-329460029D02*
G75*
G02*
X325338696Y-327460029I1999999J1D01*
G01*
X327238696Y-333660029D02*
G75*
G02*
X329238696Y-331660029I1999999J1D01*
G01*
%TO.C,Num2*%
X480119946Y-308410029D02*
X485219946Y-308410029D01*
X484019946Y-312610029D02*
X489119946Y-312610029D01*
X478119946Y-310410029D02*
G75*
G02*
X480119946Y-308410029I1999999J1D01*
G01*
X482019946Y-314610029D02*
G75*
G02*
X484019946Y-312610029I1999999J1D01*
G01*
%TO.C,F3*%
X184844946Y-222685029D02*
X189944946Y-222685029D01*
X188744946Y-226885029D02*
X193844946Y-226885029D01*
X182844946Y-224685029D02*
G75*
G02*
X184844946Y-222685029I1999999J1D01*
G01*
X186744946Y-228885029D02*
G75*
G02*
X188744946Y-226885029I1999999J1D01*
G01*
%TO.C,RightShift1*%
X358676196Y-308410029D02*
X363776196Y-308410029D01*
X362576196Y-312610029D02*
X367676196Y-312610029D01*
X356676196Y-310410029D02*
G75*
G02*
X358676196Y-308410029I1999999J1D01*
G01*
X360576196Y-314610029D02*
G75*
G02*
X362576196Y-312610029I1999999J1D01*
G01*
%TO.C,O1*%
X289619946Y-270310029D02*
X294719946Y-270310029D01*
X293519946Y-274510029D02*
X298619946Y-274510029D01*
X287619946Y-272310029D02*
G75*
G02*
X289619946Y-270310029I1999999J1D01*
G01*
X291519946Y-276510029D02*
G75*
G02*
X293519946Y-274510029I1999999J1D01*
G01*
%TO.C,B1*%
X227707446Y-308410029D02*
X232807446Y-308410029D01*
X231607446Y-312610029D02*
X236707446Y-312610029D01*
X225707446Y-310410029D02*
G75*
G02*
X227707446Y-308410029I1999999J1D01*
G01*
X229607446Y-314610029D02*
G75*
G02*
X231607446Y-312610029I1999999J1D01*
G01*
%TO.C,Z1*%
X151507446Y-308410029D02*
X156607446Y-308410029D01*
X155407446Y-312610029D02*
X160507446Y-312610029D01*
X149507446Y-310410029D02*
G75*
G02*
X151507446Y-308410029I1999999J1D01*
G01*
X153407446Y-314610029D02*
G75*
G02*
X155407446Y-312610029I1999999J1D01*
G01*
%TO.C,K1*%
X275332446Y-289360029D02*
X280432446Y-289360029D01*
X279232446Y-293560029D02*
X284332446Y-293560029D01*
X273332446Y-291360029D02*
G75*
G02*
X275332446Y-289360029I1999999J1D01*
G01*
X277232446Y-295560029D02*
G75*
G02*
X279232446Y-293560029I1999999J1D01*
G01*
%TO.C,Y1*%
X232469946Y-270310029D02*
X237569946Y-270310029D01*
X236369946Y-274510029D02*
X241469946Y-274510029D01*
X230469946Y-272310029D02*
G75*
G02*
X232469946Y-270310029I1999999J1D01*
G01*
X234369946Y-276510029D02*
G75*
G02*
X236369946Y-274510029I1999999J1D01*
G01*
%TO.C,A1*%
X141982446Y-289360029D02*
X147082446Y-289360029D01*
X145882446Y-293560029D02*
X150982446Y-293560029D01*
X139982446Y-291360029D02*
G75*
G02*
X141982446Y-289360029I1999999J1D01*
G01*
X143882446Y-295560029D02*
G75*
G02*
X145882446Y-293560029I1999999J1D01*
G01*
%TO.C,>1*%
X303907446Y-308410029D02*
X309007446Y-308410029D01*
X307807446Y-312610029D02*
X312907446Y-312610029D01*
X301907446Y-310410029D02*
G75*
G02*
X303907446Y-308410029I1999999J1D01*
G01*
X305807446Y-314610029D02*
G75*
G02*
X307807446Y-312610029I1999999J1D01*
G01*
%TO.C,RightAlt1*%
X301526196Y-327460029D02*
X306626196Y-327460029D01*
X305426196Y-331660029D02*
X310526196Y-331660029D01*
X299526196Y-329460029D02*
G75*
G02*
X301526196Y-327460029I1999999J1D01*
G01*
X303426196Y-333660029D02*
G75*
G02*
X305426196Y-331660029I1999999J1D01*
G01*
%TO.C,"="1*%
X337244946Y-251260029D02*
X342344946Y-251260029D01*
X341144946Y-255460029D02*
X346244946Y-255460029D01*
X335244946Y-253260029D02*
G75*
G02*
X337244946Y-251260029I1999999J1D01*
G01*
X339144946Y-257460029D02*
G75*
G02*
X341144946Y-255460029I1999999J1D01*
G01*
%TO.C,"2"1*%
X146744946Y-251260029D02*
X151844946Y-251260029D01*
X150644946Y-255460029D02*
X155744946Y-255460029D01*
X144744946Y-253260029D02*
G75*
G02*
X146744946Y-251260029I1999999J1D01*
G01*
X148644946Y-257460029D02*
G75*
G02*
X150644946Y-255460029I1999999J1D01*
G01*
%TO.C,"7"1*%
X241994946Y-251260029D02*
X247094946Y-251260029D01*
X245894946Y-255460029D02*
X250994946Y-255460029D01*
X239994946Y-253260029D02*
G75*
G02*
X241994946Y-251260029I1999999J1D01*
G01*
X243894946Y-257460029D02*
G75*
G02*
X245894946Y-255460029I1999999J1D01*
G01*
%TO.C,Num8*%
X480119946Y-270310029D02*
X485219946Y-270310029D01*
X484019946Y-274510029D02*
X489119946Y-274510029D01*
X478119946Y-272310029D02*
G75*
G02*
X480119946Y-270310029I1999999J1D01*
G01*
X482019946Y-276510029D02*
G75*
G02*
X484019946Y-274510029I1999999J1D01*
G01*
%TO.C,H1*%
X237232446Y-289360029D02*
X242332446Y-289360029D01*
X241132446Y-293560029D02*
X246232446Y-293560029D01*
X235232446Y-291360029D02*
G75*
G02*
X237232446Y-289360029I1999999J1D01*
G01*
X239132446Y-295560029D02*
G75*
G02*
X241132446Y-293560029I1999999J1D01*
G01*
%TO.C,Enter1*%
X363438696Y-289360029D02*
X368538696Y-289360029D01*
X367338696Y-293560029D02*
X372438696Y-293560029D01*
X361438696Y-291360029D02*
G75*
G02*
X363438696Y-289360029I1999999J1D01*
G01*
X365338696Y-295560029D02*
G75*
G02*
X367338696Y-293560029I1999999J1D01*
G01*
%TO.C,"?"1*%
X322957446Y-308410029D02*
X328057446Y-308410029D01*
X326857446Y-312610029D02*
X331957446Y-312610029D01*
X320957446Y-310410029D02*
G75*
G02*
X322957446Y-308410029I1999999J1D01*
G01*
X324857446Y-314610029D02*
G75*
G02*
X326857446Y-312610029I1999999J1D01*
G01*
%TO.C,U2*%
X251519946Y-270310029D02*
X256619946Y-270310029D01*
X255419946Y-274510029D02*
X260519946Y-274510029D01*
X249519946Y-272310029D02*
G75*
G02*
X251519946Y-270310029I1999999J1D01*
G01*
X253419946Y-276510029D02*
G75*
G02*
X255419946Y-274510029I1999999J1D01*
G01*
%TO.C,Num/1*%
X480119946Y-251260029D02*
X485219946Y-251260029D01*
X484019946Y-255460029D02*
X489119946Y-255460029D01*
X478119946Y-253260029D02*
G75*
G02*
X480119946Y-251260029I1999999J1D01*
G01*
X482019946Y-257460029D02*
G75*
G02*
X484019946Y-255460029I1999999J1D01*
G01*
%TO.C,F2*%
X165794946Y-222685029D02*
X170894946Y-222685029D01*
X169694946Y-226885029D02*
X174794946Y-226885029D01*
X163794946Y-224685029D02*
G75*
G02*
X165794946Y-222685029I1999999J1D01*
G01*
X167694946Y-228885029D02*
G75*
G02*
X169694946Y-226885029I1999999J1D01*
G01*
%TO.C,Num7*%
X461069946Y-270310029D02*
X466169946Y-270310029D01*
X464969946Y-274510029D02*
X470069946Y-274510029D01*
X459069946Y-272310029D02*
G75*
G02*
X461069946Y-270310029I1999999J1D01*
G01*
X462969946Y-276510029D02*
G75*
G02*
X464969946Y-274510029I1999999J1D01*
G01*
%TO.C,UpArrow1*%
X418207446Y-308410029D02*
X423307446Y-308410029D01*
X422107446Y-312610029D02*
X427207446Y-312610029D01*
X416207446Y-310410029D02*
G75*
G02*
X418207446Y-308410029I1999999J1D01*
G01*
X420107446Y-314610029D02*
G75*
G02*
X422107446Y-312610029I1999999J1D01*
G01*
%TO.C,E1*%
X175319946Y-270310029D02*
X180419946Y-270310029D01*
X179219946Y-274510029D02*
X184319946Y-274510029D01*
X173319946Y-272310029D02*
G75*
G02*
X175319946Y-270310029I1999999J1D01*
G01*
X177219946Y-276510029D02*
G75*
G02*
X179219946Y-274510029I1999999J1D01*
G01*
%TO.C,"9"1*%
X280094946Y-251260029D02*
X285194946Y-251260029D01*
X283994946Y-255460029D02*
X289094946Y-255460029D01*
X278094946Y-253260029D02*
G75*
G02*
X280094946Y-251260029I1999999J1D01*
G01*
X281994946Y-257460029D02*
G75*
G02*
X283994946Y-255460029I1999999J1D01*
G01*
%TO.C,LeftAlt1*%
X158651196Y-327460029D02*
X163751196Y-327460029D01*
X162551196Y-331660029D02*
X167651196Y-331660029D01*
X156651196Y-329460029D02*
G75*
G02*
X158651196Y-327460029I1999999J1D01*
G01*
X160551196Y-333660029D02*
G75*
G02*
X162551196Y-331660029I1999999J1D01*
G01*
%TO.C,ESC1*%
X108644946Y-222685029D02*
X113744946Y-222685029D01*
X112544946Y-226885029D02*
X117644946Y-226885029D01*
X106644946Y-224685029D02*
G75*
G02*
X108644946Y-222685029I1999999J1D01*
G01*
X110544946Y-228885029D02*
G75*
G02*
X112544946Y-226885029I1999999J1D01*
G01*
%TO.C,W1*%
X156269946Y-270310029D02*
X161369946Y-270310029D01*
X160169946Y-274510029D02*
X165269946Y-274510029D01*
X154269946Y-272310029D02*
G75*
G02*
X156269946Y-270310029I1999999J1D01*
G01*
X158169946Y-276510029D02*
G75*
G02*
X160169946Y-274510029I1999999J1D01*
G01*
%TO.C,<1*%
X284857446Y-308410029D02*
X289957446Y-308410029D01*
X288757446Y-312610029D02*
X293857446Y-312610029D01*
X282857446Y-310410029D02*
G75*
G02*
X284857446Y-308410029I1999999J1D01*
G01*
X286757446Y-314610029D02*
G75*
G02*
X288757446Y-312610029I1999999J1D01*
G01*
%TO.C,PauseBreak1*%
X437257446Y-222685029D02*
X442357446Y-222685029D01*
X441157446Y-226885029D02*
X446257446Y-226885029D01*
X435257446Y-224685029D02*
G75*
G02*
X437257446Y-222685029I1999999J1D01*
G01*
X439157446Y-228885029D02*
G75*
G02*
X441157446Y-226885029I1999999J1D01*
G01*
%TO.C,M1*%
X265807446Y-308410029D02*
X270907446Y-308410029D01*
X269707446Y-312610029D02*
X274807446Y-312610029D01*
X263807446Y-310410029D02*
G75*
G02*
X265807446Y-308410029I1999999J1D01*
G01*
X267707446Y-314610029D02*
G75*
G02*
X269707446Y-312610029I1999999J1D01*
G01*
%TO.C,Num\u002A1*%
X499169946Y-251260029D02*
X504269946Y-251260029D01*
X503069946Y-255460029D02*
X508169946Y-255460029D01*
X497169946Y-253260029D02*
G75*
G02*
X499169946Y-251260029I1999999J1D01*
G01*
X501069946Y-257460029D02*
G75*
G02*
X503069946Y-255460029I1999999J1D01*
G01*
%TO.C,Num5*%
X480119946Y-289360029D02*
X485219946Y-289360029D01*
X484019946Y-293560029D02*
X489119946Y-293560029D01*
X478119946Y-291360029D02*
G75*
G02*
X480119946Y-289360029I1999999J1D01*
G01*
X482019946Y-295560029D02*
G75*
G02*
X484019946Y-293560029I1999999J1D01*
G01*
%TO.C,Num4*%
X461069946Y-289360029D02*
X466169946Y-289360029D01*
X464969946Y-293560029D02*
X470069946Y-293560029D01*
X459069946Y-291360029D02*
G75*
G02*
X461069946Y-289360029I1999999J1D01*
G01*
X462969946Y-295560029D02*
G75*
G02*
X464969946Y-293560029I1999999J1D01*
G01*
%TO.C,ScrollLock1*%
X418207446Y-222685029D02*
X423307446Y-222685029D01*
X422107446Y-226885029D02*
X427207446Y-226885029D01*
X416207446Y-224685029D02*
G75*
G02*
X418207446Y-222685029I1999999J1D01*
G01*
X420107446Y-228885029D02*
G75*
G02*
X422107446Y-226885029I1999999J1D01*
G01*
%TO.C,DownArrow1*%
X418207446Y-327460029D02*
X423307446Y-327460029D01*
X422107446Y-331660029D02*
X427207446Y-331660029D01*
X416207446Y-329460029D02*
G75*
G02*
X418207446Y-327460029I1999999J1D01*
G01*
X420107446Y-333660029D02*
G75*
G02*
X422107446Y-331660029I1999999J1D01*
G01*
%TO.C,V1*%
X208657446Y-308410029D02*
X213757446Y-308410029D01*
X212557446Y-312610029D02*
X217657446Y-312610029D01*
X206657446Y-310410029D02*
G75*
G02*
X208657446Y-308410029I1999999J1D01*
G01*
X210557446Y-314610029D02*
G75*
G02*
X212557446Y-312610029I1999999J1D01*
G01*
%TO.C,R4*%
X194369946Y-270310029D02*
X199469946Y-270310029D01*
X198269946Y-274510029D02*
X203369946Y-274510029D01*
X192369946Y-272310029D02*
G75*
G02*
X194369946Y-270310029I1999999J1D01*
G01*
X196269946Y-276510029D02*
G75*
G02*
X198269946Y-274510029I1999999J1D01*
G01*
%TO.C,Num1*%
X461069946Y-308410029D02*
X466169946Y-308410029D01*
X464969946Y-312610029D02*
X470069946Y-312610029D01*
X459069946Y-310410029D02*
G75*
G02*
X461069946Y-308410029I1999999J1D01*
G01*
X462969946Y-314610029D02*
G75*
G02*
X464969946Y-312610029I1999999J1D01*
G01*
%TO.C,X1*%
X170557446Y-308410029D02*
X175657446Y-308410029D01*
X174457446Y-312610029D02*
X179557446Y-312610029D01*
X168557446Y-310410029D02*
G75*
G02*
X170557446Y-308410029I1999999J1D01*
G01*
X172457446Y-314610029D02*
G75*
G02*
X174457446Y-312610029I1999999J1D01*
G01*
%TO.C,Num0*%
X470594946Y-327460029D02*
X475694946Y-327460029D01*
X474494946Y-331660029D02*
X479594946Y-331660029D01*
X468594946Y-329460029D02*
G75*
G02*
X470594946Y-327460029I1999999J1D01*
G01*
X472494946Y-333660029D02*
G75*
G02*
X474494946Y-331660029I1999999J1D01*
G01*
%TO.C,Tab1*%
X113407446Y-270310029D02*
X118507446Y-270310029D01*
X117307446Y-274510029D02*
X122407446Y-274510029D01*
X111407446Y-272310029D02*
G75*
G02*
X113407446Y-270310029I1999999J1D01*
G01*
X115307446Y-276510029D02*
G75*
G02*
X117307446Y-274510029I1999999J1D01*
G01*
%TO.C,CapsLock1*%
X115788696Y-289360029D02*
X120888696Y-289360029D01*
X119688696Y-293560029D02*
X124788696Y-293560029D01*
X113788696Y-291360029D02*
G75*
G02*
X115788696Y-289360029I1999999J1D01*
G01*
X117688696Y-295560029D02*
G75*
G02*
X119688696Y-293560029I1999999J1D01*
G01*
%TO.C,PrtSc1*%
X399157446Y-222685029D02*
X404257446Y-222685029D01*
X403057446Y-226885029D02*
X408157446Y-226885029D01*
X397157446Y-224685029D02*
G75*
G02*
X399157446Y-222685029I1999999J1D01*
G01*
X401057446Y-228885029D02*
G75*
G02*
X403057446Y-226885029I1999999J1D01*
G01*
%TO.C,F6*%
X251469946Y-222685029D02*
X256569946Y-222685029D01*
X255369946Y-226885029D02*
X260469946Y-226885029D01*
X249469946Y-224685029D02*
G75*
G02*
X251469946Y-222685029I1999999J1D01*
G01*
X253369946Y-228885029D02*
G75*
G02*
X255369946Y-226885029I1999999J1D01*
G01*
%TO.C,Insert1*%
X399157446Y-251260029D02*
X404257446Y-251260029D01*
X403057446Y-255460029D02*
X408157446Y-255460029D01*
X397157446Y-253260029D02*
G75*
G02*
X399157446Y-251260029I1999999J1D01*
G01*
X401057446Y-257460029D02*
G75*
G02*
X403057446Y-255460029I1999999J1D01*
G01*
%TO.C,LeftControl1*%
X111026196Y-327460029D02*
X116126196Y-327460029D01*
X114926196Y-331660029D02*
X120026196Y-331660029D01*
X109026196Y-329460029D02*
G75*
G02*
X111026196Y-327460029I1999999J1D01*
G01*
X112926196Y-333660029D02*
G75*
G02*
X114926196Y-331660029I1999999J1D01*
G01*
%TO.C,N1*%
X246757446Y-308410029D02*
X251857446Y-308410029D01*
X250657446Y-312610029D02*
X255757446Y-312610029D01*
X244757446Y-310410029D02*
G75*
G02*
X246757446Y-308410029I1999999J1D01*
G01*
X248657446Y-314610029D02*
G75*
G02*
X250657446Y-312610029I1999999J1D01*
G01*
%TO.C,F12*%
X375324946Y-222685029D02*
X380424946Y-222685029D01*
X379224946Y-226885029D02*
X384324946Y-226885029D01*
X373324946Y-224685029D02*
G75*
G02*
X375324946Y-222685029I1999999J1D01*
G01*
X377224946Y-228885029D02*
G75*
G02*
X379224946Y-226885029I1999999J1D01*
G01*
%TO.C,RightArrow1*%
X437257446Y-327460029D02*
X442357446Y-327460029D01*
X441157446Y-331660029D02*
X446257446Y-331660029D01*
X435257446Y-329460029D02*
G75*
G02*
X437257446Y-327460029I1999999J1D01*
G01*
X439157446Y-333660029D02*
G75*
G02*
X441157446Y-331660029I1999999J1D01*
G01*
%TO.C,NumLock1*%
X461069946Y-251260029D02*
X466169946Y-251260029D01*
X464969946Y-255460029D02*
X470069946Y-255460029D01*
X459069946Y-253260029D02*
G75*
G02*
X461069946Y-251260029I1999999J1D01*
G01*
X462969946Y-257460029D02*
G75*
G02*
X464969946Y-255460029I1999999J1D01*
G01*
%TO.C,S1*%
X161032446Y-289360029D02*
X166132446Y-289360029D01*
X164932446Y-293560029D02*
X170032446Y-293560029D01*
X159032446Y-291360029D02*
G75*
G02*
X161032446Y-289360029I1999999J1D01*
G01*
X162932446Y-295560029D02*
G75*
G02*
X164932446Y-293560029I1999999J1D01*
G01*
%TO.C,C1*%
X189607446Y-308410029D02*
X194707446Y-308410029D01*
X193507446Y-312610029D02*
X198607446Y-312610029D01*
X187607446Y-310410029D02*
G75*
G02*
X189607446Y-308410029I1999999J1D01*
G01*
X191507446Y-314610029D02*
G75*
G02*
X193507446Y-312610029I1999999J1D01*
G01*
D10*
%TO.C,D93*%
X141561246Y-335496529D02*
X142111246Y-335496529D01*
X141711246Y-334896529D02*
X142511246Y-334896529D01*
X142111246Y-334396529D02*
X142111246Y-334896529D01*
X142111246Y-335496529D02*
X141711246Y-334896529D01*
X142111246Y-335496529D02*
X142111246Y-335896529D01*
X142511246Y-334896529D02*
X142111246Y-335496529D01*
X142661246Y-335496529D02*
X142111246Y-335496529D01*
%TO.C,D20*%
X172515546Y-259238729D02*
X173065546Y-259238729D01*
X172665546Y-258638729D02*
X173465546Y-258638729D01*
X173065546Y-258138729D02*
X173065546Y-258638729D01*
X173065546Y-259238729D02*
X172665546Y-258638729D01*
X173065546Y-259238729D02*
X173065546Y-259638729D01*
X173465546Y-258638729D02*
X173065546Y-259238729D01*
X173615546Y-259238729D02*
X173065546Y-259238729D01*
%TO.C,D77*%
X177277746Y-316447729D02*
X177827746Y-316447729D01*
X177427746Y-315847729D02*
X178227746Y-315847729D01*
X177827746Y-315347729D02*
X177827746Y-315847729D01*
X177827746Y-316447729D02*
X177427746Y-315847729D01*
X177827746Y-316447729D02*
X177827746Y-316847729D01*
X178227746Y-315847729D02*
X177827746Y-316447729D01*
X178377746Y-316447729D02*
X177827746Y-316447729D01*
%TO.C,D51*%
X377290146Y-278287529D02*
X377840146Y-278287529D01*
X377440146Y-277687529D02*
X378240146Y-277687529D01*
X377840146Y-277187529D02*
X377840146Y-277687529D01*
X377840146Y-278287529D02*
X377440146Y-277687529D01*
X377840146Y-278287529D02*
X377840146Y-278687529D01*
X378240146Y-277687529D02*
X377840146Y-278287529D01*
X378390146Y-278287529D02*
X377840146Y-278287529D01*
%TO.C,D45*%
X258235146Y-278287529D02*
X258785146Y-278287529D01*
X258385146Y-277687529D02*
X259185146Y-277687529D01*
X258785146Y-277187529D02*
X258785146Y-277687529D01*
X258785146Y-278287529D02*
X258385146Y-277687529D01*
X258785146Y-278287529D02*
X258785146Y-278687529D01*
X259185146Y-277687529D02*
X258785146Y-278287529D01*
X259335146Y-278287529D02*
X258785146Y-278287529D01*
%TO.C,D81*%
X253472946Y-316447729D02*
X254022946Y-316447729D01*
X253622946Y-315847729D02*
X254422946Y-315847729D01*
X254022946Y-315347729D02*
X254022946Y-315847729D01*
X254022946Y-316447729D02*
X253622946Y-315847729D01*
X254022946Y-316447729D02*
X254022946Y-316847729D01*
X254422946Y-315847729D02*
X254022946Y-316447729D01*
X254572946Y-316447729D02*
X254022946Y-316447729D01*
%TO.C,D30*%
X372527946Y-259238729D02*
X373077946Y-259238729D01*
X372677946Y-258638729D02*
X373477946Y-258638729D01*
X373077946Y-258138729D02*
X373077946Y-258638729D01*
X373077946Y-259238729D02*
X372677946Y-258638729D01*
X373077946Y-259238729D02*
X373077946Y-259638729D01*
X373477946Y-258638729D02*
X373077946Y-259238729D01*
X373627946Y-259238729D02*
X373077946Y-259238729D01*
%TO.C,D95*%
X236805246Y-335496529D02*
X237355246Y-335496529D01*
X236955246Y-334896529D02*
X237755246Y-334896529D01*
X237355246Y-334396529D02*
X237355246Y-334896529D01*
X237355246Y-335496529D02*
X236955246Y-334896529D01*
X237355246Y-335496529D02*
X237355246Y-335896529D01*
X237755246Y-334896529D02*
X237355246Y-335496529D01*
X237905246Y-335496529D02*
X237355246Y-335496529D01*
%TO.C,D53*%
X424912146Y-278287529D02*
X425462146Y-278287529D01*
X425062146Y-277687529D02*
X425862146Y-277687529D01*
X425462146Y-277187529D02*
X425462146Y-277687529D01*
X425462146Y-278287529D02*
X425062146Y-277687529D01*
X425462146Y-278287529D02*
X425462146Y-278687529D01*
X425862146Y-277687529D02*
X425462146Y-278287529D01*
X426012146Y-278287529D02*
X425462146Y-278287529D01*
%TO.C,D86*%
X365384646Y-316447729D02*
X365934646Y-316447729D01*
X365534646Y-315847729D02*
X366334646Y-315847729D01*
X365934646Y-315347729D02*
X365934646Y-315847729D01*
X365934646Y-316447729D02*
X365534646Y-315847729D01*
X365934646Y-316447729D02*
X365934646Y-316847729D01*
X366334646Y-315847729D02*
X365934646Y-316447729D01*
X366484646Y-316447729D02*
X365934646Y-316447729D01*
%TO.C,D50*%
X353479146Y-278287529D02*
X354029146Y-278287529D01*
X353629146Y-277687529D02*
X354429146Y-277687529D01*
X354029146Y-277187529D02*
X354029146Y-277687529D01*
X354029146Y-278287529D02*
X353629146Y-277687529D01*
X354029146Y-278287529D02*
X354029146Y-278687529D01*
X354429146Y-277687529D02*
X354029146Y-278287529D01*
X354579146Y-278287529D02*
X354029146Y-278287529D01*
%TO.C,D70*%
X339192546Y-297336329D02*
X339742546Y-297336329D01*
X339342546Y-296736329D02*
X340142546Y-296736329D01*
X339742546Y-296236329D02*
X339742546Y-296736329D01*
X339742546Y-297336329D02*
X339342546Y-296736329D01*
X339742546Y-297336329D02*
X339742546Y-297736329D01*
X340142546Y-296736329D02*
X339742546Y-297336329D01*
X340292546Y-297336329D02*
X339742546Y-297336329D01*
%TO.C,D71*%
X370146846Y-297336329D02*
X370696846Y-297336329D01*
X370296846Y-296736329D02*
X371096846Y-296736329D01*
X370696846Y-296236329D02*
X370696846Y-296736329D01*
X370696846Y-297336329D02*
X370296846Y-296736329D01*
X370696846Y-297336329D02*
X370696846Y-297736329D01*
X371096846Y-296736329D02*
X370696846Y-297336329D01*
X371246846Y-297336329D02*
X370696846Y-297336329D01*
%TO.C,D91*%
X524918346Y-325972129D02*
X525468346Y-325972129D01*
X525068346Y-325372129D02*
X525868346Y-325372129D01*
X525468346Y-324872129D02*
X525468346Y-325372129D01*
X525468346Y-325972129D02*
X525068346Y-325372129D01*
X525468346Y-325972129D02*
X525468346Y-326372129D01*
X525868346Y-325372129D02*
X525468346Y-325972129D01*
X526018346Y-325972129D02*
X525468346Y-325972129D01*
%TO.C,D85*%
X329668146Y-316447729D02*
X330218146Y-316447729D01*
X329818146Y-315847729D02*
X330618146Y-315847729D01*
X330218146Y-315347729D02*
X330218146Y-315847729D01*
X330218146Y-316447729D02*
X329818146Y-315847729D01*
X330218146Y-316447729D02*
X330218146Y-316847729D01*
X330618146Y-315847729D02*
X330218146Y-316447729D01*
X330768146Y-316447729D02*
X330218146Y-316447729D01*
%TO.C,D2*%
X153466746Y-230665529D02*
X154016746Y-230665529D01*
X153616746Y-230065529D02*
X154416746Y-230065529D01*
X154016746Y-229565529D02*
X154016746Y-230065529D01*
X154016746Y-230665529D02*
X153616746Y-230065529D01*
X154016746Y-230665529D02*
X154016746Y-231065529D01*
X154416746Y-230065529D02*
X154016746Y-230665529D01*
X154566746Y-230665529D02*
X154016746Y-230665529D01*
%TO.C,D27*%
X305857146Y-259301329D02*
X306407146Y-259301329D01*
X306007146Y-258701329D02*
X306807146Y-258701329D01*
X306407146Y-258201329D02*
X306407146Y-258701329D01*
X306407146Y-259301329D02*
X306007146Y-258701329D01*
X306407146Y-259301329D02*
X306407146Y-259701329D01*
X306807146Y-258701329D02*
X306407146Y-259301329D01*
X306957146Y-259301329D02*
X306407146Y-259301329D01*
%TO.C,D66*%
X262997346Y-297336329D02*
X263547346Y-297336329D01*
X263147346Y-296736329D02*
X263947346Y-296736329D01*
X263547346Y-296236329D02*
X263547346Y-296736329D01*
X263547346Y-297336329D02*
X263147346Y-296736329D01*
X263547346Y-297336329D02*
X263547346Y-297736329D01*
X263947346Y-296736329D02*
X263547346Y-297336329D01*
X264097346Y-297336329D02*
X263547346Y-297336329D01*
%TO.C,D90*%
X505869546Y-316447729D02*
X506419546Y-316447729D01*
X506019546Y-315847729D02*
X506819546Y-315847729D01*
X506419546Y-315347729D02*
X506419546Y-315847729D01*
X506419546Y-316447729D02*
X506019546Y-315847729D01*
X506419546Y-316447729D02*
X506419546Y-316847729D01*
X506819546Y-315847729D02*
X506419546Y-316447729D01*
X506969546Y-316447729D02*
X506419546Y-316447729D01*
%TO.C,D9*%
X296332746Y-230728129D02*
X296882746Y-230728129D01*
X296482746Y-230128129D02*
X297282746Y-230128129D01*
X296882746Y-229628129D02*
X296882746Y-230128129D01*
X296882746Y-230728129D02*
X296482746Y-230128129D01*
X296882746Y-230728129D02*
X296882746Y-231128129D01*
X297282746Y-230128129D02*
X296882746Y-230728129D01*
X297432746Y-230728129D02*
X296882746Y-230728129D01*
%TO.C,D14*%
X424912146Y-230665529D02*
X425462146Y-230665529D01*
X425062146Y-230065529D02*
X425862146Y-230065529D01*
X425462146Y-229565529D02*
X425462146Y-230065529D01*
X425462146Y-230665529D02*
X425062146Y-230065529D01*
X425462146Y-230665529D02*
X425462146Y-231065529D01*
X425862146Y-230065529D02*
X425462146Y-230665529D01*
X426012146Y-230665529D02*
X425462146Y-230665529D01*
%TO.C,D92*%
X117750246Y-335496529D02*
X118300246Y-335496529D01*
X117900246Y-334896529D02*
X118700246Y-334896529D01*
X118300246Y-334396529D02*
X118300246Y-334896529D01*
X118300246Y-335496529D02*
X117900246Y-334896529D01*
X118300246Y-335496529D02*
X118300246Y-335896529D01*
X118700246Y-334896529D02*
X118300246Y-335496529D01*
X118850246Y-335496529D02*
X118300246Y-335496529D01*
%TO.C,D5*%
X210613146Y-230728129D02*
X211163146Y-230728129D01*
X210763146Y-230128129D02*
X211563146Y-230128129D01*
X211163146Y-229628129D02*
X211163146Y-230128129D01*
X211163146Y-230728129D02*
X210763146Y-230128129D01*
X211163146Y-230728129D02*
X211163146Y-231128129D01*
X211563146Y-230128129D02*
X211163146Y-230728129D01*
X211713146Y-230728129D02*
X211163146Y-230728129D01*
%TO.C,D47*%
X296332746Y-278287529D02*
X296882746Y-278287529D01*
X296482746Y-277687529D02*
X297282746Y-277687529D01*
X296882746Y-277187529D02*
X296882746Y-277687529D01*
X296882746Y-278287529D02*
X296482746Y-277687529D01*
X296882746Y-278287529D02*
X296882746Y-278687529D01*
X297282746Y-277687529D02*
X296882746Y-278287529D01*
X297432746Y-278287529D02*
X296882746Y-278287529D01*
%TO.C,D35*%
X486820746Y-259301329D02*
X487370746Y-259301329D01*
X486970746Y-258701329D02*
X487770746Y-258701329D01*
X487370746Y-258201329D02*
X487370746Y-258701329D01*
X487370746Y-259301329D02*
X486970746Y-258701329D01*
X487370746Y-259301329D02*
X487370746Y-259701329D01*
X487770746Y-258701329D02*
X487370746Y-259301329D01*
X487920746Y-259301329D02*
X487370746Y-259301329D01*
%TO.C,D65*%
X243948546Y-297398929D02*
X244498546Y-297398929D01*
X244098546Y-296798929D02*
X244898546Y-296798929D01*
X244498546Y-296298929D02*
X244498546Y-296798929D01*
X244498546Y-297398929D02*
X244098546Y-296798929D01*
X244498546Y-297398929D02*
X244498546Y-297798929D01*
X244898546Y-296798929D02*
X244498546Y-297398929D01*
X245048546Y-297398929D02*
X244498546Y-297398929D01*
%TO.C,D96*%
X308238246Y-335496529D02*
X308788246Y-335496529D01*
X308388246Y-334896529D02*
X309188246Y-334896529D01*
X308788246Y-334396529D02*
X308788246Y-334896529D01*
X308788246Y-335496529D02*
X308388246Y-334896529D01*
X308788246Y-335496529D02*
X308788246Y-335896529D01*
X309188246Y-334896529D02*
X308788246Y-335496529D01*
X309338246Y-335496529D02*
X308788246Y-335496529D01*
%TO.C,D28*%
X324905946Y-259301329D02*
X325455946Y-259301329D01*
X325055946Y-258701329D02*
X325855946Y-258701329D01*
X325455946Y-258201329D02*
X325455946Y-258701329D01*
X325455946Y-259301329D02*
X325055946Y-258701329D01*
X325455946Y-259301329D02*
X325455946Y-259701329D01*
X325855946Y-258701329D02*
X325455946Y-259301329D01*
X326005946Y-259301329D02*
X325455946Y-259301329D01*
%TO.C,D73*%
X505869546Y-297398929D02*
X506419546Y-297398929D01*
X506019546Y-296798929D02*
X506819546Y-296798929D01*
X506419546Y-296298929D02*
X506419546Y-296798929D01*
X506419546Y-297398929D02*
X506019546Y-296798929D01*
X506419546Y-297398929D02*
X506419546Y-297798929D01*
X506819546Y-296798929D02*
X506419546Y-297398929D01*
X506969546Y-297398929D02*
X506419546Y-297398929D01*
%TO.C,D8*%
X277283946Y-230728129D02*
X277833946Y-230728129D01*
X277433946Y-230128129D02*
X278233946Y-230128129D01*
X277833946Y-229628129D02*
X277833946Y-230128129D01*
X277833946Y-230728129D02*
X277433946Y-230128129D01*
X277833946Y-230728129D02*
X277833946Y-231128129D01*
X278233946Y-230128129D02*
X277833946Y-230728129D01*
X278383946Y-230728129D02*
X277833946Y-230728129D01*
%TO.C,D33*%
X443960946Y-259301329D02*
X444510946Y-259301329D01*
X444110946Y-258701329D02*
X444910946Y-258701329D01*
X444510946Y-258201329D02*
X444510946Y-258701329D01*
X444510946Y-259301329D02*
X444110946Y-258701329D01*
X444510946Y-259301329D02*
X444510946Y-259701329D01*
X444910946Y-258701329D02*
X444510946Y-259301329D01*
X445060946Y-259301329D02*
X444510946Y-259301329D01*
%TO.C,D24*%
X248710746Y-259301329D02*
X249260746Y-259301329D01*
X248860746Y-258701329D02*
X249660746Y-258701329D01*
X249260746Y-258201329D02*
X249260746Y-258701329D01*
X249260746Y-259301329D02*
X248860746Y-258701329D01*
X249260746Y-259301329D02*
X249260746Y-259701329D01*
X249660746Y-258701329D02*
X249260746Y-259301329D01*
X249810746Y-259301329D02*
X249260746Y-259301329D01*
%TO.C,D36*%
X505869546Y-259363929D02*
X506419546Y-259363929D01*
X506019546Y-258763929D02*
X506819546Y-258763929D01*
X506419546Y-258263929D02*
X506419546Y-258763929D01*
X506419546Y-259363929D02*
X506019546Y-258763929D01*
X506419546Y-259363929D02*
X506419546Y-259763929D01*
X506819546Y-258763929D02*
X506419546Y-259363929D01*
X506969546Y-259363929D02*
X506419546Y-259363929D01*
%TO.C,D75*%
X127274646Y-316447729D02*
X127824646Y-316447729D01*
X127424646Y-315847729D02*
X128224646Y-315847729D01*
X127824646Y-315347729D02*
X127824646Y-315847729D01*
X127824646Y-316447729D02*
X127424646Y-315847729D01*
X127824646Y-316447729D02*
X127824646Y-316847729D01*
X128224646Y-315847729D02*
X127824646Y-316447729D01*
X128374646Y-316447729D02*
X127824646Y-316447729D01*
%TO.C,D13*%
X405863346Y-230728129D02*
X406413346Y-230728129D01*
X406013346Y-230128129D02*
X406813346Y-230128129D01*
X406413346Y-229628129D02*
X406413346Y-230128129D01*
X406413346Y-230728129D02*
X406013346Y-230128129D01*
X406413346Y-230728129D02*
X406413346Y-231128129D01*
X406813346Y-230128129D02*
X406413346Y-230728129D01*
X406963346Y-230728129D02*
X406413346Y-230728129D01*
%TO.C,D54*%
X443960946Y-278350129D02*
X444510946Y-278350129D01*
X444110946Y-277750129D02*
X444910946Y-277750129D01*
X444510946Y-277250129D02*
X444510946Y-277750129D01*
X444510946Y-278350129D02*
X444110946Y-277750129D01*
X444510946Y-278350129D02*
X444510946Y-278750129D01*
X444910946Y-277750129D02*
X444510946Y-278350129D01*
X445060946Y-278350129D02*
X444510946Y-278350129D01*
%TO.C,D76*%
X158228946Y-316447729D02*
X158778946Y-316447729D01*
X158378946Y-315847729D02*
X159178946Y-315847729D01*
X158778946Y-315347729D02*
X158778946Y-315847729D01*
X158778946Y-316447729D02*
X158378946Y-315847729D01*
X158778946Y-316447729D02*
X158778946Y-316847729D01*
X159178946Y-315847729D02*
X158778946Y-316447729D01*
X159328946Y-316447729D02*
X158778946Y-316447729D01*
%TO.C,D88*%
X467771946Y-316385129D02*
X468321946Y-316385129D01*
X467921946Y-315785129D02*
X468721946Y-315785129D01*
X468321946Y-315285129D02*
X468321946Y-315785129D01*
X468321946Y-316385129D02*
X467921946Y-315785129D01*
X468321946Y-316385129D02*
X468321946Y-316785129D01*
X468721946Y-315785129D02*
X468321946Y-316385129D01*
X468871946Y-316385129D02*
X468321946Y-316385129D01*
%TO.C,D94*%
X165372246Y-335496529D02*
X165922246Y-335496529D01*
X165522246Y-334896529D02*
X166322246Y-334896529D01*
X165922246Y-334396529D02*
X165922246Y-334896529D01*
X165922246Y-335496529D02*
X165522246Y-334896529D01*
X165922246Y-335496529D02*
X165922246Y-335896529D01*
X166322246Y-334896529D02*
X165922246Y-335496529D01*
X166472246Y-335496529D02*
X165922246Y-335496529D01*
%TO.C,D68*%
X301094946Y-297336329D02*
X301644946Y-297336329D01*
X301244946Y-296736329D02*
X302044946Y-296736329D01*
X301644946Y-296236329D02*
X301644946Y-296736329D01*
X301644946Y-297336329D02*
X301244946Y-296736329D01*
X301644946Y-297336329D02*
X301644946Y-297736329D01*
X302044946Y-296736329D02*
X301644946Y-297336329D01*
X302194946Y-297336329D02*
X301644946Y-297336329D01*
%TO.C,D21*%
X191564346Y-259238729D02*
X192114346Y-259238729D01*
X191714346Y-258638729D02*
X192514346Y-258638729D01*
X192114346Y-258138729D02*
X192114346Y-258638729D01*
X192114346Y-259238729D02*
X191714346Y-258638729D01*
X192114346Y-259238729D02*
X192114346Y-259638729D01*
X192514346Y-258638729D02*
X192114346Y-259238729D01*
X192664346Y-259238729D02*
X192114346Y-259238729D01*
%TO.C,D42*%
X201088746Y-278350129D02*
X201638746Y-278350129D01*
X201238746Y-277750129D02*
X202038746Y-277750129D01*
X201638746Y-277250129D02*
X201638746Y-277750129D01*
X201638746Y-278350129D02*
X201238746Y-277750129D01*
X201638746Y-278350129D02*
X201638746Y-278750129D01*
X202038746Y-277750129D02*
X201638746Y-278350129D01*
X202188746Y-278350129D02*
X201638746Y-278350129D01*
%TO.C,D22*%
X210613146Y-259238729D02*
X211163146Y-259238729D01*
X210763146Y-258638729D02*
X211563146Y-258638729D01*
X211163146Y-258138729D02*
X211163146Y-258638729D01*
X211163146Y-259238729D02*
X210763146Y-258638729D01*
X211163146Y-259238729D02*
X211163146Y-259638729D01*
X211563146Y-258638729D02*
X211163146Y-259238729D01*
X211713146Y-259238729D02*
X211163146Y-259238729D01*
%TO.C,D43*%
X220137546Y-278287529D02*
X220687546Y-278287529D01*
X220287546Y-277687529D02*
X221087546Y-277687529D01*
X220687546Y-277187529D02*
X220687546Y-277687529D01*
X220687546Y-278287529D02*
X220287546Y-277687529D01*
X220687546Y-278287529D02*
X220687546Y-278687529D01*
X221087546Y-277687529D02*
X220687546Y-278287529D01*
X221237546Y-278287529D02*
X220687546Y-278287529D01*
%TO.C,D23*%
X229661946Y-259301329D02*
X230211946Y-259301329D01*
X229811946Y-258701329D02*
X230611946Y-258701329D01*
X230211946Y-258201329D02*
X230211946Y-258701329D01*
X230211946Y-259301329D02*
X229811946Y-258701329D01*
X230211946Y-259301329D02*
X230211946Y-259701329D01*
X230611946Y-258701329D02*
X230211946Y-259301329D01*
X230761946Y-259301329D02*
X230211946Y-259301329D01*
%TO.C,D78*%
X196326546Y-316447729D02*
X196876546Y-316447729D01*
X196476546Y-315847729D02*
X197276546Y-315847729D01*
X196876546Y-315347729D02*
X196876546Y-315847729D01*
X196876546Y-316447729D02*
X196476546Y-315847729D01*
X196876546Y-316447729D02*
X196876546Y-316847729D01*
X197276546Y-315847729D02*
X196876546Y-316447729D01*
X197426546Y-316447729D02*
X196876546Y-316447729D01*
%TO.C,D39*%
X143942346Y-278287529D02*
X144492346Y-278287529D01*
X144092346Y-277687529D02*
X144892346Y-277687529D01*
X144492346Y-277187529D02*
X144492346Y-277687529D01*
X144492346Y-278287529D02*
X144092346Y-277687529D01*
X144492346Y-278287529D02*
X144492346Y-278687529D01*
X144892346Y-277687529D02*
X144492346Y-278287529D01*
X145042346Y-278287529D02*
X144492346Y-278287529D01*
%TO.C,D16*%
X382052346Y-230728129D02*
X382602346Y-230728129D01*
X382202346Y-230128129D02*
X383002346Y-230128129D01*
X382602346Y-229628129D02*
X382602346Y-230128129D01*
X382602346Y-230728129D02*
X382202346Y-230128129D01*
X382602346Y-230728129D02*
X382602346Y-231128129D01*
X383002346Y-230128129D02*
X382602346Y-230728129D01*
X383152346Y-230728129D02*
X382602346Y-230728129D01*
%TO.C,D56*%
X486820746Y-278350129D02*
X487370746Y-278350129D01*
X486970746Y-277750129D02*
X487770746Y-277750129D01*
X487370746Y-277250129D02*
X487370746Y-277750129D01*
X487370746Y-278350129D02*
X486970746Y-277750129D01*
X487370746Y-278350129D02*
X487370746Y-278750129D01*
X487770746Y-277750129D02*
X487370746Y-278350129D01*
X487920746Y-278350129D02*
X487370746Y-278350129D01*
%TO.C,D46*%
X277283946Y-278350129D02*
X277833946Y-278350129D01*
X277433946Y-277750129D02*
X278233946Y-277750129D01*
X277833946Y-277250129D02*
X277833946Y-277750129D01*
X277833946Y-278350129D02*
X277433946Y-277750129D01*
X277833946Y-278350129D02*
X277833946Y-278750129D01*
X278233946Y-277750129D02*
X277833946Y-278350129D01*
X278383946Y-278350129D02*
X277833946Y-278350129D01*
%TO.C,D74*%
X467771946Y-297398929D02*
X468321946Y-297398929D01*
X467921946Y-296798929D02*
X468721946Y-296798929D01*
X468321946Y-296298929D02*
X468321946Y-296798929D01*
X468321946Y-297398929D02*
X467921946Y-296798929D01*
X468321946Y-297398929D02*
X468321946Y-297798929D01*
X468721946Y-296798929D02*
X468321946Y-297398929D01*
X468871946Y-297398929D02*
X468321946Y-297398929D01*
%TO.C,D34*%
X467771946Y-259301329D02*
X468321946Y-259301329D01*
X467921946Y-258701329D02*
X468721946Y-258701329D01*
X468321946Y-258201329D02*
X468321946Y-258701329D01*
X468321946Y-259301329D02*
X467921946Y-258701329D01*
X468321946Y-259301329D02*
X468321946Y-259701329D01*
X468721946Y-258701329D02*
X468321946Y-259301329D01*
X468871946Y-259301329D02*
X468321946Y-259301329D01*
%TO.C,D3*%
X172515546Y-230665529D02*
X173065546Y-230665529D01*
X172665546Y-230065529D02*
X173465546Y-230065529D01*
X173065546Y-229565529D02*
X173065546Y-230065529D01*
X173065546Y-230665529D02*
X172665546Y-230065529D01*
X173065546Y-230665529D02*
X173065546Y-231065529D01*
X173465546Y-230065529D02*
X173065546Y-230665529D01*
X173615546Y-230665529D02*
X173065546Y-230665529D01*
%TO.C,D25*%
X267759546Y-259238729D02*
X268309546Y-259238729D01*
X267909546Y-258638729D02*
X268709546Y-258638729D01*
X268309546Y-258138729D02*
X268309546Y-258638729D01*
X268309546Y-259238729D02*
X267909546Y-258638729D01*
X268309546Y-259238729D02*
X268309546Y-259638729D01*
X268709546Y-258638729D02*
X268309546Y-259238729D01*
X268859546Y-259238729D02*
X268309546Y-259238729D01*
%TO.C,D1*%
X115369146Y-230728129D02*
X115919146Y-230728129D01*
X115519146Y-230128129D02*
X116319146Y-230128129D01*
X115919146Y-229628129D02*
X115919146Y-230128129D01*
X115919146Y-230728129D02*
X115519146Y-230128129D01*
X115919146Y-230728129D02*
X115919146Y-231128129D01*
X116319146Y-230128129D02*
X115919146Y-230728129D01*
X116469146Y-230728129D02*
X115919146Y-230728129D01*
%TO.C,D11*%
X343954746Y-230728129D02*
X344504746Y-230728129D01*
X344104746Y-230128129D02*
X344904746Y-230128129D01*
X344504746Y-229628129D02*
X344504746Y-230128129D01*
X344504746Y-230728129D02*
X344104746Y-230128129D01*
X344504746Y-230728129D02*
X344504746Y-231128129D01*
X344904746Y-230128129D02*
X344504746Y-230728129D01*
X345054746Y-230728129D02*
X344504746Y-230728129D01*
%TO.C,D79*%
X215375346Y-316447729D02*
X215925346Y-316447729D01*
X215525346Y-315847729D02*
X216325346Y-315847729D01*
X215925346Y-315347729D02*
X215925346Y-315847729D01*
X215925346Y-316447729D02*
X215525346Y-315847729D01*
X215925346Y-316447729D02*
X215925346Y-316847729D01*
X216325346Y-315847729D02*
X215925346Y-316447729D01*
X216475346Y-316447729D02*
X215925346Y-316447729D01*
%TO.C,D67*%
X282046146Y-297398929D02*
X282596146Y-297398929D01*
X282196146Y-296798929D02*
X282996146Y-296798929D01*
X282596146Y-296298929D02*
X282596146Y-296798929D01*
X282596146Y-297398929D02*
X282196146Y-296798929D01*
X282596146Y-297398929D02*
X282596146Y-297798929D01*
X282996146Y-296798929D02*
X282596146Y-297398929D01*
X283146146Y-297398929D02*
X282596146Y-297398929D01*
%TO.C,D101*%
X424912146Y-335433929D02*
X425462146Y-335433929D01*
X425062146Y-334833929D02*
X425862146Y-334833929D01*
X425462146Y-334333929D02*
X425462146Y-334833929D01*
X425462146Y-335433929D02*
X425062146Y-334833929D01*
X425462146Y-335433929D02*
X425462146Y-335833929D01*
X425862146Y-334833929D02*
X425462146Y-335433929D01*
X426012146Y-335433929D02*
X425462146Y-335433929D01*
%TO.C,D102*%
X443960946Y-335496529D02*
X444510946Y-335496529D01*
X444110946Y-334896529D02*
X444910946Y-334896529D01*
X444510946Y-334396529D02*
X444510946Y-334896529D01*
X444510946Y-335496529D02*
X444110946Y-334896529D01*
X444510946Y-335496529D02*
X444510946Y-335896529D01*
X444910946Y-334896529D02*
X444510946Y-335496529D01*
X445060946Y-335496529D02*
X444510946Y-335496529D01*
%TO.C,D44*%
X239186346Y-278287529D02*
X239736346Y-278287529D01*
X239336346Y-277687529D02*
X240136346Y-277687529D01*
X239736346Y-277187529D02*
X239736346Y-277687529D01*
X239736346Y-278287529D02*
X239336346Y-277687529D01*
X239736346Y-278287529D02*
X239736346Y-278687529D01*
X240136346Y-277687529D02*
X239736346Y-278287529D01*
X240286346Y-278287529D02*
X239736346Y-278287529D01*
%TO.C,D52*%
X405863346Y-278287529D02*
X406413346Y-278287529D01*
X406013346Y-277687529D02*
X406813346Y-277687529D01*
X406413346Y-277187529D02*
X406413346Y-277687529D01*
X406413346Y-278287529D02*
X406013346Y-277687529D01*
X406413346Y-278287529D02*
X406413346Y-278687529D01*
X406813346Y-277687529D02*
X406413346Y-278287529D01*
X406963346Y-278287529D02*
X406413346Y-278287529D01*
%TO.C,D64*%
X224899746Y-297336329D02*
X225449746Y-297336329D01*
X225049746Y-296736329D02*
X225849746Y-296736329D01*
X225449746Y-296236329D02*
X225449746Y-296736329D01*
X225449746Y-297336329D02*
X225049746Y-296736329D01*
X225449746Y-297336329D02*
X225449746Y-297736329D01*
X225849746Y-296736329D02*
X225449746Y-297336329D01*
X225999746Y-297336329D02*
X225449746Y-297336329D01*
%TO.C,D97*%
X332049246Y-335496529D02*
X332599246Y-335496529D01*
X332199246Y-334896529D02*
X332999246Y-334896529D01*
X332599246Y-334396529D02*
X332599246Y-334896529D01*
X332599246Y-335496529D02*
X332199246Y-334896529D01*
X332599246Y-335496529D02*
X332599246Y-335896529D01*
X332999246Y-334896529D02*
X332599246Y-335496529D01*
X333149246Y-335496529D02*
X332599246Y-335496529D01*
%TO.C,D32*%
X424912146Y-259238729D02*
X425462146Y-259238729D01*
X425062146Y-258638729D02*
X425862146Y-258638729D01*
X425462146Y-258138729D02*
X425462146Y-258638729D01*
X425462146Y-259238729D02*
X425062146Y-258638729D01*
X425462146Y-259238729D02*
X425462146Y-259638729D01*
X425862146Y-258638729D02*
X425462146Y-259238729D01*
X426012146Y-259238729D02*
X425462146Y-259238729D01*
%TO.C,D60*%
X148704546Y-297336329D02*
X149254546Y-297336329D01*
X148854546Y-296736329D02*
X149654546Y-296736329D01*
X149254546Y-296236329D02*
X149254546Y-296736329D01*
X149254546Y-297336329D02*
X148854546Y-296736329D01*
X149254546Y-297336329D02*
X149254546Y-297736329D01*
X149654546Y-296736329D02*
X149254546Y-297336329D01*
X149804546Y-297336329D02*
X149254546Y-297336329D01*
%TO.C,D87*%
X424912146Y-316447729D02*
X425462146Y-316447729D01*
X425062146Y-315847729D02*
X425862146Y-315847729D01*
X425462146Y-315347729D02*
X425462146Y-315847729D01*
X425462146Y-316447729D02*
X425062146Y-315847729D01*
X425462146Y-316447729D02*
X425462146Y-316847729D01*
X425862146Y-315847729D02*
X425462146Y-316447729D01*
X426012146Y-316447729D02*
X425462146Y-316447729D01*
%TO.C,D55*%
X467771946Y-278350129D02*
X468321946Y-278350129D01*
X467921946Y-277750129D02*
X468721946Y-277750129D01*
X468321946Y-277250129D02*
X468321946Y-277750129D01*
X468321946Y-278350129D02*
X467921946Y-277750129D01*
X468321946Y-278350129D02*
X468321946Y-278750129D01*
X468721946Y-277750129D02*
X468321946Y-278350129D01*
X468871946Y-278350129D02*
X468321946Y-278350129D01*
%TO.C,D41*%
X182039946Y-278350129D02*
X182589946Y-278350129D01*
X182189946Y-277750129D02*
X182989946Y-277750129D01*
X182589946Y-277250129D02*
X182589946Y-277750129D01*
X182589946Y-278350129D02*
X182189946Y-277750129D01*
X182589946Y-278350129D02*
X182589946Y-278750129D01*
X182989946Y-277750129D02*
X182589946Y-278350129D01*
X183139946Y-278350129D02*
X182589946Y-278350129D01*
%TO.C,D61*%
X167753346Y-297336329D02*
X168303346Y-297336329D01*
X167903346Y-296736329D02*
X168703346Y-296736329D01*
X168303346Y-296236329D02*
X168303346Y-296736329D01*
X168303346Y-297336329D02*
X167903346Y-296736329D01*
X168303346Y-297336329D02*
X168303346Y-297736329D01*
X168703346Y-296736329D02*
X168303346Y-297336329D01*
X168853346Y-297336329D02*
X168303346Y-297336329D01*
%TO.C,D58*%
X524918346Y-287874529D02*
X525468346Y-287874529D01*
X525068346Y-287274529D02*
X525868346Y-287274529D01*
X525468346Y-286774529D02*
X525468346Y-287274529D01*
X525468346Y-287874529D02*
X525068346Y-287274529D01*
X525468346Y-287874529D02*
X525468346Y-288274529D01*
X525868346Y-287274529D02*
X525468346Y-287874529D01*
X526018346Y-287874529D02*
X525468346Y-287874529D01*
%TO.C,D59*%
X122512446Y-297398929D02*
X123062446Y-297398929D01*
X122662446Y-296798929D02*
X123462446Y-296798929D01*
X123062446Y-296298929D02*
X123062446Y-296798929D01*
X123062446Y-297398929D02*
X122662446Y-296798929D01*
X123062446Y-297398929D02*
X123062446Y-297798929D01*
X123462446Y-296798929D02*
X123062446Y-297398929D01*
X123612446Y-297398929D02*
X123062446Y-297398929D01*
%TO.C,D103*%
X477296346Y-335433929D02*
X477846346Y-335433929D01*
X477446346Y-334833929D02*
X478246346Y-334833929D01*
X477846346Y-334333929D02*
X477846346Y-334833929D01*
X477846346Y-335433929D02*
X477446346Y-334833929D01*
X477846346Y-335433929D02*
X477846346Y-335833929D01*
X478246346Y-334833929D02*
X477846346Y-335433929D01*
X478396346Y-335433929D02*
X477846346Y-335433929D01*
%TO.C,D40*%
X162991146Y-278287529D02*
X163541146Y-278287529D01*
X163141146Y-277687529D02*
X163941146Y-277687529D01*
X163541146Y-277187529D02*
X163541146Y-277687529D01*
X163541146Y-278287529D02*
X163141146Y-277687529D01*
X163541146Y-278287529D02*
X163541146Y-278687529D01*
X163941146Y-277687529D02*
X163541146Y-278287529D01*
X164091146Y-278287529D02*
X163541146Y-278287529D01*
%TO.C,D100*%
X405863346Y-335496529D02*
X406413346Y-335496529D01*
X406013346Y-334896529D02*
X406813346Y-334896529D01*
X406413346Y-334396529D02*
X406413346Y-334896529D01*
X406413346Y-335496529D02*
X406013346Y-334896529D01*
X406413346Y-335496529D02*
X406413346Y-335896529D01*
X406813346Y-334896529D02*
X406413346Y-335496529D01*
X406963346Y-335496529D02*
X406413346Y-335496529D01*
%TO.C,D80*%
X234424146Y-316447729D02*
X234974146Y-316447729D01*
X234574146Y-315847729D02*
X235374146Y-315847729D01*
X234974146Y-315347729D02*
X234974146Y-315847729D01*
X234974146Y-316447729D02*
X234574146Y-315847729D01*
X234974146Y-316447729D02*
X234974146Y-316847729D01*
X235374146Y-315847729D02*
X234974146Y-316447729D01*
X235524146Y-316447729D02*
X234974146Y-316447729D01*
%TO.C,D98*%
X355860246Y-335433929D02*
X356410246Y-335433929D01*
X356010246Y-334833929D02*
X356810246Y-334833929D01*
X356410246Y-334333929D02*
X356410246Y-334833929D01*
X356410246Y-335433929D02*
X356010246Y-334833929D01*
X356410246Y-335433929D02*
X356410246Y-335833929D01*
X356810246Y-334833929D02*
X356410246Y-335433929D01*
X356960246Y-335433929D02*
X356410246Y-335433929D01*
%TO.C,D89*%
X486820746Y-316385129D02*
X487370746Y-316385129D01*
X486970746Y-315785129D02*
X487770746Y-315785129D01*
X487370746Y-315285129D02*
X487370746Y-315785129D01*
X487370746Y-316385129D02*
X486970746Y-315785129D01*
X487370746Y-316385129D02*
X487370746Y-316785129D01*
X487770746Y-315785129D02*
X487370746Y-316385129D01*
X487920746Y-316385129D02*
X487370746Y-316385129D01*
%TO.C,D19*%
X153466746Y-259301329D02*
X154016746Y-259301329D01*
X153616746Y-258701329D02*
X154416746Y-258701329D01*
X154016746Y-258201329D02*
X154016746Y-258701329D01*
X154016746Y-259301329D02*
X153616746Y-258701329D01*
X154016746Y-259301329D02*
X154016746Y-259701329D01*
X154416746Y-258701329D02*
X154016746Y-259301329D01*
X154566746Y-259301329D02*
X154016746Y-259301329D01*
%TO.C,D99*%
X379671246Y-335496529D02*
X380221246Y-335496529D01*
X379821246Y-334896529D02*
X380621246Y-334896529D01*
X380221246Y-334396529D02*
X380221246Y-334896529D01*
X380221246Y-335496529D02*
X379821246Y-334896529D01*
X380221246Y-335496529D02*
X380221246Y-335896529D01*
X380621246Y-334896529D02*
X380221246Y-335496529D01*
X380771246Y-335496529D02*
X380221246Y-335496529D01*
%TO.C,D12*%
X363003546Y-230665529D02*
X363553546Y-230665529D01*
X363153546Y-230065529D02*
X363953546Y-230065529D01*
X363553546Y-229565529D02*
X363553546Y-230065529D01*
X363553546Y-230665529D02*
X363153546Y-230065529D01*
X363553546Y-230665529D02*
X363553546Y-231065529D01*
X363953546Y-230065529D02*
X363553546Y-230665529D01*
X364103546Y-230665529D02*
X363553546Y-230665529D01*
%TO.C,D26*%
X286808346Y-259301329D02*
X287358346Y-259301329D01*
X286958346Y-258701329D02*
X287758346Y-258701329D01*
X287358346Y-258201329D02*
X287358346Y-258701329D01*
X287358346Y-259301329D02*
X286958346Y-258701329D01*
X287358346Y-259301329D02*
X287358346Y-259701329D01*
X287758346Y-258701329D02*
X287358346Y-259301329D01*
X287908346Y-259301329D02*
X287358346Y-259301329D01*
%TO.C,D84*%
X310619346Y-316447729D02*
X311169346Y-316447729D01*
X310769346Y-315847729D02*
X311569346Y-315847729D01*
X311169346Y-315347729D02*
X311169346Y-315847729D01*
X311169346Y-316447729D02*
X310769346Y-315847729D01*
X311169346Y-316447729D02*
X311169346Y-316847729D01*
X311569346Y-315847729D02*
X311169346Y-316447729D01*
X311719346Y-316447729D02*
X311169346Y-316447729D01*
%TO.C,D38*%
X120131346Y-278350129D02*
X120681346Y-278350129D01*
X120281346Y-277750129D02*
X121081346Y-277750129D01*
X120681346Y-277250129D02*
X120681346Y-277750129D01*
X120681346Y-278350129D02*
X120281346Y-277750129D01*
X120681346Y-278350129D02*
X120681346Y-278750129D01*
X121081346Y-277750129D02*
X120681346Y-278350129D01*
X121231346Y-278350129D02*
X120681346Y-278350129D01*
%TO.C,D69*%
X320143746Y-297336329D02*
X320693746Y-297336329D01*
X320293746Y-296736329D02*
X321093746Y-296736329D01*
X320693746Y-296236329D02*
X320693746Y-296736329D01*
X320693746Y-297336329D02*
X320293746Y-296736329D01*
X320693746Y-297336329D02*
X320693746Y-297736329D01*
X321093746Y-296736329D02*
X320693746Y-297336329D01*
X321243746Y-297336329D02*
X320693746Y-297336329D01*
%TO.C,D7*%
X258235146Y-230728129D02*
X258785146Y-230728129D01*
X258385146Y-230128129D02*
X259185146Y-230128129D01*
X258785146Y-229628129D02*
X258785146Y-230128129D01*
X258785146Y-230728129D02*
X258385146Y-230128129D01*
X258785146Y-230728129D02*
X258785146Y-231128129D01*
X259185146Y-230128129D02*
X258785146Y-230728129D01*
X259335146Y-230728129D02*
X258785146Y-230728129D01*
%TO.C,D49*%
X334430346Y-278350129D02*
X334980346Y-278350129D01*
X334580346Y-277750129D02*
X335380346Y-277750129D01*
X334980346Y-277250129D02*
X334980346Y-277750129D01*
X334980346Y-278350129D02*
X334580346Y-277750129D01*
X334980346Y-278350129D02*
X334980346Y-278750129D01*
X335380346Y-277750129D02*
X334980346Y-278350129D01*
X335530346Y-278350129D02*
X334980346Y-278350129D01*
%TO.C,D31*%
X405863346Y-259301329D02*
X406413346Y-259301329D01*
X406013346Y-258701329D02*
X406813346Y-258701329D01*
X406413346Y-258201329D02*
X406413346Y-258701329D01*
X406413346Y-259301329D02*
X406013346Y-258701329D01*
X406413346Y-259301329D02*
X406413346Y-259701329D01*
X406813346Y-258701329D02*
X406413346Y-259301329D01*
X406963346Y-259301329D02*
X406413346Y-259301329D01*
%TO.C,D15*%
X443960946Y-230665529D02*
X444510946Y-230665529D01*
X444110946Y-230065529D02*
X444910946Y-230065529D01*
X444510946Y-229565529D02*
X444510946Y-230065529D01*
X444510946Y-230665529D02*
X444110946Y-230065529D01*
X444510946Y-230665529D02*
X444510946Y-231065529D01*
X444910946Y-230065529D02*
X444510946Y-230665529D01*
X445060946Y-230665529D02*
X444510946Y-230665529D01*
%TO.C,D10*%
X324905946Y-230728129D02*
X325455946Y-230728129D01*
X325055946Y-230128129D02*
X325855946Y-230128129D01*
X325455946Y-229628129D02*
X325455946Y-230128129D01*
X325455946Y-230728129D02*
X325055946Y-230128129D01*
X325455946Y-230728129D02*
X325455946Y-231128129D01*
X325855946Y-230128129D02*
X325455946Y-230728129D01*
X326005946Y-230728129D02*
X325455946Y-230728129D01*
%TO.C,D83*%
X291570546Y-316447729D02*
X292120546Y-316447729D01*
X291720546Y-315847729D02*
X292520546Y-315847729D01*
X292120546Y-315347729D02*
X292120546Y-315847729D01*
X292120546Y-316447729D02*
X291720546Y-315847729D01*
X292120546Y-316447729D02*
X292120546Y-316847729D01*
X292520546Y-315847729D02*
X292120546Y-316447729D01*
X292670546Y-316447729D02*
X292120546Y-316447729D01*
%TO.C,D48*%
X315381546Y-278350129D02*
X315931546Y-278350129D01*
X315531546Y-277750129D02*
X316331546Y-277750129D01*
X315931546Y-277250129D02*
X315931546Y-277750129D01*
X315931546Y-278350129D02*
X315531546Y-277750129D01*
X315931546Y-278350129D02*
X315931546Y-278750129D01*
X316331546Y-277750129D02*
X315931546Y-278350129D01*
X316481546Y-278350129D02*
X315931546Y-278350129D01*
%TO.C,D4*%
X191564346Y-230728129D02*
X192114346Y-230728129D01*
X191714346Y-230128129D02*
X192514346Y-230128129D01*
X192114346Y-229628129D02*
X192114346Y-230128129D01*
X192114346Y-230728129D02*
X191714346Y-230128129D01*
X192114346Y-230728129D02*
X192114346Y-231128129D01*
X192514346Y-230128129D02*
X192114346Y-230728129D01*
X192664346Y-230728129D02*
X192114346Y-230728129D01*
%TO.C,D37*%
X524918346Y-259301329D02*
X525468346Y-259301329D01*
X525068346Y-258701329D02*
X525868346Y-258701329D01*
X525468346Y-258201329D02*
X525468346Y-258701329D01*
X525468346Y-259301329D02*
X525068346Y-258701329D01*
X525468346Y-259301329D02*
X525468346Y-259701329D01*
X525868346Y-258701329D02*
X525468346Y-259301329D01*
X526018346Y-259301329D02*
X525468346Y-259301329D01*
%TO.C,D104*%
X505869546Y-335433929D02*
X506419546Y-335433929D01*
X506019546Y-334833929D02*
X506819546Y-334833929D01*
X506419546Y-334333929D02*
X506419546Y-334833929D01*
X506419546Y-335433929D02*
X506019546Y-334833929D01*
X506419546Y-335433929D02*
X506419546Y-335833929D01*
X506819546Y-334833929D02*
X506419546Y-335433929D01*
X506969546Y-335433929D02*
X506419546Y-335433929D01*
%TO.C,D18*%
X134417946Y-259301329D02*
X134967946Y-259301329D01*
X134567946Y-258701329D02*
X135367946Y-258701329D01*
X134967946Y-258201329D02*
X134967946Y-258701329D01*
X134967946Y-259301329D02*
X134567946Y-258701329D01*
X134967946Y-259301329D02*
X134967946Y-259701329D01*
X135367946Y-258701329D02*
X134967946Y-259301329D01*
X135517946Y-259301329D02*
X134967946Y-259301329D01*
%TO.C,D6*%
X239186346Y-230728129D02*
X239736346Y-230728129D01*
X239336346Y-230128129D02*
X240136346Y-230128129D01*
X239736346Y-229628129D02*
X239736346Y-230128129D01*
X239736346Y-230728129D02*
X239336346Y-230128129D01*
X239736346Y-230728129D02*
X239736346Y-231128129D01*
X240136346Y-230128129D02*
X239736346Y-230728129D01*
X240286346Y-230728129D02*
X239736346Y-230728129D01*
%TO.C,D17*%
X115369146Y-259301329D02*
X115919146Y-259301329D01*
X115519146Y-258701329D02*
X116319146Y-258701329D01*
X115919146Y-258201329D02*
X115919146Y-258701329D01*
X115919146Y-259301329D02*
X115519146Y-258701329D01*
X115919146Y-259301329D02*
X115919146Y-259701329D01*
X116319146Y-258701329D02*
X115919146Y-259301329D01*
X116469146Y-259301329D02*
X115919146Y-259301329D01*
%TO.C,D82*%
X272521746Y-316447729D02*
X273071746Y-316447729D01*
X272671746Y-315847729D02*
X273471746Y-315847729D01*
X273071746Y-315347729D02*
X273071746Y-315847729D01*
X273071746Y-316447729D02*
X272671746Y-315847729D01*
X273071746Y-316447729D02*
X273071746Y-316847729D01*
X273471746Y-315847729D02*
X273071746Y-316447729D01*
X273621746Y-316447729D02*
X273071746Y-316447729D01*
%TO.C,D62*%
X186802146Y-297336329D02*
X187352146Y-297336329D01*
X186952146Y-296736329D02*
X187752146Y-296736329D01*
X187352146Y-296236329D02*
X187352146Y-296736329D01*
X187352146Y-297336329D02*
X186952146Y-296736329D01*
X187352146Y-297336329D02*
X187352146Y-297736329D01*
X187752146Y-296736329D02*
X187352146Y-297336329D01*
X187902146Y-297336329D02*
X187352146Y-297336329D01*
%TO.C,D63*%
X205850946Y-297398929D02*
X206400946Y-297398929D01*
X206000946Y-296798929D02*
X206800946Y-296798929D01*
X206400946Y-296298929D02*
X206400946Y-296798929D01*
X206400946Y-297398929D02*
X206000946Y-296798929D01*
X206400946Y-297398929D02*
X206400946Y-297798929D01*
X206800946Y-296798929D02*
X206400946Y-297398929D01*
X206950946Y-297398929D02*
X206400946Y-297398929D01*
%TO.C,D57*%
X505869546Y-278287529D02*
X506419546Y-278287529D01*
X506019546Y-277687529D02*
X506819546Y-277687529D01*
X506419546Y-277187529D02*
X506419546Y-277687529D01*
X506419546Y-278287529D02*
X506019546Y-277687529D01*
X506419546Y-278287529D02*
X506419546Y-278687529D01*
X506819546Y-277687529D02*
X506419546Y-278287529D01*
X506969546Y-278287529D02*
X506419546Y-278287529D01*
%TO.C,D72*%
X486820746Y-297336329D02*
X487370746Y-297336329D01*
X486970746Y-296736329D02*
X487770746Y-296736329D01*
X487370746Y-296236329D02*
X487370746Y-296736329D01*
X487370746Y-297336329D02*
X486970746Y-296736329D01*
X487370746Y-297336329D02*
X487370746Y-297736329D01*
X487770746Y-296736329D02*
X487370746Y-297336329D01*
X487920746Y-297336329D02*
X487370746Y-297336329D01*
%TO.C,D29*%
X343954746Y-259301329D02*
X344504746Y-259301329D01*
X344104746Y-258701329D02*
X344904746Y-258701329D01*
X344504746Y-258201329D02*
X344504746Y-258701329D01*
X344504746Y-259301329D02*
X344104746Y-258701329D01*
X344504746Y-259301329D02*
X344504746Y-259701329D01*
X344904746Y-258701329D02*
X344504746Y-259301329D01*
X345054746Y-259301329D02*
X344504746Y-259301329D01*
%TD*%
M02*
