%TF.GenerationSoftware,KiCad,Pcbnew,8.0.5*%
%TF.CreationDate,2025-06-07T17:07:02-07:00*%
%TF.ProjectId,Full Keyboard,46756c6c-204b-4657-9962-6f6172642e6b,2.0.0*%
%TF.SameCoordinates,Original*%
%TF.FileFunction,Copper,L3,Inr*%
%TF.FilePolarity,Positive*%
%FSLAX46Y46*%
G04 Gerber Fmt 4.6, Leading zero omitted, Abs format (unit mm)*
G04 Created by KiCad (PCBNEW 8.0.5) date 2025-06-07 17:07:02*
%MOMM*%
%LPD*%
G01*
G04 APERTURE LIST*
%TA.AperFunction,ComponentPad*%
%ADD10C,5.700000*%
%TD*%
%TA.AperFunction,ComponentPad*%
%ADD11O,1.600000X1.000000*%
%TD*%
%TA.AperFunction,ComponentPad*%
%ADD12O,2.100000X1.000000*%
%TD*%
%TA.AperFunction,ViaPad*%
%ADD13C,0.600000*%
%TD*%
G04 APERTURE END LIST*
D10*
%TO.N,N/C*%
%TO.C,REF\u002A\u002A*%
X530319946Y-221460029D03*
%TD*%
%TO.N,N/C*%
%TO.C,REF\u002A\u002A*%
X102219946Y-344760029D03*
%TD*%
%TO.N,N/C*%
%TO.C,REF\u002A\u002A*%
X102319946Y-221460029D03*
%TD*%
%TO.N,N/C*%
%TO.C,REF\u002A\u002A*%
X530519946Y-344760029D03*
%TD*%
D11*
%TO.N,GND*%
%TO.C,J1*%
X532369946Y-230940029D03*
D12*
X528189946Y-230940029D03*
D11*
X532369946Y-239580029D03*
D12*
X528189946Y-239580029D03*
%TD*%
D13*
%TO.N,GND*%
X511132441Y-239117530D03*
X495802452Y-226452529D03*
X523627445Y-237010034D03*
X495632442Y-238390031D03*
X484787446Y-232735028D03*
X513491298Y-234734152D03*
X508342449Y-238858780D03*
X489819946Y-236635029D03*
X524694946Y-232235029D03*
X513227449Y-239809780D03*
X494969946Y-235985029D03*
X489169946Y-232985029D03*
X494319946Y-230835029D03*
X484787444Y-231752530D03*
X495632443Y-237407530D03*
X484787446Y-236485032D03*
X489319946Y-241017529D03*
X510889954Y-223940031D03*
X484787446Y-233735028D03*
X494819948Y-226452528D03*
%TO.N,+3.3V*%
X486427444Y-237195029D03*
X507632449Y-237218780D03*
X488609946Y-239377529D03*
X507632449Y-231872534D03*
X497272444Y-239377529D03*
X486427445Y-231042529D03*
X496512449Y-228092521D03*
%TO.N,VBUS*%
X526049946Y-232810029D03*
X518094946Y-234735029D03*
X526049946Y-237710029D03*
%TO.N,Col20*%
X515150246Y-259745029D03*
X515150246Y-288574529D03*
X515150246Y-317685129D03*
X515150246Y-279587529D03*
%TO.N,Col1*%
X148460846Y-308954429D03*
X124649846Y-259745029D03*
X134174246Y-278793829D03*
X134174246Y-270063129D03*
X131793146Y-327209529D03*
X124649846Y-251014329D03*
X148460846Y-316891429D03*
X138936446Y-297842629D03*
X141317546Y-231171829D03*
X138936446Y-289111929D03*
%TO.N,Col13*%
X369903146Y-327209529D03*
X367522046Y-270063129D03*
X367522046Y-278793829D03*
X362759846Y-259745029D03*
%TO.N,Col2*%
X143698646Y-250220629D03*
X153223046Y-270063129D03*
X157985246Y-289111929D03*
X165128546Y-317147729D03*
X143698646Y-260001329D03*
X155604146Y-327209529D03*
X153223046Y-278793829D03*
X157985246Y-297842629D03*
X167509646Y-308160729D03*
X160366346Y-231171829D03*
%TO.N,Col8*%
X272278046Y-298098929D03*
X257991446Y-260001329D03*
X272278046Y-289111929D03*
X284183546Y-231171829D03*
X267515846Y-278793829D03*
X281802446Y-308160729D03*
X270690646Y-239108829D03*
X267515846Y-270063129D03*
%TO.N,Col10*%
X310375646Y-297842629D03*
X310375646Y-289111929D03*
X296089046Y-259745029D03*
X319900046Y-308160729D03*
X318312646Y-239108829D03*
X322281146Y-327209529D03*
X331805546Y-231171829D03*
X319900046Y-316891429D03*
X305613446Y-270063129D03*
X305613446Y-278793829D03*
%TO.N,Col11*%
X486169946Y-239660029D03*
X329424446Y-289111929D03*
X480619139Y-237259222D03*
X350854346Y-231171829D03*
X315137846Y-260001329D03*
X346092146Y-327209529D03*
X355616546Y-308160729D03*
X329424446Y-297842629D03*
X324662246Y-270063129D03*
X355616546Y-316891429D03*
X329424446Y-239108829D03*
X324662246Y-278793829D03*
%TO.N,Col9*%
X300851246Y-308160729D03*
X291326846Y-298098929D03*
X286564646Y-278793829D03*
X286564646Y-270063129D03*
X298470146Y-327209529D03*
X277040246Y-259745029D03*
X300851246Y-316891429D03*
X312756746Y-231171829D03*
X291326846Y-289111929D03*
X292120546Y-239108829D03*
%TO.N,Col6*%
X243704846Y-308160729D03*
X219893846Y-260001329D03*
X221481246Y-243871029D03*
X229418246Y-270063129D03*
X234180446Y-289111929D03*
X246085946Y-231171829D03*
X234180446Y-297842629D03*
X229418246Y-278793829D03*
%TO.N,Col3*%
X177034046Y-297842629D03*
X186558446Y-308160729D03*
X162747446Y-260001329D03*
X172271846Y-270063129D03*
X162747446Y-250220629D03*
X172271846Y-278987529D03*
X179415146Y-231171829D03*
X177034046Y-289111929D03*
%TO.N,/BOOT0*%
X506982449Y-233485029D03*
X494732446Y-233485029D03*
%TO.N,Col19*%
X496101446Y-270063129D03*
X496101446Y-259745029D03*
X496101446Y-308160729D03*
X496101446Y-297842629D03*
X496101446Y-317147729D03*
X496101446Y-278793829D03*
X496101446Y-289111929D03*
X496101446Y-327209529D03*
%TO.N,Col12*%
X334186646Y-260001329D03*
X369903146Y-231171829D03*
X343711046Y-270063129D03*
X343711046Y-278987529D03*
X360378746Y-289111929D03*
X349266946Y-239108829D03*
%TO.N,Col16*%
X434192846Y-327209529D03*
X434192846Y-260001329D03*
X434192846Y-231428129D03*
X434192846Y-251014329D03*
X434192846Y-278793829D03*
X434192846Y-270063129D03*
%TO.N,Col4*%
X196082846Y-289111929D03*
X191320646Y-278987529D03*
X205607246Y-308160729D03*
X198463946Y-231171829D03*
X186558446Y-248633229D03*
X191320646Y-270063129D03*
X196082846Y-297842629D03*
X181796246Y-260001329D03*
%TO.N,Col14*%
X393714146Y-231171829D03*
X396095246Y-251014329D03*
X396095246Y-278793829D03*
X396095246Y-270063129D03*
X396095246Y-327209529D03*
X396095246Y-259745029D03*
%TO.N,Col17*%
X458003846Y-308160729D03*
X458003846Y-289111929D03*
X458003846Y-298098929D03*
X458003846Y-316891429D03*
X458003846Y-270063129D03*
X458003846Y-278987529D03*
X467528246Y-327209529D03*
X458003846Y-259745029D03*
%TO.N,Col7*%
X262753646Y-308160729D03*
X238942646Y-259745029D03*
X253229246Y-239108829D03*
X265134746Y-231171829D03*
X248467046Y-278793829D03*
X253229246Y-297842629D03*
X248467046Y-270063129D03*
X253229246Y-289111929D03*
%TO.N,Col18*%
X477052646Y-289111929D03*
X477052646Y-270063129D03*
X477052646Y-308160729D03*
X477052646Y-298098929D03*
X477052646Y-278793829D03*
X477052646Y-259745029D03*
%TO.N,Col5*%
X200845046Y-260001329D03*
X227037146Y-327209529D03*
X210369446Y-270063129D03*
X215131646Y-297842629D03*
X215131646Y-289111929D03*
X224656046Y-308160729D03*
X210369446Y-278793829D03*
X224656046Y-316891429D03*
X201638746Y-246252129D03*
X227037146Y-231171829D03*
%TO.N,Col15*%
X415144046Y-270063129D03*
X415144046Y-259745029D03*
X415144046Y-317147729D03*
X415144046Y-251014329D03*
X415144046Y-231171829D03*
X415144046Y-327209529D03*
X415144046Y-278987529D03*
X415144046Y-308160729D03*
%TD*%
M02*
