%TF.GenerationSoftware,KiCad,Pcbnew,8.0.5*%
%TF.CreationDate,2025-06-15T08:35:03-07:00*%
%TF.ProjectId,Full Keyboard,46756c6c-204b-4657-9962-6f6172642e6b,2.0.0*%
%TF.SameCoordinates,Original*%
%TF.FileFunction,Copper,L2,Inr*%
%TF.FilePolarity,Positive*%
%FSLAX46Y46*%
G04 Gerber Fmt 4.6, Leading zero omitted, Abs format (unit mm)*
G04 Created by KiCad (PCBNEW 8.0.5) date 2025-06-15 08:35:03*
%MOMM*%
%LPD*%
G01*
G04 APERTURE LIST*
G04 Aperture macros list*
%AMRoundRect*
0 Rectangle with rounded corners*
0 $1 Rounding radius*
0 $2 $3 $4 $5 $6 $7 $8 $9 X,Y pos of 4 corners*
0 Add a 4 corners polygon primitive as box body*
4,1,4,$2,$3,$4,$5,$6,$7,$8,$9,$2,$3,0*
0 Add four circle primitives for the rounded corners*
1,1,$1+$1,$2,$3*
1,1,$1+$1,$4,$5*
1,1,$1+$1,$6,$7*
1,1,$1+$1,$8,$9*
0 Add four rect primitives between the rounded corners*
20,1,$1+$1,$2,$3,$4,$5,0*
20,1,$1+$1,$4,$5,$6,$7,0*
20,1,$1+$1,$6,$7,$8,$9,0*
20,1,$1+$1,$8,$9,$2,$3,0*%
G04 Aperture macros list end*
%TA.AperFunction,ComponentPad*%
%ADD10C,2.500000*%
%TD*%
%TA.AperFunction,ComponentPad*%
%ADD11RoundRect,0.250000X0.725000X-0.600000X0.725000X0.600000X-0.725000X0.600000X-0.725000X-0.600000X0*%
%TD*%
%TA.AperFunction,ComponentPad*%
%ADD12O,1.950000X1.700000*%
%TD*%
%TA.AperFunction,ViaPad*%
%ADD13C,0.600000*%
%TD*%
G04 APERTURE END LIST*
D10*
%TO.N,Col12*%
%TO.C,}1*%
X347059946Y-274670029D03*
%TO.N,Net-(D50-A)*%
X353409946Y-272130029D03*
%TD*%
%TO.N,Col11*%
%TO.C,{1*%
X328009946Y-274670029D03*
%TO.N,Net-(D49-A)*%
X334359946Y-272130029D03*
%TD*%
%TO.N,Col13*%
%TO.C,\u005C1*%
X370872446Y-274670029D03*
%TO.N,Net-(D51-A)*%
X377222446Y-272130029D03*
%TD*%
%TO.N,Col1*%
%TO.C,Z1*%
X151797446Y-312770029D03*
%TO.N,Net-(D76-A)*%
X158147446Y-310230029D03*
%TD*%
%TO.N,Col6*%
%TO.C,Y1*%
X232759946Y-274670029D03*
%TO.N,Net-(D44-A)*%
X239109946Y-272130029D03*
%TD*%
%TO.N,Col2*%
%TO.C,X1*%
X170847446Y-312770029D03*
%TO.N,Net-(D77-A)*%
X177197446Y-310230029D03*
%TD*%
%TO.N,Col2*%
%TO.C,W1*%
X156559946Y-274670029D03*
%TO.N,Net-(D40-A)*%
X162909946Y-272130029D03*
%TD*%
%TO.N,Col4*%
%TO.C,V1*%
X208947446Y-312770029D03*
%TO.N,Net-(D79-A)*%
X215297446Y-310230029D03*
%TD*%
%TO.N,Col15*%
%TO.C,UpArrow1*%
X418497446Y-312770029D03*
%TO.N,Net-(D87-A)*%
X424847446Y-310230029D03*
%TD*%
%TO.N,Col7*%
%TO.C,U2*%
X251809946Y-274670029D03*
%TO.N,Net-(D45-A)*%
X258159946Y-272130029D03*
%TD*%
%TO.N,Col0*%
%TO.C,Tilde1*%
X108934946Y-255620029D03*
%TO.N,Net-(D17-A)*%
X115284946Y-253080029D03*
%TD*%
%TO.N,Col0*%
%TO.C,Tab1*%
X113697446Y-274670029D03*
%TO.N,Net-(D38-A)*%
X120047446Y-272130029D03*
%TD*%
%TO.N,Col5*%
%TO.C,T1*%
X213709946Y-274670029D03*
%TO.N,Net-(D43-A)*%
X220059946Y-272130029D03*
%TD*%
%TO.N,Col5*%
%TO.C,Space1*%
X230378696Y-331820029D03*
%TO.N,Net-(D95-A)*%
X236728696Y-329280029D03*
%TD*%
%TO.N,Col0*%
%TO.C,Shift1*%
X120841196Y-312770029D03*
%TO.N,Net-(D75-A)*%
X127191196Y-310230029D03*
%TD*%
%TO.N,Col15*%
%TO.C,ScrollLock1*%
X418497446Y-227045029D03*
%TO.N,Net-(D14-A)*%
X424847446Y-224505029D03*
%TD*%
%TO.N,Col2*%
%TO.C,S1*%
X161322446Y-293720029D03*
%TO.N,Net-(D61-A)*%
X167672446Y-291180029D03*
%TD*%
%TO.N,Col10*%
%TO.C,RightWin1*%
X325628696Y-331820029D03*
%TO.N,Net-(D97-A)*%
X331978696Y-329280029D03*
%TD*%
%TO.N,Col11*%
%TO.C,RightShift1*%
X358966196Y-312770029D03*
%TO.N,Net-(D86-A)*%
X365316196Y-310230029D03*
%TD*%
%TO.N,Col13*%
%TO.C,RightControl1*%
X373253696Y-331820029D03*
%TO.N,Net-(D99-A)*%
X379603696Y-329280029D03*
%TD*%
%TO.N,Col16*%
%TO.C,RightArrow1*%
X437547446Y-331820029D03*
%TO.N,Net-(D102-A)*%
X443897446Y-329280029D03*
%TD*%
%TO.N,Col9*%
%TO.C,RightAlt1*%
X301816196Y-331820029D03*
%TO.N,Net-(D96-A)*%
X308166196Y-329280029D03*
%TD*%
%TO.N,Col4*%
%TO.C,R4*%
X194659946Y-274670029D03*
%TO.N,Net-(D42-A)*%
X201009946Y-272130029D03*
%TD*%
%TO.N,Col1*%
%TO.C,Q1*%
X137509946Y-274670029D03*
%TO.N,Net-(D39-A)*%
X143859946Y-272130029D03*
%TD*%
%TO.N,Col14*%
%TO.C,PrtSc1*%
X399447446Y-227045029D03*
%TO.N,Net-(D13-A)*%
X405797446Y-224505029D03*
%TD*%
%TO.N,Col16*%
%TO.C,PgUp1*%
X437547446Y-255620029D03*
%TO.N,Net-(D33-A)*%
X443897446Y-253080029D03*
%TD*%
%TO.N,Col16*%
%TO.C,PgDn1*%
X437547446Y-274670029D03*
%TO.N,Net-(D54-A)*%
X443897446Y-272130029D03*
%TD*%
%TO.N,Col16*%
%TO.C,PauseBreak1*%
X437547446Y-227045029D03*
%TO.N,Net-(D15-A)*%
X443897446Y-224505029D03*
%TD*%
%TO.N,Col10*%
%TO.C,P1*%
X308959946Y-274670029D03*
%TO.N,Net-(D48-A)*%
X315309946Y-272130029D03*
%TD*%
%TO.N,Col9*%
%TO.C,O1*%
X289909946Y-274670029D03*
%TO.N,Net-(D47-A)*%
X296259946Y-272130029D03*
%TD*%
%TO.N,Col17*%
%TO.C,NumLock1*%
X461359946Y-255620029D03*
%TO.N,Net-(D34-A)*%
X467709946Y-253080029D03*
%TD*%
%TO.N,Col20*%
%TO.C,NumEnter1*%
X518509946Y-322295029D03*
%TO.N,Net-(D91-A)*%
X524859946Y-319755029D03*
%TD*%
%TO.N,Col19*%
%TO.C,Num9*%
X499459946Y-274670029D03*
%TO.N,Net-(D57-A)*%
X505809946Y-272130029D03*
%TD*%
%TO.N,Col18*%
%TO.C,Num8*%
X480409946Y-274670029D03*
%TO.N,Net-(D56-A)*%
X486759946Y-272130029D03*
%TD*%
%TO.N,Col17*%
%TO.C,Num7*%
X461359946Y-274670029D03*
%TO.N,Net-(D55-A)*%
X467709946Y-272130029D03*
%TD*%
%TO.N,Col19*%
%TO.C,Num6*%
X499459946Y-293720029D03*
%TO.N,Net-(D73-A)*%
X505809946Y-291180029D03*
%TD*%
%TO.N,Col18*%
%TO.C,Num5*%
X480409946Y-293720029D03*
%TO.N,Net-(D72-A)*%
X486759946Y-291180029D03*
%TD*%
%TO.N,Col17*%
%TO.C,Num4*%
X461359946Y-293720029D03*
%TO.N,Net-(D74-A)*%
X467709946Y-291180029D03*
%TD*%
%TO.N,Col19*%
%TO.C,Num3*%
X499459946Y-312770029D03*
%TO.N,Net-(D90-A)*%
X505809946Y-310230029D03*
%TD*%
%TO.N,Col18*%
%TO.C,Num2*%
X480409946Y-312770029D03*
%TO.N,Net-(D89-A)*%
X486759946Y-310230029D03*
%TD*%
%TO.N,Col17*%
%TO.C,Num1*%
X461359946Y-312770029D03*
%TO.N,Net-(D88-A)*%
X467709946Y-310230029D03*
%TD*%
%TO.N,Col17*%
%TO.C,Num0*%
X470884946Y-331820029D03*
%TO.N,Net-(D103-A)*%
X477234946Y-329280029D03*
%TD*%
%TO.N,Col18*%
%TO.C,Num/1*%
X480409946Y-255620029D03*
%TO.N,Net-(D35-A)*%
X486759946Y-253080029D03*
%TD*%
%TO.N,Col19*%
%TO.C,Num.1*%
X499459946Y-331820029D03*
%TO.N,Net-(D104-A)*%
X505809946Y-329280029D03*
%TD*%
%TO.N,Col20*%
%TO.C,Num-1*%
X518509946Y-255620029D03*
%TO.N,Net-(D37-A)*%
X524859946Y-253080029D03*
%TD*%
%TO.N,Col20*%
%TO.C,Num+1*%
X518509946Y-284195029D03*
%TO.N,Net-(D58-A)*%
X524859946Y-281655029D03*
%TD*%
%TO.N,Col19*%
%TO.C,Num\u002A1*%
X499459946Y-255620029D03*
%TO.N,Net-(D36-A)*%
X505809946Y-253080029D03*
%TD*%
%TO.N,Col6*%
%TO.C,N1*%
X247047446Y-312770029D03*
%TO.N,Net-(D81-A)*%
X253397446Y-310230029D03*
%TD*%
%TO.N,Col11*%
%TO.C,Menu1*%
X349441196Y-331820029D03*
%TO.N,Net-(D98-A)*%
X355791196Y-329280029D03*
%TD*%
%TO.N,Col7*%
%TO.C,M1*%
X266097446Y-312770029D03*
%TO.N,Net-(D82-A)*%
X272447446Y-310230029D03*
%TD*%
%TO.N,Col1*%
%TO.C,LeftWin1*%
X135128696Y-331820029D03*
%TO.N,Net-(D93-A)*%
X141478696Y-329280029D03*
%TD*%
%TO.N,Col0*%
%TO.C,LeftControl1*%
X111316196Y-331820029D03*
%TO.N,Net-(D92-A)*%
X117666196Y-329280029D03*
%TD*%
%TO.N,Col14*%
%TO.C,LeftArrow1*%
X399447446Y-331820029D03*
%TO.N,Net-(D100-A)*%
X405797446Y-329280029D03*
%TD*%
%TO.N,Col2*%
%TO.C,LeftAlt1*%
X158941196Y-331820029D03*
%TO.N,Net-(D94-A)*%
X165291196Y-329280029D03*
%TD*%
%TO.N,Col9*%
%TO.C,L1*%
X294672446Y-293720029D03*
%TO.N,Net-(D68-A)*%
X301022446Y-291180029D03*
%TD*%
%TO.N,Col8*%
%TO.C,K1*%
X275622446Y-293720029D03*
%TO.N,Net-(D67-A)*%
X281972446Y-291180029D03*
%TD*%
%TO.N,Col7*%
%TO.C,J2*%
X256572446Y-293720029D03*
%TO.N,Net-(D66-A)*%
X262922446Y-291180029D03*
%TD*%
%TO.N,Col14*%
%TO.C,Insert1*%
X399447446Y-255620029D03*
%TO.N,Net-(D31-A)*%
X405797446Y-253080029D03*
%TD*%
%TO.N,Col8*%
%TO.C,I1*%
X270859946Y-274670029D03*
%TO.N,Net-(D46-A)*%
X277209946Y-272130029D03*
%TD*%
%TO.N,Col15*%
%TO.C,Home1*%
X418497446Y-255620029D03*
%TO.N,Net-(D32-A)*%
X424847446Y-253080029D03*
%TD*%
%TO.N,Col6*%
%TO.C,H1*%
X237522446Y-293720029D03*
%TO.N,Net-(D65-A)*%
X243872446Y-291180029D03*
%TD*%
%TO.N,Col5*%
%TO.C,G1*%
X218472446Y-293720029D03*
%TO.N,Net-(D64-A)*%
X224822446Y-291180029D03*
%TD*%
%TO.N,Col1*%
%TO.C,Func1*%
X147034946Y-227045029D03*
%TO.N,Net-(D2-A)*%
X153384946Y-224505029D03*
%TD*%
%TO.N,Col4*%
%TO.C,F13*%
X199422446Y-293720029D03*
%TO.N,Net-(D63-A)*%
X205772446Y-291180029D03*
%TD*%
%TO.N,Col12*%
%TO.C,F12*%
X375614946Y-227045029D03*
%TO.N,Net-(D16-A)*%
X381964946Y-224505029D03*
%TD*%
%TO.N,Col11*%
%TO.C,F11*%
X356484946Y-227045029D03*
%TO.N,Net-(D12-A)*%
X362834946Y-224505029D03*
%TD*%
%TO.N,Col10*%
%TO.C,F10*%
X337484946Y-227045029D03*
%TO.N,Net-(D11-A)*%
X343834946Y-224505029D03*
%TD*%
%TO.N,Col9*%
%TO.C,F9*%
X318484946Y-227045029D03*
%TO.N,Net-(D10-A)*%
X324834946Y-224505029D03*
%TD*%
%TO.N,Col8*%
%TO.C,F8*%
X289759946Y-227045029D03*
%TO.N,Net-(D9-A)*%
X296109946Y-224505029D03*
%TD*%
%TO.N,Col7*%
%TO.C,F7*%
X270759946Y-227045029D03*
%TO.N,Net-(D8-A)*%
X277109946Y-224505029D03*
%TD*%
%TO.N,Col6*%
%TO.C,F6*%
X251759946Y-227045029D03*
%TO.N,Net-(D7-A)*%
X258109946Y-224505029D03*
%TD*%
%TO.N,Col5*%
%TO.C,F5*%
X232759946Y-227045029D03*
%TO.N,Net-(D6-A)*%
X239109946Y-224505029D03*
%TD*%
%TO.N,Col4*%
%TO.C,F4*%
X204184946Y-227045029D03*
%TO.N,Net-(D5-A)*%
X210534946Y-224505029D03*
%TD*%
%TO.N,Col3*%
%TO.C,F3*%
X185134946Y-227045029D03*
%TO.N,Net-(D4-A)*%
X191484946Y-224505029D03*
%TD*%
%TO.N,Col2*%
%TO.C,F2*%
X166084946Y-227045029D03*
%TO.N,Net-(D3-A)*%
X172434946Y-224505029D03*
%TD*%
%TO.N,Col0*%
%TO.C,ESC1*%
X108934946Y-227045029D03*
%TO.N,Net-(D1-A)*%
X115284946Y-224505029D03*
%TD*%
%TO.N,Col12*%
%TO.C,Enter1*%
X363728696Y-293720029D03*
%TO.N,Net-(D71-A)*%
X370078696Y-291180029D03*
%TD*%
%TO.N,Col15*%
%TO.C,End1*%
X418497446Y-274670029D03*
%TO.N,Net-(D53-A)*%
X424847446Y-272130029D03*
%TD*%
%TO.N,Col3*%
%TO.C,E1*%
X175609946Y-274670029D03*
%TO.N,Net-(D41-A)*%
X181959946Y-272130029D03*
%TD*%
%TO.N,Col15*%
%TO.C,DownArrow1*%
X418497446Y-331820029D03*
%TO.N,Net-(D101-A)*%
X424847446Y-329280029D03*
%TD*%
%TO.N,Col14*%
%TO.C,Delete1*%
X399447446Y-274670029D03*
%TO.N,Net-(D52-A)*%
X405797446Y-272130029D03*
%TD*%
%TO.N,Col3*%
%TO.C,D105*%
X180372446Y-293720029D03*
%TO.N,Net-(D62-A)*%
X186722446Y-291180029D03*
%TD*%
%TO.N,Col0*%
%TO.C,CapsLock1*%
X116078696Y-293720029D03*
%TO.N,Net-(D59-A)*%
X122428696Y-291180029D03*
%TD*%
%TO.N,Col3*%
%TO.C,C1*%
X189897446Y-312770029D03*
%TO.N,Net-(D78-A)*%
X196247446Y-310230029D03*
%TD*%
%TO.N,Col13*%
%TO.C,Backspace1*%
X366109946Y-255620029D03*
%TO.N,Net-(D30-A)*%
X372459946Y-253080029D03*
%TD*%
%TO.N,Col5*%
%TO.C,B1*%
X227997446Y-312770029D03*
%TO.N,Net-(D80-A)*%
X234347446Y-310230029D03*
%TD*%
%TO.N,Col1*%
%TO.C,A1*%
X142272446Y-293720029D03*
%TO.N,Net-(D60-A)*%
X148622446Y-291180029D03*
%TD*%
%TO.N,Col9*%
%TO.C,>1*%
X304197446Y-312770029D03*
%TO.N,Net-(D84-A)*%
X310547446Y-310230029D03*
%TD*%
%TO.N,Col8*%
%TO.C,<1*%
X285147446Y-312770029D03*
%TO.N,Net-(D83-A)*%
X291497446Y-310230029D03*
%TD*%
%TO.N,Col10*%
%TO.C,;1*%
X313722446Y-293720029D03*
%TO.N,Net-(D69-A)*%
X320072446Y-291180029D03*
%TD*%
%TO.N,Col10*%
%TO.C,"?"1*%
X323247446Y-312770029D03*
%TO.N,Net-(D85-A)*%
X329597446Y-310230029D03*
%TD*%
%TO.N,Col12*%
%TO.C,"="1*%
X337534946Y-255620029D03*
%TO.N,Net-(D29-A)*%
X343884946Y-253080029D03*
%TD*%
%TO.N,Col9*%
%TO.C,"9"1*%
X280384946Y-255620029D03*
%TO.N,Net-(D26-A)*%
X286734946Y-253080029D03*
%TD*%
%TO.N,Col8*%
%TO.C,"8"1*%
X261334946Y-255620029D03*
%TO.N,Net-(D25-A)*%
X267684946Y-253080029D03*
%TD*%
%TO.N,Col7*%
%TO.C,"7"1*%
X242284946Y-255620029D03*
%TO.N,Net-(D24-A)*%
X248634946Y-253080029D03*
%TD*%
%TO.N,Col6*%
%TO.C,"6"1*%
X223234946Y-255620029D03*
%TO.N,Net-(D23-A)*%
X229584946Y-253080029D03*
%TD*%
%TO.N,Col5*%
%TO.C,"5"1*%
X204184946Y-255620029D03*
%TO.N,Net-(D22-A)*%
X210534946Y-253080029D03*
%TD*%
%TO.N,Col4*%
%TO.C,"4"1*%
X185134946Y-255620029D03*
%TO.N,Net-(D21-A)*%
X191484946Y-253080029D03*
%TD*%
%TO.N,Col3*%
%TO.C,"3"1*%
X166084946Y-255620029D03*
%TO.N,Net-(D20-A)*%
X172434946Y-253080029D03*
%TD*%
%TO.N,Col2*%
%TO.C,"2"1*%
X147034946Y-255620029D03*
%TO.N,Net-(D19-A)*%
X153384946Y-253080029D03*
%TD*%
%TO.N,Col1*%
%TO.C,"1"1*%
X127984946Y-255620029D03*
%TO.N,Net-(D18-A)*%
X134334946Y-253080029D03*
%TD*%
%TO.N,Col11*%
%TO.C,"1*%
X332772446Y-293720029D03*
%TO.N,Net-(D70-A)*%
X339122446Y-291180029D03*
%TD*%
%TO.N,Col10*%
%TO.C,"0"1*%
X299434946Y-255620029D03*
%TO.N,Net-(D27-A)*%
X305784946Y-253080029D03*
%TD*%
%TO.N,Col11*%
%TO.C,"-"1*%
X318484946Y-255620029D03*
%TO.N,Net-(D28-A)*%
X324834946Y-253080029D03*
%TD*%
D11*
%TO.N,+3.3V*%
%TO.C,J3*%
X518969946Y-233560029D03*
D12*
%TO.N,MCU_D+*%
X518969946Y-231060029D03*
%TO.N,MCU_D-*%
X518969946Y-228560029D03*
%TO.N,GND*%
X518969946Y-226060029D03*
%TD*%
D13*
%TO.N,GND*%
X495802452Y-226452529D03*
X495632442Y-238390031D03*
X484787446Y-232735028D03*
X487197408Y-237784037D03*
X489819946Y-236635029D03*
X494969946Y-235985029D03*
X489169946Y-232985029D03*
X494319946Y-230835029D03*
X484787444Y-231752530D03*
X495632443Y-237407530D03*
X484787446Y-236485032D03*
X489319946Y-241017529D03*
X510889954Y-223940031D03*
X484787446Y-233735028D03*
X494819948Y-226452528D03*
%TO.N,+3.3V*%
X486427444Y-237195029D03*
X488609946Y-239377529D03*
X507632449Y-231872534D03*
X497272444Y-239377529D03*
X486427445Y-231042529D03*
X496512449Y-228092521D03*
%TO.N,Col20*%
X515150246Y-259745029D03*
X515150246Y-288574529D03*
X515150246Y-317685129D03*
X515150246Y-279587529D03*
%TO.N,Col1*%
X148460846Y-308954429D03*
X124649846Y-259745029D03*
X134174246Y-278793829D03*
X134174246Y-270063129D03*
X131793146Y-327209529D03*
X124649846Y-251014329D03*
X148460846Y-316891429D03*
X138936446Y-297842629D03*
X141317546Y-231171829D03*
X138936446Y-289111929D03*
%TO.N,Col13*%
X369903146Y-327209529D03*
X367522046Y-270063129D03*
X367522046Y-278793829D03*
X362759846Y-259745029D03*
%TO.N,Col2*%
X143698646Y-250220629D03*
X153223046Y-270063129D03*
X157985246Y-289111929D03*
X165128546Y-317147729D03*
X143698646Y-260001329D03*
X155604146Y-327209529D03*
X153223046Y-278793829D03*
X157985246Y-297842629D03*
X167509646Y-308160729D03*
X160366346Y-231171829D03*
%TO.N,Col8*%
X272278046Y-298098929D03*
X257991446Y-260001329D03*
X272278046Y-289111929D03*
X284183546Y-231171829D03*
X267515846Y-278793829D03*
X281802446Y-308160729D03*
X270690646Y-239108829D03*
X267515846Y-270063129D03*
%TO.N,Col10*%
X310375646Y-297842629D03*
X310375646Y-289111929D03*
X296089046Y-259745029D03*
X319900046Y-308160729D03*
X318312646Y-239108829D03*
X322281146Y-327209529D03*
X331805546Y-231171829D03*
X319900046Y-316891429D03*
X305613446Y-270063129D03*
X305613446Y-278793829D03*
%TO.N,Col11*%
X486169946Y-239660029D03*
X329424446Y-289111929D03*
X480619139Y-237259222D03*
X350854346Y-231171829D03*
X315137846Y-260001329D03*
X346092146Y-327209529D03*
X355616546Y-308160729D03*
X329424446Y-297842629D03*
X324662246Y-270063129D03*
X355616546Y-316891429D03*
X329424446Y-239108829D03*
X324662246Y-278793829D03*
%TO.N,Col9*%
X300851246Y-308160729D03*
X291326846Y-298098929D03*
X286564646Y-278793829D03*
X286564646Y-270063129D03*
X298470146Y-327209529D03*
X277040246Y-259745029D03*
X300851246Y-316891429D03*
X312756746Y-231171829D03*
X291326846Y-289111929D03*
X292120546Y-239108829D03*
%TO.N,Col6*%
X243704846Y-308160729D03*
X219893846Y-260001329D03*
X221481246Y-243871029D03*
X229418246Y-270063129D03*
X234180446Y-289111929D03*
X246085946Y-231171829D03*
X234180446Y-297842629D03*
X229418246Y-278793829D03*
%TO.N,Col3*%
X177034046Y-297842629D03*
X186558446Y-308160729D03*
X162747446Y-260001329D03*
X172271846Y-270063129D03*
X162747446Y-250220629D03*
X172271846Y-278987529D03*
X179415146Y-231171829D03*
X177034046Y-289111929D03*
%TO.N,/BOOT0*%
X506982449Y-233485029D03*
X494732446Y-233485029D03*
%TO.N,Col19*%
X496101446Y-270063129D03*
X496101446Y-259745029D03*
X496101446Y-308160729D03*
X496101446Y-297842629D03*
X496101446Y-317147729D03*
X496101446Y-278793829D03*
X496101446Y-289111929D03*
X496101446Y-327209529D03*
%TO.N,Col12*%
X334186646Y-260001329D03*
X369903146Y-231171829D03*
X343711046Y-270063129D03*
X343711046Y-278987529D03*
X360378746Y-289111929D03*
X349266946Y-239108829D03*
%TO.N,Col16*%
X434192846Y-327209529D03*
X434192846Y-260001329D03*
X434192846Y-231428129D03*
X434192846Y-251014329D03*
X434192846Y-278793829D03*
X434192846Y-270063129D03*
%TO.N,Col4*%
X196082846Y-289111929D03*
X191320646Y-278987529D03*
X205607246Y-308160729D03*
X198463946Y-231171829D03*
X186558446Y-248633229D03*
X191320646Y-270063129D03*
X196082846Y-297842629D03*
X181796246Y-260001329D03*
%TO.N,Col14*%
X393714146Y-231171829D03*
X396095246Y-251014329D03*
X396095246Y-278793829D03*
X396095246Y-270063129D03*
X396095246Y-327209529D03*
X396095246Y-259745029D03*
%TO.N,Col17*%
X458003846Y-308160729D03*
X458003846Y-289111929D03*
X458003846Y-298098929D03*
X458003846Y-316891429D03*
X458003846Y-270063129D03*
X458003846Y-278987529D03*
X467528246Y-327209529D03*
X458003846Y-259745029D03*
%TO.N,Col7*%
X262753646Y-308160729D03*
X238942646Y-259745029D03*
X253229246Y-239108829D03*
X265134746Y-231171829D03*
X248467046Y-278793829D03*
X253229246Y-297842629D03*
X248467046Y-270063129D03*
X253229246Y-289111929D03*
%TO.N,Col18*%
X477052646Y-289111929D03*
X477052646Y-270063129D03*
X477052646Y-308160729D03*
X477052646Y-298098929D03*
X477052646Y-278793829D03*
X477052646Y-259745029D03*
%TO.N,Col5*%
X200845046Y-260001329D03*
X227037146Y-327209529D03*
X210369446Y-270063129D03*
X215131646Y-297842629D03*
X215131646Y-289111929D03*
X224656046Y-308160729D03*
X210369446Y-278793829D03*
X224656046Y-316891429D03*
X201638746Y-246252129D03*
X227037146Y-231171829D03*
%TO.N,Col15*%
X415144046Y-270063129D03*
X415144046Y-259745029D03*
X415144046Y-317147729D03*
X415144046Y-251014329D03*
X415144046Y-231171829D03*
X415144046Y-327209529D03*
X415144046Y-278987529D03*
X415144046Y-308160729D03*
%TD*%
M02*
