%TF.GenerationSoftware,KiCad,Pcbnew,8.0.5*%
%TF.CreationDate,2025-06-15T08:35:33-07:00*%
%TF.ProjectId,Full Keyboard,46756c6c-204b-4657-9962-6f6172642e6b,2.0.0*%
%TF.SameCoordinates,Original*%
%TF.FileFunction,Legend,Bot*%
%TF.FilePolarity,Positive*%
%FSLAX46Y46*%
G04 Gerber Fmt 4.6, Leading zero omitted, Abs format (unit mm)*
G04 Created by KiCad (PCBNEW 8.0.5) date 2025-06-15 08:35:33*
%MOMM*%
%LPD*%
G01*
G04 APERTURE LIST*
%ADD10C,0.150000*%
%ADD11C,0.120000*%
G04 APERTURE END LIST*
D10*
X521224765Y-229476695D02*
X521939050Y-229476695D01*
X521939050Y-229476695D02*
X522081907Y-229429076D01*
X522081907Y-229429076D02*
X522177146Y-229333838D01*
X522177146Y-229333838D02*
X522224765Y-229190981D01*
X522224765Y-229190981D02*
X522224765Y-229095743D01*
X521224765Y-229857648D02*
X521224765Y-230476695D01*
X521224765Y-230476695D02*
X521605717Y-230143362D01*
X521605717Y-230143362D02*
X521605717Y-230286219D01*
X521605717Y-230286219D02*
X521653336Y-230381457D01*
X521653336Y-230381457D02*
X521700955Y-230429076D01*
X521700955Y-230429076D02*
X521796193Y-230476695D01*
X521796193Y-230476695D02*
X522034288Y-230476695D01*
X522034288Y-230476695D02*
X522129526Y-230429076D01*
X522129526Y-230429076D02*
X522177146Y-230381457D01*
X522177146Y-230381457D02*
X522224765Y-230286219D01*
X522224765Y-230286219D02*
X522224765Y-230000505D01*
X522224765Y-230000505D02*
X522177146Y-229905267D01*
X522177146Y-229905267D02*
X522129526Y-229857648D01*
%TO.C,D93*%
X141561246Y-335496529D02*
X142111246Y-335496529D01*
X141711246Y-334896529D02*
X142511246Y-334896529D01*
X142111246Y-334396529D02*
X142111246Y-334896529D01*
X142111246Y-335496529D02*
X141711246Y-334896529D01*
X142111246Y-335496529D02*
X142111246Y-335896529D01*
X142511246Y-334896529D02*
X142111246Y-335496529D01*
X142661246Y-335496529D02*
X142111246Y-335496529D01*
%TO.C,D20*%
X172515546Y-259238729D02*
X173065546Y-259238729D01*
X172665546Y-258638729D02*
X173465546Y-258638729D01*
X173065546Y-258138729D02*
X173065546Y-258638729D01*
X173065546Y-259238729D02*
X172665546Y-258638729D01*
X173065546Y-259238729D02*
X173065546Y-259638729D01*
X173465546Y-258638729D02*
X173065546Y-259238729D01*
X173615546Y-259238729D02*
X173065546Y-259238729D01*
%TO.C,D77*%
X177277746Y-316447729D02*
X177827746Y-316447729D01*
X177427746Y-315847729D02*
X178227746Y-315847729D01*
X177827746Y-315347729D02*
X177827746Y-315847729D01*
X177827746Y-316447729D02*
X177427746Y-315847729D01*
X177827746Y-316447729D02*
X177827746Y-316847729D01*
X178227746Y-315847729D02*
X177827746Y-316447729D01*
X178377746Y-316447729D02*
X177827746Y-316447729D01*
%TO.C,D51*%
X377290146Y-278287529D02*
X377840146Y-278287529D01*
X377440146Y-277687529D02*
X378240146Y-277687529D01*
X377840146Y-277187529D02*
X377840146Y-277687529D01*
X377840146Y-278287529D02*
X377440146Y-277687529D01*
X377840146Y-278287529D02*
X377840146Y-278687529D01*
X378240146Y-277687529D02*
X377840146Y-278287529D01*
X378390146Y-278287529D02*
X377840146Y-278287529D01*
%TO.C,D45*%
X258235146Y-278287529D02*
X258785146Y-278287529D01*
X258385146Y-277687529D02*
X259185146Y-277687529D01*
X258785146Y-277187529D02*
X258785146Y-277687529D01*
X258785146Y-278287529D02*
X258385146Y-277687529D01*
X258785146Y-278287529D02*
X258785146Y-278687529D01*
X259185146Y-277687529D02*
X258785146Y-278287529D01*
X259335146Y-278287529D02*
X258785146Y-278287529D01*
%TO.C,D81*%
X253472946Y-316447729D02*
X254022946Y-316447729D01*
X253622946Y-315847729D02*
X254422946Y-315847729D01*
X254022946Y-315347729D02*
X254022946Y-315847729D01*
X254022946Y-316447729D02*
X253622946Y-315847729D01*
X254022946Y-316447729D02*
X254022946Y-316847729D01*
X254422946Y-315847729D02*
X254022946Y-316447729D01*
X254572946Y-316447729D02*
X254022946Y-316447729D01*
%TO.C,D30*%
X372527946Y-259238729D02*
X373077946Y-259238729D01*
X372677946Y-258638729D02*
X373477946Y-258638729D01*
X373077946Y-258138729D02*
X373077946Y-258638729D01*
X373077946Y-259238729D02*
X372677946Y-258638729D01*
X373077946Y-259238729D02*
X373077946Y-259638729D01*
X373477946Y-258638729D02*
X373077946Y-259238729D01*
X373627946Y-259238729D02*
X373077946Y-259238729D01*
%TO.C,D95*%
X236805246Y-335496529D02*
X237355246Y-335496529D01*
X236955246Y-334896529D02*
X237755246Y-334896529D01*
X237355246Y-334396529D02*
X237355246Y-334896529D01*
X237355246Y-335496529D02*
X236955246Y-334896529D01*
X237355246Y-335496529D02*
X237355246Y-335896529D01*
X237755246Y-334896529D02*
X237355246Y-335496529D01*
X237905246Y-335496529D02*
X237355246Y-335496529D01*
%TO.C,D53*%
X424912146Y-278287529D02*
X425462146Y-278287529D01*
X425062146Y-277687529D02*
X425862146Y-277687529D01*
X425462146Y-277187529D02*
X425462146Y-277687529D01*
X425462146Y-278287529D02*
X425062146Y-277687529D01*
X425462146Y-278287529D02*
X425462146Y-278687529D01*
X425862146Y-277687529D02*
X425462146Y-278287529D01*
X426012146Y-278287529D02*
X425462146Y-278287529D01*
%TO.C,D86*%
X365384646Y-316447729D02*
X365934646Y-316447729D01*
X365534646Y-315847729D02*
X366334646Y-315847729D01*
X365934646Y-315347729D02*
X365934646Y-315847729D01*
X365934646Y-316447729D02*
X365534646Y-315847729D01*
X365934646Y-316447729D02*
X365934646Y-316847729D01*
X366334646Y-315847729D02*
X365934646Y-316447729D01*
X366484646Y-316447729D02*
X365934646Y-316447729D01*
%TO.C,D50*%
X353479146Y-278287529D02*
X354029146Y-278287529D01*
X353629146Y-277687529D02*
X354429146Y-277687529D01*
X354029146Y-277187529D02*
X354029146Y-277687529D01*
X354029146Y-278287529D02*
X353629146Y-277687529D01*
X354029146Y-278287529D02*
X354029146Y-278687529D01*
X354429146Y-277687529D02*
X354029146Y-278287529D01*
X354579146Y-278287529D02*
X354029146Y-278287529D01*
%TO.C,D70*%
X339192546Y-297336329D02*
X339742546Y-297336329D01*
X339342546Y-296736329D02*
X340142546Y-296736329D01*
X339742546Y-296236329D02*
X339742546Y-296736329D01*
X339742546Y-297336329D02*
X339342546Y-296736329D01*
X339742546Y-297336329D02*
X339742546Y-297736329D01*
X340142546Y-296736329D02*
X339742546Y-297336329D01*
X340292546Y-297336329D02*
X339742546Y-297336329D01*
%TO.C,D71*%
X370146846Y-297336329D02*
X370696846Y-297336329D01*
X370296846Y-296736329D02*
X371096846Y-296736329D01*
X370696846Y-296236329D02*
X370696846Y-296736329D01*
X370696846Y-297336329D02*
X370296846Y-296736329D01*
X370696846Y-297336329D02*
X370696846Y-297736329D01*
X371096846Y-296736329D02*
X370696846Y-297336329D01*
X371246846Y-297336329D02*
X370696846Y-297336329D01*
%TO.C,D91*%
X524918346Y-325972129D02*
X525468346Y-325972129D01*
X525068346Y-325372129D02*
X525868346Y-325372129D01*
X525468346Y-324872129D02*
X525468346Y-325372129D01*
X525468346Y-325972129D02*
X525068346Y-325372129D01*
X525468346Y-325972129D02*
X525468346Y-326372129D01*
X525868346Y-325372129D02*
X525468346Y-325972129D01*
X526018346Y-325972129D02*
X525468346Y-325972129D01*
%TO.C,D85*%
X329668146Y-316447729D02*
X330218146Y-316447729D01*
X329818146Y-315847729D02*
X330618146Y-315847729D01*
X330218146Y-315347729D02*
X330218146Y-315847729D01*
X330218146Y-316447729D02*
X329818146Y-315847729D01*
X330218146Y-316447729D02*
X330218146Y-316847729D01*
X330618146Y-315847729D02*
X330218146Y-316447729D01*
X330768146Y-316447729D02*
X330218146Y-316447729D01*
%TO.C,D2*%
X153466746Y-230665529D02*
X154016746Y-230665529D01*
X153616746Y-230065529D02*
X154416746Y-230065529D01*
X154016746Y-229565529D02*
X154016746Y-230065529D01*
X154016746Y-230665529D02*
X153616746Y-230065529D01*
X154016746Y-230665529D02*
X154016746Y-231065529D01*
X154416746Y-230065529D02*
X154016746Y-230665529D01*
X154566746Y-230665529D02*
X154016746Y-230665529D01*
%TO.C,D27*%
X305857146Y-259301329D02*
X306407146Y-259301329D01*
X306007146Y-258701329D02*
X306807146Y-258701329D01*
X306407146Y-258201329D02*
X306407146Y-258701329D01*
X306407146Y-259301329D02*
X306007146Y-258701329D01*
X306407146Y-259301329D02*
X306407146Y-259701329D01*
X306807146Y-258701329D02*
X306407146Y-259301329D01*
X306957146Y-259301329D02*
X306407146Y-259301329D01*
%TO.C,D66*%
X262997346Y-297336329D02*
X263547346Y-297336329D01*
X263147346Y-296736329D02*
X263947346Y-296736329D01*
X263547346Y-296236329D02*
X263547346Y-296736329D01*
X263547346Y-297336329D02*
X263147346Y-296736329D01*
X263547346Y-297336329D02*
X263547346Y-297736329D01*
X263947346Y-296736329D02*
X263547346Y-297336329D01*
X264097346Y-297336329D02*
X263547346Y-297336329D01*
%TO.C,D90*%
X505869546Y-316447729D02*
X506419546Y-316447729D01*
X506019546Y-315847729D02*
X506819546Y-315847729D01*
X506419546Y-315347729D02*
X506419546Y-315847729D01*
X506419546Y-316447729D02*
X506019546Y-315847729D01*
X506419546Y-316447729D02*
X506419546Y-316847729D01*
X506819546Y-315847729D02*
X506419546Y-316447729D01*
X506969546Y-316447729D02*
X506419546Y-316447729D01*
%TO.C,D9*%
X296332746Y-230728129D02*
X296882746Y-230728129D01*
X296482746Y-230128129D02*
X297282746Y-230128129D01*
X296882746Y-229628129D02*
X296882746Y-230128129D01*
X296882746Y-230728129D02*
X296482746Y-230128129D01*
X296882746Y-230728129D02*
X296882746Y-231128129D01*
X297282746Y-230128129D02*
X296882746Y-230728129D01*
X297432746Y-230728129D02*
X296882746Y-230728129D01*
%TO.C,D14*%
X424912146Y-230665529D02*
X425462146Y-230665529D01*
X425062146Y-230065529D02*
X425862146Y-230065529D01*
X425462146Y-229565529D02*
X425462146Y-230065529D01*
X425462146Y-230665529D02*
X425062146Y-230065529D01*
X425462146Y-230665529D02*
X425462146Y-231065529D01*
X425862146Y-230065529D02*
X425462146Y-230665529D01*
X426012146Y-230665529D02*
X425462146Y-230665529D01*
%TO.C,D92*%
X117750246Y-335496529D02*
X118300246Y-335496529D01*
X117900246Y-334896529D02*
X118700246Y-334896529D01*
X118300246Y-334396529D02*
X118300246Y-334896529D01*
X118300246Y-335496529D02*
X117900246Y-334896529D01*
X118300246Y-335496529D02*
X118300246Y-335896529D01*
X118700246Y-334896529D02*
X118300246Y-335496529D01*
X118850246Y-335496529D02*
X118300246Y-335496529D01*
%TO.C,D5*%
X210613146Y-230728129D02*
X211163146Y-230728129D01*
X210763146Y-230128129D02*
X211563146Y-230128129D01*
X211163146Y-229628129D02*
X211163146Y-230128129D01*
X211163146Y-230728129D02*
X210763146Y-230128129D01*
X211163146Y-230728129D02*
X211163146Y-231128129D01*
X211563146Y-230128129D02*
X211163146Y-230728129D01*
X211713146Y-230728129D02*
X211163146Y-230728129D01*
%TO.C,D47*%
X296332746Y-278287529D02*
X296882746Y-278287529D01*
X296482746Y-277687529D02*
X297282746Y-277687529D01*
X296882746Y-277187529D02*
X296882746Y-277687529D01*
X296882746Y-278287529D02*
X296482746Y-277687529D01*
X296882746Y-278287529D02*
X296882746Y-278687529D01*
X297282746Y-277687529D02*
X296882746Y-278287529D01*
X297432746Y-278287529D02*
X296882746Y-278287529D01*
%TO.C,D35*%
X486820746Y-259301329D02*
X487370746Y-259301329D01*
X486970746Y-258701329D02*
X487770746Y-258701329D01*
X487370746Y-258201329D02*
X487370746Y-258701329D01*
X487370746Y-259301329D02*
X486970746Y-258701329D01*
X487370746Y-259301329D02*
X487370746Y-259701329D01*
X487770746Y-258701329D02*
X487370746Y-259301329D01*
X487920746Y-259301329D02*
X487370746Y-259301329D01*
%TO.C,D65*%
X243948546Y-297398929D02*
X244498546Y-297398929D01*
X244098546Y-296798929D02*
X244898546Y-296798929D01*
X244498546Y-296298929D02*
X244498546Y-296798929D01*
X244498546Y-297398929D02*
X244098546Y-296798929D01*
X244498546Y-297398929D02*
X244498546Y-297798929D01*
X244898546Y-296798929D02*
X244498546Y-297398929D01*
X245048546Y-297398929D02*
X244498546Y-297398929D01*
%TO.C,D96*%
X308238246Y-335496529D02*
X308788246Y-335496529D01*
X308388246Y-334896529D02*
X309188246Y-334896529D01*
X308788246Y-334396529D02*
X308788246Y-334896529D01*
X308788246Y-335496529D02*
X308388246Y-334896529D01*
X308788246Y-335496529D02*
X308788246Y-335896529D01*
X309188246Y-334896529D02*
X308788246Y-335496529D01*
X309338246Y-335496529D02*
X308788246Y-335496529D01*
%TO.C,D28*%
X324905946Y-259301329D02*
X325455946Y-259301329D01*
X325055946Y-258701329D02*
X325855946Y-258701329D01*
X325455946Y-258201329D02*
X325455946Y-258701329D01*
X325455946Y-259301329D02*
X325055946Y-258701329D01*
X325455946Y-259301329D02*
X325455946Y-259701329D01*
X325855946Y-258701329D02*
X325455946Y-259301329D01*
X326005946Y-259301329D02*
X325455946Y-259301329D01*
%TO.C,D73*%
X505869546Y-297398929D02*
X506419546Y-297398929D01*
X506019546Y-296798929D02*
X506819546Y-296798929D01*
X506419546Y-296298929D02*
X506419546Y-296798929D01*
X506419546Y-297398929D02*
X506019546Y-296798929D01*
X506419546Y-297398929D02*
X506419546Y-297798929D01*
X506819546Y-296798929D02*
X506419546Y-297398929D01*
X506969546Y-297398929D02*
X506419546Y-297398929D01*
%TO.C,D8*%
X277283946Y-230728129D02*
X277833946Y-230728129D01*
X277433946Y-230128129D02*
X278233946Y-230128129D01*
X277833946Y-229628129D02*
X277833946Y-230128129D01*
X277833946Y-230728129D02*
X277433946Y-230128129D01*
X277833946Y-230728129D02*
X277833946Y-231128129D01*
X278233946Y-230128129D02*
X277833946Y-230728129D01*
X278383946Y-230728129D02*
X277833946Y-230728129D01*
%TO.C,D33*%
X443960946Y-259301329D02*
X444510946Y-259301329D01*
X444110946Y-258701329D02*
X444910946Y-258701329D01*
X444510946Y-258201329D02*
X444510946Y-258701329D01*
X444510946Y-259301329D02*
X444110946Y-258701329D01*
X444510946Y-259301329D02*
X444510946Y-259701329D01*
X444910946Y-258701329D02*
X444510946Y-259301329D01*
X445060946Y-259301329D02*
X444510946Y-259301329D01*
%TO.C,D24*%
X248710746Y-259301329D02*
X249260746Y-259301329D01*
X248860746Y-258701329D02*
X249660746Y-258701329D01*
X249260746Y-258201329D02*
X249260746Y-258701329D01*
X249260746Y-259301329D02*
X248860746Y-258701329D01*
X249260746Y-259301329D02*
X249260746Y-259701329D01*
X249660746Y-258701329D02*
X249260746Y-259301329D01*
X249810746Y-259301329D02*
X249260746Y-259301329D01*
%TO.C,D36*%
X505869546Y-259363929D02*
X506419546Y-259363929D01*
X506019546Y-258763929D02*
X506819546Y-258763929D01*
X506419546Y-258263929D02*
X506419546Y-258763929D01*
X506419546Y-259363929D02*
X506019546Y-258763929D01*
X506419546Y-259363929D02*
X506419546Y-259763929D01*
X506819546Y-258763929D02*
X506419546Y-259363929D01*
X506969546Y-259363929D02*
X506419546Y-259363929D01*
%TO.C,D75*%
X127274646Y-316447729D02*
X127824646Y-316447729D01*
X127424646Y-315847729D02*
X128224646Y-315847729D01*
X127824646Y-315347729D02*
X127824646Y-315847729D01*
X127824646Y-316447729D02*
X127424646Y-315847729D01*
X127824646Y-316447729D02*
X127824646Y-316847729D01*
X128224646Y-315847729D02*
X127824646Y-316447729D01*
X128374646Y-316447729D02*
X127824646Y-316447729D01*
D11*
%TO.C,J3*%
X516359946Y-233970029D02*
X516359946Y-236470029D01*
X516359946Y-236470029D02*
X518859946Y-236470029D01*
X516659946Y-223450029D02*
X516659946Y-236170029D01*
X516659946Y-224450029D02*
X518159946Y-224450029D01*
X516659946Y-235170029D02*
X518159946Y-235170029D01*
X516659946Y-236170029D02*
X520679946Y-236170029D01*
X518159946Y-224450029D02*
X518159946Y-223450029D01*
X518159946Y-235170029D02*
X518159946Y-236170029D01*
X518969946Y-223450029D02*
X518969946Y-223950029D01*
X518969946Y-223950029D02*
X520179946Y-223950029D01*
X518969946Y-235670029D02*
X518969946Y-236170029D01*
X520179946Y-223950029D02*
X520179946Y-235670029D01*
X520179946Y-235670029D02*
X518969946Y-235670029D01*
X520679946Y-223450029D02*
X516659946Y-223450029D01*
X520679946Y-236170029D02*
X520679946Y-223450029D01*
D10*
%TO.C,D13*%
X405863346Y-230728129D02*
X406413346Y-230728129D01*
X406013346Y-230128129D02*
X406813346Y-230128129D01*
X406413346Y-229628129D02*
X406413346Y-230128129D01*
X406413346Y-230728129D02*
X406013346Y-230128129D01*
X406413346Y-230728129D02*
X406413346Y-231128129D01*
X406813346Y-230128129D02*
X406413346Y-230728129D01*
X406963346Y-230728129D02*
X406413346Y-230728129D01*
%TO.C,D54*%
X443960946Y-278350129D02*
X444510946Y-278350129D01*
X444110946Y-277750129D02*
X444910946Y-277750129D01*
X444510946Y-277250129D02*
X444510946Y-277750129D01*
X444510946Y-278350129D02*
X444110946Y-277750129D01*
X444510946Y-278350129D02*
X444510946Y-278750129D01*
X444910946Y-277750129D02*
X444510946Y-278350129D01*
X445060946Y-278350129D02*
X444510946Y-278350129D01*
%TO.C,D76*%
X158228946Y-316447729D02*
X158778946Y-316447729D01*
X158378946Y-315847729D02*
X159178946Y-315847729D01*
X158778946Y-315347729D02*
X158778946Y-315847729D01*
X158778946Y-316447729D02*
X158378946Y-315847729D01*
X158778946Y-316447729D02*
X158778946Y-316847729D01*
X159178946Y-315847729D02*
X158778946Y-316447729D01*
X159328946Y-316447729D02*
X158778946Y-316447729D01*
%TO.C,D88*%
X467771946Y-316385129D02*
X468321946Y-316385129D01*
X467921946Y-315785129D02*
X468721946Y-315785129D01*
X468321946Y-315285129D02*
X468321946Y-315785129D01*
X468321946Y-316385129D02*
X467921946Y-315785129D01*
X468321946Y-316385129D02*
X468321946Y-316785129D01*
X468721946Y-315785129D02*
X468321946Y-316385129D01*
X468871946Y-316385129D02*
X468321946Y-316385129D01*
%TO.C,D94*%
X165372246Y-335496529D02*
X165922246Y-335496529D01*
X165522246Y-334896529D02*
X166322246Y-334896529D01*
X165922246Y-334396529D02*
X165922246Y-334896529D01*
X165922246Y-335496529D02*
X165522246Y-334896529D01*
X165922246Y-335496529D02*
X165922246Y-335896529D01*
X166322246Y-334896529D02*
X165922246Y-335496529D01*
X166472246Y-335496529D02*
X165922246Y-335496529D01*
%TO.C,D68*%
X301094946Y-297336329D02*
X301644946Y-297336329D01*
X301244946Y-296736329D02*
X302044946Y-296736329D01*
X301644946Y-296236329D02*
X301644946Y-296736329D01*
X301644946Y-297336329D02*
X301244946Y-296736329D01*
X301644946Y-297336329D02*
X301644946Y-297736329D01*
X302044946Y-296736329D02*
X301644946Y-297336329D01*
X302194946Y-297336329D02*
X301644946Y-297336329D01*
%TO.C,D21*%
X191564346Y-259238729D02*
X192114346Y-259238729D01*
X191714346Y-258638729D02*
X192514346Y-258638729D01*
X192114346Y-258138729D02*
X192114346Y-258638729D01*
X192114346Y-259238729D02*
X191714346Y-258638729D01*
X192114346Y-259238729D02*
X192114346Y-259638729D01*
X192514346Y-258638729D02*
X192114346Y-259238729D01*
X192664346Y-259238729D02*
X192114346Y-259238729D01*
%TO.C,D42*%
X201088746Y-278350129D02*
X201638746Y-278350129D01*
X201238746Y-277750129D02*
X202038746Y-277750129D01*
X201638746Y-277250129D02*
X201638746Y-277750129D01*
X201638746Y-278350129D02*
X201238746Y-277750129D01*
X201638746Y-278350129D02*
X201638746Y-278750129D01*
X202038746Y-277750129D02*
X201638746Y-278350129D01*
X202188746Y-278350129D02*
X201638746Y-278350129D01*
%TO.C,D22*%
X210613146Y-259238729D02*
X211163146Y-259238729D01*
X210763146Y-258638729D02*
X211563146Y-258638729D01*
X211163146Y-258138729D02*
X211163146Y-258638729D01*
X211163146Y-259238729D02*
X210763146Y-258638729D01*
X211163146Y-259238729D02*
X211163146Y-259638729D01*
X211563146Y-258638729D02*
X211163146Y-259238729D01*
X211713146Y-259238729D02*
X211163146Y-259238729D01*
%TO.C,D43*%
X220137546Y-278287529D02*
X220687546Y-278287529D01*
X220287546Y-277687529D02*
X221087546Y-277687529D01*
X220687546Y-277187529D02*
X220687546Y-277687529D01*
X220687546Y-278287529D02*
X220287546Y-277687529D01*
X220687546Y-278287529D02*
X220687546Y-278687529D01*
X221087546Y-277687529D02*
X220687546Y-278287529D01*
X221237546Y-278287529D02*
X220687546Y-278287529D01*
%TO.C,D23*%
X229661946Y-259301329D02*
X230211946Y-259301329D01*
X229811946Y-258701329D02*
X230611946Y-258701329D01*
X230211946Y-258201329D02*
X230211946Y-258701329D01*
X230211946Y-259301329D02*
X229811946Y-258701329D01*
X230211946Y-259301329D02*
X230211946Y-259701329D01*
X230611946Y-258701329D02*
X230211946Y-259301329D01*
X230761946Y-259301329D02*
X230211946Y-259301329D01*
%TO.C,D78*%
X196326546Y-316447729D02*
X196876546Y-316447729D01*
X196476546Y-315847729D02*
X197276546Y-315847729D01*
X196876546Y-315347729D02*
X196876546Y-315847729D01*
X196876546Y-316447729D02*
X196476546Y-315847729D01*
X196876546Y-316447729D02*
X196876546Y-316847729D01*
X197276546Y-315847729D02*
X196876546Y-316447729D01*
X197426546Y-316447729D02*
X196876546Y-316447729D01*
%TO.C,D39*%
X143942346Y-278287529D02*
X144492346Y-278287529D01*
X144092346Y-277687529D02*
X144892346Y-277687529D01*
X144492346Y-277187529D02*
X144492346Y-277687529D01*
X144492346Y-278287529D02*
X144092346Y-277687529D01*
X144492346Y-278287529D02*
X144492346Y-278687529D01*
X144892346Y-277687529D02*
X144492346Y-278287529D01*
X145042346Y-278287529D02*
X144492346Y-278287529D01*
%TO.C,D16*%
X382052346Y-230728129D02*
X382602346Y-230728129D01*
X382202346Y-230128129D02*
X383002346Y-230128129D01*
X382602346Y-229628129D02*
X382602346Y-230128129D01*
X382602346Y-230728129D02*
X382202346Y-230128129D01*
X382602346Y-230728129D02*
X382602346Y-231128129D01*
X383002346Y-230128129D02*
X382602346Y-230728129D01*
X383152346Y-230728129D02*
X382602346Y-230728129D01*
%TO.C,D56*%
X486820746Y-278350129D02*
X487370746Y-278350129D01*
X486970746Y-277750129D02*
X487770746Y-277750129D01*
X487370746Y-277250129D02*
X487370746Y-277750129D01*
X487370746Y-278350129D02*
X486970746Y-277750129D01*
X487370746Y-278350129D02*
X487370746Y-278750129D01*
X487770746Y-277750129D02*
X487370746Y-278350129D01*
X487920746Y-278350129D02*
X487370746Y-278350129D01*
%TO.C,D46*%
X277283946Y-278350129D02*
X277833946Y-278350129D01*
X277433946Y-277750129D02*
X278233946Y-277750129D01*
X277833946Y-277250129D02*
X277833946Y-277750129D01*
X277833946Y-278350129D02*
X277433946Y-277750129D01*
X277833946Y-278350129D02*
X277833946Y-278750129D01*
X278233946Y-277750129D02*
X277833946Y-278350129D01*
X278383946Y-278350129D02*
X277833946Y-278350129D01*
%TO.C,D74*%
X467771946Y-297398929D02*
X468321946Y-297398929D01*
X467921946Y-296798929D02*
X468721946Y-296798929D01*
X468321946Y-296298929D02*
X468321946Y-296798929D01*
X468321946Y-297398929D02*
X467921946Y-296798929D01*
X468321946Y-297398929D02*
X468321946Y-297798929D01*
X468721946Y-296798929D02*
X468321946Y-297398929D01*
X468871946Y-297398929D02*
X468321946Y-297398929D01*
%TO.C,D34*%
X467771946Y-259301329D02*
X468321946Y-259301329D01*
X467921946Y-258701329D02*
X468721946Y-258701329D01*
X468321946Y-258201329D02*
X468321946Y-258701329D01*
X468321946Y-259301329D02*
X467921946Y-258701329D01*
X468321946Y-259301329D02*
X468321946Y-259701329D01*
X468721946Y-258701329D02*
X468321946Y-259301329D01*
X468871946Y-259301329D02*
X468321946Y-259301329D01*
%TO.C,D3*%
X172515546Y-230665529D02*
X173065546Y-230665529D01*
X172665546Y-230065529D02*
X173465546Y-230065529D01*
X173065546Y-229565529D02*
X173065546Y-230065529D01*
X173065546Y-230665529D02*
X172665546Y-230065529D01*
X173065546Y-230665529D02*
X173065546Y-231065529D01*
X173465546Y-230065529D02*
X173065546Y-230665529D01*
X173615546Y-230665529D02*
X173065546Y-230665529D01*
%TO.C,D25*%
X267759546Y-259238729D02*
X268309546Y-259238729D01*
X267909546Y-258638729D02*
X268709546Y-258638729D01*
X268309546Y-258138729D02*
X268309546Y-258638729D01*
X268309546Y-259238729D02*
X267909546Y-258638729D01*
X268309546Y-259238729D02*
X268309546Y-259638729D01*
X268709546Y-258638729D02*
X268309546Y-259238729D01*
X268859546Y-259238729D02*
X268309546Y-259238729D01*
%TO.C,D1*%
X115369146Y-230728129D02*
X115919146Y-230728129D01*
X115519146Y-230128129D02*
X116319146Y-230128129D01*
X115919146Y-229628129D02*
X115919146Y-230128129D01*
X115919146Y-230728129D02*
X115519146Y-230128129D01*
X115919146Y-230728129D02*
X115919146Y-231128129D01*
X116319146Y-230128129D02*
X115919146Y-230728129D01*
X116469146Y-230728129D02*
X115919146Y-230728129D01*
%TO.C,D11*%
X343954746Y-230728129D02*
X344504746Y-230728129D01*
X344104746Y-230128129D02*
X344904746Y-230128129D01*
X344504746Y-229628129D02*
X344504746Y-230128129D01*
X344504746Y-230728129D02*
X344104746Y-230128129D01*
X344504746Y-230728129D02*
X344504746Y-231128129D01*
X344904746Y-230128129D02*
X344504746Y-230728129D01*
X345054746Y-230728129D02*
X344504746Y-230728129D01*
%TO.C,D79*%
X215375346Y-316447729D02*
X215925346Y-316447729D01*
X215525346Y-315847729D02*
X216325346Y-315847729D01*
X215925346Y-315347729D02*
X215925346Y-315847729D01*
X215925346Y-316447729D02*
X215525346Y-315847729D01*
X215925346Y-316447729D02*
X215925346Y-316847729D01*
X216325346Y-315847729D02*
X215925346Y-316447729D01*
X216475346Y-316447729D02*
X215925346Y-316447729D01*
%TO.C,D67*%
X282046146Y-297398929D02*
X282596146Y-297398929D01*
X282196146Y-296798929D02*
X282996146Y-296798929D01*
X282596146Y-296298929D02*
X282596146Y-296798929D01*
X282596146Y-297398929D02*
X282196146Y-296798929D01*
X282596146Y-297398929D02*
X282596146Y-297798929D01*
X282996146Y-296798929D02*
X282596146Y-297398929D01*
X283146146Y-297398929D02*
X282596146Y-297398929D01*
%TO.C,D101*%
X424912146Y-335433929D02*
X425462146Y-335433929D01*
X425062146Y-334833929D02*
X425862146Y-334833929D01*
X425462146Y-334333929D02*
X425462146Y-334833929D01*
X425462146Y-335433929D02*
X425062146Y-334833929D01*
X425462146Y-335433929D02*
X425462146Y-335833929D01*
X425862146Y-334833929D02*
X425462146Y-335433929D01*
X426012146Y-335433929D02*
X425462146Y-335433929D01*
%TO.C,D102*%
X443960946Y-335496529D02*
X444510946Y-335496529D01*
X444110946Y-334896529D02*
X444910946Y-334896529D01*
X444510946Y-334396529D02*
X444510946Y-334896529D01*
X444510946Y-335496529D02*
X444110946Y-334896529D01*
X444510946Y-335496529D02*
X444510946Y-335896529D01*
X444910946Y-334896529D02*
X444510946Y-335496529D01*
X445060946Y-335496529D02*
X444510946Y-335496529D01*
%TO.C,D44*%
X239186346Y-278287529D02*
X239736346Y-278287529D01*
X239336346Y-277687529D02*
X240136346Y-277687529D01*
X239736346Y-277187529D02*
X239736346Y-277687529D01*
X239736346Y-278287529D02*
X239336346Y-277687529D01*
X239736346Y-278287529D02*
X239736346Y-278687529D01*
X240136346Y-277687529D02*
X239736346Y-278287529D01*
X240286346Y-278287529D02*
X239736346Y-278287529D01*
%TO.C,D52*%
X405863346Y-278287529D02*
X406413346Y-278287529D01*
X406013346Y-277687529D02*
X406813346Y-277687529D01*
X406413346Y-277187529D02*
X406413346Y-277687529D01*
X406413346Y-278287529D02*
X406013346Y-277687529D01*
X406413346Y-278287529D02*
X406413346Y-278687529D01*
X406813346Y-277687529D02*
X406413346Y-278287529D01*
X406963346Y-278287529D02*
X406413346Y-278287529D01*
%TO.C,D64*%
X224899746Y-297336329D02*
X225449746Y-297336329D01*
X225049746Y-296736329D02*
X225849746Y-296736329D01*
X225449746Y-296236329D02*
X225449746Y-296736329D01*
X225449746Y-297336329D02*
X225049746Y-296736329D01*
X225449746Y-297336329D02*
X225449746Y-297736329D01*
X225849746Y-296736329D02*
X225449746Y-297336329D01*
X225999746Y-297336329D02*
X225449746Y-297336329D01*
%TO.C,D97*%
X332049246Y-335496529D02*
X332599246Y-335496529D01*
X332199246Y-334896529D02*
X332999246Y-334896529D01*
X332599246Y-334396529D02*
X332599246Y-334896529D01*
X332599246Y-335496529D02*
X332199246Y-334896529D01*
X332599246Y-335496529D02*
X332599246Y-335896529D01*
X332999246Y-334896529D02*
X332599246Y-335496529D01*
X333149246Y-335496529D02*
X332599246Y-335496529D01*
%TO.C,D32*%
X424912146Y-259238729D02*
X425462146Y-259238729D01*
X425062146Y-258638729D02*
X425862146Y-258638729D01*
X425462146Y-258138729D02*
X425462146Y-258638729D01*
X425462146Y-259238729D02*
X425062146Y-258638729D01*
X425462146Y-259238729D02*
X425462146Y-259638729D01*
X425862146Y-258638729D02*
X425462146Y-259238729D01*
X426012146Y-259238729D02*
X425462146Y-259238729D01*
%TO.C,D60*%
X148704546Y-297336329D02*
X149254546Y-297336329D01*
X148854546Y-296736329D02*
X149654546Y-296736329D01*
X149254546Y-296236329D02*
X149254546Y-296736329D01*
X149254546Y-297336329D02*
X148854546Y-296736329D01*
X149254546Y-297336329D02*
X149254546Y-297736329D01*
X149654546Y-296736329D02*
X149254546Y-297336329D01*
X149804546Y-297336329D02*
X149254546Y-297336329D01*
%TO.C,D87*%
X424912146Y-316447729D02*
X425462146Y-316447729D01*
X425062146Y-315847729D02*
X425862146Y-315847729D01*
X425462146Y-315347729D02*
X425462146Y-315847729D01*
X425462146Y-316447729D02*
X425062146Y-315847729D01*
X425462146Y-316447729D02*
X425462146Y-316847729D01*
X425862146Y-315847729D02*
X425462146Y-316447729D01*
X426012146Y-316447729D02*
X425462146Y-316447729D01*
%TO.C,D55*%
X467771946Y-278350129D02*
X468321946Y-278350129D01*
X467921946Y-277750129D02*
X468721946Y-277750129D01*
X468321946Y-277250129D02*
X468321946Y-277750129D01*
X468321946Y-278350129D02*
X467921946Y-277750129D01*
X468321946Y-278350129D02*
X468321946Y-278750129D01*
X468721946Y-277750129D02*
X468321946Y-278350129D01*
X468871946Y-278350129D02*
X468321946Y-278350129D01*
%TO.C,D41*%
X182039946Y-278350129D02*
X182589946Y-278350129D01*
X182189946Y-277750129D02*
X182989946Y-277750129D01*
X182589946Y-277250129D02*
X182589946Y-277750129D01*
X182589946Y-278350129D02*
X182189946Y-277750129D01*
X182589946Y-278350129D02*
X182589946Y-278750129D01*
X182989946Y-277750129D02*
X182589946Y-278350129D01*
X183139946Y-278350129D02*
X182589946Y-278350129D01*
%TO.C,D61*%
X167753346Y-297336329D02*
X168303346Y-297336329D01*
X167903346Y-296736329D02*
X168703346Y-296736329D01*
X168303346Y-296236329D02*
X168303346Y-296736329D01*
X168303346Y-297336329D02*
X167903346Y-296736329D01*
X168303346Y-297336329D02*
X168303346Y-297736329D01*
X168703346Y-296736329D02*
X168303346Y-297336329D01*
X168853346Y-297336329D02*
X168303346Y-297336329D01*
%TO.C,D58*%
X524918346Y-287874529D02*
X525468346Y-287874529D01*
X525068346Y-287274529D02*
X525868346Y-287274529D01*
X525468346Y-286774529D02*
X525468346Y-287274529D01*
X525468346Y-287874529D02*
X525068346Y-287274529D01*
X525468346Y-287874529D02*
X525468346Y-288274529D01*
X525868346Y-287274529D02*
X525468346Y-287874529D01*
X526018346Y-287874529D02*
X525468346Y-287874529D01*
%TO.C,D59*%
X122512446Y-297398929D02*
X123062446Y-297398929D01*
X122662446Y-296798929D02*
X123462446Y-296798929D01*
X123062446Y-296298929D02*
X123062446Y-296798929D01*
X123062446Y-297398929D02*
X122662446Y-296798929D01*
X123062446Y-297398929D02*
X123062446Y-297798929D01*
X123462446Y-296798929D02*
X123062446Y-297398929D01*
X123612446Y-297398929D02*
X123062446Y-297398929D01*
%TO.C,D103*%
X477296346Y-335433929D02*
X477846346Y-335433929D01*
X477446346Y-334833929D02*
X478246346Y-334833929D01*
X477846346Y-334333929D02*
X477846346Y-334833929D01*
X477846346Y-335433929D02*
X477446346Y-334833929D01*
X477846346Y-335433929D02*
X477846346Y-335833929D01*
X478246346Y-334833929D02*
X477846346Y-335433929D01*
X478396346Y-335433929D02*
X477846346Y-335433929D01*
%TO.C,D40*%
X162991146Y-278287529D02*
X163541146Y-278287529D01*
X163141146Y-277687529D02*
X163941146Y-277687529D01*
X163541146Y-277187529D02*
X163541146Y-277687529D01*
X163541146Y-278287529D02*
X163141146Y-277687529D01*
X163541146Y-278287529D02*
X163541146Y-278687529D01*
X163941146Y-277687529D02*
X163541146Y-278287529D01*
X164091146Y-278287529D02*
X163541146Y-278287529D01*
%TO.C,D100*%
X405863346Y-335496529D02*
X406413346Y-335496529D01*
X406013346Y-334896529D02*
X406813346Y-334896529D01*
X406413346Y-334396529D02*
X406413346Y-334896529D01*
X406413346Y-335496529D02*
X406013346Y-334896529D01*
X406413346Y-335496529D02*
X406413346Y-335896529D01*
X406813346Y-334896529D02*
X406413346Y-335496529D01*
X406963346Y-335496529D02*
X406413346Y-335496529D01*
%TO.C,D80*%
X234424146Y-316447729D02*
X234974146Y-316447729D01*
X234574146Y-315847729D02*
X235374146Y-315847729D01*
X234974146Y-315347729D02*
X234974146Y-315847729D01*
X234974146Y-316447729D02*
X234574146Y-315847729D01*
X234974146Y-316447729D02*
X234974146Y-316847729D01*
X235374146Y-315847729D02*
X234974146Y-316447729D01*
X235524146Y-316447729D02*
X234974146Y-316447729D01*
%TO.C,D98*%
X355860246Y-335433929D02*
X356410246Y-335433929D01*
X356010246Y-334833929D02*
X356810246Y-334833929D01*
X356410246Y-334333929D02*
X356410246Y-334833929D01*
X356410246Y-335433929D02*
X356010246Y-334833929D01*
X356410246Y-335433929D02*
X356410246Y-335833929D01*
X356810246Y-334833929D02*
X356410246Y-335433929D01*
X356960246Y-335433929D02*
X356410246Y-335433929D01*
%TO.C,D89*%
X486820746Y-316385129D02*
X487370746Y-316385129D01*
X486970746Y-315785129D02*
X487770746Y-315785129D01*
X487370746Y-315285129D02*
X487370746Y-315785129D01*
X487370746Y-316385129D02*
X486970746Y-315785129D01*
X487370746Y-316385129D02*
X487370746Y-316785129D01*
X487770746Y-315785129D02*
X487370746Y-316385129D01*
X487920746Y-316385129D02*
X487370746Y-316385129D01*
%TO.C,D19*%
X153466746Y-259301329D02*
X154016746Y-259301329D01*
X153616746Y-258701329D02*
X154416746Y-258701329D01*
X154016746Y-258201329D02*
X154016746Y-258701329D01*
X154016746Y-259301329D02*
X153616746Y-258701329D01*
X154016746Y-259301329D02*
X154016746Y-259701329D01*
X154416746Y-258701329D02*
X154016746Y-259301329D01*
X154566746Y-259301329D02*
X154016746Y-259301329D01*
%TO.C,D99*%
X379671246Y-335496529D02*
X380221246Y-335496529D01*
X379821246Y-334896529D02*
X380621246Y-334896529D01*
X380221246Y-334396529D02*
X380221246Y-334896529D01*
X380221246Y-335496529D02*
X379821246Y-334896529D01*
X380221246Y-335496529D02*
X380221246Y-335896529D01*
X380621246Y-334896529D02*
X380221246Y-335496529D01*
X380771246Y-335496529D02*
X380221246Y-335496529D01*
%TO.C,D12*%
X363003546Y-230665529D02*
X363553546Y-230665529D01*
X363153546Y-230065529D02*
X363953546Y-230065529D01*
X363553546Y-229565529D02*
X363553546Y-230065529D01*
X363553546Y-230665529D02*
X363153546Y-230065529D01*
X363553546Y-230665529D02*
X363553546Y-231065529D01*
X363953546Y-230065529D02*
X363553546Y-230665529D01*
X364103546Y-230665529D02*
X363553546Y-230665529D01*
%TO.C,D26*%
X286808346Y-259301329D02*
X287358346Y-259301329D01*
X286958346Y-258701329D02*
X287758346Y-258701329D01*
X287358346Y-258201329D02*
X287358346Y-258701329D01*
X287358346Y-259301329D02*
X286958346Y-258701329D01*
X287358346Y-259301329D02*
X287358346Y-259701329D01*
X287758346Y-258701329D02*
X287358346Y-259301329D01*
X287908346Y-259301329D02*
X287358346Y-259301329D01*
%TO.C,D84*%
X310619346Y-316447729D02*
X311169346Y-316447729D01*
X310769346Y-315847729D02*
X311569346Y-315847729D01*
X311169346Y-315347729D02*
X311169346Y-315847729D01*
X311169346Y-316447729D02*
X310769346Y-315847729D01*
X311169346Y-316447729D02*
X311169346Y-316847729D01*
X311569346Y-315847729D02*
X311169346Y-316447729D01*
X311719346Y-316447729D02*
X311169346Y-316447729D01*
%TO.C,D38*%
X120131346Y-278350129D02*
X120681346Y-278350129D01*
X120281346Y-277750129D02*
X121081346Y-277750129D01*
X120681346Y-277250129D02*
X120681346Y-277750129D01*
X120681346Y-278350129D02*
X120281346Y-277750129D01*
X120681346Y-278350129D02*
X120681346Y-278750129D01*
X121081346Y-277750129D02*
X120681346Y-278350129D01*
X121231346Y-278350129D02*
X120681346Y-278350129D01*
%TO.C,D69*%
X320143746Y-297336329D02*
X320693746Y-297336329D01*
X320293746Y-296736329D02*
X321093746Y-296736329D01*
X320693746Y-296236329D02*
X320693746Y-296736329D01*
X320693746Y-297336329D02*
X320293746Y-296736329D01*
X320693746Y-297336329D02*
X320693746Y-297736329D01*
X321093746Y-296736329D02*
X320693746Y-297336329D01*
X321243746Y-297336329D02*
X320693746Y-297336329D01*
%TO.C,D7*%
X258235146Y-230728129D02*
X258785146Y-230728129D01*
X258385146Y-230128129D02*
X259185146Y-230128129D01*
X258785146Y-229628129D02*
X258785146Y-230128129D01*
X258785146Y-230728129D02*
X258385146Y-230128129D01*
X258785146Y-230728129D02*
X258785146Y-231128129D01*
X259185146Y-230128129D02*
X258785146Y-230728129D01*
X259335146Y-230728129D02*
X258785146Y-230728129D01*
%TO.C,D49*%
X334430346Y-278350129D02*
X334980346Y-278350129D01*
X334580346Y-277750129D02*
X335380346Y-277750129D01*
X334980346Y-277250129D02*
X334980346Y-277750129D01*
X334980346Y-278350129D02*
X334580346Y-277750129D01*
X334980346Y-278350129D02*
X334980346Y-278750129D01*
X335380346Y-277750129D02*
X334980346Y-278350129D01*
X335530346Y-278350129D02*
X334980346Y-278350129D01*
%TO.C,D31*%
X405863346Y-259301329D02*
X406413346Y-259301329D01*
X406013346Y-258701329D02*
X406813346Y-258701329D01*
X406413346Y-258201329D02*
X406413346Y-258701329D01*
X406413346Y-259301329D02*
X406013346Y-258701329D01*
X406413346Y-259301329D02*
X406413346Y-259701329D01*
X406813346Y-258701329D02*
X406413346Y-259301329D01*
X406963346Y-259301329D02*
X406413346Y-259301329D01*
%TO.C,D15*%
X443960946Y-230665529D02*
X444510946Y-230665529D01*
X444110946Y-230065529D02*
X444910946Y-230065529D01*
X444510946Y-229565529D02*
X444510946Y-230065529D01*
X444510946Y-230665529D02*
X444110946Y-230065529D01*
X444510946Y-230665529D02*
X444510946Y-231065529D01*
X444910946Y-230065529D02*
X444510946Y-230665529D01*
X445060946Y-230665529D02*
X444510946Y-230665529D01*
%TO.C,D10*%
X324905946Y-230728129D02*
X325455946Y-230728129D01*
X325055946Y-230128129D02*
X325855946Y-230128129D01*
X325455946Y-229628129D02*
X325455946Y-230128129D01*
X325455946Y-230728129D02*
X325055946Y-230128129D01*
X325455946Y-230728129D02*
X325455946Y-231128129D01*
X325855946Y-230128129D02*
X325455946Y-230728129D01*
X326005946Y-230728129D02*
X325455946Y-230728129D01*
%TO.C,D83*%
X291570546Y-316447729D02*
X292120546Y-316447729D01*
X291720546Y-315847729D02*
X292520546Y-315847729D01*
X292120546Y-315347729D02*
X292120546Y-315847729D01*
X292120546Y-316447729D02*
X291720546Y-315847729D01*
X292120546Y-316447729D02*
X292120546Y-316847729D01*
X292520546Y-315847729D02*
X292120546Y-316447729D01*
X292670546Y-316447729D02*
X292120546Y-316447729D01*
%TO.C,D48*%
X315381546Y-278350129D02*
X315931546Y-278350129D01*
X315531546Y-277750129D02*
X316331546Y-277750129D01*
X315931546Y-277250129D02*
X315931546Y-277750129D01*
X315931546Y-278350129D02*
X315531546Y-277750129D01*
X315931546Y-278350129D02*
X315931546Y-278750129D01*
X316331546Y-277750129D02*
X315931546Y-278350129D01*
X316481546Y-278350129D02*
X315931546Y-278350129D01*
%TO.C,D4*%
X191564346Y-230728129D02*
X192114346Y-230728129D01*
X191714346Y-230128129D02*
X192514346Y-230128129D01*
X192114346Y-229628129D02*
X192114346Y-230128129D01*
X192114346Y-230728129D02*
X191714346Y-230128129D01*
X192114346Y-230728129D02*
X192114346Y-231128129D01*
X192514346Y-230128129D02*
X192114346Y-230728129D01*
X192664346Y-230728129D02*
X192114346Y-230728129D01*
%TO.C,D37*%
X524918346Y-259301329D02*
X525468346Y-259301329D01*
X525068346Y-258701329D02*
X525868346Y-258701329D01*
X525468346Y-258201329D02*
X525468346Y-258701329D01*
X525468346Y-259301329D02*
X525068346Y-258701329D01*
X525468346Y-259301329D02*
X525468346Y-259701329D01*
X525868346Y-258701329D02*
X525468346Y-259301329D01*
X526018346Y-259301329D02*
X525468346Y-259301329D01*
%TO.C,D104*%
X505869546Y-335433929D02*
X506419546Y-335433929D01*
X506019546Y-334833929D02*
X506819546Y-334833929D01*
X506419546Y-334333929D02*
X506419546Y-334833929D01*
X506419546Y-335433929D02*
X506019546Y-334833929D01*
X506419546Y-335433929D02*
X506419546Y-335833929D01*
X506819546Y-334833929D02*
X506419546Y-335433929D01*
X506969546Y-335433929D02*
X506419546Y-335433929D01*
%TO.C,D18*%
X134417946Y-259301329D02*
X134967946Y-259301329D01*
X134567946Y-258701329D02*
X135367946Y-258701329D01*
X134967946Y-258201329D02*
X134967946Y-258701329D01*
X134967946Y-259301329D02*
X134567946Y-258701329D01*
X134967946Y-259301329D02*
X134967946Y-259701329D01*
X135367946Y-258701329D02*
X134967946Y-259301329D01*
X135517946Y-259301329D02*
X134967946Y-259301329D01*
%TO.C,D6*%
X239186346Y-230728129D02*
X239736346Y-230728129D01*
X239336346Y-230128129D02*
X240136346Y-230128129D01*
X239736346Y-229628129D02*
X239736346Y-230128129D01*
X239736346Y-230728129D02*
X239336346Y-230128129D01*
X239736346Y-230728129D02*
X239736346Y-231128129D01*
X240136346Y-230128129D02*
X239736346Y-230728129D01*
X240286346Y-230728129D02*
X239736346Y-230728129D01*
%TO.C,D17*%
X115369146Y-259301329D02*
X115919146Y-259301329D01*
X115519146Y-258701329D02*
X116319146Y-258701329D01*
X115919146Y-258201329D02*
X115919146Y-258701329D01*
X115919146Y-259301329D02*
X115519146Y-258701329D01*
X115919146Y-259301329D02*
X115919146Y-259701329D01*
X116319146Y-258701329D02*
X115919146Y-259301329D01*
X116469146Y-259301329D02*
X115919146Y-259301329D01*
%TO.C,D82*%
X272521746Y-316447729D02*
X273071746Y-316447729D01*
X272671746Y-315847729D02*
X273471746Y-315847729D01*
X273071746Y-315347729D02*
X273071746Y-315847729D01*
X273071746Y-316447729D02*
X272671746Y-315847729D01*
X273071746Y-316447729D02*
X273071746Y-316847729D01*
X273471746Y-315847729D02*
X273071746Y-316447729D01*
X273621746Y-316447729D02*
X273071746Y-316447729D01*
%TO.C,D62*%
X186802146Y-297336329D02*
X187352146Y-297336329D01*
X186952146Y-296736329D02*
X187752146Y-296736329D01*
X187352146Y-296236329D02*
X187352146Y-296736329D01*
X187352146Y-297336329D02*
X186952146Y-296736329D01*
X187352146Y-297336329D02*
X187352146Y-297736329D01*
X187752146Y-296736329D02*
X187352146Y-297336329D01*
X187902146Y-297336329D02*
X187352146Y-297336329D01*
%TO.C,D63*%
X205850946Y-297398929D02*
X206400946Y-297398929D01*
X206000946Y-296798929D02*
X206800946Y-296798929D01*
X206400946Y-296298929D02*
X206400946Y-296798929D01*
X206400946Y-297398929D02*
X206000946Y-296798929D01*
X206400946Y-297398929D02*
X206400946Y-297798929D01*
X206800946Y-296798929D02*
X206400946Y-297398929D01*
X206950946Y-297398929D02*
X206400946Y-297398929D01*
%TO.C,D57*%
X505869546Y-278287529D02*
X506419546Y-278287529D01*
X506019546Y-277687529D02*
X506819546Y-277687529D01*
X506419546Y-277187529D02*
X506419546Y-277687529D01*
X506419546Y-278287529D02*
X506019546Y-277687529D01*
X506419546Y-278287529D02*
X506419546Y-278687529D01*
X506819546Y-277687529D02*
X506419546Y-278287529D01*
X506969546Y-278287529D02*
X506419546Y-278287529D01*
%TO.C,D72*%
X486820746Y-297336329D02*
X487370746Y-297336329D01*
X486970746Y-296736329D02*
X487770746Y-296736329D01*
X487370746Y-296236329D02*
X487370746Y-296736329D01*
X487370746Y-297336329D02*
X486970746Y-296736329D01*
X487370746Y-297336329D02*
X487370746Y-297736329D01*
X487770746Y-296736329D02*
X487370746Y-297336329D01*
X487920746Y-297336329D02*
X487370746Y-297336329D01*
%TO.C,D29*%
X343954746Y-259301329D02*
X344504746Y-259301329D01*
X344104746Y-258701329D02*
X344904746Y-258701329D01*
X344504746Y-258201329D02*
X344504746Y-258701329D01*
X344504746Y-259301329D02*
X344104746Y-258701329D01*
X344504746Y-259301329D02*
X344504746Y-259701329D01*
X344904746Y-258701329D02*
X344504746Y-259301329D01*
X345054746Y-259301329D02*
X344504746Y-259301329D01*
%TD*%
M02*
