M48
; DRILL file {KiCad 8.0.5} date 2025-06-15T08:44:19-0700
; FORMAT={-:-/ absolute / inch / decimal}
; #@! TF.CreationDate,2025-06-15T08:44:19-07:00
; #@! TF.GenerationSoftware,Kicad,Pcbnew,8.0.5
; #@! TF.FileFunction,Plated,1,4,PTH
FMAT,2
INCH
; #@! TA.AperFunction,Plated,PTH,ViaDrill
T1C0.0118
; #@! TA.AperFunction,Plated,PTH,ComponentDrill
T2C0.0374
; #@! TA.AperFunction,Plated,PTH,ComponentDrill
T3C0.0591
%
G90
G05
T1
X4.9075Y-9.8825
X4.9075Y-10.2262
X5.1887Y-12.8823
X5.2825Y-10.6324
X5.2825Y-10.9761
X5.4699Y-11.3824
X5.4699Y-11.7261
X5.5637Y-9.1013
X5.6574Y-9.8512
X5.6574Y-10.2363
X5.8449Y-12.1636
X5.8449Y-12.476
X6.0324Y-10.6324
X6.0324Y-10.9761
X6.1261Y-12.8823
X6.2199Y-11.3824
X6.2199Y-11.7261
X6.3136Y-9.1013
X6.4074Y-9.8512
X6.4074Y-10.2363
X6.5011Y-12.4861
X6.5949Y-12.1323
X6.7824Y-10.6324
X6.7824Y-10.9838
X6.9698Y-11.3824
X6.9698Y-11.7261
X7.0636Y-9.1013
X7.1573Y-10.2363
X7.3448Y-9.7887
X7.3448Y-12.1323
X7.5323Y-10.6324
X7.5323Y-10.9838
X7.7198Y-11.3824
X7.7198Y-11.7261
X7.8135Y-9.1013
X7.9073Y-10.2363
X7.9385Y-9.695
X8.0948Y-12.1323
X8.2823Y-10.6324
X8.2823Y-10.9761
X8.4697Y-11.3824
X8.4697Y-11.7261
X8.6572Y-10.2363
X8.7197Y-9.6012
X8.8447Y-12.1323
X8.8447Y-12.476
X8.9385Y-9.1013
X8.9385Y-12.8823
X9.0322Y-10.6324
X9.0322Y-10.9761
X9.2197Y-11.3824
X9.2197Y-11.7261
X9.4072Y-10.2262
X9.5947Y-12.1323
X9.6884Y-9.1013
X9.7822Y-10.6324
X9.7822Y-10.9761
X9.9697Y-9.4137
X9.9697Y-11.3824
X9.9697Y-11.7261
X10.1571Y-10.2363
X10.3446Y-12.1323
X10.4384Y-9.1013
X10.5321Y-10.6324
X10.5321Y-10.9761
X10.6571Y-9.4137
X10.7196Y-11.3824
X10.7196Y-11.7362
X10.9071Y-10.2262
X11.0946Y-12.1323
X11.1883Y-9.1013
X11.2821Y-10.6324
X11.2821Y-10.9761
X11.4696Y-11.3824
X11.4696Y-11.7362
X11.5008Y-9.4137
X11.657Y-10.2262
X11.7508Y-12.8823
X11.8445Y-12.1323
X11.8445Y-12.476
X12.032Y-10.6324
X12.032Y-10.9761
X12.2195Y-11.3824
X12.2195Y-11.7261
X12.3133Y-9.1013
X12.407Y-10.2363
X12.532Y-9.4137
X12.5945Y-12.1323
X12.5945Y-12.476
X12.6882Y-12.8823
X12.782Y-10.6324
X12.782Y-10.9761
X12.9695Y-9.4137
X12.9695Y-11.3824
X12.9695Y-11.7261
X13.0632Y-9.1013
X13.157Y-10.2363
X13.5319Y-10.6324
X13.5319Y-10.9838
X13.6257Y-12.8823
X13.7507Y-9.4137
X13.8132Y-9.1013
X14.0007Y-12.1323
X14.0007Y-12.476
X14.1881Y-11.3824
X14.2819Y-10.2262
X14.4694Y-10.6324
X14.4694Y-10.9761
X14.5631Y-9.1013
X14.5631Y-12.8823
X15.5006Y-9.1013
X15.5943Y-9.8825
X15.5943Y-10.2262
X15.5943Y-10.6324
X15.5943Y-10.9761
X15.5943Y-12.8823
X16.3443Y-9.1013
X16.3443Y-9.8825
X16.3443Y-10.2262
X16.3443Y-10.6324
X16.3443Y-10.9838
X16.3443Y-12.1323
X16.3443Y-12.4861
X16.3443Y-12.8823
X17.0942Y-9.1113
X17.0942Y-9.8825
X17.0942Y-10.2363
X17.0942Y-10.6324
X17.0942Y-10.9761
X17.0942Y-12.8823
X18.0316Y-10.2262
X18.0316Y-10.6324
X18.0316Y-10.9838
X18.0316Y-11.3824
X18.0316Y-11.7362
X18.0316Y-12.1323
X18.0316Y-12.476
X18.4066Y-12.8823
X18.7816Y-10.2262
X18.7816Y-10.6324
X18.7816Y-10.9761
X18.7816Y-11.3824
X18.7816Y-11.7362
X18.7816Y-12.1323
X18.922Y-9.3409
X19.0861Y-9.1241
X19.0861Y-9.1628
X19.0861Y-9.2022
X19.0861Y-9.3104
X19.1405Y-9.4354
X19.1507Y-9.3384
X19.1507Y-9.0962
X19.181Y-9.3616
X19.2366Y-9.4243
X19.2587Y-9.1726
X19.2646Y-9.4889
X19.2842Y-9.3163
X19.4614Y-9.088
X19.4777Y-9.1923
X19.4811Y-8.9155
X19.487Y-9.2907
X19.5131Y-9.3854
X19.5131Y-9.3468
X19.5198Y-8.9155
X19.5316Y-10.2262
X19.5316Y-10.6324
X19.5316Y-10.9761
X19.5316Y-11.3824
X19.5316Y-11.7261
X19.5316Y-12.1323
X19.5316Y-12.4861
X19.5316Y-12.8823
X19.5477Y-8.98
X19.5777Y-9.4243
X19.9599Y-9.1923
X19.9855Y-9.1288
X20.1138Y-8.8165
X20.2815Y-10.2262
X20.2815Y-11.0074
X20.2815Y-11.3612
X20.2815Y-12.5073
T2
X20.4319Y-8.9
X20.4319Y-8.9984
X20.4319Y-9.0969
X20.4319Y-9.1953
T3
X4.2888Y-8.9388
X4.2888Y-10.0638
X4.3825Y-13.0638
X4.4763Y-10.8138
X4.5388Y-8.8388
X4.5388Y-9.9638
X4.57Y-11.5638
X4.6325Y-12.9638
X4.7263Y-10.7138
X4.7575Y-12.3138
X4.82Y-11.4638
X5.0075Y-12.2138
X5.0388Y-10.0638
X5.2888Y-9.9638
X5.32Y-13.0638
X5.4138Y-10.8138
X5.57Y-12.9638
X5.6013Y-11.5638
X5.6638Y-10.7138
X5.7888Y-8.9388
X5.7888Y-10.0638
X5.8513Y-11.4638
X5.9763Y-12.3138
X6.0388Y-8.8388
X6.0388Y-9.9638
X6.1638Y-10.8138
X6.2263Y-12.2138
X6.2575Y-13.0638
X6.3513Y-11.5638
X6.4138Y-10.7138
X6.5075Y-12.9638
X6.5388Y-8.9388
X6.5388Y-10.0638
X6.6013Y-11.4638
X6.7263Y-12.3138
X6.7888Y-8.8388
X6.7888Y-9.9638
X6.9138Y-10.8138
X6.9763Y-12.2138
X7.1013Y-11.5638
X7.1638Y-10.7138
X7.2888Y-8.9388
X7.2888Y-10.0638
X7.3513Y-11.4638
X7.4763Y-12.3138
X7.5388Y-8.8388
X7.5388Y-9.9638
X7.6638Y-10.8138
X7.7263Y-12.2138
X7.8513Y-11.5638
X7.9138Y-10.7138
X8.0388Y-8.9388
X8.0388Y-10.0638
X8.1013Y-11.4638
X8.2263Y-12.3138
X8.2888Y-8.8388
X8.2888Y-9.9638
X8.4138Y-10.8138
X8.4763Y-12.2138
X8.6013Y-11.5638
X8.6638Y-10.7138
X8.7888Y-10.0638
X8.8513Y-11.4638
X8.9763Y-12.3138
X9.0388Y-9.9638
X9.07Y-13.0638
X9.1638Y-8.9388
X9.1638Y-10.8138
X9.2263Y-12.2138
X9.32Y-12.9638
X9.3513Y-11.5638
X9.4138Y-8.8388
X9.4138Y-10.7138
X9.5388Y-10.0638
X9.6013Y-11.4638
X9.7263Y-12.3138
X9.7888Y-9.9638
X9.9118Y-8.9388
X9.9138Y-10.8138
X9.9763Y-12.2138
X10.1013Y-11.5638
X10.1618Y-8.8388
X10.1638Y-10.7138
X10.2888Y-10.0638
X10.3513Y-11.4638
X10.4763Y-12.3138
X10.5388Y-9.9638
X10.6598Y-8.9388
X10.6638Y-10.8138
X10.7263Y-12.2138
X10.8513Y-11.5638
X10.9098Y-8.8388
X10.9138Y-10.7138
X11.0388Y-10.0638
X11.1013Y-11.4638
X11.2263Y-12.3138
X11.2888Y-9.9638
X11.4079Y-8.9388
X11.4138Y-10.8138
X11.4763Y-12.2138
X11.6013Y-11.5638
X11.6579Y-8.8388
X11.6638Y-10.7138
X11.7888Y-10.0638
X11.8513Y-11.4638
X11.8825Y-13.0638
X11.9763Y-12.3138
X12.0388Y-9.9638
X12.1325Y-12.9638
X12.1638Y-10.8138
X12.2263Y-12.2138
X12.3513Y-11.5638
X12.4138Y-10.7138
X12.5388Y-8.9388
X12.5388Y-10.0638
X12.6013Y-11.4638
X12.7263Y-12.3138
X12.7888Y-8.8388
X12.7888Y-9.9638
X12.82Y-13.0638
X12.9138Y-10.8138
X12.9763Y-12.2138
X13.07Y-12.9638
X13.1013Y-11.5638
X13.1638Y-10.7138
X13.2868Y-8.9388
X13.2888Y-10.0638
X13.3513Y-11.4638
X13.5368Y-8.8388
X13.5388Y-9.9638
X13.6638Y-10.8138
X13.7575Y-13.0638
X13.9138Y-10.7138
X14.0075Y-12.9638
X14.0348Y-8.9388
X14.1325Y-12.3138
X14.2848Y-8.8388
X14.32Y-11.5638
X14.3825Y-12.2138
X14.4138Y-10.0638
X14.57Y-11.4638
X14.6013Y-10.8138
X14.6638Y-9.9638
X14.695Y-13.0638
X14.788Y-8.9388
X14.8513Y-10.7138
X14.945Y-12.9638
X15.038Y-8.8388
X15.7263Y-8.9388
X15.7263Y-10.0638
X15.7263Y-10.8138
X15.7263Y-13.0638
X15.9763Y-8.8388
X15.9763Y-9.9638
X15.9763Y-10.7138
X15.9763Y-12.9638
X16.4763Y-8.9388
X16.4763Y-10.0638
X16.4763Y-10.8138
X16.4763Y-12.3138
X16.4763Y-13.0638
X16.7263Y-8.8388
X16.7263Y-9.9638
X16.7263Y-10.7138
X16.7263Y-12.2138
X16.7263Y-12.9638
X17.2263Y-8.9388
X17.2263Y-10.0638
X17.2263Y-10.8138
X17.2263Y-13.0638
X17.4763Y-8.8388
X17.4763Y-9.9638
X17.4763Y-10.7138
X17.4763Y-12.9638
X18.1638Y-10.0638
X18.1638Y-10.8138
X18.1638Y-11.5638
X18.1638Y-12.3138
X18.4138Y-9.9638
X18.4138Y-10.7138
X18.4138Y-11.4638
X18.4138Y-12.2138
X18.5388Y-13.0638
X18.7888Y-12.9638
X18.9138Y-10.0638
X18.9138Y-10.8138
X18.9138Y-11.5638
X18.9138Y-12.3138
X19.1638Y-9.9638
X19.1638Y-10.7138
X19.1638Y-11.4638
X19.1638Y-12.2138
X19.6638Y-10.0638
X19.6638Y-10.8138
X19.6638Y-11.5638
X19.6638Y-12.3138
X19.6638Y-13.0638
X19.9138Y-9.9638
X19.9138Y-10.7138
X19.9138Y-11.4638
X19.9138Y-12.2138
X19.9138Y-12.9638
X20.4138Y-10.0638
X20.4138Y-11.1888
X20.4138Y-12.6888
X20.6638Y-9.9638
X20.6638Y-11.0888
X20.6638Y-12.5888
M30
