%TF.GenerationSoftware,KiCad,Pcbnew,8.0.5*%
%TF.CreationDate,2025-06-15T08:44:16-07:00*%
%TF.ProjectId,Full Keyboard,46756c6c-204b-4657-9962-6f6172642e6b,2.0.0*%
%TF.SameCoordinates,Original*%
%TF.FileFunction,Drillmap*%
%TF.FilePolarity,Positive*%
%FSLAX45Y45*%
G04 Gerber Fmt 4.5, Leading zero omitted, Abs format (unit mm)*
G04 Created by KiCad (PCBNEW 8.0.5) date 2025-06-15 08:44:16*
%MOMM*%
%LPD*%
G01*
G04 APERTURE LIST*
%ADD10C,0.050000*%
%ADD11C,0.200000*%
%ADD12C,0.175000*%
%ADD13C,0.304800*%
%ADD14C,0.398780*%
%ADD15C,0.400000*%
G04 APERTURE END LIST*
D10*
X52737134Y-21607326D02*
G75*
G02*
X53612057Y-22482258I-6J-874929D01*
G01*
X10589008Y-35025316D02*
G75*
G02*
X9714083Y-34150387I1J874926D01*
G01*
X10589008Y-35025316D02*
X52737133Y-35025316D01*
X9714083Y-22482262D02*
X9714083Y-34150387D01*
X9714082Y-22482253D02*
G75*
G02*
X10589009Y-21607326I874927J0D01*
G01*
X53612057Y-22482258D02*
X53612057Y-34150383D01*
X52737134Y-21607326D02*
X10589009Y-21607326D01*
X53612057Y-34150383D02*
G75*
G02*
X52737133Y-35025316I-874930J-3D01*
G01*
D11*
D12*
X10678995Y-22871003D02*
X10853995Y-23046003D01*
X10853995Y-22871003D02*
X10678995Y-23046003D01*
X10678995Y-25728503D02*
X10853995Y-25903503D01*
X10853995Y-25728503D02*
X10678995Y-25903503D01*
X10917120Y-33348503D02*
X11092120Y-33523503D01*
X11092120Y-33348503D02*
X10917120Y-33523503D01*
X11155245Y-27633503D02*
X11330245Y-27808503D01*
X11330245Y-27633503D02*
X11155245Y-27808503D01*
X11393370Y-29538503D02*
X11568370Y-29713503D01*
X11568370Y-29538503D02*
X11393370Y-29713503D01*
X11694995Y-22871003D02*
X11869995Y-23046003D01*
X11869995Y-22871003D02*
X11694995Y-23046003D01*
X11694995Y-25728503D02*
X11869995Y-25903503D01*
X11869995Y-25728503D02*
X11694995Y-25903503D01*
X11869620Y-31443503D02*
X12044620Y-31618503D01*
X12044620Y-31443503D02*
X11869620Y-31618503D01*
X11933120Y-33348503D02*
X12108120Y-33523503D01*
X12108120Y-33348503D02*
X11933120Y-33523503D01*
X12171245Y-27633503D02*
X12346245Y-27808503D01*
X12346245Y-27633503D02*
X12171245Y-27808503D01*
X12409370Y-29538503D02*
X12584370Y-29713503D01*
X12584370Y-29538503D02*
X12409370Y-29713503D01*
X12583995Y-25728503D02*
X12758995Y-25903503D01*
X12758995Y-25728503D02*
X12583995Y-25903503D01*
X12885620Y-31443503D02*
X13060620Y-31618503D01*
X13060620Y-31443503D02*
X12885620Y-31618503D01*
X13298370Y-33348503D02*
X13473370Y-33523503D01*
X13473370Y-33348503D02*
X13298370Y-33523503D01*
X13536495Y-27633503D02*
X13711495Y-27808503D01*
X13711495Y-27633503D02*
X13536495Y-27808503D01*
X13599995Y-25728503D02*
X13774995Y-25903503D01*
X13774995Y-25728503D02*
X13599995Y-25903503D01*
X14012745Y-29538503D02*
X14187745Y-29713503D01*
X14187745Y-29538503D02*
X14012745Y-29713503D01*
X14314370Y-33348503D02*
X14489370Y-33523503D01*
X14489370Y-33348503D02*
X14314370Y-33523503D01*
X14488995Y-22871003D02*
X14663995Y-23046003D01*
X14663995Y-22871003D02*
X14488995Y-23046003D01*
X14488995Y-25728503D02*
X14663995Y-25903503D01*
X14663995Y-25728503D02*
X14488995Y-25903503D01*
X14552495Y-27633503D02*
X14727495Y-27808503D01*
X14727495Y-27633503D02*
X14552495Y-27808503D01*
X14965245Y-31443503D02*
X15140245Y-31618503D01*
X15140245Y-31443503D02*
X14965245Y-31618503D01*
X15028745Y-29538503D02*
X15203745Y-29713503D01*
X15203745Y-29538503D02*
X15028745Y-29713503D01*
X15441495Y-27633503D02*
X15616495Y-27808503D01*
X15616495Y-27633503D02*
X15441495Y-27808503D01*
X15504995Y-22871003D02*
X15679995Y-23046003D01*
X15679995Y-22871003D02*
X15504995Y-23046003D01*
X15504995Y-25728503D02*
X15679995Y-25903503D01*
X15679995Y-25728503D02*
X15504995Y-25903503D01*
X15679620Y-33348503D02*
X15854620Y-33523503D01*
X15854620Y-33348503D02*
X15679620Y-33523503D01*
X15917745Y-29538503D02*
X16092745Y-29713503D01*
X16092745Y-29538503D02*
X15917745Y-29713503D01*
X15981245Y-31443503D02*
X16156245Y-31618503D01*
X16156245Y-31443503D02*
X15981245Y-31618503D01*
X16393995Y-22871003D02*
X16568995Y-23046003D01*
X16568995Y-22871003D02*
X16393995Y-23046003D01*
X16393995Y-25728503D02*
X16568995Y-25903503D01*
X16568995Y-25728503D02*
X16393995Y-25903503D01*
X16457495Y-27633503D02*
X16632495Y-27808503D01*
X16632495Y-27633503D02*
X16457495Y-27808503D01*
X16695620Y-33348503D02*
X16870620Y-33523503D01*
X16870620Y-33348503D02*
X16695620Y-33523503D01*
X16870245Y-31443503D02*
X17045245Y-31618503D01*
X17045245Y-31443503D02*
X16870245Y-31618503D01*
X16933745Y-29538503D02*
X17108745Y-29713503D01*
X17108745Y-29538503D02*
X16933745Y-29713503D01*
X17346495Y-27633503D02*
X17521495Y-27808503D01*
X17521495Y-27633503D02*
X17346495Y-27808503D01*
X17409995Y-22871003D02*
X17584995Y-23046003D01*
X17584995Y-22871003D02*
X17409995Y-23046003D01*
X17409995Y-25728503D02*
X17584995Y-25903503D01*
X17584995Y-25728503D02*
X17409995Y-25903503D01*
X17822745Y-29538503D02*
X17997745Y-29713503D01*
X17997745Y-29538503D02*
X17822745Y-29713503D01*
X17886245Y-31443503D02*
X18061245Y-31618503D01*
X18061245Y-31443503D02*
X17886245Y-31618503D01*
X18298995Y-22871003D02*
X18473995Y-23046003D01*
X18473995Y-22871003D02*
X18298995Y-23046003D01*
X18298995Y-25728503D02*
X18473995Y-25903503D01*
X18473995Y-25728503D02*
X18298995Y-25903503D01*
X18362495Y-27633503D02*
X18537495Y-27808503D01*
X18537495Y-27633503D02*
X18362495Y-27808503D01*
X18775245Y-31443503D02*
X18950245Y-31618503D01*
X18950245Y-31443503D02*
X18775245Y-31618503D01*
X18838745Y-29538503D02*
X19013745Y-29713503D01*
X19013745Y-29538503D02*
X18838745Y-29713503D01*
X19251495Y-27633503D02*
X19426495Y-27808503D01*
X19426495Y-27633503D02*
X19251495Y-27808503D01*
X19314995Y-22871003D02*
X19489995Y-23046003D01*
X19489995Y-22871003D02*
X19314995Y-23046003D01*
X19314995Y-25728503D02*
X19489995Y-25903503D01*
X19489995Y-25728503D02*
X19314995Y-25903503D01*
X19727745Y-29538503D02*
X19902745Y-29713503D01*
X19902745Y-29538503D02*
X19727745Y-29713503D01*
X19791245Y-31443503D02*
X19966245Y-31618503D01*
X19966245Y-31443503D02*
X19791245Y-31618503D01*
X20203995Y-22871003D02*
X20378995Y-23046003D01*
X20378995Y-22871003D02*
X20203995Y-23046003D01*
X20203995Y-25728503D02*
X20378995Y-25903503D01*
X20378995Y-25728503D02*
X20203995Y-25903503D01*
X20267495Y-27633503D02*
X20442495Y-27808503D01*
X20442495Y-27633503D02*
X20267495Y-27808503D01*
X20680245Y-31443503D02*
X20855245Y-31618503D01*
X20855245Y-31443503D02*
X20680245Y-31618503D01*
X20743745Y-29538503D02*
X20918745Y-29713503D01*
X20918745Y-29538503D02*
X20743745Y-29713503D01*
X21156495Y-27633503D02*
X21331495Y-27808503D01*
X21331495Y-27633503D02*
X21156495Y-27808503D01*
X21219995Y-22871003D02*
X21394995Y-23046003D01*
X21394995Y-22871003D02*
X21219995Y-23046003D01*
X21219995Y-25728503D02*
X21394995Y-25903503D01*
X21394995Y-25728503D02*
X21219995Y-25903503D01*
X21632745Y-29538503D02*
X21807745Y-29713503D01*
X21807745Y-29538503D02*
X21632745Y-29713503D01*
X21696245Y-31443503D02*
X21871245Y-31618503D01*
X21871245Y-31443503D02*
X21696245Y-31618503D01*
X22108995Y-25728503D02*
X22283995Y-25903503D01*
X22283995Y-25728503D02*
X22108995Y-25903503D01*
X22172495Y-27633503D02*
X22347495Y-27808503D01*
X22347495Y-27633503D02*
X22172495Y-27808503D01*
X22585245Y-31443503D02*
X22760245Y-31618503D01*
X22760245Y-31443503D02*
X22585245Y-31618503D01*
X22648745Y-29538503D02*
X22823745Y-29713503D01*
X22823745Y-29538503D02*
X22648745Y-29713503D01*
X23061495Y-22871003D02*
X23236495Y-23046003D01*
X23236495Y-22871003D02*
X23061495Y-23046003D01*
X23061495Y-27633503D02*
X23236495Y-27808503D01*
X23236495Y-27633503D02*
X23061495Y-27808503D01*
X23124995Y-25728503D02*
X23299995Y-25903503D01*
X23299995Y-25728503D02*
X23124995Y-25903503D01*
X23537745Y-29538503D02*
X23712745Y-29713503D01*
X23712745Y-29538503D02*
X23537745Y-29713503D01*
X23601245Y-31443503D02*
X23776245Y-31618503D01*
X23776245Y-31443503D02*
X23601245Y-31618503D01*
X24013995Y-25728503D02*
X24188995Y-25903503D01*
X24188995Y-25728503D02*
X24013995Y-25903503D01*
X24077495Y-22871003D02*
X24252495Y-23046003D01*
X24252495Y-22871003D02*
X24077495Y-23046003D01*
X24077495Y-27633503D02*
X24252495Y-27808503D01*
X24252495Y-27633503D02*
X24077495Y-27808503D01*
X24490245Y-31443503D02*
X24665245Y-31618503D01*
X24665245Y-31443503D02*
X24490245Y-31618503D01*
X24553745Y-29538503D02*
X24728745Y-29713503D01*
X24728745Y-29538503D02*
X24553745Y-29713503D01*
X24961495Y-22871003D02*
X25136495Y-23046003D01*
X25136495Y-22871003D02*
X24961495Y-23046003D01*
X24966495Y-27633503D02*
X25141495Y-27808503D01*
X25141495Y-27633503D02*
X24966495Y-27808503D01*
X25029995Y-25728503D02*
X25204995Y-25903503D01*
X25204995Y-25728503D02*
X25029995Y-25903503D01*
X25442745Y-29538503D02*
X25617745Y-29713503D01*
X25617745Y-29538503D02*
X25442745Y-29713503D01*
X25506245Y-31443503D02*
X25681245Y-31618503D01*
X25681245Y-31443503D02*
X25506245Y-31618503D01*
X25918995Y-25728503D02*
X26093995Y-25903503D01*
X26093995Y-25728503D02*
X25918995Y-25903503D01*
X25977495Y-22871003D02*
X26152495Y-23046003D01*
X26152495Y-22871003D02*
X25977495Y-23046003D01*
X25982495Y-27633503D02*
X26157495Y-27808503D01*
X26157495Y-27633503D02*
X25982495Y-27808503D01*
X26395245Y-31443503D02*
X26570245Y-31618503D01*
X26570245Y-31443503D02*
X26395245Y-31618503D01*
X26458745Y-29538503D02*
X26633745Y-29713503D01*
X26633745Y-29538503D02*
X26458745Y-29713503D01*
X26861495Y-22871003D02*
X27036495Y-23046003D01*
X27036495Y-22871003D02*
X26861495Y-23046003D01*
X26871495Y-27633503D02*
X27046495Y-27808503D01*
X27046495Y-27633503D02*
X26871495Y-27808503D01*
X26934995Y-25728503D02*
X27109995Y-25903503D01*
X27109995Y-25728503D02*
X26934995Y-25903503D01*
X27347745Y-29538503D02*
X27522745Y-29713503D01*
X27522745Y-29538503D02*
X27347745Y-29713503D01*
X27411245Y-31443503D02*
X27586245Y-31618503D01*
X27586245Y-31443503D02*
X27411245Y-31618503D01*
X27823995Y-25728503D02*
X27998995Y-25903503D01*
X27998995Y-25728503D02*
X27823995Y-25903503D01*
X27877495Y-22871003D02*
X28052495Y-23046003D01*
X28052495Y-22871003D02*
X27877495Y-23046003D01*
X27887495Y-27633503D02*
X28062495Y-27808503D01*
X28062495Y-27633503D02*
X27887495Y-27808503D01*
X28300245Y-31443503D02*
X28475245Y-31618503D01*
X28475245Y-31443503D02*
X28300245Y-31618503D01*
X28363745Y-29538503D02*
X28538745Y-29713503D01*
X28538745Y-29538503D02*
X28363745Y-29713503D01*
X28761495Y-22871003D02*
X28936495Y-23046003D01*
X28936495Y-22871003D02*
X28761495Y-23046003D01*
X28776495Y-27633503D02*
X28951495Y-27808503D01*
X28951495Y-27633503D02*
X28776495Y-27808503D01*
X28839995Y-25728503D02*
X29014995Y-25903503D01*
X29014995Y-25728503D02*
X28839995Y-25903503D01*
X29252745Y-29538503D02*
X29427745Y-29713503D01*
X29427745Y-29538503D02*
X29252745Y-29713503D01*
X29316245Y-31443503D02*
X29491245Y-31618503D01*
X29491245Y-31443503D02*
X29316245Y-31618503D01*
X29728995Y-25728503D02*
X29903995Y-25903503D01*
X29903995Y-25728503D02*
X29728995Y-25903503D01*
X29777495Y-22871003D02*
X29952495Y-23046003D01*
X29952495Y-22871003D02*
X29777495Y-23046003D01*
X29792495Y-27633503D02*
X29967495Y-27808503D01*
X29967495Y-27633503D02*
X29792495Y-27808503D01*
X29967120Y-33348503D02*
X30142120Y-33523503D01*
X30142120Y-33348503D02*
X29967120Y-33523503D01*
X30205245Y-31443503D02*
X30380245Y-31618503D01*
X30380245Y-31443503D02*
X30205245Y-31618503D01*
X30268745Y-29538503D02*
X30443745Y-29713503D01*
X30443745Y-29538503D02*
X30268745Y-29713503D01*
X30681495Y-27633503D02*
X30856495Y-27808503D01*
X30856495Y-27633503D02*
X30681495Y-27808503D01*
X30744995Y-25728503D02*
X30919995Y-25903503D01*
X30919995Y-25728503D02*
X30744995Y-25903503D01*
X30983120Y-33348503D02*
X31158120Y-33523503D01*
X31158120Y-33348503D02*
X30983120Y-33523503D01*
X31157745Y-29538503D02*
X31332745Y-29713503D01*
X31332745Y-29538503D02*
X31157745Y-29713503D01*
X31221245Y-31443503D02*
X31396245Y-31618503D01*
X31396245Y-31443503D02*
X31221245Y-31618503D01*
X31633995Y-22871003D02*
X31808995Y-23046003D01*
X31808995Y-22871003D02*
X31633995Y-23046003D01*
X31633995Y-25728503D02*
X31808995Y-25903503D01*
X31808995Y-25728503D02*
X31633995Y-25903503D01*
X31697495Y-27633503D02*
X31872495Y-27808503D01*
X31872495Y-27633503D02*
X31697495Y-27808503D01*
X32110245Y-31443503D02*
X32285245Y-31618503D01*
X32285245Y-31443503D02*
X32110245Y-31618503D01*
X32173745Y-29538503D02*
X32348745Y-29713503D01*
X32348745Y-29538503D02*
X32173745Y-29713503D01*
X32348370Y-33348503D02*
X32523370Y-33523503D01*
X32523370Y-33348503D02*
X32348370Y-33523503D01*
X32586495Y-27633503D02*
X32761495Y-27808503D01*
X32761495Y-27633503D02*
X32586495Y-27808503D01*
X32649995Y-22871003D02*
X32824995Y-23046003D01*
X32824995Y-22871003D02*
X32649995Y-23046003D01*
X32649995Y-25728503D02*
X32824995Y-25903503D01*
X32824995Y-25728503D02*
X32649995Y-25903503D01*
X33062745Y-29538503D02*
X33237745Y-29713503D01*
X33237745Y-29538503D02*
X33062745Y-29713503D01*
X33126245Y-31443503D02*
X33301245Y-31618503D01*
X33301245Y-31443503D02*
X33126245Y-31618503D01*
X33364370Y-33348503D02*
X33539370Y-33523503D01*
X33539370Y-33348503D02*
X33364370Y-33523503D01*
X33533995Y-22871003D02*
X33708995Y-23046003D01*
X33708995Y-22871003D02*
X33533995Y-23046003D01*
X33538995Y-25728503D02*
X33713995Y-25903503D01*
X33713995Y-25728503D02*
X33538995Y-25903503D01*
X33602495Y-27633503D02*
X33777495Y-27808503D01*
X33777495Y-27633503D02*
X33602495Y-27808503D01*
X34078745Y-29538503D02*
X34253745Y-29713503D01*
X34253745Y-29538503D02*
X34078745Y-29713503D01*
X34491495Y-27633503D02*
X34666495Y-27808503D01*
X34666495Y-27633503D02*
X34491495Y-27808503D01*
X34549995Y-22871003D02*
X34724995Y-23046003D01*
X34724995Y-22871003D02*
X34549995Y-23046003D01*
X34554995Y-25728503D02*
X34729995Y-25903503D01*
X34729995Y-25728503D02*
X34554995Y-25903503D01*
X34729620Y-33348503D02*
X34904620Y-33523503D01*
X34904620Y-33348503D02*
X34729620Y-33523503D01*
X35433995Y-22871003D02*
X35608995Y-23046003D01*
X35608995Y-22871003D02*
X35433995Y-23046003D01*
X35507495Y-27633503D02*
X35682495Y-27808503D01*
X35682495Y-27633503D02*
X35507495Y-27808503D01*
X35682120Y-31443503D02*
X35857120Y-31618503D01*
X35857120Y-31443503D02*
X35682120Y-31618503D01*
X35745620Y-33348503D02*
X35920620Y-33523503D01*
X35920620Y-33348503D02*
X35745620Y-33523503D01*
X36158370Y-29538503D02*
X36333370Y-29713503D01*
X36333370Y-29538503D02*
X36158370Y-29713503D01*
X36396495Y-25728503D02*
X36571495Y-25903503D01*
X36571495Y-25728503D02*
X36396495Y-25903503D01*
X36449995Y-22871003D02*
X36624995Y-23046003D01*
X36624995Y-22871003D02*
X36449995Y-23046003D01*
X36698120Y-31443503D02*
X36873120Y-31618503D01*
X36873120Y-31443503D02*
X36698120Y-31618503D01*
X36872745Y-27633503D02*
X37047745Y-27808503D01*
X37047745Y-27633503D02*
X36872745Y-27808503D01*
X37110870Y-33348503D02*
X37285870Y-33523503D01*
X37285870Y-33348503D02*
X37110870Y-33523503D01*
X37174370Y-29538503D02*
X37349370Y-29713503D01*
X37349370Y-29538503D02*
X37174370Y-29713503D01*
X37346995Y-22871003D02*
X37521995Y-23046003D01*
X37521995Y-22871003D02*
X37346995Y-23046003D01*
X37412495Y-25728503D02*
X37587495Y-25903503D01*
X37587495Y-25728503D02*
X37412495Y-25903503D01*
X37888745Y-27633503D02*
X38063745Y-27808503D01*
X38063745Y-27633503D02*
X37888745Y-27808503D01*
X38126870Y-33348503D02*
X38301870Y-33523503D01*
X38301870Y-33348503D02*
X38126870Y-33523503D01*
X38362995Y-22871003D02*
X38537995Y-23046003D01*
X38537995Y-22871003D02*
X38362995Y-23046003D01*
X39730245Y-22871003D02*
X39905245Y-23046003D01*
X39905245Y-22871003D02*
X39730245Y-23046003D01*
X39730245Y-25728503D02*
X39905245Y-25903503D01*
X39905245Y-25728503D02*
X39730245Y-25903503D01*
X39730245Y-27633503D02*
X39905245Y-27808503D01*
X39905245Y-27633503D02*
X39730245Y-27808503D01*
X39730245Y-33348503D02*
X39905245Y-33523503D01*
X39905245Y-33348503D02*
X39730245Y-33523503D01*
X40746245Y-22871003D02*
X40921245Y-23046003D01*
X40921245Y-22871003D02*
X40746245Y-23046003D01*
X40746245Y-25728503D02*
X40921245Y-25903503D01*
X40921245Y-25728503D02*
X40746245Y-25903503D01*
X40746245Y-27633503D02*
X40921245Y-27808503D01*
X40921245Y-27633503D02*
X40746245Y-27808503D01*
X40746245Y-33348503D02*
X40921245Y-33523503D01*
X40921245Y-33348503D02*
X40746245Y-33523503D01*
X41635245Y-22871003D02*
X41810245Y-23046003D01*
X41810245Y-22871003D02*
X41635245Y-23046003D01*
X41635245Y-25728503D02*
X41810245Y-25903503D01*
X41810245Y-25728503D02*
X41635245Y-25903503D01*
X41635245Y-27633503D02*
X41810245Y-27808503D01*
X41810245Y-27633503D02*
X41635245Y-27808503D01*
X41635245Y-31443503D02*
X41810245Y-31618503D01*
X41810245Y-31443503D02*
X41635245Y-31618503D01*
X41635245Y-33348503D02*
X41810245Y-33523503D01*
X41810245Y-33348503D02*
X41635245Y-33523503D01*
X42651245Y-22871003D02*
X42826245Y-23046003D01*
X42826245Y-22871003D02*
X42651245Y-23046003D01*
X42651245Y-25728503D02*
X42826245Y-25903503D01*
X42826245Y-25728503D02*
X42651245Y-25903503D01*
X42651245Y-27633503D02*
X42826245Y-27808503D01*
X42826245Y-27633503D02*
X42651245Y-27808503D01*
X42651245Y-31443503D02*
X42826245Y-31618503D01*
X42826245Y-31443503D02*
X42651245Y-31618503D01*
X42651245Y-33348503D02*
X42826245Y-33523503D01*
X42826245Y-33348503D02*
X42651245Y-33523503D01*
X43540245Y-22871003D02*
X43715245Y-23046003D01*
X43715245Y-22871003D02*
X43540245Y-23046003D01*
X43540245Y-25728503D02*
X43715245Y-25903503D01*
X43715245Y-25728503D02*
X43540245Y-25903503D01*
X43540245Y-27633503D02*
X43715245Y-27808503D01*
X43715245Y-27633503D02*
X43540245Y-27808503D01*
X43540245Y-33348503D02*
X43715245Y-33523503D01*
X43715245Y-33348503D02*
X43540245Y-33523503D01*
X44556245Y-22871003D02*
X44731245Y-23046003D01*
X44731245Y-22871003D02*
X44556245Y-23046003D01*
X44556245Y-25728503D02*
X44731245Y-25903503D01*
X44731245Y-25728503D02*
X44556245Y-25903503D01*
X44556245Y-27633503D02*
X44731245Y-27808503D01*
X44731245Y-27633503D02*
X44556245Y-27808503D01*
X44556245Y-33348503D02*
X44731245Y-33523503D01*
X44731245Y-33348503D02*
X44556245Y-33523503D01*
X45921495Y-25728503D02*
X46096495Y-25903503D01*
X46096495Y-25728503D02*
X45921495Y-25903503D01*
X45921495Y-27633503D02*
X46096495Y-27808503D01*
X46096495Y-27633503D02*
X45921495Y-27808503D01*
X45921495Y-29538503D02*
X46096495Y-29713503D01*
X46096495Y-29538503D02*
X45921495Y-29713503D01*
X45921495Y-31443503D02*
X46096495Y-31618503D01*
X46096495Y-31443503D02*
X45921495Y-31618503D01*
X46873995Y-33348503D02*
X47048995Y-33523503D01*
X47048995Y-33348503D02*
X46873995Y-33523503D01*
X46937495Y-25728503D02*
X47112495Y-25903503D01*
X47112495Y-25728503D02*
X46937495Y-25903503D01*
X46937495Y-27633503D02*
X47112495Y-27808503D01*
X47112495Y-27633503D02*
X46937495Y-27808503D01*
X46937495Y-29538503D02*
X47112495Y-29713503D01*
X47112495Y-29538503D02*
X46937495Y-29713503D01*
X46937495Y-31443503D02*
X47112495Y-31618503D01*
X47112495Y-31443503D02*
X46937495Y-31618503D01*
X47826495Y-25728503D02*
X48001495Y-25903503D01*
X48001495Y-25728503D02*
X47826495Y-25903503D01*
X47826495Y-27633503D02*
X48001495Y-27808503D01*
X48001495Y-27633503D02*
X47826495Y-27808503D01*
X47826495Y-29538503D02*
X48001495Y-29713503D01*
X48001495Y-29538503D02*
X47826495Y-29713503D01*
X47826495Y-31443503D02*
X48001495Y-31618503D01*
X48001495Y-31443503D02*
X47826495Y-31618503D01*
X47889995Y-33348503D02*
X48064995Y-33523503D01*
X48064995Y-33348503D02*
X47889995Y-33523503D01*
X48842495Y-25728503D02*
X49017495Y-25903503D01*
X49017495Y-25728503D02*
X48842495Y-25903503D01*
X48842495Y-27633503D02*
X49017495Y-27808503D01*
X49017495Y-27633503D02*
X48842495Y-27808503D01*
X48842495Y-29538503D02*
X49017495Y-29713503D01*
X49017495Y-29538503D02*
X48842495Y-29713503D01*
X48842495Y-31443503D02*
X49017495Y-31618503D01*
X49017495Y-31443503D02*
X48842495Y-31618503D01*
X49731495Y-25728503D02*
X49906495Y-25903503D01*
X49906495Y-25728503D02*
X49731495Y-25903503D01*
X49731495Y-27633503D02*
X49906495Y-27808503D01*
X49906495Y-27633503D02*
X49731495Y-27808503D01*
X49731495Y-29538503D02*
X49906495Y-29713503D01*
X49906495Y-29538503D02*
X49731495Y-29713503D01*
X49731495Y-31443503D02*
X49906495Y-31618503D01*
X49906495Y-31443503D02*
X49731495Y-31618503D01*
X49731495Y-33348503D02*
X49906495Y-33523503D01*
X49906495Y-33348503D02*
X49731495Y-33523503D01*
X50747495Y-25728503D02*
X50922495Y-25903503D01*
X50922495Y-25728503D02*
X50747495Y-25903503D01*
X50747495Y-27633503D02*
X50922495Y-27808503D01*
X50922495Y-27633503D02*
X50747495Y-27808503D01*
X50747495Y-29538503D02*
X50922495Y-29713503D01*
X50922495Y-29538503D02*
X50747495Y-29713503D01*
X50747495Y-31443503D02*
X50922495Y-31618503D01*
X50922495Y-31443503D02*
X50747495Y-31618503D01*
X50747495Y-33348503D02*
X50922495Y-33523503D01*
X50922495Y-33348503D02*
X50747495Y-33523503D01*
X51636495Y-25728503D02*
X51811495Y-25903503D01*
X51811495Y-25728503D02*
X51636495Y-25903503D01*
X51636495Y-28586003D02*
X51811495Y-28761003D01*
X51811495Y-28586003D02*
X51636495Y-28761003D01*
X51636495Y-32396003D02*
X51811495Y-32571003D01*
X51811495Y-32396003D02*
X51636495Y-32571003D01*
X52652495Y-25728503D02*
X52827495Y-25903503D01*
X52827495Y-25728503D02*
X52652495Y-25903503D01*
X52652495Y-28586003D02*
X52827495Y-28761003D01*
X52827495Y-28586003D02*
X52652495Y-28761003D01*
X52652495Y-32396003D02*
X52827495Y-32571003D01*
X52827495Y-32396003D02*
X52652495Y-32571003D01*
D13*
X11423720Y-30832503D02*
G75*
G02*
X11118920Y-30832503I-152400J0D01*
G01*
X11118920Y-30832503D02*
G75*
G02*
X11423720Y-30832503I152400J0D01*
G01*
X13811320Y-30832503D02*
G75*
G02*
X13506520Y-30832503I-152400J0D01*
G01*
X13506520Y-30832503D02*
G75*
G02*
X13811320Y-30832503I152400J0D01*
G01*
X18571270Y-32737503D02*
G75*
G02*
X18266470Y-32737503I-152400J0D01*
G01*
X18266470Y-32737503D02*
G75*
G02*
X18571270Y-32737503I152400J0D01*
G01*
X28571270Y-32737503D02*
G75*
G02*
X28266470Y-32737503I-152400J0D01*
G01*
X28266470Y-32737503D02*
G75*
G02*
X28571270Y-32737503I152400J0D01*
G01*
X35236220Y-30832503D02*
G75*
G02*
X34931420Y-30832503I-152400J0D01*
G01*
X34931420Y-30832503D02*
G75*
G02*
X35236220Y-30832503I152400J0D01*
G01*
X35712470Y-28927503D02*
G75*
G02*
X35407670Y-28927503I-152400J0D01*
G01*
X35407670Y-28927503D02*
G75*
G02*
X35712470Y-28927503I152400J0D01*
G01*
X35950595Y-25117503D02*
G75*
G02*
X35645795Y-25117503I-152400J0D01*
G01*
X35645795Y-25117503D02*
G75*
G02*
X35950595Y-25117503I152400J0D01*
G01*
X37623820Y-30832503D02*
G75*
G02*
X37319020Y-30832503I-152400J0D01*
G01*
X37319020Y-30832503D02*
G75*
G02*
X37623820Y-30832503I152400J0D01*
G01*
X38100070Y-28927503D02*
G75*
G02*
X37795270Y-28927503I-152400J0D01*
G01*
X37795270Y-28927503D02*
G75*
G02*
X38100070Y-28927503I152400J0D01*
G01*
X38338195Y-25117503D02*
G75*
G02*
X38033395Y-25117503I-152400J0D01*
G01*
X38033395Y-25117503D02*
G75*
G02*
X38338195Y-25117503I152400J0D01*
G01*
X46428095Y-32737503D02*
G75*
G02*
X46123295Y-32737503I-152400J0D01*
G01*
X46123295Y-32737503D02*
G75*
G02*
X46428095Y-32737503I152400J0D01*
G01*
X48815695Y-32737503D02*
G75*
G02*
X48510895Y-32737503I-152400J0D01*
G01*
X48510895Y-32737503D02*
G75*
G02*
X48815695Y-32737503I152400J0D01*
G01*
X51685895Y-27479703D02*
G75*
G02*
X51381095Y-27479703I-152400J0D01*
G01*
X51381095Y-27479703D02*
G75*
G02*
X51685895Y-27479703I152400J0D01*
G01*
X51685895Y-29867303D02*
G75*
G02*
X51381095Y-29867303I-152400J0D01*
G01*
X51381095Y-29867303D02*
G75*
G02*
X51685895Y-29867303I152400J0D01*
G01*
X51685895Y-31289703D02*
G75*
G02*
X51381095Y-31289703I-152400J0D01*
G01*
X51381095Y-31289703D02*
G75*
G02*
X51685895Y-31289703I152400J0D01*
G01*
X51685895Y-33677303D02*
G75*
G02*
X51381095Y-33677303I-152400J0D01*
G01*
X51381095Y-33677303D02*
G75*
G02*
X51685895Y-33677303I152400J0D01*
G01*
D14*
X11271320Y-32154113D02*
X11271320Y-32552893D01*
X11071930Y-32353503D02*
X11470710Y-32353503D01*
X13658920Y-32154113D02*
X13658920Y-32552893D01*
X13459530Y-32353503D02*
X13858310Y-32353503D01*
X18418870Y-34059113D02*
X18418870Y-34457893D01*
X18219480Y-34258503D02*
X18618260Y-34258503D01*
X28418870Y-34059113D02*
X28418870Y-34457893D01*
X28219480Y-34258503D02*
X28618260Y-34258503D01*
X35083820Y-32154113D02*
X35083820Y-32552893D01*
X34884430Y-32353503D02*
X35283210Y-32353503D01*
X35560070Y-30249113D02*
X35560070Y-30647893D01*
X35360680Y-30448503D02*
X35759460Y-30448503D01*
X35798195Y-26439113D02*
X35798195Y-26837893D01*
X35598805Y-26638503D02*
X35997585Y-26638503D01*
X37471420Y-32154113D02*
X37471420Y-32552893D01*
X37272030Y-32353503D02*
X37670810Y-32353503D01*
X37947670Y-30249113D02*
X37947670Y-30647893D01*
X37748280Y-30448503D02*
X38147060Y-30448503D01*
X38185795Y-26439113D02*
X38185795Y-26837893D01*
X37986405Y-26638503D02*
X38385185Y-26638503D01*
X46275695Y-34059113D02*
X46275695Y-34457893D01*
X46076305Y-34258503D02*
X46475085Y-34258503D01*
X48663295Y-34059113D02*
X48663295Y-34457893D01*
X48463905Y-34258503D02*
X48862685Y-34258503D01*
X53054495Y-27280313D02*
X53054495Y-27679093D01*
X52855105Y-27479703D02*
X53253885Y-27479703D01*
X53054495Y-29667913D02*
X53054495Y-30066693D01*
X52855105Y-29867303D02*
X53253885Y-29867303D01*
X53054495Y-31090313D02*
X53054495Y-31489093D01*
X52855105Y-31289703D02*
X53253885Y-31289703D01*
X53054495Y-33477913D02*
X53054495Y-33876693D01*
X52855105Y-33677303D02*
X53253885Y-33677303D01*
D15*
X11415917Y-23099926D02*
X11415917Y-22817080D01*
X11133072Y-22817080D01*
X11133072Y-23099926D01*
X11415917Y-23099926D01*
X11415917Y-25957426D02*
X11415917Y-25674580D01*
X11133072Y-25674580D01*
X11133072Y-25957426D01*
X11415917Y-25957426D01*
X11654042Y-33577426D02*
X11654042Y-33294580D01*
X11371197Y-33294580D01*
X11371197Y-33577426D01*
X11654042Y-33577426D01*
X11892167Y-27862426D02*
X11892167Y-27579580D01*
X11609322Y-27579580D01*
X11609322Y-27862426D01*
X11892167Y-27862426D01*
X12130292Y-29767426D02*
X12130292Y-29484580D01*
X11847447Y-29484580D01*
X11847447Y-29767426D01*
X12130292Y-29767426D01*
X12606542Y-31672426D02*
X12606542Y-31389580D01*
X12323697Y-31389580D01*
X12323697Y-31672426D01*
X12606542Y-31672426D01*
X13320917Y-25957426D02*
X13320917Y-25674580D01*
X13038072Y-25674580D01*
X13038072Y-25957426D01*
X13320917Y-25957426D01*
X14035292Y-33577426D02*
X14035292Y-33294580D01*
X13752447Y-33294580D01*
X13752447Y-33577426D01*
X14035292Y-33577426D01*
X14273417Y-27862426D02*
X14273417Y-27579580D01*
X13990572Y-27579580D01*
X13990572Y-27862426D01*
X14273417Y-27862426D01*
X14749667Y-29767426D02*
X14749667Y-29484580D01*
X14466822Y-29484580D01*
X14466822Y-29767426D01*
X14749667Y-29767426D01*
X15225917Y-23099926D02*
X15225917Y-22817080D01*
X14943072Y-22817080D01*
X14943072Y-23099926D01*
X15225917Y-23099926D01*
X15225917Y-25957426D02*
X15225917Y-25674580D01*
X14943072Y-25674580D01*
X14943072Y-25957426D01*
X15225917Y-25957426D01*
X15702167Y-31672426D02*
X15702167Y-31389580D01*
X15419322Y-31389580D01*
X15419322Y-31672426D01*
X15702167Y-31672426D01*
X16178417Y-27862426D02*
X16178417Y-27579580D01*
X15895572Y-27579580D01*
X15895572Y-27862426D01*
X16178417Y-27862426D01*
X16416542Y-33577426D02*
X16416542Y-33294580D01*
X16133697Y-33294580D01*
X16133697Y-33577426D01*
X16416542Y-33577426D01*
X16654667Y-29767426D02*
X16654667Y-29484580D01*
X16371822Y-29484580D01*
X16371822Y-29767426D01*
X16654667Y-29767426D01*
X17130917Y-23099926D02*
X17130917Y-22817080D01*
X16848072Y-22817080D01*
X16848072Y-23099926D01*
X17130917Y-23099926D01*
X17130917Y-25957426D02*
X17130917Y-25674580D01*
X16848072Y-25674580D01*
X16848072Y-25957426D01*
X17130917Y-25957426D01*
X17607167Y-31672426D02*
X17607167Y-31389580D01*
X17324322Y-31389580D01*
X17324322Y-31672426D01*
X17607167Y-31672426D01*
X18083417Y-27862426D02*
X18083417Y-27579580D01*
X17800572Y-27579580D01*
X17800572Y-27862426D01*
X18083417Y-27862426D01*
X18559667Y-29767426D02*
X18559667Y-29484580D01*
X18276822Y-29484580D01*
X18276822Y-29767426D01*
X18559667Y-29767426D01*
X19035917Y-23099926D02*
X19035917Y-22817080D01*
X18753072Y-22817080D01*
X18753072Y-23099926D01*
X19035917Y-23099926D01*
X19035917Y-25957426D02*
X19035917Y-25674580D01*
X18753072Y-25674580D01*
X18753072Y-25957426D01*
X19035917Y-25957426D01*
X19512167Y-31672426D02*
X19512167Y-31389580D01*
X19229322Y-31389580D01*
X19229322Y-31672426D01*
X19512167Y-31672426D01*
X19988417Y-27862426D02*
X19988417Y-27579580D01*
X19705572Y-27579580D01*
X19705572Y-27862426D01*
X19988417Y-27862426D01*
X20464667Y-29767426D02*
X20464667Y-29484580D01*
X20181822Y-29484580D01*
X20181822Y-29767426D01*
X20464667Y-29767426D01*
X20940917Y-23099926D02*
X20940917Y-22817080D01*
X20658072Y-22817080D01*
X20658072Y-23099926D01*
X20940917Y-23099926D01*
X20940917Y-25957426D02*
X20940917Y-25674580D01*
X20658072Y-25674580D01*
X20658072Y-25957426D01*
X20940917Y-25957426D01*
X21417167Y-31672426D02*
X21417167Y-31389580D01*
X21134322Y-31389580D01*
X21134322Y-31672426D01*
X21417167Y-31672426D01*
X21893417Y-27862426D02*
X21893417Y-27579580D01*
X21610572Y-27579580D01*
X21610572Y-27862426D01*
X21893417Y-27862426D01*
X22369667Y-29767426D02*
X22369667Y-29484580D01*
X22086822Y-29484580D01*
X22086822Y-29767426D01*
X22369667Y-29767426D01*
X22845917Y-25957426D02*
X22845917Y-25674580D01*
X22563072Y-25674580D01*
X22563072Y-25957426D01*
X22845917Y-25957426D01*
X23322167Y-31672426D02*
X23322167Y-31389580D01*
X23039322Y-31389580D01*
X23039322Y-31672426D01*
X23322167Y-31672426D01*
X23560292Y-33577426D02*
X23560292Y-33294580D01*
X23277447Y-33294580D01*
X23277447Y-33577426D01*
X23560292Y-33577426D01*
X23798417Y-23099926D02*
X23798417Y-22817080D01*
X23515572Y-22817080D01*
X23515572Y-23099926D01*
X23798417Y-23099926D01*
X23798417Y-27862426D02*
X23798417Y-27579580D01*
X23515572Y-27579580D01*
X23515572Y-27862426D01*
X23798417Y-27862426D01*
X24274667Y-29767426D02*
X24274667Y-29484580D01*
X23991822Y-29484580D01*
X23991822Y-29767426D01*
X24274667Y-29767426D01*
X24750917Y-25957426D02*
X24750917Y-25674580D01*
X24468072Y-25674580D01*
X24468072Y-25957426D01*
X24750917Y-25957426D01*
X25227167Y-31672426D02*
X25227167Y-31389580D01*
X24944322Y-31389580D01*
X24944322Y-31672426D01*
X25227167Y-31672426D01*
X25698417Y-23099926D02*
X25698417Y-22817080D01*
X25415572Y-22817080D01*
X25415572Y-23099926D01*
X25698417Y-23099926D01*
X25703417Y-27862426D02*
X25703417Y-27579580D01*
X25420572Y-27579580D01*
X25420572Y-27862426D01*
X25703417Y-27862426D01*
X26179667Y-29767426D02*
X26179667Y-29484580D01*
X25896822Y-29484580D01*
X25896822Y-29767426D01*
X26179667Y-29767426D01*
X26655917Y-25957426D02*
X26655917Y-25674580D01*
X26373072Y-25674580D01*
X26373072Y-25957426D01*
X26655917Y-25957426D01*
X27132167Y-31672426D02*
X27132167Y-31389580D01*
X26849322Y-31389580D01*
X26849322Y-31672426D01*
X27132167Y-31672426D01*
X27598417Y-23099926D02*
X27598417Y-22817080D01*
X27315572Y-22817080D01*
X27315572Y-23099926D01*
X27598417Y-23099926D01*
X27608417Y-27862426D02*
X27608417Y-27579580D01*
X27325572Y-27579580D01*
X27325572Y-27862426D01*
X27608417Y-27862426D01*
X28084667Y-29767426D02*
X28084667Y-29484580D01*
X27801822Y-29484580D01*
X27801822Y-29767426D01*
X28084667Y-29767426D01*
X28560917Y-25957426D02*
X28560917Y-25674580D01*
X28278072Y-25674580D01*
X28278072Y-25957426D01*
X28560917Y-25957426D01*
X29037167Y-31672426D02*
X29037167Y-31389580D01*
X28754322Y-31389580D01*
X28754322Y-31672426D01*
X29037167Y-31672426D01*
X29498417Y-23099926D02*
X29498417Y-22817080D01*
X29215572Y-22817080D01*
X29215572Y-23099926D01*
X29498417Y-23099926D01*
X29513417Y-27862426D02*
X29513417Y-27579580D01*
X29230572Y-27579580D01*
X29230572Y-27862426D01*
X29513417Y-27862426D01*
X29989667Y-29767426D02*
X29989667Y-29484580D01*
X29706822Y-29484580D01*
X29706822Y-29767426D01*
X29989667Y-29767426D01*
X30465917Y-25957426D02*
X30465917Y-25674580D01*
X30183072Y-25674580D01*
X30183072Y-25957426D01*
X30465917Y-25957426D01*
X30704042Y-33577426D02*
X30704042Y-33294580D01*
X30421197Y-33294580D01*
X30421197Y-33577426D01*
X30704042Y-33577426D01*
X30942167Y-31672426D02*
X30942167Y-31389580D01*
X30659322Y-31389580D01*
X30659322Y-31672426D01*
X30942167Y-31672426D01*
X31418417Y-27862426D02*
X31418417Y-27579580D01*
X31135572Y-27579580D01*
X31135572Y-27862426D01*
X31418417Y-27862426D01*
X31894667Y-29767426D02*
X31894667Y-29484580D01*
X31611822Y-29484580D01*
X31611822Y-29767426D01*
X31894667Y-29767426D01*
X32370917Y-23099926D02*
X32370917Y-22817080D01*
X32088072Y-22817080D01*
X32088072Y-23099926D01*
X32370917Y-23099926D01*
X32370917Y-25957426D02*
X32370917Y-25674580D01*
X32088072Y-25674580D01*
X32088072Y-25957426D01*
X32370917Y-25957426D01*
X32847167Y-31672426D02*
X32847167Y-31389580D01*
X32564322Y-31389580D01*
X32564322Y-31672426D01*
X32847167Y-31672426D01*
X33085292Y-33577426D02*
X33085292Y-33294580D01*
X32802447Y-33294580D01*
X32802447Y-33577426D01*
X33085292Y-33577426D01*
X33323417Y-27862426D02*
X33323417Y-27579580D01*
X33040572Y-27579580D01*
X33040572Y-27862426D01*
X33323417Y-27862426D01*
X33799667Y-29767426D02*
X33799667Y-29484580D01*
X33516822Y-29484580D01*
X33516822Y-29767426D01*
X33799667Y-29767426D01*
X34270917Y-23099926D02*
X34270917Y-22817080D01*
X33988072Y-22817080D01*
X33988072Y-23099926D01*
X34270917Y-23099926D01*
X34275917Y-25957426D02*
X34275917Y-25674580D01*
X33993072Y-25674580D01*
X33993072Y-25957426D01*
X34275917Y-25957426D01*
X35228417Y-27862426D02*
X35228417Y-27579580D01*
X34945572Y-27579580D01*
X34945572Y-27862426D01*
X35228417Y-27862426D01*
X35466542Y-33577426D02*
X35466542Y-33294580D01*
X35183697Y-33294580D01*
X35183697Y-33577426D01*
X35466542Y-33577426D01*
X36170917Y-23099926D02*
X36170917Y-22817080D01*
X35888072Y-22817080D01*
X35888072Y-23099926D01*
X36170917Y-23099926D01*
X36419042Y-31672426D02*
X36419042Y-31389580D01*
X36136197Y-31389580D01*
X36136197Y-31672426D01*
X36419042Y-31672426D01*
X36895292Y-29767426D02*
X36895292Y-29484580D01*
X36612447Y-29484580D01*
X36612447Y-29767426D01*
X36895292Y-29767426D01*
X37133417Y-25957426D02*
X37133417Y-25674580D01*
X36850572Y-25674580D01*
X36850572Y-25957426D01*
X37133417Y-25957426D01*
X37609667Y-27862426D02*
X37609667Y-27579580D01*
X37326822Y-27579580D01*
X37326822Y-27862426D01*
X37609667Y-27862426D01*
X37847792Y-33577426D02*
X37847792Y-33294580D01*
X37564947Y-33294580D01*
X37564947Y-33577426D01*
X37847792Y-33577426D01*
X38083917Y-23099926D02*
X38083917Y-22817080D01*
X37801072Y-22817080D01*
X37801072Y-23099926D01*
X38083917Y-23099926D01*
X40467167Y-23099926D02*
X40467167Y-22817080D01*
X40184322Y-22817080D01*
X40184322Y-23099926D01*
X40467167Y-23099926D01*
X40467167Y-25957426D02*
X40467167Y-25674580D01*
X40184322Y-25674580D01*
X40184322Y-25957426D01*
X40467167Y-25957426D01*
X40467167Y-27862426D02*
X40467167Y-27579580D01*
X40184322Y-27579580D01*
X40184322Y-27862426D01*
X40467167Y-27862426D01*
X40467167Y-33577426D02*
X40467167Y-33294580D01*
X40184322Y-33294580D01*
X40184322Y-33577426D01*
X40467167Y-33577426D01*
X42372167Y-23099926D02*
X42372167Y-22817080D01*
X42089322Y-22817080D01*
X42089322Y-23099926D01*
X42372167Y-23099926D01*
X42372167Y-25957426D02*
X42372167Y-25674580D01*
X42089322Y-25674580D01*
X42089322Y-25957426D01*
X42372167Y-25957426D01*
X42372167Y-27862426D02*
X42372167Y-27579580D01*
X42089322Y-27579580D01*
X42089322Y-27862426D01*
X42372167Y-27862426D01*
X42372167Y-31672426D02*
X42372167Y-31389580D01*
X42089322Y-31389580D01*
X42089322Y-31672426D01*
X42372167Y-31672426D01*
X42372167Y-33577426D02*
X42372167Y-33294580D01*
X42089322Y-33294580D01*
X42089322Y-33577426D01*
X42372167Y-33577426D01*
X44277167Y-23099926D02*
X44277167Y-22817080D01*
X43994322Y-22817080D01*
X43994322Y-23099926D01*
X44277167Y-23099926D01*
X44277167Y-25957426D02*
X44277167Y-25674580D01*
X43994322Y-25674580D01*
X43994322Y-25957426D01*
X44277167Y-25957426D01*
X44277167Y-27862426D02*
X44277167Y-27579580D01*
X43994322Y-27579580D01*
X43994322Y-27862426D01*
X44277167Y-27862426D01*
X44277167Y-33577426D02*
X44277167Y-33294580D01*
X43994322Y-33294580D01*
X43994322Y-33577426D01*
X44277167Y-33577426D01*
X46658417Y-25957426D02*
X46658417Y-25674580D01*
X46375572Y-25674580D01*
X46375572Y-25957426D01*
X46658417Y-25957426D01*
X46658417Y-27862426D02*
X46658417Y-27579580D01*
X46375572Y-27579580D01*
X46375572Y-27862426D01*
X46658417Y-27862426D01*
X46658417Y-29767426D02*
X46658417Y-29484580D01*
X46375572Y-29484580D01*
X46375572Y-29767426D01*
X46658417Y-29767426D01*
X46658417Y-31672426D02*
X46658417Y-31389580D01*
X46375572Y-31389580D01*
X46375572Y-31672426D01*
X46658417Y-31672426D01*
X47610917Y-33577426D02*
X47610917Y-33294580D01*
X47328072Y-33294580D01*
X47328072Y-33577426D01*
X47610917Y-33577426D01*
X48563417Y-25957426D02*
X48563417Y-25674580D01*
X48280572Y-25674580D01*
X48280572Y-25957426D01*
X48563417Y-25957426D01*
X48563417Y-27862426D02*
X48563417Y-27579580D01*
X48280572Y-27579580D01*
X48280572Y-27862426D01*
X48563417Y-27862426D01*
X48563417Y-29767426D02*
X48563417Y-29484580D01*
X48280572Y-29484580D01*
X48280572Y-29767426D01*
X48563417Y-29767426D01*
X48563417Y-31672426D02*
X48563417Y-31389580D01*
X48280572Y-31389580D01*
X48280572Y-31672426D01*
X48563417Y-31672426D01*
X50468417Y-25957426D02*
X50468417Y-25674580D01*
X50185572Y-25674580D01*
X50185572Y-25957426D01*
X50468417Y-25957426D01*
X50468417Y-27862426D02*
X50468417Y-27579580D01*
X50185572Y-27579580D01*
X50185572Y-27862426D01*
X50468417Y-27862426D01*
X50468417Y-29767426D02*
X50468417Y-29484580D01*
X50185572Y-29484580D01*
X50185572Y-29767426D01*
X50468417Y-29767426D01*
X50468417Y-31672426D02*
X50468417Y-31389580D01*
X50185572Y-31389580D01*
X50185572Y-31672426D01*
X50468417Y-31672426D01*
X50468417Y-33577426D02*
X50468417Y-33294580D01*
X50185572Y-33294580D01*
X50185572Y-33577426D01*
X50468417Y-33577426D01*
X52373417Y-25957426D02*
X52373417Y-25674580D01*
X52090572Y-25674580D01*
X52090572Y-25957426D01*
X52373417Y-25957426D01*
X52373417Y-28814926D02*
X52373417Y-28532080D01*
X52090572Y-28532080D01*
X52090572Y-28814926D01*
X52373417Y-28814926D01*
X52373417Y-32624926D02*
X52373417Y-32342080D01*
X52090572Y-32342080D01*
X52090572Y-32624926D01*
X52373417Y-32624926D01*
D11*
X9972359Y-35339299D02*
X9972359Y-35139299D01*
X9972359Y-35139299D02*
X10019978Y-35139299D01*
X10019978Y-35139299D02*
X10048549Y-35148823D01*
X10048549Y-35148823D02*
X10067597Y-35167871D01*
X10067597Y-35167871D02*
X10077121Y-35186918D01*
X10077121Y-35186918D02*
X10086645Y-35225014D01*
X10086645Y-35225014D02*
X10086645Y-35253585D01*
X10086645Y-35253585D02*
X10077121Y-35291680D01*
X10077121Y-35291680D02*
X10067597Y-35310728D01*
X10067597Y-35310728D02*
X10048549Y-35329776D01*
X10048549Y-35329776D02*
X10019978Y-35339299D01*
X10019978Y-35339299D02*
X9972359Y-35339299D01*
X10172359Y-35339299D02*
X10172359Y-35205966D01*
X10172359Y-35244061D02*
X10181883Y-35225014D01*
X10181883Y-35225014D02*
X10191406Y-35215490D01*
X10191406Y-35215490D02*
X10210454Y-35205966D01*
X10210454Y-35205966D02*
X10229502Y-35205966D01*
X10296168Y-35339299D02*
X10296168Y-35205966D01*
X10296168Y-35139299D02*
X10286645Y-35148823D01*
X10286645Y-35148823D02*
X10296168Y-35158347D01*
X10296168Y-35158347D02*
X10305692Y-35148823D01*
X10305692Y-35148823D02*
X10296168Y-35139299D01*
X10296168Y-35139299D02*
X10296168Y-35158347D01*
X10419978Y-35339299D02*
X10400930Y-35329776D01*
X10400930Y-35329776D02*
X10391406Y-35310728D01*
X10391406Y-35310728D02*
X10391406Y-35139299D01*
X10524740Y-35339299D02*
X10505692Y-35329776D01*
X10505692Y-35329776D02*
X10496168Y-35310728D01*
X10496168Y-35310728D02*
X10496168Y-35139299D01*
X10753311Y-35339299D02*
X10753311Y-35139299D01*
X10753311Y-35139299D02*
X10819978Y-35282156D01*
X10819978Y-35282156D02*
X10886645Y-35139299D01*
X10886645Y-35139299D02*
X10886645Y-35339299D01*
X11067597Y-35339299D02*
X11067597Y-35234537D01*
X11067597Y-35234537D02*
X11058073Y-35215490D01*
X11058073Y-35215490D02*
X11039026Y-35205966D01*
X11039026Y-35205966D02*
X11000930Y-35205966D01*
X11000930Y-35205966D02*
X10981883Y-35215490D01*
X11067597Y-35329776D02*
X11048549Y-35339299D01*
X11048549Y-35339299D02*
X11000930Y-35339299D01*
X11000930Y-35339299D02*
X10981883Y-35329776D01*
X10981883Y-35329776D02*
X10972359Y-35310728D01*
X10972359Y-35310728D02*
X10972359Y-35291680D01*
X10972359Y-35291680D02*
X10981883Y-35272633D01*
X10981883Y-35272633D02*
X11000930Y-35263109D01*
X11000930Y-35263109D02*
X11048549Y-35263109D01*
X11048549Y-35263109D02*
X11067597Y-35253585D01*
X11162835Y-35205966D02*
X11162835Y-35405966D01*
X11162835Y-35215490D02*
X11181883Y-35205966D01*
X11181883Y-35205966D02*
X11219978Y-35205966D01*
X11219978Y-35205966D02*
X11239025Y-35215490D01*
X11239025Y-35215490D02*
X11248549Y-35225014D01*
X11248549Y-35225014D02*
X11258073Y-35244061D01*
X11258073Y-35244061D02*
X11258073Y-35301204D01*
X11258073Y-35301204D02*
X11248549Y-35320252D01*
X11248549Y-35320252D02*
X11239025Y-35329776D01*
X11239025Y-35329776D02*
X11219978Y-35339299D01*
X11219978Y-35339299D02*
X11181883Y-35339299D01*
X11181883Y-35339299D02*
X11162835Y-35329776D01*
X11343787Y-35320252D02*
X11353311Y-35329776D01*
X11353311Y-35329776D02*
X11343787Y-35339299D01*
X11343787Y-35339299D02*
X11334264Y-35329776D01*
X11334264Y-35329776D02*
X11343787Y-35320252D01*
X11343787Y-35320252D02*
X11343787Y-35339299D01*
X11343787Y-35215490D02*
X11353311Y-35225014D01*
X11353311Y-35225014D02*
X11343787Y-35234537D01*
X11343787Y-35234537D02*
X11334264Y-35225014D01*
X11334264Y-35225014D02*
X11343787Y-35215490D01*
X11343787Y-35215490D02*
X11343787Y-35234537D01*
D12*
X9536582Y-35580316D02*
X9711582Y-35755316D01*
X9711582Y-35580316D02*
X9536582Y-35755316D01*
D11*
X10077121Y-35759299D02*
X9962835Y-35759299D01*
X10019978Y-35759299D02*
X10019978Y-35559299D01*
X10019978Y-35559299D02*
X10000930Y-35587871D01*
X10000930Y-35587871D02*
X9981883Y-35606918D01*
X9981883Y-35606918D02*
X9962835Y-35616442D01*
X10162835Y-35740252D02*
X10172359Y-35749776D01*
X10172359Y-35749776D02*
X10162835Y-35759299D01*
X10162835Y-35759299D02*
X10153311Y-35749776D01*
X10153311Y-35749776D02*
X10162835Y-35740252D01*
X10162835Y-35740252D02*
X10162835Y-35759299D01*
X10239026Y-35559299D02*
X10372359Y-35559299D01*
X10372359Y-35559299D02*
X10286645Y-35759299D01*
X10543787Y-35559299D02*
X10448549Y-35559299D01*
X10448549Y-35559299D02*
X10439026Y-35654537D01*
X10439026Y-35654537D02*
X10448549Y-35645014D01*
X10448549Y-35645014D02*
X10467597Y-35635490D01*
X10467597Y-35635490D02*
X10515216Y-35635490D01*
X10515216Y-35635490D02*
X10534264Y-35645014D01*
X10534264Y-35645014D02*
X10543787Y-35654537D01*
X10543787Y-35654537D02*
X10553311Y-35673585D01*
X10553311Y-35673585D02*
X10553311Y-35721204D01*
X10553311Y-35721204D02*
X10543787Y-35740252D01*
X10543787Y-35740252D02*
X10534264Y-35749776D01*
X10534264Y-35749776D02*
X10515216Y-35759299D01*
X10515216Y-35759299D02*
X10467597Y-35759299D01*
X10467597Y-35759299D02*
X10448549Y-35749776D01*
X10448549Y-35749776D02*
X10439026Y-35740252D01*
X10677121Y-35559299D02*
X10696168Y-35559299D01*
X10696168Y-35559299D02*
X10715216Y-35568823D01*
X10715216Y-35568823D02*
X10724740Y-35578347D01*
X10724740Y-35578347D02*
X10734264Y-35597395D01*
X10734264Y-35597395D02*
X10743787Y-35635490D01*
X10743787Y-35635490D02*
X10743787Y-35683109D01*
X10743787Y-35683109D02*
X10734264Y-35721204D01*
X10734264Y-35721204D02*
X10724740Y-35740252D01*
X10724740Y-35740252D02*
X10715216Y-35749776D01*
X10715216Y-35749776D02*
X10696168Y-35759299D01*
X10696168Y-35759299D02*
X10677121Y-35759299D01*
X10677121Y-35759299D02*
X10658073Y-35749776D01*
X10658073Y-35749776D02*
X10648549Y-35740252D01*
X10648549Y-35740252D02*
X10639026Y-35721204D01*
X10639026Y-35721204D02*
X10629502Y-35683109D01*
X10629502Y-35683109D02*
X10629502Y-35635490D01*
X10629502Y-35635490D02*
X10639026Y-35597395D01*
X10639026Y-35597395D02*
X10648549Y-35578347D01*
X10648549Y-35578347D02*
X10658073Y-35568823D01*
X10658073Y-35568823D02*
X10677121Y-35559299D01*
X10829502Y-35759299D02*
X10829502Y-35625966D01*
X10829502Y-35645014D02*
X10839026Y-35635490D01*
X10839026Y-35635490D02*
X10858073Y-35625966D01*
X10858073Y-35625966D02*
X10886645Y-35625966D01*
X10886645Y-35625966D02*
X10905692Y-35635490D01*
X10905692Y-35635490D02*
X10915216Y-35654537D01*
X10915216Y-35654537D02*
X10915216Y-35759299D01*
X10915216Y-35654537D02*
X10924740Y-35635490D01*
X10924740Y-35635490D02*
X10943787Y-35625966D01*
X10943787Y-35625966D02*
X10972359Y-35625966D01*
X10972359Y-35625966D02*
X10991407Y-35635490D01*
X10991407Y-35635490D02*
X11000930Y-35654537D01*
X11000930Y-35654537D02*
X11000930Y-35759299D01*
X11096168Y-35759299D02*
X11096168Y-35625966D01*
X11096168Y-35645014D02*
X11105692Y-35635490D01*
X11105692Y-35635490D02*
X11124740Y-35625966D01*
X11124740Y-35625966D02*
X11153311Y-35625966D01*
X11153311Y-35625966D02*
X11172359Y-35635490D01*
X11172359Y-35635490D02*
X11181883Y-35654537D01*
X11181883Y-35654537D02*
X11181883Y-35759299D01*
X11181883Y-35654537D02*
X11191406Y-35635490D01*
X11191406Y-35635490D02*
X11210454Y-35625966D01*
X11210454Y-35625966D02*
X11239025Y-35625966D01*
X11239025Y-35625966D02*
X11258073Y-35635490D01*
X11258073Y-35635490D02*
X11267597Y-35654537D01*
X11267597Y-35654537D02*
X11267597Y-35759299D01*
X11658073Y-35549776D02*
X11486645Y-35806918D01*
X11915216Y-35559299D02*
X11934264Y-35559299D01*
X11934264Y-35559299D02*
X11953311Y-35568823D01*
X11953311Y-35568823D02*
X11962835Y-35578347D01*
X11962835Y-35578347D02*
X11972359Y-35597395D01*
X11972359Y-35597395D02*
X11981883Y-35635490D01*
X11981883Y-35635490D02*
X11981883Y-35683109D01*
X11981883Y-35683109D02*
X11972359Y-35721204D01*
X11972359Y-35721204D02*
X11962835Y-35740252D01*
X11962835Y-35740252D02*
X11953311Y-35749776D01*
X11953311Y-35749776D02*
X11934264Y-35759299D01*
X11934264Y-35759299D02*
X11915216Y-35759299D01*
X11915216Y-35759299D02*
X11896168Y-35749776D01*
X11896168Y-35749776D02*
X11886645Y-35740252D01*
X11886645Y-35740252D02*
X11877121Y-35721204D01*
X11877121Y-35721204D02*
X11867597Y-35683109D01*
X11867597Y-35683109D02*
X11867597Y-35635490D01*
X11867597Y-35635490D02*
X11877121Y-35597395D01*
X11877121Y-35597395D02*
X11886645Y-35578347D01*
X11886645Y-35578347D02*
X11896168Y-35568823D01*
X11896168Y-35568823D02*
X11915216Y-35559299D01*
X12067597Y-35740252D02*
X12077121Y-35749776D01*
X12077121Y-35749776D02*
X12067597Y-35759299D01*
X12067597Y-35759299D02*
X12058073Y-35749776D01*
X12058073Y-35749776D02*
X12067597Y-35740252D01*
X12067597Y-35740252D02*
X12067597Y-35759299D01*
X12200930Y-35559299D02*
X12219978Y-35559299D01*
X12219978Y-35559299D02*
X12239026Y-35568823D01*
X12239026Y-35568823D02*
X12248549Y-35578347D01*
X12248549Y-35578347D02*
X12258073Y-35597395D01*
X12258073Y-35597395D02*
X12267597Y-35635490D01*
X12267597Y-35635490D02*
X12267597Y-35683109D01*
X12267597Y-35683109D02*
X12258073Y-35721204D01*
X12258073Y-35721204D02*
X12248549Y-35740252D01*
X12248549Y-35740252D02*
X12239026Y-35749776D01*
X12239026Y-35749776D02*
X12219978Y-35759299D01*
X12219978Y-35759299D02*
X12200930Y-35759299D01*
X12200930Y-35759299D02*
X12181883Y-35749776D01*
X12181883Y-35749776D02*
X12172359Y-35740252D01*
X12172359Y-35740252D02*
X12162835Y-35721204D01*
X12162835Y-35721204D02*
X12153311Y-35683109D01*
X12153311Y-35683109D02*
X12153311Y-35635490D01*
X12153311Y-35635490D02*
X12162835Y-35597395D01*
X12162835Y-35597395D02*
X12172359Y-35578347D01*
X12172359Y-35578347D02*
X12181883Y-35568823D01*
X12181883Y-35568823D02*
X12200930Y-35559299D01*
X12439026Y-35559299D02*
X12400930Y-35559299D01*
X12400930Y-35559299D02*
X12381883Y-35568823D01*
X12381883Y-35568823D02*
X12372359Y-35578347D01*
X12372359Y-35578347D02*
X12353311Y-35606918D01*
X12353311Y-35606918D02*
X12343788Y-35645014D01*
X12343788Y-35645014D02*
X12343788Y-35721204D01*
X12343788Y-35721204D02*
X12353311Y-35740252D01*
X12353311Y-35740252D02*
X12362835Y-35749776D01*
X12362835Y-35749776D02*
X12381883Y-35759299D01*
X12381883Y-35759299D02*
X12419978Y-35759299D01*
X12419978Y-35759299D02*
X12439026Y-35749776D01*
X12439026Y-35749776D02*
X12448549Y-35740252D01*
X12448549Y-35740252D02*
X12458073Y-35721204D01*
X12458073Y-35721204D02*
X12458073Y-35673585D01*
X12458073Y-35673585D02*
X12448549Y-35654537D01*
X12448549Y-35654537D02*
X12439026Y-35645014D01*
X12439026Y-35645014D02*
X12419978Y-35635490D01*
X12419978Y-35635490D02*
X12381883Y-35635490D01*
X12381883Y-35635490D02*
X12362835Y-35645014D01*
X12362835Y-35645014D02*
X12353311Y-35654537D01*
X12353311Y-35654537D02*
X12343788Y-35673585D01*
X12572359Y-35645014D02*
X12553311Y-35635490D01*
X12553311Y-35635490D02*
X12543788Y-35625966D01*
X12543788Y-35625966D02*
X12534264Y-35606918D01*
X12534264Y-35606918D02*
X12534264Y-35597395D01*
X12534264Y-35597395D02*
X12543788Y-35578347D01*
X12543788Y-35578347D02*
X12553311Y-35568823D01*
X12553311Y-35568823D02*
X12572359Y-35559299D01*
X12572359Y-35559299D02*
X12610454Y-35559299D01*
X12610454Y-35559299D02*
X12629502Y-35568823D01*
X12629502Y-35568823D02*
X12639026Y-35578347D01*
X12639026Y-35578347D02*
X12648549Y-35597395D01*
X12648549Y-35597395D02*
X12648549Y-35606918D01*
X12648549Y-35606918D02*
X12639026Y-35625966D01*
X12639026Y-35625966D02*
X12629502Y-35635490D01*
X12629502Y-35635490D02*
X12610454Y-35645014D01*
X12610454Y-35645014D02*
X12572359Y-35645014D01*
X12572359Y-35645014D02*
X12553311Y-35654537D01*
X12553311Y-35654537D02*
X12543788Y-35664061D01*
X12543788Y-35664061D02*
X12534264Y-35683109D01*
X12534264Y-35683109D02*
X12534264Y-35721204D01*
X12534264Y-35721204D02*
X12543788Y-35740252D01*
X12543788Y-35740252D02*
X12553311Y-35749776D01*
X12553311Y-35749776D02*
X12572359Y-35759299D01*
X12572359Y-35759299D02*
X12610454Y-35759299D01*
X12610454Y-35759299D02*
X12629502Y-35749776D01*
X12629502Y-35749776D02*
X12639026Y-35740252D01*
X12639026Y-35740252D02*
X12648549Y-35721204D01*
X12648549Y-35721204D02*
X12648549Y-35683109D01*
X12648549Y-35683109D02*
X12639026Y-35664061D01*
X12639026Y-35664061D02*
X12629502Y-35654537D01*
X12629502Y-35654537D02*
X12610454Y-35645014D01*
X12743788Y-35759299D02*
X12781883Y-35759299D01*
X12781883Y-35759299D02*
X12800930Y-35749776D01*
X12800930Y-35749776D02*
X12810454Y-35740252D01*
X12810454Y-35740252D02*
X12829502Y-35711680D01*
X12829502Y-35711680D02*
X12839026Y-35673585D01*
X12839026Y-35673585D02*
X12839026Y-35597395D01*
X12839026Y-35597395D02*
X12829502Y-35578347D01*
X12829502Y-35578347D02*
X12819978Y-35568823D01*
X12819978Y-35568823D02*
X12800930Y-35559299D01*
X12800930Y-35559299D02*
X12762835Y-35559299D01*
X12762835Y-35559299D02*
X12743788Y-35568823D01*
X12743788Y-35568823D02*
X12734264Y-35578347D01*
X12734264Y-35578347D02*
X12724740Y-35597395D01*
X12724740Y-35597395D02*
X12724740Y-35645014D01*
X12724740Y-35645014D02*
X12734264Y-35664061D01*
X12734264Y-35664061D02*
X12743788Y-35673585D01*
X12743788Y-35673585D02*
X12762835Y-35683109D01*
X12762835Y-35683109D02*
X12800930Y-35683109D01*
X12800930Y-35683109D02*
X12819978Y-35673585D01*
X12819978Y-35673585D02*
X12829502Y-35664061D01*
X12829502Y-35664061D02*
X12839026Y-35645014D01*
X12915216Y-35559299D02*
X12915216Y-35597395D01*
X12991407Y-35559299D02*
X12991407Y-35597395D01*
X13286645Y-35835490D02*
X13277121Y-35825966D01*
X13277121Y-35825966D02*
X13258073Y-35797395D01*
X13258073Y-35797395D02*
X13248550Y-35778347D01*
X13248550Y-35778347D02*
X13239026Y-35749776D01*
X13239026Y-35749776D02*
X13229502Y-35702156D01*
X13229502Y-35702156D02*
X13229502Y-35664061D01*
X13229502Y-35664061D02*
X13239026Y-35616442D01*
X13239026Y-35616442D02*
X13248550Y-35587871D01*
X13248550Y-35587871D02*
X13258073Y-35568823D01*
X13258073Y-35568823D02*
X13277121Y-35540252D01*
X13277121Y-35540252D02*
X13286645Y-35530728D01*
X13353311Y-35578347D02*
X13362835Y-35568823D01*
X13362835Y-35568823D02*
X13381883Y-35559299D01*
X13381883Y-35559299D02*
X13429502Y-35559299D01*
X13429502Y-35559299D02*
X13448550Y-35568823D01*
X13448550Y-35568823D02*
X13458073Y-35578347D01*
X13458073Y-35578347D02*
X13467597Y-35597395D01*
X13467597Y-35597395D02*
X13467597Y-35616442D01*
X13467597Y-35616442D02*
X13458073Y-35645014D01*
X13458073Y-35645014D02*
X13343788Y-35759299D01*
X13343788Y-35759299D02*
X13467597Y-35759299D01*
X13591407Y-35559299D02*
X13610454Y-35559299D01*
X13610454Y-35559299D02*
X13629502Y-35568823D01*
X13629502Y-35568823D02*
X13639026Y-35578347D01*
X13639026Y-35578347D02*
X13648550Y-35597395D01*
X13648550Y-35597395D02*
X13658073Y-35635490D01*
X13658073Y-35635490D02*
X13658073Y-35683109D01*
X13658073Y-35683109D02*
X13648550Y-35721204D01*
X13648550Y-35721204D02*
X13639026Y-35740252D01*
X13639026Y-35740252D02*
X13629502Y-35749776D01*
X13629502Y-35749776D02*
X13610454Y-35759299D01*
X13610454Y-35759299D02*
X13591407Y-35759299D01*
X13591407Y-35759299D02*
X13572359Y-35749776D01*
X13572359Y-35749776D02*
X13562835Y-35740252D01*
X13562835Y-35740252D02*
X13553311Y-35721204D01*
X13553311Y-35721204D02*
X13543788Y-35683109D01*
X13543788Y-35683109D02*
X13543788Y-35635490D01*
X13543788Y-35635490D02*
X13553311Y-35597395D01*
X13553311Y-35597395D02*
X13562835Y-35578347D01*
X13562835Y-35578347D02*
X13572359Y-35568823D01*
X13572359Y-35568823D02*
X13591407Y-35559299D01*
X13829502Y-35559299D02*
X13791407Y-35559299D01*
X13791407Y-35559299D02*
X13772359Y-35568823D01*
X13772359Y-35568823D02*
X13762835Y-35578347D01*
X13762835Y-35578347D02*
X13743788Y-35606918D01*
X13743788Y-35606918D02*
X13734264Y-35645014D01*
X13734264Y-35645014D02*
X13734264Y-35721204D01*
X13734264Y-35721204D02*
X13743788Y-35740252D01*
X13743788Y-35740252D02*
X13753311Y-35749776D01*
X13753311Y-35749776D02*
X13772359Y-35759299D01*
X13772359Y-35759299D02*
X13810454Y-35759299D01*
X13810454Y-35759299D02*
X13829502Y-35749776D01*
X13829502Y-35749776D02*
X13839026Y-35740252D01*
X13839026Y-35740252D02*
X13848550Y-35721204D01*
X13848550Y-35721204D02*
X13848550Y-35673585D01*
X13848550Y-35673585D02*
X13839026Y-35654537D01*
X13839026Y-35654537D02*
X13829502Y-35645014D01*
X13829502Y-35645014D02*
X13810454Y-35635490D01*
X13810454Y-35635490D02*
X13772359Y-35635490D01*
X13772359Y-35635490D02*
X13753311Y-35645014D01*
X13753311Y-35645014D02*
X13743788Y-35654537D01*
X13743788Y-35654537D02*
X13734264Y-35673585D01*
X14086645Y-35759299D02*
X14086645Y-35559299D01*
X14172359Y-35759299D02*
X14172359Y-35654537D01*
X14172359Y-35654537D02*
X14162835Y-35635490D01*
X14162835Y-35635490D02*
X14143788Y-35625966D01*
X14143788Y-35625966D02*
X14115216Y-35625966D01*
X14115216Y-35625966D02*
X14096169Y-35635490D01*
X14096169Y-35635490D02*
X14086645Y-35645014D01*
X14296169Y-35759299D02*
X14277121Y-35749776D01*
X14277121Y-35749776D02*
X14267597Y-35740252D01*
X14267597Y-35740252D02*
X14258073Y-35721204D01*
X14258073Y-35721204D02*
X14258073Y-35664061D01*
X14258073Y-35664061D02*
X14267597Y-35645014D01*
X14267597Y-35645014D02*
X14277121Y-35635490D01*
X14277121Y-35635490D02*
X14296169Y-35625966D01*
X14296169Y-35625966D02*
X14324740Y-35625966D01*
X14324740Y-35625966D02*
X14343788Y-35635490D01*
X14343788Y-35635490D02*
X14353312Y-35645014D01*
X14353312Y-35645014D02*
X14362835Y-35664061D01*
X14362835Y-35664061D02*
X14362835Y-35721204D01*
X14362835Y-35721204D02*
X14353312Y-35740252D01*
X14353312Y-35740252D02*
X14343788Y-35749776D01*
X14343788Y-35749776D02*
X14324740Y-35759299D01*
X14324740Y-35759299D02*
X14296169Y-35759299D01*
X14477121Y-35759299D02*
X14458073Y-35749776D01*
X14458073Y-35749776D02*
X14448550Y-35730728D01*
X14448550Y-35730728D02*
X14448550Y-35559299D01*
X14629502Y-35749776D02*
X14610454Y-35759299D01*
X14610454Y-35759299D02*
X14572359Y-35759299D01*
X14572359Y-35759299D02*
X14553312Y-35749776D01*
X14553312Y-35749776D02*
X14543788Y-35730728D01*
X14543788Y-35730728D02*
X14543788Y-35654537D01*
X14543788Y-35654537D02*
X14553312Y-35635490D01*
X14553312Y-35635490D02*
X14572359Y-35625966D01*
X14572359Y-35625966D02*
X14610454Y-35625966D01*
X14610454Y-35625966D02*
X14629502Y-35635490D01*
X14629502Y-35635490D02*
X14639026Y-35654537D01*
X14639026Y-35654537D02*
X14639026Y-35673585D01*
X14639026Y-35673585D02*
X14543788Y-35692633D01*
X14715216Y-35749776D02*
X14734264Y-35759299D01*
X14734264Y-35759299D02*
X14772359Y-35759299D01*
X14772359Y-35759299D02*
X14791407Y-35749776D01*
X14791407Y-35749776D02*
X14800931Y-35730728D01*
X14800931Y-35730728D02*
X14800931Y-35721204D01*
X14800931Y-35721204D02*
X14791407Y-35702156D01*
X14791407Y-35702156D02*
X14772359Y-35692633D01*
X14772359Y-35692633D02*
X14743788Y-35692633D01*
X14743788Y-35692633D02*
X14724740Y-35683109D01*
X14724740Y-35683109D02*
X14715216Y-35664061D01*
X14715216Y-35664061D02*
X14715216Y-35654537D01*
X14715216Y-35654537D02*
X14724740Y-35635490D01*
X14724740Y-35635490D02*
X14743788Y-35625966D01*
X14743788Y-35625966D02*
X14772359Y-35625966D01*
X14772359Y-35625966D02*
X14791407Y-35635490D01*
X14867597Y-35835490D02*
X14877121Y-35825966D01*
X14877121Y-35825966D02*
X14896169Y-35797395D01*
X14896169Y-35797395D02*
X14905693Y-35778347D01*
X14905693Y-35778347D02*
X14915216Y-35749776D01*
X14915216Y-35749776D02*
X14924740Y-35702156D01*
X14924740Y-35702156D02*
X14924740Y-35664061D01*
X14924740Y-35664061D02*
X14915216Y-35616442D01*
X14915216Y-35616442D02*
X14905693Y-35587871D01*
X14905693Y-35587871D02*
X14896169Y-35568823D01*
X14896169Y-35568823D02*
X14877121Y-35540252D01*
X14877121Y-35540252D02*
X14867597Y-35530728D01*
X15229502Y-35835490D02*
X15219978Y-35825966D01*
X15219978Y-35825966D02*
X15200931Y-35797395D01*
X15200931Y-35797395D02*
X15191407Y-35778347D01*
X15191407Y-35778347D02*
X15181883Y-35749776D01*
X15181883Y-35749776D02*
X15172359Y-35702156D01*
X15172359Y-35702156D02*
X15172359Y-35664061D01*
X15172359Y-35664061D02*
X15181883Y-35616442D01*
X15181883Y-35616442D02*
X15191407Y-35587871D01*
X15191407Y-35587871D02*
X15200931Y-35568823D01*
X15200931Y-35568823D02*
X15219978Y-35540252D01*
X15219978Y-35540252D02*
X15229502Y-35530728D01*
X15305693Y-35625966D02*
X15305693Y-35759299D01*
X15305693Y-35645014D02*
X15315216Y-35635490D01*
X15315216Y-35635490D02*
X15334264Y-35625966D01*
X15334264Y-35625966D02*
X15362835Y-35625966D01*
X15362835Y-35625966D02*
X15381883Y-35635490D01*
X15381883Y-35635490D02*
X15391407Y-35654537D01*
X15391407Y-35654537D02*
X15391407Y-35759299D01*
X15515216Y-35759299D02*
X15496169Y-35749776D01*
X15496169Y-35749776D02*
X15486645Y-35740252D01*
X15486645Y-35740252D02*
X15477121Y-35721204D01*
X15477121Y-35721204D02*
X15477121Y-35664061D01*
X15477121Y-35664061D02*
X15486645Y-35645014D01*
X15486645Y-35645014D02*
X15496169Y-35635490D01*
X15496169Y-35635490D02*
X15515216Y-35625966D01*
X15515216Y-35625966D02*
X15543788Y-35625966D01*
X15543788Y-35625966D02*
X15562835Y-35635490D01*
X15562835Y-35635490D02*
X15572359Y-35645014D01*
X15572359Y-35645014D02*
X15581883Y-35664061D01*
X15581883Y-35664061D02*
X15581883Y-35721204D01*
X15581883Y-35721204D02*
X15572359Y-35740252D01*
X15572359Y-35740252D02*
X15562835Y-35749776D01*
X15562835Y-35749776D02*
X15543788Y-35759299D01*
X15543788Y-35759299D02*
X15515216Y-35759299D01*
X15639026Y-35625966D02*
X15715216Y-35625966D01*
X15667597Y-35559299D02*
X15667597Y-35730728D01*
X15667597Y-35730728D02*
X15677121Y-35749776D01*
X15677121Y-35749776D02*
X15696169Y-35759299D01*
X15696169Y-35759299D02*
X15715216Y-35759299D01*
X15934264Y-35625966D02*
X15934264Y-35825966D01*
X15934264Y-35635490D02*
X15953312Y-35625966D01*
X15953312Y-35625966D02*
X15991407Y-35625966D01*
X15991407Y-35625966D02*
X16010455Y-35635490D01*
X16010455Y-35635490D02*
X16019978Y-35645014D01*
X16019978Y-35645014D02*
X16029502Y-35664061D01*
X16029502Y-35664061D02*
X16029502Y-35721204D01*
X16029502Y-35721204D02*
X16019978Y-35740252D01*
X16019978Y-35740252D02*
X16010455Y-35749776D01*
X16010455Y-35749776D02*
X15991407Y-35759299D01*
X15991407Y-35759299D02*
X15953312Y-35759299D01*
X15953312Y-35759299D02*
X15934264Y-35749776D01*
X16143788Y-35759299D02*
X16124740Y-35749776D01*
X16124740Y-35749776D02*
X16115216Y-35730728D01*
X16115216Y-35730728D02*
X16115216Y-35559299D01*
X16305693Y-35759299D02*
X16305693Y-35654537D01*
X16305693Y-35654537D02*
X16296169Y-35635490D01*
X16296169Y-35635490D02*
X16277121Y-35625966D01*
X16277121Y-35625966D02*
X16239026Y-35625966D01*
X16239026Y-35625966D02*
X16219978Y-35635490D01*
X16305693Y-35749776D02*
X16286645Y-35759299D01*
X16286645Y-35759299D02*
X16239026Y-35759299D01*
X16239026Y-35759299D02*
X16219978Y-35749776D01*
X16219978Y-35749776D02*
X16210455Y-35730728D01*
X16210455Y-35730728D02*
X16210455Y-35711680D01*
X16210455Y-35711680D02*
X16219978Y-35692633D01*
X16219978Y-35692633D02*
X16239026Y-35683109D01*
X16239026Y-35683109D02*
X16286645Y-35683109D01*
X16286645Y-35683109D02*
X16305693Y-35673585D01*
X16372359Y-35625966D02*
X16448550Y-35625966D01*
X16400931Y-35559299D02*
X16400931Y-35730728D01*
X16400931Y-35730728D02*
X16410455Y-35749776D01*
X16410455Y-35749776D02*
X16429502Y-35759299D01*
X16429502Y-35759299D02*
X16448550Y-35759299D01*
X16591407Y-35749776D02*
X16572359Y-35759299D01*
X16572359Y-35759299D02*
X16534264Y-35759299D01*
X16534264Y-35759299D02*
X16515216Y-35749776D01*
X16515216Y-35749776D02*
X16505693Y-35730728D01*
X16505693Y-35730728D02*
X16505693Y-35654537D01*
X16505693Y-35654537D02*
X16515216Y-35635490D01*
X16515216Y-35635490D02*
X16534264Y-35625966D01*
X16534264Y-35625966D02*
X16572359Y-35625966D01*
X16572359Y-35625966D02*
X16591407Y-35635490D01*
X16591407Y-35635490D02*
X16600931Y-35654537D01*
X16600931Y-35654537D02*
X16600931Y-35673585D01*
X16600931Y-35673585D02*
X16505693Y-35692633D01*
X16772359Y-35759299D02*
X16772359Y-35559299D01*
X16772359Y-35749776D02*
X16753312Y-35759299D01*
X16753312Y-35759299D02*
X16715216Y-35759299D01*
X16715216Y-35759299D02*
X16696169Y-35749776D01*
X16696169Y-35749776D02*
X16686645Y-35740252D01*
X16686645Y-35740252D02*
X16677121Y-35721204D01*
X16677121Y-35721204D02*
X16677121Y-35664061D01*
X16677121Y-35664061D02*
X16686645Y-35645014D01*
X16686645Y-35645014D02*
X16696169Y-35635490D01*
X16696169Y-35635490D02*
X16715216Y-35625966D01*
X16715216Y-35625966D02*
X16753312Y-35625966D01*
X16753312Y-35625966D02*
X16772359Y-35635490D01*
X16848550Y-35835490D02*
X16858074Y-35825966D01*
X16858074Y-35825966D02*
X16877121Y-35797395D01*
X16877121Y-35797395D02*
X16886645Y-35778347D01*
X16886645Y-35778347D02*
X16896169Y-35749776D01*
X16896169Y-35749776D02*
X16905693Y-35702156D01*
X16905693Y-35702156D02*
X16905693Y-35664061D01*
X16905693Y-35664061D02*
X16896169Y-35616442D01*
X16896169Y-35616442D02*
X16886645Y-35587871D01*
X16886645Y-35587871D02*
X16877121Y-35568823D01*
X16877121Y-35568823D02*
X16858074Y-35540252D01*
X16858074Y-35540252D02*
X16848550Y-35530728D01*
X9711582Y-35962816D02*
G75*
G02*
X9511582Y-35962816I-100000J0D01*
G01*
X9511582Y-35962816D02*
G75*
G02*
X9711582Y-35962816I100000J0D01*
G01*
X9953311Y-35854299D02*
X10077121Y-35854299D01*
X10077121Y-35854299D02*
X10010454Y-35930490D01*
X10010454Y-35930490D02*
X10039026Y-35930490D01*
X10039026Y-35930490D02*
X10058073Y-35940014D01*
X10058073Y-35940014D02*
X10067597Y-35949537D01*
X10067597Y-35949537D02*
X10077121Y-35968585D01*
X10077121Y-35968585D02*
X10077121Y-36016204D01*
X10077121Y-36016204D02*
X10067597Y-36035252D01*
X10067597Y-36035252D02*
X10058073Y-36044776D01*
X10058073Y-36044776D02*
X10039026Y-36054299D01*
X10039026Y-36054299D02*
X9981883Y-36054299D01*
X9981883Y-36054299D02*
X9962835Y-36044776D01*
X9962835Y-36044776D02*
X9953311Y-36035252D01*
X10162835Y-36035252D02*
X10172359Y-36044776D01*
X10172359Y-36044776D02*
X10162835Y-36054299D01*
X10162835Y-36054299D02*
X10153311Y-36044776D01*
X10153311Y-36044776D02*
X10162835Y-36035252D01*
X10162835Y-36035252D02*
X10162835Y-36054299D01*
X10296168Y-35854299D02*
X10315216Y-35854299D01*
X10315216Y-35854299D02*
X10334264Y-35863823D01*
X10334264Y-35863823D02*
X10343787Y-35873347D01*
X10343787Y-35873347D02*
X10353311Y-35892395D01*
X10353311Y-35892395D02*
X10362835Y-35930490D01*
X10362835Y-35930490D02*
X10362835Y-35978109D01*
X10362835Y-35978109D02*
X10353311Y-36016204D01*
X10353311Y-36016204D02*
X10343787Y-36035252D01*
X10343787Y-36035252D02*
X10334264Y-36044776D01*
X10334264Y-36044776D02*
X10315216Y-36054299D01*
X10315216Y-36054299D02*
X10296168Y-36054299D01*
X10296168Y-36054299D02*
X10277121Y-36044776D01*
X10277121Y-36044776D02*
X10267597Y-36035252D01*
X10267597Y-36035252D02*
X10258073Y-36016204D01*
X10258073Y-36016204D02*
X10248549Y-35978109D01*
X10248549Y-35978109D02*
X10248549Y-35930490D01*
X10248549Y-35930490D02*
X10258073Y-35892395D01*
X10258073Y-35892395D02*
X10267597Y-35873347D01*
X10267597Y-35873347D02*
X10277121Y-35863823D01*
X10277121Y-35863823D02*
X10296168Y-35854299D01*
X10534264Y-35920966D02*
X10534264Y-36054299D01*
X10486645Y-35844776D02*
X10439026Y-35987633D01*
X10439026Y-35987633D02*
X10562835Y-35987633D01*
X10667597Y-35940014D02*
X10648549Y-35930490D01*
X10648549Y-35930490D02*
X10639026Y-35920966D01*
X10639026Y-35920966D02*
X10629502Y-35901918D01*
X10629502Y-35901918D02*
X10629502Y-35892395D01*
X10629502Y-35892395D02*
X10639026Y-35873347D01*
X10639026Y-35873347D02*
X10648549Y-35863823D01*
X10648549Y-35863823D02*
X10667597Y-35854299D01*
X10667597Y-35854299D02*
X10705692Y-35854299D01*
X10705692Y-35854299D02*
X10724740Y-35863823D01*
X10724740Y-35863823D02*
X10734264Y-35873347D01*
X10734264Y-35873347D02*
X10743787Y-35892395D01*
X10743787Y-35892395D02*
X10743787Y-35901918D01*
X10743787Y-35901918D02*
X10734264Y-35920966D01*
X10734264Y-35920966D02*
X10724740Y-35930490D01*
X10724740Y-35930490D02*
X10705692Y-35940014D01*
X10705692Y-35940014D02*
X10667597Y-35940014D01*
X10667597Y-35940014D02*
X10648549Y-35949537D01*
X10648549Y-35949537D02*
X10639026Y-35959061D01*
X10639026Y-35959061D02*
X10629502Y-35978109D01*
X10629502Y-35978109D02*
X10629502Y-36016204D01*
X10629502Y-36016204D02*
X10639026Y-36035252D01*
X10639026Y-36035252D02*
X10648549Y-36044776D01*
X10648549Y-36044776D02*
X10667597Y-36054299D01*
X10667597Y-36054299D02*
X10705692Y-36054299D01*
X10705692Y-36054299D02*
X10724740Y-36044776D01*
X10724740Y-36044776D02*
X10734264Y-36035252D01*
X10734264Y-36035252D02*
X10743787Y-36016204D01*
X10743787Y-36016204D02*
X10743787Y-35978109D01*
X10743787Y-35978109D02*
X10734264Y-35959061D01*
X10734264Y-35959061D02*
X10724740Y-35949537D01*
X10724740Y-35949537D02*
X10705692Y-35940014D01*
X10829502Y-36054299D02*
X10829502Y-35920966D01*
X10829502Y-35940014D02*
X10839026Y-35930490D01*
X10839026Y-35930490D02*
X10858073Y-35920966D01*
X10858073Y-35920966D02*
X10886645Y-35920966D01*
X10886645Y-35920966D02*
X10905692Y-35930490D01*
X10905692Y-35930490D02*
X10915216Y-35949537D01*
X10915216Y-35949537D02*
X10915216Y-36054299D01*
X10915216Y-35949537D02*
X10924740Y-35930490D01*
X10924740Y-35930490D02*
X10943787Y-35920966D01*
X10943787Y-35920966D02*
X10972359Y-35920966D01*
X10972359Y-35920966D02*
X10991407Y-35930490D01*
X10991407Y-35930490D02*
X11000930Y-35949537D01*
X11000930Y-35949537D02*
X11000930Y-36054299D01*
X11096168Y-36054299D02*
X11096168Y-35920966D01*
X11096168Y-35940014D02*
X11105692Y-35930490D01*
X11105692Y-35930490D02*
X11124740Y-35920966D01*
X11124740Y-35920966D02*
X11153311Y-35920966D01*
X11153311Y-35920966D02*
X11172359Y-35930490D01*
X11172359Y-35930490D02*
X11181883Y-35949537D01*
X11181883Y-35949537D02*
X11181883Y-36054299D01*
X11181883Y-35949537D02*
X11191406Y-35930490D01*
X11191406Y-35930490D02*
X11210454Y-35920966D01*
X11210454Y-35920966D02*
X11239025Y-35920966D01*
X11239025Y-35920966D02*
X11258073Y-35930490D01*
X11258073Y-35930490D02*
X11267597Y-35949537D01*
X11267597Y-35949537D02*
X11267597Y-36054299D01*
X11658073Y-35844776D02*
X11486645Y-36101918D01*
X11915216Y-35854299D02*
X11934264Y-35854299D01*
X11934264Y-35854299D02*
X11953311Y-35863823D01*
X11953311Y-35863823D02*
X11962835Y-35873347D01*
X11962835Y-35873347D02*
X11972359Y-35892395D01*
X11972359Y-35892395D02*
X11981883Y-35930490D01*
X11981883Y-35930490D02*
X11981883Y-35978109D01*
X11981883Y-35978109D02*
X11972359Y-36016204D01*
X11972359Y-36016204D02*
X11962835Y-36035252D01*
X11962835Y-36035252D02*
X11953311Y-36044776D01*
X11953311Y-36044776D02*
X11934264Y-36054299D01*
X11934264Y-36054299D02*
X11915216Y-36054299D01*
X11915216Y-36054299D02*
X11896168Y-36044776D01*
X11896168Y-36044776D02*
X11886645Y-36035252D01*
X11886645Y-36035252D02*
X11877121Y-36016204D01*
X11877121Y-36016204D02*
X11867597Y-35978109D01*
X11867597Y-35978109D02*
X11867597Y-35930490D01*
X11867597Y-35930490D02*
X11877121Y-35892395D01*
X11877121Y-35892395D02*
X11886645Y-35873347D01*
X11886645Y-35873347D02*
X11896168Y-35863823D01*
X11896168Y-35863823D02*
X11915216Y-35854299D01*
X12067597Y-36035252D02*
X12077121Y-36044776D01*
X12077121Y-36044776D02*
X12067597Y-36054299D01*
X12067597Y-36054299D02*
X12058073Y-36044776D01*
X12058073Y-36044776D02*
X12067597Y-36035252D01*
X12067597Y-36035252D02*
X12067597Y-36054299D01*
X12267597Y-36054299D02*
X12153311Y-36054299D01*
X12210454Y-36054299D02*
X12210454Y-35854299D01*
X12210454Y-35854299D02*
X12191407Y-35882871D01*
X12191407Y-35882871D02*
X12172359Y-35901918D01*
X12172359Y-35901918D02*
X12153311Y-35911442D01*
X12343788Y-35873347D02*
X12353311Y-35863823D01*
X12353311Y-35863823D02*
X12372359Y-35854299D01*
X12372359Y-35854299D02*
X12419978Y-35854299D01*
X12419978Y-35854299D02*
X12439026Y-35863823D01*
X12439026Y-35863823D02*
X12448549Y-35873347D01*
X12448549Y-35873347D02*
X12458073Y-35892395D01*
X12458073Y-35892395D02*
X12458073Y-35911442D01*
X12458073Y-35911442D02*
X12448549Y-35940014D01*
X12448549Y-35940014D02*
X12334264Y-36054299D01*
X12334264Y-36054299D02*
X12458073Y-36054299D01*
X12581883Y-35854299D02*
X12600930Y-35854299D01*
X12600930Y-35854299D02*
X12619978Y-35863823D01*
X12619978Y-35863823D02*
X12629502Y-35873347D01*
X12629502Y-35873347D02*
X12639026Y-35892395D01*
X12639026Y-35892395D02*
X12648549Y-35930490D01*
X12648549Y-35930490D02*
X12648549Y-35978109D01*
X12648549Y-35978109D02*
X12639026Y-36016204D01*
X12639026Y-36016204D02*
X12629502Y-36035252D01*
X12629502Y-36035252D02*
X12619978Y-36044776D01*
X12619978Y-36044776D02*
X12600930Y-36054299D01*
X12600930Y-36054299D02*
X12581883Y-36054299D01*
X12581883Y-36054299D02*
X12562835Y-36044776D01*
X12562835Y-36044776D02*
X12553311Y-36035252D01*
X12553311Y-36035252D02*
X12543788Y-36016204D01*
X12543788Y-36016204D02*
X12534264Y-35978109D01*
X12534264Y-35978109D02*
X12534264Y-35930490D01*
X12534264Y-35930490D02*
X12543788Y-35892395D01*
X12543788Y-35892395D02*
X12553311Y-35873347D01*
X12553311Y-35873347D02*
X12562835Y-35863823D01*
X12562835Y-35863823D02*
X12581883Y-35854299D01*
X12772359Y-35854299D02*
X12791407Y-35854299D01*
X12791407Y-35854299D02*
X12810454Y-35863823D01*
X12810454Y-35863823D02*
X12819978Y-35873347D01*
X12819978Y-35873347D02*
X12829502Y-35892395D01*
X12829502Y-35892395D02*
X12839026Y-35930490D01*
X12839026Y-35930490D02*
X12839026Y-35978109D01*
X12839026Y-35978109D02*
X12829502Y-36016204D01*
X12829502Y-36016204D02*
X12819978Y-36035252D01*
X12819978Y-36035252D02*
X12810454Y-36044776D01*
X12810454Y-36044776D02*
X12791407Y-36054299D01*
X12791407Y-36054299D02*
X12772359Y-36054299D01*
X12772359Y-36054299D02*
X12753311Y-36044776D01*
X12753311Y-36044776D02*
X12743788Y-36035252D01*
X12743788Y-36035252D02*
X12734264Y-36016204D01*
X12734264Y-36016204D02*
X12724740Y-35978109D01*
X12724740Y-35978109D02*
X12724740Y-35930490D01*
X12724740Y-35930490D02*
X12734264Y-35892395D01*
X12734264Y-35892395D02*
X12743788Y-35873347D01*
X12743788Y-35873347D02*
X12753311Y-35863823D01*
X12753311Y-35863823D02*
X12772359Y-35854299D01*
X12915216Y-35854299D02*
X12915216Y-35892395D01*
X12991407Y-35854299D02*
X12991407Y-35892395D01*
X13286645Y-36130490D02*
X13277121Y-36120966D01*
X13277121Y-36120966D02*
X13258073Y-36092395D01*
X13258073Y-36092395D02*
X13248550Y-36073347D01*
X13248550Y-36073347D02*
X13239026Y-36044776D01*
X13239026Y-36044776D02*
X13229502Y-35997156D01*
X13229502Y-35997156D02*
X13229502Y-35959061D01*
X13229502Y-35959061D02*
X13239026Y-35911442D01*
X13239026Y-35911442D02*
X13248550Y-35882871D01*
X13248550Y-35882871D02*
X13258073Y-35863823D01*
X13258073Y-35863823D02*
X13277121Y-35835252D01*
X13277121Y-35835252D02*
X13286645Y-35825728D01*
X13467597Y-36054299D02*
X13353311Y-36054299D01*
X13410454Y-36054299D02*
X13410454Y-35854299D01*
X13410454Y-35854299D02*
X13391407Y-35882871D01*
X13391407Y-35882871D02*
X13372359Y-35901918D01*
X13372359Y-35901918D02*
X13353311Y-35911442D01*
X13639026Y-35854299D02*
X13600930Y-35854299D01*
X13600930Y-35854299D02*
X13581883Y-35863823D01*
X13581883Y-35863823D02*
X13572359Y-35873347D01*
X13572359Y-35873347D02*
X13553311Y-35901918D01*
X13553311Y-35901918D02*
X13543788Y-35940014D01*
X13543788Y-35940014D02*
X13543788Y-36016204D01*
X13543788Y-36016204D02*
X13553311Y-36035252D01*
X13553311Y-36035252D02*
X13562835Y-36044776D01*
X13562835Y-36044776D02*
X13581883Y-36054299D01*
X13581883Y-36054299D02*
X13619978Y-36054299D01*
X13619978Y-36054299D02*
X13639026Y-36044776D01*
X13639026Y-36044776D02*
X13648550Y-36035252D01*
X13648550Y-36035252D02*
X13658073Y-36016204D01*
X13658073Y-36016204D02*
X13658073Y-35968585D01*
X13658073Y-35968585D02*
X13648550Y-35949537D01*
X13648550Y-35949537D02*
X13639026Y-35940014D01*
X13639026Y-35940014D02*
X13619978Y-35930490D01*
X13619978Y-35930490D02*
X13581883Y-35930490D01*
X13581883Y-35930490D02*
X13562835Y-35940014D01*
X13562835Y-35940014D02*
X13553311Y-35949537D01*
X13553311Y-35949537D02*
X13543788Y-35968585D01*
X13896169Y-36054299D02*
X13896169Y-35854299D01*
X13981883Y-36054299D02*
X13981883Y-35949537D01*
X13981883Y-35949537D02*
X13972359Y-35930490D01*
X13972359Y-35930490D02*
X13953312Y-35920966D01*
X13953312Y-35920966D02*
X13924740Y-35920966D01*
X13924740Y-35920966D02*
X13905692Y-35930490D01*
X13905692Y-35930490D02*
X13896169Y-35940014D01*
X14105692Y-36054299D02*
X14086645Y-36044776D01*
X14086645Y-36044776D02*
X14077121Y-36035252D01*
X14077121Y-36035252D02*
X14067597Y-36016204D01*
X14067597Y-36016204D02*
X14067597Y-35959061D01*
X14067597Y-35959061D02*
X14077121Y-35940014D01*
X14077121Y-35940014D02*
X14086645Y-35930490D01*
X14086645Y-35930490D02*
X14105692Y-35920966D01*
X14105692Y-35920966D02*
X14134264Y-35920966D01*
X14134264Y-35920966D02*
X14153312Y-35930490D01*
X14153312Y-35930490D02*
X14162835Y-35940014D01*
X14162835Y-35940014D02*
X14172359Y-35959061D01*
X14172359Y-35959061D02*
X14172359Y-36016204D01*
X14172359Y-36016204D02*
X14162835Y-36035252D01*
X14162835Y-36035252D02*
X14153312Y-36044776D01*
X14153312Y-36044776D02*
X14134264Y-36054299D01*
X14134264Y-36054299D02*
X14105692Y-36054299D01*
X14286645Y-36054299D02*
X14267597Y-36044776D01*
X14267597Y-36044776D02*
X14258073Y-36025728D01*
X14258073Y-36025728D02*
X14258073Y-35854299D01*
X14439026Y-36044776D02*
X14419978Y-36054299D01*
X14419978Y-36054299D02*
X14381883Y-36054299D01*
X14381883Y-36054299D02*
X14362835Y-36044776D01*
X14362835Y-36044776D02*
X14353312Y-36025728D01*
X14353312Y-36025728D02*
X14353312Y-35949537D01*
X14353312Y-35949537D02*
X14362835Y-35930490D01*
X14362835Y-35930490D02*
X14381883Y-35920966D01*
X14381883Y-35920966D02*
X14419978Y-35920966D01*
X14419978Y-35920966D02*
X14439026Y-35930490D01*
X14439026Y-35930490D02*
X14448550Y-35949537D01*
X14448550Y-35949537D02*
X14448550Y-35968585D01*
X14448550Y-35968585D02*
X14353312Y-35987633D01*
X14524740Y-36044776D02*
X14543788Y-36054299D01*
X14543788Y-36054299D02*
X14581883Y-36054299D01*
X14581883Y-36054299D02*
X14600931Y-36044776D01*
X14600931Y-36044776D02*
X14610454Y-36025728D01*
X14610454Y-36025728D02*
X14610454Y-36016204D01*
X14610454Y-36016204D02*
X14600931Y-35997156D01*
X14600931Y-35997156D02*
X14581883Y-35987633D01*
X14581883Y-35987633D02*
X14553312Y-35987633D01*
X14553312Y-35987633D02*
X14534264Y-35978109D01*
X14534264Y-35978109D02*
X14524740Y-35959061D01*
X14524740Y-35959061D02*
X14524740Y-35949537D01*
X14524740Y-35949537D02*
X14534264Y-35930490D01*
X14534264Y-35930490D02*
X14553312Y-35920966D01*
X14553312Y-35920966D02*
X14581883Y-35920966D01*
X14581883Y-35920966D02*
X14600931Y-35930490D01*
X14677121Y-36130490D02*
X14686645Y-36120966D01*
X14686645Y-36120966D02*
X14705693Y-36092395D01*
X14705693Y-36092395D02*
X14715216Y-36073347D01*
X14715216Y-36073347D02*
X14724740Y-36044776D01*
X14724740Y-36044776D02*
X14734264Y-35997156D01*
X14734264Y-35997156D02*
X14734264Y-35959061D01*
X14734264Y-35959061D02*
X14724740Y-35911442D01*
X14724740Y-35911442D02*
X14715216Y-35882871D01*
X14715216Y-35882871D02*
X14705693Y-35863823D01*
X14705693Y-35863823D02*
X14686645Y-35835252D01*
X14686645Y-35835252D02*
X14677121Y-35825728D01*
X15039026Y-36130490D02*
X15029502Y-36120966D01*
X15029502Y-36120966D02*
X15010454Y-36092395D01*
X15010454Y-36092395D02*
X15000931Y-36073347D01*
X15000931Y-36073347D02*
X14991407Y-36044776D01*
X14991407Y-36044776D02*
X14981883Y-35997156D01*
X14981883Y-35997156D02*
X14981883Y-35959061D01*
X14981883Y-35959061D02*
X14991407Y-35911442D01*
X14991407Y-35911442D02*
X15000931Y-35882871D01*
X15000931Y-35882871D02*
X15010454Y-35863823D01*
X15010454Y-35863823D02*
X15029502Y-35835252D01*
X15029502Y-35835252D02*
X15039026Y-35825728D01*
X15115216Y-35920966D02*
X15115216Y-36054299D01*
X15115216Y-35940014D02*
X15124740Y-35930490D01*
X15124740Y-35930490D02*
X15143788Y-35920966D01*
X15143788Y-35920966D02*
X15172359Y-35920966D01*
X15172359Y-35920966D02*
X15191407Y-35930490D01*
X15191407Y-35930490D02*
X15200931Y-35949537D01*
X15200931Y-35949537D02*
X15200931Y-36054299D01*
X15324740Y-36054299D02*
X15305693Y-36044776D01*
X15305693Y-36044776D02*
X15296169Y-36035252D01*
X15296169Y-36035252D02*
X15286645Y-36016204D01*
X15286645Y-36016204D02*
X15286645Y-35959061D01*
X15286645Y-35959061D02*
X15296169Y-35940014D01*
X15296169Y-35940014D02*
X15305693Y-35930490D01*
X15305693Y-35930490D02*
X15324740Y-35920966D01*
X15324740Y-35920966D02*
X15353312Y-35920966D01*
X15353312Y-35920966D02*
X15372359Y-35930490D01*
X15372359Y-35930490D02*
X15381883Y-35940014D01*
X15381883Y-35940014D02*
X15391407Y-35959061D01*
X15391407Y-35959061D02*
X15391407Y-36016204D01*
X15391407Y-36016204D02*
X15381883Y-36035252D01*
X15381883Y-36035252D02*
X15372359Y-36044776D01*
X15372359Y-36044776D02*
X15353312Y-36054299D01*
X15353312Y-36054299D02*
X15324740Y-36054299D01*
X15448550Y-35920966D02*
X15524740Y-35920966D01*
X15477121Y-35854299D02*
X15477121Y-36025728D01*
X15477121Y-36025728D02*
X15486645Y-36044776D01*
X15486645Y-36044776D02*
X15505693Y-36054299D01*
X15505693Y-36054299D02*
X15524740Y-36054299D01*
X15743788Y-35920966D02*
X15743788Y-36120966D01*
X15743788Y-35930490D02*
X15762835Y-35920966D01*
X15762835Y-35920966D02*
X15800931Y-35920966D01*
X15800931Y-35920966D02*
X15819978Y-35930490D01*
X15819978Y-35930490D02*
X15829502Y-35940014D01*
X15829502Y-35940014D02*
X15839026Y-35959061D01*
X15839026Y-35959061D02*
X15839026Y-36016204D01*
X15839026Y-36016204D02*
X15829502Y-36035252D01*
X15829502Y-36035252D02*
X15819978Y-36044776D01*
X15819978Y-36044776D02*
X15800931Y-36054299D01*
X15800931Y-36054299D02*
X15762835Y-36054299D01*
X15762835Y-36054299D02*
X15743788Y-36044776D01*
X15953312Y-36054299D02*
X15934264Y-36044776D01*
X15934264Y-36044776D02*
X15924740Y-36025728D01*
X15924740Y-36025728D02*
X15924740Y-35854299D01*
X16115216Y-36054299D02*
X16115216Y-35949537D01*
X16115216Y-35949537D02*
X16105693Y-35930490D01*
X16105693Y-35930490D02*
X16086645Y-35920966D01*
X16086645Y-35920966D02*
X16048550Y-35920966D01*
X16048550Y-35920966D02*
X16029502Y-35930490D01*
X16115216Y-36044776D02*
X16096169Y-36054299D01*
X16096169Y-36054299D02*
X16048550Y-36054299D01*
X16048550Y-36054299D02*
X16029502Y-36044776D01*
X16029502Y-36044776D02*
X16019978Y-36025728D01*
X16019978Y-36025728D02*
X16019978Y-36006680D01*
X16019978Y-36006680D02*
X16029502Y-35987633D01*
X16029502Y-35987633D02*
X16048550Y-35978109D01*
X16048550Y-35978109D02*
X16096169Y-35978109D01*
X16096169Y-35978109D02*
X16115216Y-35968585D01*
X16181883Y-35920966D02*
X16258074Y-35920966D01*
X16210455Y-35854299D02*
X16210455Y-36025728D01*
X16210455Y-36025728D02*
X16219978Y-36044776D01*
X16219978Y-36044776D02*
X16239026Y-36054299D01*
X16239026Y-36054299D02*
X16258074Y-36054299D01*
X16400931Y-36044776D02*
X16381883Y-36054299D01*
X16381883Y-36054299D02*
X16343788Y-36054299D01*
X16343788Y-36054299D02*
X16324740Y-36044776D01*
X16324740Y-36044776D02*
X16315216Y-36025728D01*
X16315216Y-36025728D02*
X16315216Y-35949537D01*
X16315216Y-35949537D02*
X16324740Y-35930490D01*
X16324740Y-35930490D02*
X16343788Y-35920966D01*
X16343788Y-35920966D02*
X16381883Y-35920966D01*
X16381883Y-35920966D02*
X16400931Y-35930490D01*
X16400931Y-35930490D02*
X16410455Y-35949537D01*
X16410455Y-35949537D02*
X16410455Y-35968585D01*
X16410455Y-35968585D02*
X16315216Y-35987633D01*
X16581883Y-36054299D02*
X16581883Y-35854299D01*
X16581883Y-36044776D02*
X16562836Y-36054299D01*
X16562836Y-36054299D02*
X16524740Y-36054299D01*
X16524740Y-36054299D02*
X16505693Y-36044776D01*
X16505693Y-36044776D02*
X16496169Y-36035252D01*
X16496169Y-36035252D02*
X16486645Y-36016204D01*
X16486645Y-36016204D02*
X16486645Y-35959061D01*
X16486645Y-35959061D02*
X16496169Y-35940014D01*
X16496169Y-35940014D02*
X16505693Y-35930490D01*
X16505693Y-35930490D02*
X16524740Y-35920966D01*
X16524740Y-35920966D02*
X16562836Y-35920966D01*
X16562836Y-35920966D02*
X16581883Y-35930490D01*
X16658074Y-36130490D02*
X16667597Y-36120966D01*
X16667597Y-36120966D02*
X16686645Y-36092395D01*
X16686645Y-36092395D02*
X16696169Y-36073347D01*
X16696169Y-36073347D02*
X16705693Y-36044776D01*
X16705693Y-36044776D02*
X16715216Y-35997156D01*
X16715216Y-35997156D02*
X16715216Y-35959061D01*
X16715216Y-35959061D02*
X16705693Y-35911442D01*
X16705693Y-35911442D02*
X16696169Y-35882871D01*
X16696169Y-35882871D02*
X16686645Y-35863823D01*
X16686645Y-35863823D02*
X16667597Y-35835252D01*
X16667597Y-35835252D02*
X16658074Y-35825728D01*
X9611582Y-36182816D02*
X9611582Y-36382816D01*
X9511582Y-36282816D02*
X9711582Y-36282816D01*
X9953311Y-36174299D02*
X10077121Y-36174299D01*
X10077121Y-36174299D02*
X10010454Y-36250490D01*
X10010454Y-36250490D02*
X10039026Y-36250490D01*
X10039026Y-36250490D02*
X10058073Y-36260014D01*
X10058073Y-36260014D02*
X10067597Y-36269537D01*
X10067597Y-36269537D02*
X10077121Y-36288585D01*
X10077121Y-36288585D02*
X10077121Y-36336204D01*
X10077121Y-36336204D02*
X10067597Y-36355252D01*
X10067597Y-36355252D02*
X10058073Y-36364776D01*
X10058073Y-36364776D02*
X10039026Y-36374299D01*
X10039026Y-36374299D02*
X9981883Y-36374299D01*
X9981883Y-36374299D02*
X9962835Y-36364776D01*
X9962835Y-36364776D02*
X9953311Y-36355252D01*
X10162835Y-36355252D02*
X10172359Y-36364776D01*
X10172359Y-36364776D02*
X10162835Y-36374299D01*
X10162835Y-36374299D02*
X10153311Y-36364776D01*
X10153311Y-36364776D02*
X10162835Y-36355252D01*
X10162835Y-36355252D02*
X10162835Y-36374299D01*
X10267597Y-36374299D02*
X10305692Y-36374299D01*
X10305692Y-36374299D02*
X10324740Y-36364776D01*
X10324740Y-36364776D02*
X10334264Y-36355252D01*
X10334264Y-36355252D02*
X10353311Y-36326680D01*
X10353311Y-36326680D02*
X10362835Y-36288585D01*
X10362835Y-36288585D02*
X10362835Y-36212395D01*
X10362835Y-36212395D02*
X10353311Y-36193347D01*
X10353311Y-36193347D02*
X10343787Y-36183823D01*
X10343787Y-36183823D02*
X10324740Y-36174299D01*
X10324740Y-36174299D02*
X10286645Y-36174299D01*
X10286645Y-36174299D02*
X10267597Y-36183823D01*
X10267597Y-36183823D02*
X10258073Y-36193347D01*
X10258073Y-36193347D02*
X10248549Y-36212395D01*
X10248549Y-36212395D02*
X10248549Y-36260014D01*
X10248549Y-36260014D02*
X10258073Y-36279061D01*
X10258073Y-36279061D02*
X10267597Y-36288585D01*
X10267597Y-36288585D02*
X10286645Y-36298109D01*
X10286645Y-36298109D02*
X10324740Y-36298109D01*
X10324740Y-36298109D02*
X10343787Y-36288585D01*
X10343787Y-36288585D02*
X10353311Y-36279061D01*
X10353311Y-36279061D02*
X10362835Y-36260014D01*
X10477121Y-36260014D02*
X10458073Y-36250490D01*
X10458073Y-36250490D02*
X10448549Y-36240966D01*
X10448549Y-36240966D02*
X10439026Y-36221918D01*
X10439026Y-36221918D02*
X10439026Y-36212395D01*
X10439026Y-36212395D02*
X10448549Y-36193347D01*
X10448549Y-36193347D02*
X10458073Y-36183823D01*
X10458073Y-36183823D02*
X10477121Y-36174299D01*
X10477121Y-36174299D02*
X10515216Y-36174299D01*
X10515216Y-36174299D02*
X10534264Y-36183823D01*
X10534264Y-36183823D02*
X10543787Y-36193347D01*
X10543787Y-36193347D02*
X10553311Y-36212395D01*
X10553311Y-36212395D02*
X10553311Y-36221918D01*
X10553311Y-36221918D02*
X10543787Y-36240966D01*
X10543787Y-36240966D02*
X10534264Y-36250490D01*
X10534264Y-36250490D02*
X10515216Y-36260014D01*
X10515216Y-36260014D02*
X10477121Y-36260014D01*
X10477121Y-36260014D02*
X10458073Y-36269537D01*
X10458073Y-36269537D02*
X10448549Y-36279061D01*
X10448549Y-36279061D02*
X10439026Y-36298109D01*
X10439026Y-36298109D02*
X10439026Y-36336204D01*
X10439026Y-36336204D02*
X10448549Y-36355252D01*
X10448549Y-36355252D02*
X10458073Y-36364776D01*
X10458073Y-36364776D02*
X10477121Y-36374299D01*
X10477121Y-36374299D02*
X10515216Y-36374299D01*
X10515216Y-36374299D02*
X10534264Y-36364776D01*
X10534264Y-36364776D02*
X10543787Y-36355252D01*
X10543787Y-36355252D02*
X10553311Y-36336204D01*
X10553311Y-36336204D02*
X10553311Y-36298109D01*
X10553311Y-36298109D02*
X10543787Y-36279061D01*
X10543787Y-36279061D02*
X10534264Y-36269537D01*
X10534264Y-36269537D02*
X10515216Y-36260014D01*
X10667597Y-36260014D02*
X10648549Y-36250490D01*
X10648549Y-36250490D02*
X10639026Y-36240966D01*
X10639026Y-36240966D02*
X10629502Y-36221918D01*
X10629502Y-36221918D02*
X10629502Y-36212395D01*
X10629502Y-36212395D02*
X10639026Y-36193347D01*
X10639026Y-36193347D02*
X10648549Y-36183823D01*
X10648549Y-36183823D02*
X10667597Y-36174299D01*
X10667597Y-36174299D02*
X10705692Y-36174299D01*
X10705692Y-36174299D02*
X10724740Y-36183823D01*
X10724740Y-36183823D02*
X10734264Y-36193347D01*
X10734264Y-36193347D02*
X10743787Y-36212395D01*
X10743787Y-36212395D02*
X10743787Y-36221918D01*
X10743787Y-36221918D02*
X10734264Y-36240966D01*
X10734264Y-36240966D02*
X10724740Y-36250490D01*
X10724740Y-36250490D02*
X10705692Y-36260014D01*
X10705692Y-36260014D02*
X10667597Y-36260014D01*
X10667597Y-36260014D02*
X10648549Y-36269537D01*
X10648549Y-36269537D02*
X10639026Y-36279061D01*
X10639026Y-36279061D02*
X10629502Y-36298109D01*
X10629502Y-36298109D02*
X10629502Y-36336204D01*
X10629502Y-36336204D02*
X10639026Y-36355252D01*
X10639026Y-36355252D02*
X10648549Y-36364776D01*
X10648549Y-36364776D02*
X10667597Y-36374299D01*
X10667597Y-36374299D02*
X10705692Y-36374299D01*
X10705692Y-36374299D02*
X10724740Y-36364776D01*
X10724740Y-36364776D02*
X10734264Y-36355252D01*
X10734264Y-36355252D02*
X10743787Y-36336204D01*
X10743787Y-36336204D02*
X10743787Y-36298109D01*
X10743787Y-36298109D02*
X10734264Y-36279061D01*
X10734264Y-36279061D02*
X10724740Y-36269537D01*
X10724740Y-36269537D02*
X10705692Y-36260014D01*
X10829502Y-36374299D02*
X10829502Y-36240966D01*
X10829502Y-36260014D02*
X10839026Y-36250490D01*
X10839026Y-36250490D02*
X10858073Y-36240966D01*
X10858073Y-36240966D02*
X10886645Y-36240966D01*
X10886645Y-36240966D02*
X10905692Y-36250490D01*
X10905692Y-36250490D02*
X10915216Y-36269537D01*
X10915216Y-36269537D02*
X10915216Y-36374299D01*
X10915216Y-36269537D02*
X10924740Y-36250490D01*
X10924740Y-36250490D02*
X10943787Y-36240966D01*
X10943787Y-36240966D02*
X10972359Y-36240966D01*
X10972359Y-36240966D02*
X10991407Y-36250490D01*
X10991407Y-36250490D02*
X11000930Y-36269537D01*
X11000930Y-36269537D02*
X11000930Y-36374299D01*
X11096168Y-36374299D02*
X11096168Y-36240966D01*
X11096168Y-36260014D02*
X11105692Y-36250490D01*
X11105692Y-36250490D02*
X11124740Y-36240966D01*
X11124740Y-36240966D02*
X11153311Y-36240966D01*
X11153311Y-36240966D02*
X11172359Y-36250490D01*
X11172359Y-36250490D02*
X11181883Y-36269537D01*
X11181883Y-36269537D02*
X11181883Y-36374299D01*
X11181883Y-36269537D02*
X11191406Y-36250490D01*
X11191406Y-36250490D02*
X11210454Y-36240966D01*
X11210454Y-36240966D02*
X11239025Y-36240966D01*
X11239025Y-36240966D02*
X11258073Y-36250490D01*
X11258073Y-36250490D02*
X11267597Y-36269537D01*
X11267597Y-36269537D02*
X11267597Y-36374299D01*
X11658073Y-36164776D02*
X11486645Y-36421918D01*
X11915216Y-36174299D02*
X11934264Y-36174299D01*
X11934264Y-36174299D02*
X11953311Y-36183823D01*
X11953311Y-36183823D02*
X11962835Y-36193347D01*
X11962835Y-36193347D02*
X11972359Y-36212395D01*
X11972359Y-36212395D02*
X11981883Y-36250490D01*
X11981883Y-36250490D02*
X11981883Y-36298109D01*
X11981883Y-36298109D02*
X11972359Y-36336204D01*
X11972359Y-36336204D02*
X11962835Y-36355252D01*
X11962835Y-36355252D02*
X11953311Y-36364776D01*
X11953311Y-36364776D02*
X11934264Y-36374299D01*
X11934264Y-36374299D02*
X11915216Y-36374299D01*
X11915216Y-36374299D02*
X11896168Y-36364776D01*
X11896168Y-36364776D02*
X11886645Y-36355252D01*
X11886645Y-36355252D02*
X11877121Y-36336204D01*
X11877121Y-36336204D02*
X11867597Y-36298109D01*
X11867597Y-36298109D02*
X11867597Y-36250490D01*
X11867597Y-36250490D02*
X11877121Y-36212395D01*
X11877121Y-36212395D02*
X11886645Y-36193347D01*
X11886645Y-36193347D02*
X11896168Y-36183823D01*
X11896168Y-36183823D02*
X11915216Y-36174299D01*
X12067597Y-36355252D02*
X12077121Y-36364776D01*
X12077121Y-36364776D02*
X12067597Y-36374299D01*
X12067597Y-36374299D02*
X12058073Y-36364776D01*
X12058073Y-36364776D02*
X12067597Y-36355252D01*
X12067597Y-36355252D02*
X12067597Y-36374299D01*
X12267597Y-36374299D02*
X12153311Y-36374299D01*
X12210454Y-36374299D02*
X12210454Y-36174299D01*
X12210454Y-36174299D02*
X12191407Y-36202871D01*
X12191407Y-36202871D02*
X12172359Y-36221918D01*
X12172359Y-36221918D02*
X12153311Y-36231442D01*
X12448549Y-36174299D02*
X12353311Y-36174299D01*
X12353311Y-36174299D02*
X12343788Y-36269537D01*
X12343788Y-36269537D02*
X12353311Y-36260014D01*
X12353311Y-36260014D02*
X12372359Y-36250490D01*
X12372359Y-36250490D02*
X12419978Y-36250490D01*
X12419978Y-36250490D02*
X12439026Y-36260014D01*
X12439026Y-36260014D02*
X12448549Y-36269537D01*
X12448549Y-36269537D02*
X12458073Y-36288585D01*
X12458073Y-36288585D02*
X12458073Y-36336204D01*
X12458073Y-36336204D02*
X12448549Y-36355252D01*
X12448549Y-36355252D02*
X12439026Y-36364776D01*
X12439026Y-36364776D02*
X12419978Y-36374299D01*
X12419978Y-36374299D02*
X12372359Y-36374299D01*
X12372359Y-36374299D02*
X12353311Y-36364776D01*
X12353311Y-36364776D02*
X12343788Y-36355252D01*
X12524740Y-36174299D02*
X12658073Y-36174299D01*
X12658073Y-36174299D02*
X12572359Y-36374299D01*
X12772359Y-36174299D02*
X12791407Y-36174299D01*
X12791407Y-36174299D02*
X12810454Y-36183823D01*
X12810454Y-36183823D02*
X12819978Y-36193347D01*
X12819978Y-36193347D02*
X12829502Y-36212395D01*
X12829502Y-36212395D02*
X12839026Y-36250490D01*
X12839026Y-36250490D02*
X12839026Y-36298109D01*
X12839026Y-36298109D02*
X12829502Y-36336204D01*
X12829502Y-36336204D02*
X12819978Y-36355252D01*
X12819978Y-36355252D02*
X12810454Y-36364776D01*
X12810454Y-36364776D02*
X12791407Y-36374299D01*
X12791407Y-36374299D02*
X12772359Y-36374299D01*
X12772359Y-36374299D02*
X12753311Y-36364776D01*
X12753311Y-36364776D02*
X12743788Y-36355252D01*
X12743788Y-36355252D02*
X12734264Y-36336204D01*
X12734264Y-36336204D02*
X12724740Y-36298109D01*
X12724740Y-36298109D02*
X12724740Y-36250490D01*
X12724740Y-36250490D02*
X12734264Y-36212395D01*
X12734264Y-36212395D02*
X12743788Y-36193347D01*
X12743788Y-36193347D02*
X12753311Y-36183823D01*
X12753311Y-36183823D02*
X12772359Y-36174299D01*
X12915216Y-36174299D02*
X12915216Y-36212395D01*
X12991407Y-36174299D02*
X12991407Y-36212395D01*
X13286645Y-36450490D02*
X13277121Y-36440966D01*
X13277121Y-36440966D02*
X13258073Y-36412395D01*
X13258073Y-36412395D02*
X13248550Y-36393347D01*
X13248550Y-36393347D02*
X13239026Y-36364776D01*
X13239026Y-36364776D02*
X13229502Y-36317156D01*
X13229502Y-36317156D02*
X13229502Y-36279061D01*
X13229502Y-36279061D02*
X13239026Y-36231442D01*
X13239026Y-36231442D02*
X13248550Y-36202871D01*
X13248550Y-36202871D02*
X13258073Y-36183823D01*
X13258073Y-36183823D02*
X13277121Y-36155252D01*
X13277121Y-36155252D02*
X13286645Y-36145728D01*
X13467597Y-36374299D02*
X13353311Y-36374299D01*
X13410454Y-36374299D02*
X13410454Y-36174299D01*
X13410454Y-36174299D02*
X13391407Y-36202871D01*
X13391407Y-36202871D02*
X13372359Y-36221918D01*
X13372359Y-36221918D02*
X13353311Y-36231442D01*
X13639026Y-36174299D02*
X13600930Y-36174299D01*
X13600930Y-36174299D02*
X13581883Y-36183823D01*
X13581883Y-36183823D02*
X13572359Y-36193347D01*
X13572359Y-36193347D02*
X13553311Y-36221918D01*
X13553311Y-36221918D02*
X13543788Y-36260014D01*
X13543788Y-36260014D02*
X13543788Y-36336204D01*
X13543788Y-36336204D02*
X13553311Y-36355252D01*
X13553311Y-36355252D02*
X13562835Y-36364776D01*
X13562835Y-36364776D02*
X13581883Y-36374299D01*
X13581883Y-36374299D02*
X13619978Y-36374299D01*
X13619978Y-36374299D02*
X13639026Y-36364776D01*
X13639026Y-36364776D02*
X13648550Y-36355252D01*
X13648550Y-36355252D02*
X13658073Y-36336204D01*
X13658073Y-36336204D02*
X13658073Y-36288585D01*
X13658073Y-36288585D02*
X13648550Y-36269537D01*
X13648550Y-36269537D02*
X13639026Y-36260014D01*
X13639026Y-36260014D02*
X13619978Y-36250490D01*
X13619978Y-36250490D02*
X13581883Y-36250490D01*
X13581883Y-36250490D02*
X13562835Y-36260014D01*
X13562835Y-36260014D02*
X13553311Y-36269537D01*
X13553311Y-36269537D02*
X13543788Y-36288585D01*
X13896169Y-36374299D02*
X13896169Y-36174299D01*
X13981883Y-36374299D02*
X13981883Y-36269537D01*
X13981883Y-36269537D02*
X13972359Y-36250490D01*
X13972359Y-36250490D02*
X13953312Y-36240966D01*
X13953312Y-36240966D02*
X13924740Y-36240966D01*
X13924740Y-36240966D02*
X13905692Y-36250490D01*
X13905692Y-36250490D02*
X13896169Y-36260014D01*
X14105692Y-36374299D02*
X14086645Y-36364776D01*
X14086645Y-36364776D02*
X14077121Y-36355252D01*
X14077121Y-36355252D02*
X14067597Y-36336204D01*
X14067597Y-36336204D02*
X14067597Y-36279061D01*
X14067597Y-36279061D02*
X14077121Y-36260014D01*
X14077121Y-36260014D02*
X14086645Y-36250490D01*
X14086645Y-36250490D02*
X14105692Y-36240966D01*
X14105692Y-36240966D02*
X14134264Y-36240966D01*
X14134264Y-36240966D02*
X14153312Y-36250490D01*
X14153312Y-36250490D02*
X14162835Y-36260014D01*
X14162835Y-36260014D02*
X14172359Y-36279061D01*
X14172359Y-36279061D02*
X14172359Y-36336204D01*
X14172359Y-36336204D02*
X14162835Y-36355252D01*
X14162835Y-36355252D02*
X14153312Y-36364776D01*
X14153312Y-36364776D02*
X14134264Y-36374299D01*
X14134264Y-36374299D02*
X14105692Y-36374299D01*
X14286645Y-36374299D02*
X14267597Y-36364776D01*
X14267597Y-36364776D02*
X14258073Y-36345728D01*
X14258073Y-36345728D02*
X14258073Y-36174299D01*
X14439026Y-36364776D02*
X14419978Y-36374299D01*
X14419978Y-36374299D02*
X14381883Y-36374299D01*
X14381883Y-36374299D02*
X14362835Y-36364776D01*
X14362835Y-36364776D02*
X14353312Y-36345728D01*
X14353312Y-36345728D02*
X14353312Y-36269537D01*
X14353312Y-36269537D02*
X14362835Y-36250490D01*
X14362835Y-36250490D02*
X14381883Y-36240966D01*
X14381883Y-36240966D02*
X14419978Y-36240966D01*
X14419978Y-36240966D02*
X14439026Y-36250490D01*
X14439026Y-36250490D02*
X14448550Y-36269537D01*
X14448550Y-36269537D02*
X14448550Y-36288585D01*
X14448550Y-36288585D02*
X14353312Y-36307633D01*
X14524740Y-36364776D02*
X14543788Y-36374299D01*
X14543788Y-36374299D02*
X14581883Y-36374299D01*
X14581883Y-36374299D02*
X14600931Y-36364776D01*
X14600931Y-36364776D02*
X14610454Y-36345728D01*
X14610454Y-36345728D02*
X14610454Y-36336204D01*
X14610454Y-36336204D02*
X14600931Y-36317156D01*
X14600931Y-36317156D02*
X14581883Y-36307633D01*
X14581883Y-36307633D02*
X14553312Y-36307633D01*
X14553312Y-36307633D02*
X14534264Y-36298109D01*
X14534264Y-36298109D02*
X14524740Y-36279061D01*
X14524740Y-36279061D02*
X14524740Y-36269537D01*
X14524740Y-36269537D02*
X14534264Y-36250490D01*
X14534264Y-36250490D02*
X14553312Y-36240966D01*
X14553312Y-36240966D02*
X14581883Y-36240966D01*
X14581883Y-36240966D02*
X14600931Y-36250490D01*
X14677121Y-36450490D02*
X14686645Y-36440966D01*
X14686645Y-36440966D02*
X14705693Y-36412395D01*
X14705693Y-36412395D02*
X14715216Y-36393347D01*
X14715216Y-36393347D02*
X14724740Y-36364776D01*
X14724740Y-36364776D02*
X14734264Y-36317156D01*
X14734264Y-36317156D02*
X14734264Y-36279061D01*
X14734264Y-36279061D02*
X14724740Y-36231442D01*
X14724740Y-36231442D02*
X14715216Y-36202871D01*
X14715216Y-36202871D02*
X14705693Y-36183823D01*
X14705693Y-36183823D02*
X14686645Y-36155252D01*
X14686645Y-36155252D02*
X14677121Y-36145728D01*
X15039026Y-36450490D02*
X15029502Y-36440966D01*
X15029502Y-36440966D02*
X15010454Y-36412395D01*
X15010454Y-36412395D02*
X15000931Y-36393347D01*
X15000931Y-36393347D02*
X14991407Y-36364776D01*
X14991407Y-36364776D02*
X14981883Y-36317156D01*
X14981883Y-36317156D02*
X14981883Y-36279061D01*
X14981883Y-36279061D02*
X14991407Y-36231442D01*
X14991407Y-36231442D02*
X15000931Y-36202871D01*
X15000931Y-36202871D02*
X15010454Y-36183823D01*
X15010454Y-36183823D02*
X15029502Y-36155252D01*
X15029502Y-36155252D02*
X15039026Y-36145728D01*
X15115216Y-36240966D02*
X15115216Y-36374299D01*
X15115216Y-36260014D02*
X15124740Y-36250490D01*
X15124740Y-36250490D02*
X15143788Y-36240966D01*
X15143788Y-36240966D02*
X15172359Y-36240966D01*
X15172359Y-36240966D02*
X15191407Y-36250490D01*
X15191407Y-36250490D02*
X15200931Y-36269537D01*
X15200931Y-36269537D02*
X15200931Y-36374299D01*
X15324740Y-36374299D02*
X15305693Y-36364776D01*
X15305693Y-36364776D02*
X15296169Y-36355252D01*
X15296169Y-36355252D02*
X15286645Y-36336204D01*
X15286645Y-36336204D02*
X15286645Y-36279061D01*
X15286645Y-36279061D02*
X15296169Y-36260014D01*
X15296169Y-36260014D02*
X15305693Y-36250490D01*
X15305693Y-36250490D02*
X15324740Y-36240966D01*
X15324740Y-36240966D02*
X15353312Y-36240966D01*
X15353312Y-36240966D02*
X15372359Y-36250490D01*
X15372359Y-36250490D02*
X15381883Y-36260014D01*
X15381883Y-36260014D02*
X15391407Y-36279061D01*
X15391407Y-36279061D02*
X15391407Y-36336204D01*
X15391407Y-36336204D02*
X15381883Y-36355252D01*
X15381883Y-36355252D02*
X15372359Y-36364776D01*
X15372359Y-36364776D02*
X15353312Y-36374299D01*
X15353312Y-36374299D02*
X15324740Y-36374299D01*
X15448550Y-36240966D02*
X15524740Y-36240966D01*
X15477121Y-36174299D02*
X15477121Y-36345728D01*
X15477121Y-36345728D02*
X15486645Y-36364776D01*
X15486645Y-36364776D02*
X15505693Y-36374299D01*
X15505693Y-36374299D02*
X15524740Y-36374299D01*
X15743788Y-36240966D02*
X15743788Y-36440966D01*
X15743788Y-36250490D02*
X15762835Y-36240966D01*
X15762835Y-36240966D02*
X15800931Y-36240966D01*
X15800931Y-36240966D02*
X15819978Y-36250490D01*
X15819978Y-36250490D02*
X15829502Y-36260014D01*
X15829502Y-36260014D02*
X15839026Y-36279061D01*
X15839026Y-36279061D02*
X15839026Y-36336204D01*
X15839026Y-36336204D02*
X15829502Y-36355252D01*
X15829502Y-36355252D02*
X15819978Y-36364776D01*
X15819978Y-36364776D02*
X15800931Y-36374299D01*
X15800931Y-36374299D02*
X15762835Y-36374299D01*
X15762835Y-36374299D02*
X15743788Y-36364776D01*
X15953312Y-36374299D02*
X15934264Y-36364776D01*
X15934264Y-36364776D02*
X15924740Y-36345728D01*
X15924740Y-36345728D02*
X15924740Y-36174299D01*
X16115216Y-36374299D02*
X16115216Y-36269537D01*
X16115216Y-36269537D02*
X16105693Y-36250490D01*
X16105693Y-36250490D02*
X16086645Y-36240966D01*
X16086645Y-36240966D02*
X16048550Y-36240966D01*
X16048550Y-36240966D02*
X16029502Y-36250490D01*
X16115216Y-36364776D02*
X16096169Y-36374299D01*
X16096169Y-36374299D02*
X16048550Y-36374299D01*
X16048550Y-36374299D02*
X16029502Y-36364776D01*
X16029502Y-36364776D02*
X16019978Y-36345728D01*
X16019978Y-36345728D02*
X16019978Y-36326680D01*
X16019978Y-36326680D02*
X16029502Y-36307633D01*
X16029502Y-36307633D02*
X16048550Y-36298109D01*
X16048550Y-36298109D02*
X16096169Y-36298109D01*
X16096169Y-36298109D02*
X16115216Y-36288585D01*
X16181883Y-36240966D02*
X16258074Y-36240966D01*
X16210455Y-36174299D02*
X16210455Y-36345728D01*
X16210455Y-36345728D02*
X16219978Y-36364776D01*
X16219978Y-36364776D02*
X16239026Y-36374299D01*
X16239026Y-36374299D02*
X16258074Y-36374299D01*
X16400931Y-36364776D02*
X16381883Y-36374299D01*
X16381883Y-36374299D02*
X16343788Y-36374299D01*
X16343788Y-36374299D02*
X16324740Y-36364776D01*
X16324740Y-36364776D02*
X16315216Y-36345728D01*
X16315216Y-36345728D02*
X16315216Y-36269537D01*
X16315216Y-36269537D02*
X16324740Y-36250490D01*
X16324740Y-36250490D02*
X16343788Y-36240966D01*
X16343788Y-36240966D02*
X16381883Y-36240966D01*
X16381883Y-36240966D02*
X16400931Y-36250490D01*
X16400931Y-36250490D02*
X16410455Y-36269537D01*
X16410455Y-36269537D02*
X16410455Y-36288585D01*
X16410455Y-36288585D02*
X16315216Y-36307633D01*
X16581883Y-36374299D02*
X16581883Y-36174299D01*
X16581883Y-36364776D02*
X16562836Y-36374299D01*
X16562836Y-36374299D02*
X16524740Y-36374299D01*
X16524740Y-36374299D02*
X16505693Y-36364776D01*
X16505693Y-36364776D02*
X16496169Y-36355252D01*
X16496169Y-36355252D02*
X16486645Y-36336204D01*
X16486645Y-36336204D02*
X16486645Y-36279061D01*
X16486645Y-36279061D02*
X16496169Y-36260014D01*
X16496169Y-36260014D02*
X16505693Y-36250490D01*
X16505693Y-36250490D02*
X16524740Y-36240966D01*
X16524740Y-36240966D02*
X16562836Y-36240966D01*
X16562836Y-36240966D02*
X16581883Y-36250490D01*
X16658074Y-36450490D02*
X16667597Y-36440966D01*
X16667597Y-36440966D02*
X16686645Y-36412395D01*
X16686645Y-36412395D02*
X16696169Y-36393347D01*
X16696169Y-36393347D02*
X16705693Y-36364776D01*
X16705693Y-36364776D02*
X16715216Y-36317156D01*
X16715216Y-36317156D02*
X16715216Y-36279061D01*
X16715216Y-36279061D02*
X16705693Y-36231442D01*
X16705693Y-36231442D02*
X16696169Y-36202871D01*
X16696169Y-36202871D02*
X16686645Y-36183823D01*
X16686645Y-36183823D02*
X16667597Y-36155252D01*
X16667597Y-36155252D02*
X16658074Y-36145728D01*
X9682293Y-36673527D02*
X9682293Y-36532104D01*
X9540871Y-36532104D01*
X9540871Y-36673527D01*
X9682293Y-36673527D01*
X10058073Y-36560966D02*
X10058073Y-36694299D01*
X10010454Y-36484776D02*
X9962835Y-36627633D01*
X9962835Y-36627633D02*
X10086645Y-36627633D01*
X10162835Y-36675252D02*
X10172359Y-36684776D01*
X10172359Y-36684776D02*
X10162835Y-36694299D01*
X10162835Y-36694299D02*
X10153311Y-36684776D01*
X10153311Y-36684776D02*
X10162835Y-36675252D01*
X10162835Y-36675252D02*
X10162835Y-36694299D01*
X10296168Y-36494299D02*
X10315216Y-36494299D01*
X10315216Y-36494299D02*
X10334264Y-36503823D01*
X10334264Y-36503823D02*
X10343787Y-36513347D01*
X10343787Y-36513347D02*
X10353311Y-36532395D01*
X10353311Y-36532395D02*
X10362835Y-36570490D01*
X10362835Y-36570490D02*
X10362835Y-36618109D01*
X10362835Y-36618109D02*
X10353311Y-36656204D01*
X10353311Y-36656204D02*
X10343787Y-36675252D01*
X10343787Y-36675252D02*
X10334264Y-36684776D01*
X10334264Y-36684776D02*
X10315216Y-36694299D01*
X10315216Y-36694299D02*
X10296168Y-36694299D01*
X10296168Y-36694299D02*
X10277121Y-36684776D01*
X10277121Y-36684776D02*
X10267597Y-36675252D01*
X10267597Y-36675252D02*
X10258073Y-36656204D01*
X10258073Y-36656204D02*
X10248549Y-36618109D01*
X10248549Y-36618109D02*
X10248549Y-36570490D01*
X10248549Y-36570490D02*
X10258073Y-36532395D01*
X10258073Y-36532395D02*
X10267597Y-36513347D01*
X10267597Y-36513347D02*
X10277121Y-36503823D01*
X10277121Y-36503823D02*
X10296168Y-36494299D01*
X10486645Y-36494299D02*
X10505692Y-36494299D01*
X10505692Y-36494299D02*
X10524740Y-36503823D01*
X10524740Y-36503823D02*
X10534264Y-36513347D01*
X10534264Y-36513347D02*
X10543787Y-36532395D01*
X10543787Y-36532395D02*
X10553311Y-36570490D01*
X10553311Y-36570490D02*
X10553311Y-36618109D01*
X10553311Y-36618109D02*
X10543787Y-36656204D01*
X10543787Y-36656204D02*
X10534264Y-36675252D01*
X10534264Y-36675252D02*
X10524740Y-36684776D01*
X10524740Y-36684776D02*
X10505692Y-36694299D01*
X10505692Y-36694299D02*
X10486645Y-36694299D01*
X10486645Y-36694299D02*
X10467597Y-36684776D01*
X10467597Y-36684776D02*
X10458073Y-36675252D01*
X10458073Y-36675252D02*
X10448549Y-36656204D01*
X10448549Y-36656204D02*
X10439026Y-36618109D01*
X10439026Y-36618109D02*
X10439026Y-36570490D01*
X10439026Y-36570490D02*
X10448549Y-36532395D01*
X10448549Y-36532395D02*
X10458073Y-36513347D01*
X10458073Y-36513347D02*
X10467597Y-36503823D01*
X10467597Y-36503823D02*
X10486645Y-36494299D01*
X10677121Y-36494299D02*
X10696168Y-36494299D01*
X10696168Y-36494299D02*
X10715216Y-36503823D01*
X10715216Y-36503823D02*
X10724740Y-36513347D01*
X10724740Y-36513347D02*
X10734264Y-36532395D01*
X10734264Y-36532395D02*
X10743787Y-36570490D01*
X10743787Y-36570490D02*
X10743787Y-36618109D01*
X10743787Y-36618109D02*
X10734264Y-36656204D01*
X10734264Y-36656204D02*
X10724740Y-36675252D01*
X10724740Y-36675252D02*
X10715216Y-36684776D01*
X10715216Y-36684776D02*
X10696168Y-36694299D01*
X10696168Y-36694299D02*
X10677121Y-36694299D01*
X10677121Y-36694299D02*
X10658073Y-36684776D01*
X10658073Y-36684776D02*
X10648549Y-36675252D01*
X10648549Y-36675252D02*
X10639026Y-36656204D01*
X10639026Y-36656204D02*
X10629502Y-36618109D01*
X10629502Y-36618109D02*
X10629502Y-36570490D01*
X10629502Y-36570490D02*
X10639026Y-36532395D01*
X10639026Y-36532395D02*
X10648549Y-36513347D01*
X10648549Y-36513347D02*
X10658073Y-36503823D01*
X10658073Y-36503823D02*
X10677121Y-36494299D01*
X10829502Y-36694299D02*
X10829502Y-36560966D01*
X10829502Y-36580014D02*
X10839026Y-36570490D01*
X10839026Y-36570490D02*
X10858073Y-36560966D01*
X10858073Y-36560966D02*
X10886645Y-36560966D01*
X10886645Y-36560966D02*
X10905692Y-36570490D01*
X10905692Y-36570490D02*
X10915216Y-36589537D01*
X10915216Y-36589537D02*
X10915216Y-36694299D01*
X10915216Y-36589537D02*
X10924740Y-36570490D01*
X10924740Y-36570490D02*
X10943787Y-36560966D01*
X10943787Y-36560966D02*
X10972359Y-36560966D01*
X10972359Y-36560966D02*
X10991407Y-36570490D01*
X10991407Y-36570490D02*
X11000930Y-36589537D01*
X11000930Y-36589537D02*
X11000930Y-36694299D01*
X11096168Y-36694299D02*
X11096168Y-36560966D01*
X11096168Y-36580014D02*
X11105692Y-36570490D01*
X11105692Y-36570490D02*
X11124740Y-36560966D01*
X11124740Y-36560966D02*
X11153311Y-36560966D01*
X11153311Y-36560966D02*
X11172359Y-36570490D01*
X11172359Y-36570490D02*
X11181883Y-36589537D01*
X11181883Y-36589537D02*
X11181883Y-36694299D01*
X11181883Y-36589537D02*
X11191406Y-36570490D01*
X11191406Y-36570490D02*
X11210454Y-36560966D01*
X11210454Y-36560966D02*
X11239025Y-36560966D01*
X11239025Y-36560966D02*
X11258073Y-36570490D01*
X11258073Y-36570490D02*
X11267597Y-36589537D01*
X11267597Y-36589537D02*
X11267597Y-36694299D01*
X11658073Y-36484776D02*
X11486645Y-36741918D01*
X11915216Y-36494299D02*
X11934264Y-36494299D01*
X11934264Y-36494299D02*
X11953311Y-36503823D01*
X11953311Y-36503823D02*
X11962835Y-36513347D01*
X11962835Y-36513347D02*
X11972359Y-36532395D01*
X11972359Y-36532395D02*
X11981883Y-36570490D01*
X11981883Y-36570490D02*
X11981883Y-36618109D01*
X11981883Y-36618109D02*
X11972359Y-36656204D01*
X11972359Y-36656204D02*
X11962835Y-36675252D01*
X11962835Y-36675252D02*
X11953311Y-36684776D01*
X11953311Y-36684776D02*
X11934264Y-36694299D01*
X11934264Y-36694299D02*
X11915216Y-36694299D01*
X11915216Y-36694299D02*
X11896168Y-36684776D01*
X11896168Y-36684776D02*
X11886645Y-36675252D01*
X11886645Y-36675252D02*
X11877121Y-36656204D01*
X11877121Y-36656204D02*
X11867597Y-36618109D01*
X11867597Y-36618109D02*
X11867597Y-36570490D01*
X11867597Y-36570490D02*
X11877121Y-36532395D01*
X11877121Y-36532395D02*
X11886645Y-36513347D01*
X11886645Y-36513347D02*
X11896168Y-36503823D01*
X11896168Y-36503823D02*
X11915216Y-36494299D01*
X12067597Y-36675252D02*
X12077121Y-36684776D01*
X12077121Y-36684776D02*
X12067597Y-36694299D01*
X12067597Y-36694299D02*
X12058073Y-36684776D01*
X12058073Y-36684776D02*
X12067597Y-36675252D01*
X12067597Y-36675252D02*
X12067597Y-36694299D01*
X12267597Y-36694299D02*
X12153311Y-36694299D01*
X12210454Y-36694299D02*
X12210454Y-36494299D01*
X12210454Y-36494299D02*
X12191407Y-36522871D01*
X12191407Y-36522871D02*
X12172359Y-36541918D01*
X12172359Y-36541918D02*
X12153311Y-36551442D01*
X12448549Y-36494299D02*
X12353311Y-36494299D01*
X12353311Y-36494299D02*
X12343788Y-36589537D01*
X12343788Y-36589537D02*
X12353311Y-36580014D01*
X12353311Y-36580014D02*
X12372359Y-36570490D01*
X12372359Y-36570490D02*
X12419978Y-36570490D01*
X12419978Y-36570490D02*
X12439026Y-36580014D01*
X12439026Y-36580014D02*
X12448549Y-36589537D01*
X12448549Y-36589537D02*
X12458073Y-36608585D01*
X12458073Y-36608585D02*
X12458073Y-36656204D01*
X12458073Y-36656204D02*
X12448549Y-36675252D01*
X12448549Y-36675252D02*
X12439026Y-36684776D01*
X12439026Y-36684776D02*
X12419978Y-36694299D01*
X12419978Y-36694299D02*
X12372359Y-36694299D01*
X12372359Y-36694299D02*
X12353311Y-36684776D01*
X12353311Y-36684776D02*
X12343788Y-36675252D01*
X12524740Y-36494299D02*
X12658073Y-36494299D01*
X12658073Y-36494299D02*
X12572359Y-36694299D01*
X12829502Y-36494299D02*
X12734264Y-36494299D01*
X12734264Y-36494299D02*
X12724740Y-36589537D01*
X12724740Y-36589537D02*
X12734264Y-36580014D01*
X12734264Y-36580014D02*
X12753311Y-36570490D01*
X12753311Y-36570490D02*
X12800930Y-36570490D01*
X12800930Y-36570490D02*
X12819978Y-36580014D01*
X12819978Y-36580014D02*
X12829502Y-36589537D01*
X12829502Y-36589537D02*
X12839026Y-36608585D01*
X12839026Y-36608585D02*
X12839026Y-36656204D01*
X12839026Y-36656204D02*
X12829502Y-36675252D01*
X12829502Y-36675252D02*
X12819978Y-36684776D01*
X12819978Y-36684776D02*
X12800930Y-36694299D01*
X12800930Y-36694299D02*
X12753311Y-36694299D01*
X12753311Y-36694299D02*
X12734264Y-36684776D01*
X12734264Y-36684776D02*
X12724740Y-36675252D01*
X12915216Y-36494299D02*
X12915216Y-36532395D01*
X12991407Y-36494299D02*
X12991407Y-36532395D01*
X13286645Y-36770490D02*
X13277121Y-36760966D01*
X13277121Y-36760966D02*
X13258073Y-36732395D01*
X13258073Y-36732395D02*
X13248550Y-36713347D01*
X13248550Y-36713347D02*
X13239026Y-36684776D01*
X13239026Y-36684776D02*
X13229502Y-36637156D01*
X13229502Y-36637156D02*
X13229502Y-36599061D01*
X13229502Y-36599061D02*
X13239026Y-36551442D01*
X13239026Y-36551442D02*
X13248550Y-36522871D01*
X13248550Y-36522871D02*
X13258073Y-36503823D01*
X13258073Y-36503823D02*
X13277121Y-36475252D01*
X13277121Y-36475252D02*
X13286645Y-36465728D01*
X13467597Y-36694299D02*
X13353311Y-36694299D01*
X13410454Y-36694299D02*
X13410454Y-36494299D01*
X13410454Y-36494299D02*
X13391407Y-36522871D01*
X13391407Y-36522871D02*
X13372359Y-36541918D01*
X13372359Y-36541918D02*
X13353311Y-36551442D01*
X13591407Y-36494299D02*
X13610454Y-36494299D01*
X13610454Y-36494299D02*
X13629502Y-36503823D01*
X13629502Y-36503823D02*
X13639026Y-36513347D01*
X13639026Y-36513347D02*
X13648550Y-36532395D01*
X13648550Y-36532395D02*
X13658073Y-36570490D01*
X13658073Y-36570490D02*
X13658073Y-36618109D01*
X13658073Y-36618109D02*
X13648550Y-36656204D01*
X13648550Y-36656204D02*
X13639026Y-36675252D01*
X13639026Y-36675252D02*
X13629502Y-36684776D01*
X13629502Y-36684776D02*
X13610454Y-36694299D01*
X13610454Y-36694299D02*
X13591407Y-36694299D01*
X13591407Y-36694299D02*
X13572359Y-36684776D01*
X13572359Y-36684776D02*
X13562835Y-36675252D01*
X13562835Y-36675252D02*
X13553311Y-36656204D01*
X13553311Y-36656204D02*
X13543788Y-36618109D01*
X13543788Y-36618109D02*
X13543788Y-36570490D01*
X13543788Y-36570490D02*
X13553311Y-36532395D01*
X13553311Y-36532395D02*
X13562835Y-36513347D01*
X13562835Y-36513347D02*
X13572359Y-36503823D01*
X13572359Y-36503823D02*
X13591407Y-36494299D01*
X13829502Y-36560966D02*
X13829502Y-36694299D01*
X13781883Y-36484776D02*
X13734264Y-36627633D01*
X13734264Y-36627633D02*
X13858073Y-36627633D01*
X14086645Y-36694299D02*
X14086645Y-36494299D01*
X14172359Y-36694299D02*
X14172359Y-36589537D01*
X14172359Y-36589537D02*
X14162835Y-36570490D01*
X14162835Y-36570490D02*
X14143788Y-36560966D01*
X14143788Y-36560966D02*
X14115216Y-36560966D01*
X14115216Y-36560966D02*
X14096169Y-36570490D01*
X14096169Y-36570490D02*
X14086645Y-36580014D01*
X14296169Y-36694299D02*
X14277121Y-36684776D01*
X14277121Y-36684776D02*
X14267597Y-36675252D01*
X14267597Y-36675252D02*
X14258073Y-36656204D01*
X14258073Y-36656204D02*
X14258073Y-36599061D01*
X14258073Y-36599061D02*
X14267597Y-36580014D01*
X14267597Y-36580014D02*
X14277121Y-36570490D01*
X14277121Y-36570490D02*
X14296169Y-36560966D01*
X14296169Y-36560966D02*
X14324740Y-36560966D01*
X14324740Y-36560966D02*
X14343788Y-36570490D01*
X14343788Y-36570490D02*
X14353312Y-36580014D01*
X14353312Y-36580014D02*
X14362835Y-36599061D01*
X14362835Y-36599061D02*
X14362835Y-36656204D01*
X14362835Y-36656204D02*
X14353312Y-36675252D01*
X14353312Y-36675252D02*
X14343788Y-36684776D01*
X14343788Y-36684776D02*
X14324740Y-36694299D01*
X14324740Y-36694299D02*
X14296169Y-36694299D01*
X14477121Y-36694299D02*
X14458073Y-36684776D01*
X14458073Y-36684776D02*
X14448550Y-36665728D01*
X14448550Y-36665728D02*
X14448550Y-36494299D01*
X14629502Y-36684776D02*
X14610454Y-36694299D01*
X14610454Y-36694299D02*
X14572359Y-36694299D01*
X14572359Y-36694299D02*
X14553312Y-36684776D01*
X14553312Y-36684776D02*
X14543788Y-36665728D01*
X14543788Y-36665728D02*
X14543788Y-36589537D01*
X14543788Y-36589537D02*
X14553312Y-36570490D01*
X14553312Y-36570490D02*
X14572359Y-36560966D01*
X14572359Y-36560966D02*
X14610454Y-36560966D01*
X14610454Y-36560966D02*
X14629502Y-36570490D01*
X14629502Y-36570490D02*
X14639026Y-36589537D01*
X14639026Y-36589537D02*
X14639026Y-36608585D01*
X14639026Y-36608585D02*
X14543788Y-36627633D01*
X14715216Y-36684776D02*
X14734264Y-36694299D01*
X14734264Y-36694299D02*
X14772359Y-36694299D01*
X14772359Y-36694299D02*
X14791407Y-36684776D01*
X14791407Y-36684776D02*
X14800931Y-36665728D01*
X14800931Y-36665728D02*
X14800931Y-36656204D01*
X14800931Y-36656204D02*
X14791407Y-36637156D01*
X14791407Y-36637156D02*
X14772359Y-36627633D01*
X14772359Y-36627633D02*
X14743788Y-36627633D01*
X14743788Y-36627633D02*
X14724740Y-36618109D01*
X14724740Y-36618109D02*
X14715216Y-36599061D01*
X14715216Y-36599061D02*
X14715216Y-36589537D01*
X14715216Y-36589537D02*
X14724740Y-36570490D01*
X14724740Y-36570490D02*
X14743788Y-36560966D01*
X14743788Y-36560966D02*
X14772359Y-36560966D01*
X14772359Y-36560966D02*
X14791407Y-36570490D01*
X14867597Y-36770490D02*
X14877121Y-36760966D01*
X14877121Y-36760966D02*
X14896169Y-36732395D01*
X14896169Y-36732395D02*
X14905693Y-36713347D01*
X14905693Y-36713347D02*
X14915216Y-36684776D01*
X14915216Y-36684776D02*
X14924740Y-36637156D01*
X14924740Y-36637156D02*
X14924740Y-36599061D01*
X14924740Y-36599061D02*
X14915216Y-36551442D01*
X14915216Y-36551442D02*
X14905693Y-36522871D01*
X14905693Y-36522871D02*
X14896169Y-36503823D01*
X14896169Y-36503823D02*
X14877121Y-36475252D01*
X14877121Y-36475252D02*
X14867597Y-36465728D01*
X15229502Y-36770490D02*
X15219978Y-36760966D01*
X15219978Y-36760966D02*
X15200931Y-36732395D01*
X15200931Y-36732395D02*
X15191407Y-36713347D01*
X15191407Y-36713347D02*
X15181883Y-36684776D01*
X15181883Y-36684776D02*
X15172359Y-36637156D01*
X15172359Y-36637156D02*
X15172359Y-36599061D01*
X15172359Y-36599061D02*
X15181883Y-36551442D01*
X15181883Y-36551442D02*
X15191407Y-36522871D01*
X15191407Y-36522871D02*
X15200931Y-36503823D01*
X15200931Y-36503823D02*
X15219978Y-36475252D01*
X15219978Y-36475252D02*
X15229502Y-36465728D01*
X15305693Y-36560966D02*
X15305693Y-36694299D01*
X15305693Y-36580014D02*
X15315216Y-36570490D01*
X15315216Y-36570490D02*
X15334264Y-36560966D01*
X15334264Y-36560966D02*
X15362835Y-36560966D01*
X15362835Y-36560966D02*
X15381883Y-36570490D01*
X15381883Y-36570490D02*
X15391407Y-36589537D01*
X15391407Y-36589537D02*
X15391407Y-36694299D01*
X15515216Y-36694299D02*
X15496169Y-36684776D01*
X15496169Y-36684776D02*
X15486645Y-36675252D01*
X15486645Y-36675252D02*
X15477121Y-36656204D01*
X15477121Y-36656204D02*
X15477121Y-36599061D01*
X15477121Y-36599061D02*
X15486645Y-36580014D01*
X15486645Y-36580014D02*
X15496169Y-36570490D01*
X15496169Y-36570490D02*
X15515216Y-36560966D01*
X15515216Y-36560966D02*
X15543788Y-36560966D01*
X15543788Y-36560966D02*
X15562835Y-36570490D01*
X15562835Y-36570490D02*
X15572359Y-36580014D01*
X15572359Y-36580014D02*
X15581883Y-36599061D01*
X15581883Y-36599061D02*
X15581883Y-36656204D01*
X15581883Y-36656204D02*
X15572359Y-36675252D01*
X15572359Y-36675252D02*
X15562835Y-36684776D01*
X15562835Y-36684776D02*
X15543788Y-36694299D01*
X15543788Y-36694299D02*
X15515216Y-36694299D01*
X15639026Y-36560966D02*
X15715216Y-36560966D01*
X15667597Y-36494299D02*
X15667597Y-36665728D01*
X15667597Y-36665728D02*
X15677121Y-36684776D01*
X15677121Y-36684776D02*
X15696169Y-36694299D01*
X15696169Y-36694299D02*
X15715216Y-36694299D01*
X15934264Y-36560966D02*
X15934264Y-36760966D01*
X15934264Y-36570490D02*
X15953312Y-36560966D01*
X15953312Y-36560966D02*
X15991407Y-36560966D01*
X15991407Y-36560966D02*
X16010455Y-36570490D01*
X16010455Y-36570490D02*
X16019978Y-36580014D01*
X16019978Y-36580014D02*
X16029502Y-36599061D01*
X16029502Y-36599061D02*
X16029502Y-36656204D01*
X16029502Y-36656204D02*
X16019978Y-36675252D01*
X16019978Y-36675252D02*
X16010455Y-36684776D01*
X16010455Y-36684776D02*
X15991407Y-36694299D01*
X15991407Y-36694299D02*
X15953312Y-36694299D01*
X15953312Y-36694299D02*
X15934264Y-36684776D01*
X16143788Y-36694299D02*
X16124740Y-36684776D01*
X16124740Y-36684776D02*
X16115216Y-36665728D01*
X16115216Y-36665728D02*
X16115216Y-36494299D01*
X16305693Y-36694299D02*
X16305693Y-36589537D01*
X16305693Y-36589537D02*
X16296169Y-36570490D01*
X16296169Y-36570490D02*
X16277121Y-36560966D01*
X16277121Y-36560966D02*
X16239026Y-36560966D01*
X16239026Y-36560966D02*
X16219978Y-36570490D01*
X16305693Y-36684776D02*
X16286645Y-36694299D01*
X16286645Y-36694299D02*
X16239026Y-36694299D01*
X16239026Y-36694299D02*
X16219978Y-36684776D01*
X16219978Y-36684776D02*
X16210455Y-36665728D01*
X16210455Y-36665728D02*
X16210455Y-36646680D01*
X16210455Y-36646680D02*
X16219978Y-36627633D01*
X16219978Y-36627633D02*
X16239026Y-36618109D01*
X16239026Y-36618109D02*
X16286645Y-36618109D01*
X16286645Y-36618109D02*
X16305693Y-36608585D01*
X16372359Y-36560966D02*
X16448550Y-36560966D01*
X16400931Y-36494299D02*
X16400931Y-36665728D01*
X16400931Y-36665728D02*
X16410455Y-36684776D01*
X16410455Y-36684776D02*
X16429502Y-36694299D01*
X16429502Y-36694299D02*
X16448550Y-36694299D01*
X16591407Y-36684776D02*
X16572359Y-36694299D01*
X16572359Y-36694299D02*
X16534264Y-36694299D01*
X16534264Y-36694299D02*
X16515216Y-36684776D01*
X16515216Y-36684776D02*
X16505693Y-36665728D01*
X16505693Y-36665728D02*
X16505693Y-36589537D01*
X16505693Y-36589537D02*
X16515216Y-36570490D01*
X16515216Y-36570490D02*
X16534264Y-36560966D01*
X16534264Y-36560966D02*
X16572359Y-36560966D01*
X16572359Y-36560966D02*
X16591407Y-36570490D01*
X16591407Y-36570490D02*
X16600931Y-36589537D01*
X16600931Y-36589537D02*
X16600931Y-36608585D01*
X16600931Y-36608585D02*
X16505693Y-36627633D01*
X16772359Y-36694299D02*
X16772359Y-36494299D01*
X16772359Y-36684776D02*
X16753312Y-36694299D01*
X16753312Y-36694299D02*
X16715216Y-36694299D01*
X16715216Y-36694299D02*
X16696169Y-36684776D01*
X16696169Y-36684776D02*
X16686645Y-36675252D01*
X16686645Y-36675252D02*
X16677121Y-36656204D01*
X16677121Y-36656204D02*
X16677121Y-36599061D01*
X16677121Y-36599061D02*
X16686645Y-36580014D01*
X16686645Y-36580014D02*
X16696169Y-36570490D01*
X16696169Y-36570490D02*
X16715216Y-36560966D01*
X16715216Y-36560966D02*
X16753312Y-36560966D01*
X16753312Y-36560966D02*
X16772359Y-36570490D01*
X16848550Y-36770490D02*
X16858074Y-36760966D01*
X16858074Y-36760966D02*
X16877121Y-36732395D01*
X16877121Y-36732395D02*
X16886645Y-36713347D01*
X16886645Y-36713347D02*
X16896169Y-36684776D01*
X16896169Y-36684776D02*
X16905693Y-36637156D01*
X16905693Y-36637156D02*
X16905693Y-36599061D01*
X16905693Y-36599061D02*
X16896169Y-36551442D01*
X16896169Y-36551442D02*
X16886645Y-36522871D01*
X16886645Y-36522871D02*
X16877121Y-36503823D01*
X16877121Y-36503823D02*
X16858074Y-36475252D01*
X16858074Y-36475252D02*
X16848550Y-36465728D01*
M02*
