%TF.GenerationSoftware,KiCad,Pcbnew,8.0.5*%
%TF.CreationDate,2025-06-15T08:43:14-07:00*%
%TF.ProjectId,Full Keyboard,46756c6c-204b-4657-9962-6f6172642e6b,2.0.0*%
%TF.SameCoordinates,Original*%
%TF.FileFunction,Soldermask,Bot*%
%TF.FilePolarity,Negative*%
%FSLAX46Y46*%
G04 Gerber Fmt 4.6, Leading zero omitted, Abs format (unit mm)*
G04 Created by KiCad (PCBNEW 8.0.5) date 2025-06-15 08:43:14*
%MOMM*%
%LPD*%
G01*
G04 APERTURE LIST*
G04 Aperture macros list*
%AMRoundRect*
0 Rectangle with rounded corners*
0 $1 Rounding radius*
0 $2 $3 $4 $5 $6 $7 $8 $9 X,Y pos of 4 corners*
0 Add a 4 corners polygon primitive as box body*
4,1,4,$2,$3,$4,$5,$6,$7,$8,$9,$2,$3,0*
0 Add four circle primitives for the rounded corners*
1,1,$1+$1,$2,$3*
1,1,$1+$1,$4,$5*
1,1,$1+$1,$6,$7*
1,1,$1+$1,$8,$9*
0 Add four rect primitives between the rounded corners*
20,1,$1+$1,$2,$3,$4,$5,0*
20,1,$1+$1,$4,$5,$6,$7,0*
20,1,$1+$1,$6,$7,$8,$9,0*
20,1,$1+$1,$8,$9,$2,$3,0*%
G04 Aperture macros list end*
%ADD10C,2.500000*%
%ADD11C,4.000000*%
%ADD12C,1.750000*%
%ADD13C,3.048000*%
%ADD14C,3.987800*%
%ADD15RoundRect,0.225000X0.375000X-0.225000X0.375000X0.225000X-0.375000X0.225000X-0.375000X-0.225000X0*%
%ADD16RoundRect,0.140000X-0.140000X-0.170000X0.140000X-0.170000X0.140000X0.170000X-0.140000X0.170000X0*%
%ADD17RoundRect,0.140000X0.170000X-0.140000X0.170000X0.140000X-0.170000X0.140000X-0.170000X-0.140000X0*%
%ADD18RoundRect,0.250000X0.725000X-0.600000X0.725000X0.600000X-0.725000X0.600000X-0.725000X-0.600000X0*%
%ADD19O,1.950000X1.700000*%
%ADD20RoundRect,0.140000X-0.170000X0.140000X-0.170000X-0.140000X0.170000X-0.140000X0.170000X0.140000X0*%
%ADD21R,1.000000X1.700000*%
%ADD22RoundRect,0.075000X-0.662500X-0.075000X0.662500X-0.075000X0.662500X0.075000X-0.662500X0.075000X0*%
%ADD23RoundRect,0.075000X-0.075000X-0.662500X0.075000X-0.662500X0.075000X0.662500X-0.075000X0.662500X0*%
%ADD24RoundRect,0.135000X-0.135000X-0.185000X0.135000X-0.185000X0.135000X0.185000X-0.135000X0.185000X0*%
%ADD25RoundRect,0.140000X0.140000X0.170000X-0.140000X0.170000X-0.140000X-0.170000X0.140000X-0.170000X0*%
G04 APERTURE END LIST*
D10*
%TO.C,}1*%
X347059946Y-274670029D03*
X353409946Y-272130029D03*
D11*
X350869946Y-277210029D03*
D12*
X345789946Y-277210029D03*
X355949946Y-277210029D03*
%TD*%
D10*
%TO.C,{1*%
X328009946Y-274670029D03*
X334359946Y-272130029D03*
D11*
X331819946Y-277210029D03*
D12*
X326739946Y-277210029D03*
X336899946Y-277210029D03*
%TD*%
D10*
%TO.C,\u005C1*%
X370872446Y-274670029D03*
X377222446Y-272130029D03*
D11*
X374682446Y-277210029D03*
D12*
X369602446Y-277210029D03*
X379762446Y-277210029D03*
%TD*%
D10*
%TO.C,Z1*%
X151797446Y-312770029D03*
X158147446Y-310230029D03*
D11*
X155607446Y-315310029D03*
D12*
X150527446Y-315310029D03*
X160687446Y-315310029D03*
%TD*%
D10*
%TO.C,Y1*%
X232759946Y-274670029D03*
X239109946Y-272130029D03*
D11*
X236569946Y-277210029D03*
D12*
X231489946Y-277210029D03*
X241649946Y-277210029D03*
%TD*%
D10*
%TO.C,X1*%
X170847446Y-312770029D03*
X177197446Y-310230029D03*
D11*
X174657446Y-315310029D03*
D12*
X169577446Y-315310029D03*
X179737446Y-315310029D03*
%TD*%
D10*
%TO.C,W1*%
X156559946Y-274670029D03*
X162909946Y-272130029D03*
D11*
X160369946Y-277210029D03*
D12*
X155289946Y-277210029D03*
X165449946Y-277210029D03*
%TD*%
D10*
%TO.C,V1*%
X208947446Y-312770029D03*
X215297446Y-310230029D03*
D11*
X212757446Y-315310029D03*
D12*
X207677446Y-315310029D03*
X217837446Y-315310029D03*
%TD*%
D10*
%TO.C,UpArrow1*%
X418497446Y-312770029D03*
X424847446Y-310230029D03*
D11*
X422307446Y-315310029D03*
D12*
X417227446Y-315310029D03*
X427387446Y-315310029D03*
%TD*%
D10*
%TO.C,U2*%
X251809946Y-274670029D03*
X258159946Y-272130029D03*
D11*
X255619946Y-277210029D03*
D12*
X250539946Y-277210029D03*
X260699946Y-277210029D03*
%TD*%
D10*
%TO.C,Tilde1*%
X108934946Y-255620029D03*
X115284946Y-253080029D03*
D11*
X112744946Y-258160029D03*
D12*
X107664946Y-258160029D03*
X117824946Y-258160029D03*
%TD*%
D10*
%TO.C,Tab1*%
X113697446Y-274670029D03*
X120047446Y-272130029D03*
D11*
X117507446Y-277210029D03*
D12*
X112427446Y-277210029D03*
X122587446Y-277210029D03*
%TD*%
D10*
%TO.C,T1*%
X213709946Y-274670029D03*
X220059946Y-272130029D03*
D11*
X217519946Y-277210029D03*
D12*
X212439946Y-277210029D03*
X222599946Y-277210029D03*
%TD*%
D10*
%TO.C,Space1*%
X230378696Y-331820029D03*
X236728696Y-329280029D03*
D11*
X234188696Y-334360029D03*
%TD*%
D10*
%TO.C,Shift1*%
X120841196Y-312770029D03*
X127191196Y-310230029D03*
D11*
X124651196Y-315310029D03*
D12*
X119571196Y-315310029D03*
X129731196Y-315310029D03*
%TD*%
D10*
%TO.C,ScrollLock1*%
X418497446Y-227045029D03*
X424847446Y-224505029D03*
D11*
X422307446Y-229585029D03*
D12*
X417227446Y-229585029D03*
X427387446Y-229585029D03*
%TD*%
D10*
%TO.C,S1*%
X161322446Y-293720029D03*
X167672446Y-291180029D03*
D11*
X165132446Y-296260029D03*
D12*
X160052446Y-296260029D03*
X170212446Y-296260029D03*
%TD*%
D10*
%TO.C,RightWin1*%
X325628696Y-331820029D03*
X331978696Y-329280029D03*
D11*
X329438696Y-334360029D03*
D12*
X324358696Y-334360029D03*
X334518696Y-334360029D03*
%TD*%
D10*
%TO.C,RightShift1*%
X358966196Y-312770029D03*
X365316196Y-310230029D03*
D11*
X362776196Y-315310029D03*
D12*
X357696196Y-315310029D03*
X367856196Y-315310029D03*
%TD*%
D10*
%TO.C,RightControl1*%
X373253696Y-331820029D03*
X379603696Y-329280029D03*
D11*
X377063696Y-334360029D03*
D12*
X371983696Y-334360029D03*
X382143696Y-334360029D03*
%TD*%
D10*
%TO.C,RightArrow1*%
X437547446Y-331820029D03*
X443897446Y-329280029D03*
D11*
X441357446Y-334360029D03*
D12*
X436277446Y-334360029D03*
X446437446Y-334360029D03*
%TD*%
D10*
%TO.C,RightAlt1*%
X301816196Y-331820029D03*
X308166196Y-329280029D03*
D11*
X305626196Y-334360029D03*
D12*
X300546196Y-334360029D03*
X310706196Y-334360029D03*
%TD*%
D10*
%TO.C,R4*%
X194659946Y-274670029D03*
X201009946Y-272130029D03*
D11*
X198469946Y-277210029D03*
D12*
X193389946Y-277210029D03*
X203549946Y-277210029D03*
%TD*%
D10*
%TO.C,Q1*%
X137509946Y-274670029D03*
X143859946Y-272130029D03*
D11*
X141319946Y-277210029D03*
D12*
X136239946Y-277210029D03*
X146399946Y-277210029D03*
%TD*%
D10*
%TO.C,PrtSc1*%
X399447446Y-227045029D03*
X405797446Y-224505029D03*
D11*
X403257446Y-229585029D03*
D12*
X398177446Y-229585029D03*
X408337446Y-229585029D03*
%TD*%
D10*
%TO.C,PgUp1*%
X437547446Y-255620029D03*
X443897446Y-253080029D03*
D11*
X441357446Y-258160029D03*
D12*
X436277446Y-258160029D03*
X446437446Y-258160029D03*
%TD*%
D10*
%TO.C,PgDn1*%
X437547446Y-274670029D03*
X443897446Y-272130029D03*
D11*
X441357446Y-277210029D03*
D12*
X436277446Y-277210029D03*
X446437446Y-277210029D03*
%TD*%
D10*
%TO.C,PauseBreak1*%
X437547446Y-227045029D03*
X443897446Y-224505029D03*
D11*
X441357446Y-229585029D03*
D12*
X436277446Y-229585029D03*
X446437446Y-229585029D03*
%TD*%
D10*
%TO.C,P1*%
X308959946Y-274670029D03*
X315309946Y-272130029D03*
D11*
X312769946Y-277210029D03*
D12*
X307689946Y-277210029D03*
X317849946Y-277210029D03*
%TD*%
D10*
%TO.C,O1*%
X289909946Y-274670029D03*
X296259946Y-272130029D03*
D11*
X293719946Y-277210029D03*
D12*
X288639946Y-277210029D03*
X298799946Y-277210029D03*
%TD*%
D10*
%TO.C,NumLock1*%
X461359946Y-255620029D03*
X467709946Y-253080029D03*
D11*
X465169946Y-258160029D03*
D12*
X460089946Y-258160029D03*
X470249946Y-258160029D03*
%TD*%
D10*
%TO.C,NumEnter1*%
X518509946Y-322295029D03*
X524859946Y-319755029D03*
D11*
X522319946Y-324835029D03*
D12*
X517239946Y-324835029D03*
X527399946Y-324835029D03*
%TD*%
D10*
%TO.C,Num9*%
X499459946Y-274670029D03*
X505809946Y-272130029D03*
D11*
X503269946Y-277210029D03*
D12*
X498189946Y-277210029D03*
X508349946Y-277210029D03*
%TD*%
D10*
%TO.C,Num8*%
X480409946Y-274670029D03*
X486759946Y-272130029D03*
D11*
X484219946Y-277210029D03*
D12*
X479139946Y-277210029D03*
X489299946Y-277210029D03*
%TD*%
D10*
%TO.C,Num7*%
X461359946Y-274670029D03*
X467709946Y-272130029D03*
D11*
X465169946Y-277210029D03*
D12*
X460089946Y-277210029D03*
X470249946Y-277210029D03*
%TD*%
D10*
%TO.C,Num6*%
X499459946Y-293720029D03*
X505809946Y-291180029D03*
D11*
X503269946Y-296260029D03*
D12*
X498189946Y-296260029D03*
X508349946Y-296260029D03*
%TD*%
D10*
%TO.C,Num5*%
X480409946Y-293720029D03*
X486759946Y-291180029D03*
D11*
X484219946Y-296260029D03*
D12*
X479139946Y-296260029D03*
X489299946Y-296260029D03*
%TD*%
D10*
%TO.C,Num4*%
X461359946Y-293720029D03*
X467709946Y-291180029D03*
D11*
X465169946Y-296260029D03*
D12*
X460089946Y-296260029D03*
X470249946Y-296260029D03*
%TD*%
D10*
%TO.C,Num3*%
X499459946Y-312770029D03*
X505809946Y-310230029D03*
D11*
X503269946Y-315310029D03*
D12*
X498189946Y-315310029D03*
X508349946Y-315310029D03*
%TD*%
D10*
%TO.C,Num2*%
X480409946Y-312770029D03*
X486759946Y-310230029D03*
D11*
X484219946Y-315310029D03*
D12*
X479139946Y-315310029D03*
X489299946Y-315310029D03*
%TD*%
D10*
%TO.C,Num1*%
X461359946Y-312770029D03*
X467709946Y-310230029D03*
D11*
X465169946Y-315310029D03*
D12*
X460089946Y-315310029D03*
X470249946Y-315310029D03*
%TD*%
D10*
%TO.C,Num0*%
X470884946Y-331820029D03*
X477234946Y-329280029D03*
D11*
X474694946Y-334360029D03*
D12*
X469614946Y-334360029D03*
X479774946Y-334360029D03*
%TD*%
D10*
%TO.C,Num/1*%
X480409946Y-255620029D03*
X486759946Y-253080029D03*
D11*
X484219946Y-258160029D03*
D12*
X479139946Y-258160029D03*
X489299946Y-258160029D03*
%TD*%
D10*
%TO.C,Num.1*%
X499459946Y-331820029D03*
X505809946Y-329280029D03*
D11*
X503269946Y-334360029D03*
D12*
X498189946Y-334360029D03*
X508349946Y-334360029D03*
%TD*%
D10*
%TO.C,Num-1*%
X518509946Y-255620029D03*
X524859946Y-253080029D03*
D11*
X522319946Y-258160029D03*
D12*
X517239946Y-258160029D03*
X527399946Y-258160029D03*
%TD*%
D10*
%TO.C,Num+1*%
X518509946Y-284195029D03*
X524859946Y-281655029D03*
D11*
X522319946Y-286735029D03*
D12*
X517239946Y-286735029D03*
X527399946Y-286735029D03*
%TD*%
D10*
%TO.C,Num\u002A1*%
X499459946Y-255620029D03*
X505809946Y-253080029D03*
D11*
X503269946Y-258160029D03*
D12*
X498189946Y-258160029D03*
X508349946Y-258160029D03*
%TD*%
D10*
%TO.C,N1*%
X247047446Y-312770029D03*
X253397446Y-310230029D03*
D11*
X250857446Y-315310029D03*
D12*
X245777446Y-315310029D03*
X255937446Y-315310029D03*
%TD*%
D10*
%TO.C,Menu1*%
X349441196Y-331820029D03*
X355791196Y-329280029D03*
D11*
X353251196Y-334360029D03*
D12*
X348171196Y-334360029D03*
X358331196Y-334360029D03*
%TD*%
D10*
%TO.C,M1*%
X266097446Y-312770029D03*
X272447446Y-310230029D03*
D11*
X269907446Y-315310029D03*
D12*
X264827446Y-315310029D03*
X274987446Y-315310029D03*
%TD*%
D10*
%TO.C,LeftWin1*%
X135128696Y-331820029D03*
X141478696Y-329280029D03*
D11*
X138938696Y-334360029D03*
D12*
X133858696Y-334360029D03*
X144018696Y-334360029D03*
%TD*%
D10*
%TO.C,LeftControl1*%
X111316196Y-331820029D03*
X117666196Y-329280029D03*
D11*
X115126196Y-334360029D03*
D12*
X110046196Y-334360029D03*
X120206196Y-334360029D03*
%TD*%
D10*
%TO.C,LeftArrow1*%
X399447446Y-331820029D03*
X405797446Y-329280029D03*
D11*
X403257446Y-334360029D03*
D12*
X398177446Y-334360029D03*
X408337446Y-334360029D03*
%TD*%
D10*
%TO.C,LeftAlt1*%
X158941196Y-331820029D03*
X165291196Y-329280029D03*
D11*
X162751196Y-334360029D03*
D12*
X157671196Y-334360029D03*
X167831196Y-334360029D03*
%TD*%
D10*
%TO.C,L1*%
X294672446Y-293720029D03*
X301022446Y-291180029D03*
D11*
X298482446Y-296260029D03*
D12*
X293402446Y-296260029D03*
X303562446Y-296260029D03*
%TD*%
D10*
%TO.C,K1*%
X275622446Y-293720029D03*
X281972446Y-291180029D03*
D11*
X279432446Y-296260029D03*
D12*
X274352446Y-296260029D03*
X284512446Y-296260029D03*
%TD*%
D10*
%TO.C,J2*%
X256572446Y-293720029D03*
X262922446Y-291180029D03*
D11*
X260382446Y-296260029D03*
D12*
X255302446Y-296260029D03*
X265462446Y-296260029D03*
%TD*%
D10*
%TO.C,Insert1*%
X399447446Y-255620029D03*
X405797446Y-253080029D03*
D11*
X403257446Y-258160029D03*
D12*
X398177446Y-258160029D03*
X408337446Y-258160029D03*
%TD*%
D10*
%TO.C,I1*%
X270859946Y-274670029D03*
X277209946Y-272130029D03*
D11*
X274669946Y-277210029D03*
D12*
X269589946Y-277210029D03*
X279749946Y-277210029D03*
%TD*%
D10*
%TO.C,Home1*%
X418497446Y-255620029D03*
X424847446Y-253080029D03*
D11*
X422307446Y-258160029D03*
D12*
X417227446Y-258160029D03*
X427387446Y-258160029D03*
%TD*%
D10*
%TO.C,H1*%
X237522446Y-293720029D03*
X243872446Y-291180029D03*
D11*
X241332446Y-296260029D03*
D12*
X236252446Y-296260029D03*
X246412446Y-296260029D03*
%TD*%
D10*
%TO.C,G1*%
X218472446Y-293720029D03*
X224822446Y-291180029D03*
D11*
X222282446Y-296260029D03*
D12*
X217202446Y-296260029D03*
X227362446Y-296260029D03*
%TD*%
D10*
%TO.C,Func1*%
X147034946Y-227045029D03*
X153384946Y-224505029D03*
D11*
X150844946Y-229585029D03*
D12*
X145764946Y-229585029D03*
X155924946Y-229585029D03*
%TD*%
D10*
%TO.C,F13*%
X199422446Y-293720029D03*
X205772446Y-291180029D03*
D11*
X203232446Y-296260029D03*
D12*
X198152446Y-296260029D03*
X208312446Y-296260029D03*
%TD*%
D10*
%TO.C,F12*%
X375614946Y-227045029D03*
X381964946Y-224505029D03*
D11*
X379424946Y-229585029D03*
D12*
X374344946Y-229585029D03*
X384504946Y-229585029D03*
%TD*%
D10*
%TO.C,F11*%
X356484946Y-227045029D03*
X362834946Y-224505029D03*
D11*
X360294946Y-229585029D03*
D12*
X355214946Y-229585029D03*
X365374946Y-229585029D03*
%TD*%
D10*
%TO.C,F10*%
X337484946Y-227045029D03*
X343834946Y-224505029D03*
D11*
X341294946Y-229585029D03*
D12*
X336214946Y-229585029D03*
X346374946Y-229585029D03*
%TD*%
D10*
%TO.C,F9*%
X318484946Y-227045029D03*
X324834946Y-224505029D03*
D11*
X322294946Y-229585029D03*
D12*
X317214946Y-229585029D03*
X327374946Y-229585029D03*
%TD*%
D10*
%TO.C,F8*%
X289759946Y-227045029D03*
X296109946Y-224505029D03*
D11*
X293569946Y-229585029D03*
D12*
X288489946Y-229585029D03*
X298649946Y-229585029D03*
%TD*%
D10*
%TO.C,F7*%
X270759946Y-227045029D03*
X277109946Y-224505029D03*
D11*
X274569946Y-229585029D03*
D12*
X269489946Y-229585029D03*
X279649946Y-229585029D03*
%TD*%
D10*
%TO.C,F6*%
X251759946Y-227045029D03*
X258109946Y-224505029D03*
D11*
X255569946Y-229585029D03*
D12*
X250489946Y-229585029D03*
X260649946Y-229585029D03*
%TD*%
D10*
%TO.C,F5*%
X232759946Y-227045029D03*
X239109946Y-224505029D03*
D11*
X236569946Y-229585029D03*
D12*
X231489946Y-229585029D03*
X241649946Y-229585029D03*
%TD*%
D10*
%TO.C,F4*%
X204184946Y-227045029D03*
X210534946Y-224505029D03*
D11*
X207994946Y-229585029D03*
D12*
X202914946Y-229585029D03*
X213074946Y-229585029D03*
%TD*%
D10*
%TO.C,F3*%
X185134946Y-227045029D03*
X191484946Y-224505029D03*
D11*
X188944946Y-229585029D03*
D12*
X183864946Y-229585029D03*
X194024946Y-229585029D03*
%TD*%
D10*
%TO.C,F2*%
X166084946Y-227045029D03*
X172434946Y-224505029D03*
D11*
X169894946Y-229585029D03*
D12*
X164814946Y-229585029D03*
X174974946Y-229585029D03*
%TD*%
D10*
%TO.C,ESC1*%
X108934946Y-227045029D03*
X115284946Y-224505029D03*
D11*
X112744946Y-229585029D03*
D12*
X107664946Y-229585029D03*
X117824946Y-229585029D03*
%TD*%
D10*
%TO.C,Enter1*%
X363728696Y-293720029D03*
X370078696Y-291180029D03*
D11*
X367538696Y-296260029D03*
D12*
X362458696Y-296260029D03*
X372618696Y-296260029D03*
%TD*%
D10*
%TO.C,End1*%
X418497446Y-274670029D03*
X424847446Y-272130029D03*
D11*
X422307446Y-277210029D03*
D12*
X417227446Y-277210029D03*
X427387446Y-277210029D03*
%TD*%
D10*
%TO.C,E1*%
X175609946Y-274670029D03*
X181959946Y-272130029D03*
D11*
X179419946Y-277210029D03*
D12*
X174339946Y-277210029D03*
X184499946Y-277210029D03*
%TD*%
D10*
%TO.C,DownArrow1*%
X418497446Y-331820029D03*
X424847446Y-329280029D03*
D11*
X422307446Y-334360029D03*
D12*
X417227446Y-334360029D03*
X427387446Y-334360029D03*
%TD*%
D10*
%TO.C,Delete1*%
X399447446Y-274670029D03*
X405797446Y-272130029D03*
D11*
X403257446Y-277210029D03*
D12*
X398177446Y-277210029D03*
X408337446Y-277210029D03*
%TD*%
D10*
%TO.C,D105*%
X180372446Y-293720029D03*
X186722446Y-291180029D03*
D11*
X184182446Y-296260029D03*
D12*
X179102446Y-296260029D03*
X189262446Y-296260029D03*
%TD*%
D10*
%TO.C,CapsLock1*%
X116078696Y-293720029D03*
X122428696Y-291180029D03*
D11*
X119888696Y-296260029D03*
D12*
X114808696Y-296260029D03*
X124968696Y-296260029D03*
%TD*%
D10*
%TO.C,C1*%
X189897446Y-312770029D03*
X196247446Y-310230029D03*
D11*
X193707446Y-315310029D03*
D12*
X188627446Y-315310029D03*
X198787446Y-315310029D03*
%TD*%
D10*
%TO.C,Backspace1*%
X366109946Y-255620029D03*
X372459946Y-253080029D03*
D11*
X369919946Y-258160029D03*
D12*
X364839946Y-258160029D03*
X374999946Y-258160029D03*
%TD*%
D10*
%TO.C,B1*%
X227997446Y-312770029D03*
X234347446Y-310230029D03*
D11*
X231807446Y-315310029D03*
D12*
X226727446Y-315310029D03*
X236887446Y-315310029D03*
%TD*%
D10*
%TO.C,A1*%
X142272446Y-293720029D03*
X148622446Y-291180029D03*
D11*
X146082446Y-296260029D03*
D12*
X141002446Y-296260029D03*
X151162446Y-296260029D03*
%TD*%
D10*
%TO.C,>1*%
X304197446Y-312770029D03*
X310547446Y-310230029D03*
D11*
X308007446Y-315310029D03*
D12*
X302927446Y-315310029D03*
X313087446Y-315310029D03*
%TD*%
D10*
%TO.C,<1*%
X285147446Y-312770029D03*
X291497446Y-310230029D03*
D11*
X288957446Y-315310029D03*
D12*
X283877446Y-315310029D03*
X294037446Y-315310029D03*
%TD*%
D10*
%TO.C,;1*%
X313722446Y-293720029D03*
X320072446Y-291180029D03*
D11*
X317532446Y-296260029D03*
D12*
X312452446Y-296260029D03*
X322612446Y-296260029D03*
%TD*%
D10*
%TO.C,"?"1*%
X323247446Y-312770029D03*
X329597446Y-310230029D03*
D11*
X327057446Y-315310029D03*
D12*
X321977446Y-315310029D03*
X332137446Y-315310029D03*
%TD*%
D10*
%TO.C,"="1*%
X337534946Y-255620029D03*
X343884946Y-253080029D03*
D11*
X341344946Y-258160029D03*
D12*
X336264946Y-258160029D03*
X346424946Y-258160029D03*
%TD*%
D10*
%TO.C,"9"1*%
X280384946Y-255620029D03*
X286734946Y-253080029D03*
D11*
X284194946Y-258160029D03*
D12*
X279114946Y-258160029D03*
X289274946Y-258160029D03*
%TD*%
D10*
%TO.C,"8"1*%
X261334946Y-255620029D03*
X267684946Y-253080029D03*
D11*
X265144946Y-258160029D03*
D12*
X260064946Y-258160029D03*
X270224946Y-258160029D03*
%TD*%
D10*
%TO.C,"7"1*%
X242284946Y-255620029D03*
X248634946Y-253080029D03*
D11*
X246094946Y-258160029D03*
D12*
X241014946Y-258160029D03*
X251174946Y-258160029D03*
%TD*%
D10*
%TO.C,"6"1*%
X223234946Y-255620029D03*
X229584946Y-253080029D03*
D11*
X227044946Y-258160029D03*
D12*
X221964946Y-258160029D03*
X232124946Y-258160029D03*
%TD*%
D10*
%TO.C,"5"1*%
X204184946Y-255620029D03*
X210534946Y-253080029D03*
D11*
X207994946Y-258160029D03*
D12*
X202914946Y-258160029D03*
X213074946Y-258160029D03*
%TD*%
D10*
%TO.C,"4"1*%
X185134946Y-255620029D03*
X191484946Y-253080029D03*
D11*
X188944946Y-258160029D03*
D12*
X183864946Y-258160029D03*
X194024946Y-258160029D03*
%TD*%
D10*
%TO.C,"3"1*%
X166084946Y-255620029D03*
X172434946Y-253080029D03*
D11*
X169894946Y-258160029D03*
D12*
X164814946Y-258160029D03*
X174974946Y-258160029D03*
%TD*%
D10*
%TO.C,"2"1*%
X147034946Y-255620029D03*
X153384946Y-253080029D03*
D11*
X150844946Y-258160029D03*
D12*
X145764946Y-258160029D03*
X155924946Y-258160029D03*
%TD*%
D10*
%TO.C,"1"1*%
X127984946Y-255620029D03*
X134334946Y-253080029D03*
D11*
X131794946Y-258160029D03*
D12*
X126714946Y-258160029D03*
X136874946Y-258160029D03*
%TD*%
D10*
%TO.C,"1*%
X332772446Y-293720029D03*
X339122446Y-291180029D03*
D11*
X336582446Y-296260029D03*
D12*
X331502446Y-296260029D03*
X341662446Y-296260029D03*
%TD*%
D10*
%TO.C,"0"1*%
X299434946Y-255620029D03*
X305784946Y-253080029D03*
D11*
X303244946Y-258160029D03*
D12*
X298164946Y-258160029D03*
X308324946Y-258160029D03*
%TD*%
D10*
%TO.C,"-"1*%
X318484946Y-255620029D03*
X324834946Y-253080029D03*
D11*
X322294946Y-258160029D03*
D12*
X317214946Y-258160029D03*
X327374946Y-258160029D03*
%TD*%
D13*
%TO.C,REF\u002A\u002A*%
X515334946Y-336773029D03*
D14*
X530544946Y-336773029D03*
D13*
X515334946Y-312897029D03*
D14*
X530544946Y-312897029D03*
%TD*%
D13*
%TO.C,REF\u002A\u002A*%
X357981946Y-251175029D03*
D14*
X357981946Y-266385029D03*
D13*
X381857946Y-251175029D03*
D14*
X381857946Y-266385029D03*
%TD*%
D13*
%TO.C,REF\u002A\u002A*%
X462756946Y-327375029D03*
D14*
X462756946Y-342585029D03*
D13*
X486632946Y-327375029D03*
D14*
X486632946Y-342585029D03*
%TD*%
D13*
%TO.C,REF\u002A\u002A*%
X515334946Y-298673029D03*
D14*
X530544946Y-298673029D03*
D13*
X515334946Y-274797029D03*
D14*
X530544946Y-274797029D03*
%TD*%
D13*
%TO.C,REF\u002A\u002A*%
X184188696Y-327375029D03*
D14*
X184188696Y-342585029D03*
D13*
X284188696Y-327375029D03*
D14*
X284188696Y-342585029D03*
%TD*%
D13*
%TO.C,REF\u002A\u002A*%
X355600696Y-289275029D03*
D14*
X355600696Y-304485029D03*
D13*
X379476696Y-289275029D03*
D14*
X379476696Y-304485029D03*
%TD*%
D13*
%TO.C,REF\u002A\u002A*%
X112713196Y-308325029D03*
D14*
X112713196Y-323535029D03*
D13*
X136589196Y-308325029D03*
D14*
X136589196Y-323535029D03*
%TD*%
D13*
%TO.C,REF\u002A\u002A*%
X350838196Y-308325029D03*
D14*
X350838196Y-323535029D03*
D13*
X374714196Y-308325029D03*
D14*
X374714196Y-323535029D03*
%TD*%
D15*
%TO.C,D93*%
X142111246Y-336796529D03*
X142111246Y-333496529D03*
%TD*%
%TO.C,D20*%
X173065546Y-260538729D03*
X173065546Y-257238729D03*
%TD*%
%TO.C,D77*%
X177827746Y-317747729D03*
X177827746Y-314447729D03*
%TD*%
%TO.C,D51*%
X377840146Y-279587529D03*
X377840146Y-276287529D03*
%TD*%
D16*
%TO.C,C17*%
X496312443Y-238390029D03*
X497272443Y-238390029D03*
%TD*%
D15*
%TO.C,D45*%
X258785146Y-279587529D03*
X258785146Y-276287529D03*
%TD*%
%TO.C,D81*%
X254022946Y-317747729D03*
X254022946Y-314447729D03*
%TD*%
%TO.C,D30*%
X373077946Y-260538729D03*
X373077946Y-257238729D03*
%TD*%
%TO.C,D95*%
X237355246Y-336796529D03*
X237355246Y-333496529D03*
%TD*%
%TO.C,D53*%
X425462146Y-279587529D03*
X425462146Y-276287529D03*
%TD*%
%TO.C,D86*%
X365934646Y-317747729D03*
X365934646Y-314447729D03*
%TD*%
%TO.C,D50*%
X354029146Y-279587529D03*
X354029146Y-276287529D03*
%TD*%
%TO.C,D70*%
X339742546Y-298636329D03*
X339742546Y-295336329D03*
%TD*%
%TO.C,D71*%
X370696846Y-298636329D03*
X370696846Y-295336329D03*
%TD*%
%TO.C,D91*%
X525468346Y-327272129D03*
X525468346Y-323972129D03*
%TD*%
%TO.C,D85*%
X330218146Y-317747729D03*
X330218146Y-314447729D03*
%TD*%
%TO.C,D2*%
X154016746Y-231965529D03*
X154016746Y-228665529D03*
%TD*%
%TO.C,D27*%
X306407146Y-260601329D03*
X306407146Y-257301329D03*
%TD*%
%TO.C,D66*%
X263547346Y-298636329D03*
X263547346Y-295336329D03*
%TD*%
%TO.C,D90*%
X506419546Y-317747729D03*
X506419546Y-314447729D03*
%TD*%
%TO.C,D9*%
X296882746Y-232028129D03*
X296882746Y-228728129D03*
%TD*%
%TO.C,D14*%
X425462146Y-231965529D03*
X425462146Y-228665529D03*
%TD*%
%TO.C,D92*%
X118300246Y-336796529D03*
X118300246Y-333496529D03*
%TD*%
%TO.C,D5*%
X211163146Y-232028129D03*
X211163146Y-228728129D03*
%TD*%
%TO.C,D47*%
X296882746Y-279587529D03*
X296882746Y-276287529D03*
%TD*%
%TO.C,D35*%
X487370746Y-260601329D03*
X487370746Y-257301329D03*
%TD*%
%TO.C,D65*%
X244498546Y-298698929D03*
X244498546Y-295398929D03*
%TD*%
%TO.C,D96*%
X308788246Y-336796529D03*
X308788246Y-333496529D03*
%TD*%
%TO.C,D28*%
X325455946Y-260601329D03*
X325455946Y-257301329D03*
%TD*%
%TO.C,D73*%
X506419546Y-298698929D03*
X506419546Y-295398929D03*
%TD*%
D16*
%TO.C,C14*%
X485467446Y-232735029D03*
X486427446Y-232735029D03*
%TD*%
D15*
%TO.C,D8*%
X277833946Y-232028129D03*
X277833946Y-228728129D03*
%TD*%
%TO.C,D33*%
X444510946Y-260601329D03*
X444510946Y-257301329D03*
%TD*%
%TO.C,D24*%
X249260746Y-260601329D03*
X249260746Y-257301329D03*
%TD*%
%TO.C,D36*%
X506419546Y-260663929D03*
X506419546Y-257363929D03*
%TD*%
%TO.C,D75*%
X127824646Y-317747729D03*
X127824646Y-314447729D03*
%TD*%
D17*
%TO.C,C13*%
X489319946Y-240337529D03*
X489319946Y-239377529D03*
%TD*%
D18*
%TO.C,J3*%
X518969946Y-233560029D03*
D19*
X518969946Y-231060029D03*
X518969946Y-228560029D03*
X518969946Y-226060029D03*
%TD*%
D15*
%TO.C,D13*%
X406413346Y-232028129D03*
X406413346Y-228728129D03*
%TD*%
%TO.C,D54*%
X444510946Y-279650129D03*
X444510946Y-276350129D03*
%TD*%
%TO.C,D76*%
X158778946Y-317747729D03*
X158778946Y-314447729D03*
%TD*%
%TO.C,D88*%
X468321946Y-317685129D03*
X468321946Y-314385129D03*
%TD*%
%TO.C,D94*%
X165922246Y-336796529D03*
X165922246Y-333496529D03*
%TD*%
%TO.C,D68*%
X301644946Y-298636329D03*
X301644946Y-295336329D03*
%TD*%
%TO.C,D21*%
X192114346Y-260538729D03*
X192114346Y-257238729D03*
%TD*%
%TO.C,D42*%
X201638746Y-279650129D03*
X201638746Y-276350129D03*
%TD*%
%TO.C,D22*%
X211163146Y-260538729D03*
X211163146Y-257238729D03*
%TD*%
D20*
%TO.C,C12*%
X495802449Y-227132521D03*
X495802449Y-228092521D03*
%TD*%
D15*
%TO.C,D43*%
X220687546Y-279587529D03*
X220687546Y-276287529D03*
%TD*%
%TO.C,D23*%
X230211946Y-260601329D03*
X230211946Y-257301329D03*
%TD*%
%TO.C,D78*%
X196876546Y-317747729D03*
X196876546Y-314447729D03*
%TD*%
%TO.C,D39*%
X144492346Y-279587529D03*
X144492346Y-276287529D03*
%TD*%
%TO.C,D16*%
X382602346Y-232028129D03*
X382602346Y-228728129D03*
%TD*%
%TO.C,D56*%
X487370746Y-279650129D03*
X487370746Y-276350129D03*
%TD*%
%TO.C,D46*%
X277833946Y-279650129D03*
X277833946Y-276350129D03*
%TD*%
%TO.C,D74*%
X468321946Y-298698929D03*
X468321946Y-295398929D03*
%TD*%
%TO.C,D34*%
X468321946Y-260601329D03*
X468321946Y-257301329D03*
%TD*%
%TO.C,D3*%
X173065546Y-231965529D03*
X173065546Y-228665529D03*
%TD*%
%TO.C,D25*%
X268309546Y-260538729D03*
X268309546Y-257238729D03*
%TD*%
%TO.C,D1*%
X115919146Y-232028129D03*
X115919146Y-228728129D03*
%TD*%
%TO.C,D11*%
X344504746Y-232028129D03*
X344504746Y-228728129D03*
%TD*%
%TO.C,D79*%
X215925346Y-317747729D03*
X215925346Y-314447729D03*
%TD*%
D21*
%TO.C,SW1*%
X508782445Y-225572529D03*
X508782445Y-231872529D03*
X512582445Y-225572529D03*
X512582445Y-231872529D03*
%TD*%
D15*
%TO.C,D67*%
X282596146Y-298698929D03*
X282596146Y-295398929D03*
%TD*%
%TO.C,D101*%
X425462146Y-336733929D03*
X425462146Y-333433929D03*
%TD*%
%TO.C,D102*%
X444510946Y-336796529D03*
X444510946Y-333496529D03*
%TD*%
%TO.C,D44*%
X239736346Y-279587529D03*
X239736346Y-276287529D03*
%TD*%
%TO.C,D52*%
X406413346Y-279587529D03*
X406413346Y-276287529D03*
%TD*%
%TO.C,D64*%
X225449746Y-298636329D03*
X225449746Y-295336329D03*
%TD*%
%TO.C,D97*%
X332599246Y-336796529D03*
X332599246Y-333496529D03*
%TD*%
%TO.C,D32*%
X425462146Y-260538729D03*
X425462146Y-257238729D03*
%TD*%
%TO.C,D60*%
X149254546Y-298636329D03*
X149254546Y-295336329D03*
%TD*%
%TO.C,D87*%
X425462146Y-317747729D03*
X425462146Y-314447729D03*
%TD*%
D20*
%TO.C,C11*%
X494819949Y-227132528D03*
X494819949Y-228092528D03*
%TD*%
D15*
%TO.C,D55*%
X468321946Y-279650129D03*
X468321946Y-276350129D03*
%TD*%
D16*
%TO.C,C15*%
X485467445Y-231752529D03*
X486427445Y-231752529D03*
%TD*%
D15*
%TO.C,D41*%
X182589946Y-279650129D03*
X182589946Y-276350129D03*
%TD*%
%TO.C,D61*%
X168303346Y-298636329D03*
X168303346Y-295336329D03*
%TD*%
%TO.C,D58*%
X525468346Y-289174529D03*
X525468346Y-285874529D03*
%TD*%
%TO.C,D59*%
X123062446Y-298698929D03*
X123062446Y-295398929D03*
%TD*%
%TO.C,D103*%
X477846346Y-336733929D03*
X477846346Y-333433929D03*
%TD*%
%TO.C,D40*%
X163541146Y-279587529D03*
X163541146Y-276287529D03*
%TD*%
%TO.C,D100*%
X406413346Y-336796529D03*
X406413346Y-333496529D03*
%TD*%
D22*
%TO.C,U1*%
X487907446Y-236485029D03*
X487907446Y-235985029D03*
X487907446Y-235485029D03*
X487907446Y-234985029D03*
X487907446Y-234485029D03*
X487907446Y-233985029D03*
X487907446Y-233485029D03*
X487907446Y-232985029D03*
X487907446Y-232485029D03*
X487907446Y-231985029D03*
X487907446Y-231485029D03*
X487907446Y-230985029D03*
D23*
X489319946Y-229572529D03*
X489819946Y-229572529D03*
X490319946Y-229572529D03*
X490819946Y-229572529D03*
X491319946Y-229572529D03*
X491819946Y-229572529D03*
X492319946Y-229572529D03*
X492819946Y-229572529D03*
X493319946Y-229572529D03*
X493819946Y-229572529D03*
X494319946Y-229572529D03*
X494819946Y-229572529D03*
D22*
X496232446Y-230985029D03*
X496232446Y-231485029D03*
X496232446Y-231985029D03*
X496232446Y-232485029D03*
X496232446Y-232985029D03*
X496232446Y-233485029D03*
X496232446Y-233985029D03*
X496232446Y-234485029D03*
X496232446Y-234985029D03*
X496232446Y-235485029D03*
X496232446Y-235985029D03*
X496232446Y-236485029D03*
D23*
X494819946Y-237897529D03*
X494319946Y-237897529D03*
X493819946Y-237897529D03*
X493319946Y-237897529D03*
X492819946Y-237897529D03*
X492319946Y-237897529D03*
X491819946Y-237897529D03*
X491319946Y-237897529D03*
X490819946Y-237897529D03*
X490319946Y-237897529D03*
X489819946Y-237897529D03*
X489319946Y-237897529D03*
%TD*%
D15*
%TO.C,D80*%
X234974146Y-317747729D03*
X234974146Y-314447729D03*
%TD*%
%TO.C,D98*%
X356410246Y-336733929D03*
X356410246Y-333433929D03*
%TD*%
D24*
%TO.C,R1*%
X511559951Y-223940033D03*
X512579951Y-223940033D03*
%TD*%
D25*
%TO.C,C7*%
X486427446Y-233735028D03*
X485467446Y-233735028D03*
%TD*%
D15*
%TO.C,D89*%
X487370746Y-317685129D03*
X487370746Y-314385129D03*
%TD*%
%TO.C,D19*%
X154016746Y-260601329D03*
X154016746Y-257301329D03*
%TD*%
%TO.C,D99*%
X380221246Y-336796529D03*
X380221246Y-333496529D03*
%TD*%
%TO.C,D12*%
X363553546Y-231965529D03*
X363553546Y-228665529D03*
%TD*%
D16*
%TO.C,C16*%
X496312445Y-237407536D03*
X497272445Y-237407536D03*
%TD*%
D15*
%TO.C,D26*%
X287358346Y-260601329D03*
X287358346Y-257301329D03*
%TD*%
%TO.C,D84*%
X311169346Y-317747729D03*
X311169346Y-314447729D03*
%TD*%
%TO.C,D38*%
X120681346Y-279650129D03*
X120681346Y-276350129D03*
%TD*%
%TO.C,D69*%
X320693746Y-298636329D03*
X320693746Y-295336329D03*
%TD*%
%TO.C,D7*%
X258785146Y-232028129D03*
X258785146Y-228728129D03*
%TD*%
%TO.C,D49*%
X334980346Y-279650129D03*
X334980346Y-276350129D03*
%TD*%
%TO.C,D31*%
X406413346Y-260601329D03*
X406413346Y-257301329D03*
%TD*%
%TO.C,D15*%
X444510946Y-231965529D03*
X444510946Y-228665529D03*
%TD*%
%TO.C,D10*%
X325455946Y-232028129D03*
X325455946Y-228728129D03*
%TD*%
D16*
%TO.C,C10*%
X485467445Y-236485028D03*
X486427445Y-236485028D03*
%TD*%
D15*
%TO.C,D83*%
X292120546Y-317747729D03*
X292120546Y-314447729D03*
%TD*%
%TO.C,D48*%
X315931546Y-279650129D03*
X315931546Y-276350129D03*
%TD*%
%TO.C,D4*%
X192114346Y-232028129D03*
X192114346Y-228728129D03*
%TD*%
%TO.C,D37*%
X525468346Y-260601329D03*
X525468346Y-257301329D03*
%TD*%
%TO.C,D104*%
X506419546Y-336733929D03*
X506419546Y-333433929D03*
%TD*%
%TO.C,D18*%
X134967946Y-260601329D03*
X134967946Y-257301329D03*
%TD*%
%TO.C,D6*%
X239736346Y-232028129D03*
X239736346Y-228728129D03*
%TD*%
%TO.C,D17*%
X115919146Y-260601329D03*
X115919146Y-257301329D03*
%TD*%
%TO.C,D82*%
X273071746Y-317747729D03*
X273071746Y-314447729D03*
%TD*%
%TO.C,D62*%
X187352146Y-298636329D03*
X187352146Y-295336329D03*
%TD*%
%TO.C,D63*%
X206400946Y-298698929D03*
X206400946Y-295398929D03*
%TD*%
%TO.C,D57*%
X506419546Y-279587529D03*
X506419546Y-276287529D03*
%TD*%
%TO.C,D72*%
X487370746Y-298636329D03*
X487370746Y-295336329D03*
%TD*%
%TO.C,D29*%
X344504746Y-260601329D03*
X344504746Y-257301329D03*
%TD*%
M02*
