%TF.GenerationSoftware,KiCad,Pcbnew,8.0.5*%
%TF.CreationDate,2025-06-15T08:44:16-07:00*%
%TF.ProjectId,Full Keyboard,46756c6c-204b-4657-9962-6f6172642e6b,2.0.0*%
%TF.SameCoordinates,Original*%
%TF.FileFunction,Drillmap*%
%TF.FilePolarity,Positive*%
%FSLAX45Y45*%
G04 Gerber Fmt 4.5, Leading zero omitted, Abs format (unit mm)*
G04 Created by KiCad (PCBNEW 8.0.5) date 2025-06-15 08:44:16*
%MOMM*%
%LPD*%
G01*
G04 APERTURE LIST*
%ADD10C,0.050000*%
%ADD11C,0.200000*%
%ADD12C,0.100000*%
%ADD13C,0.150000*%
G04 APERTURE END LIST*
D10*
X52737134Y-21607326D02*
G75*
G02*
X53612057Y-22482258I-6J-874929D01*
G01*
X10589008Y-35025316D02*
G75*
G02*
X9714083Y-34150387I1J874926D01*
G01*
X10589008Y-35025316D02*
X52737133Y-35025316D01*
X9714083Y-22482262D02*
X9714083Y-34150387D01*
X9714082Y-22482253D02*
G75*
G02*
X10589009Y-21607326I874927J0D01*
G01*
X53612057Y-22482258D02*
X53612057Y-34150383D01*
X52737134Y-21607326D02*
X10589009Y-21607326D01*
X53612057Y-34150383D02*
G75*
G02*
X52737133Y-35025316I-874930J-3D01*
G01*
D11*
D12*
X12449985Y-25086433D02*
X12479985Y-25116433D01*
X12479985Y-25086433D02*
X12449985Y-25116433D01*
X12449985Y-25959503D02*
X12479985Y-25989503D01*
X12479985Y-25959503D02*
X12449985Y-25989503D01*
X13164315Y-32705953D02*
X13194315Y-32735953D01*
X13194315Y-32705953D02*
X13164315Y-32735953D01*
X13402425Y-26991313D02*
X13432425Y-27021313D01*
X13432425Y-26991313D02*
X13402425Y-27021313D01*
X13402425Y-27864383D02*
X13432425Y-27894383D01*
X13432425Y-27864383D02*
X13402425Y-27894383D01*
X13878645Y-28896193D02*
X13908645Y-28926193D01*
X13908645Y-28896193D02*
X13878645Y-28926193D01*
X13878645Y-29769263D02*
X13908645Y-29799263D01*
X13908645Y-29769263D02*
X13878645Y-29799263D01*
X14116755Y-23102183D02*
X14146755Y-23132183D01*
X14146755Y-23102183D02*
X14116755Y-23132183D01*
X14354865Y-25007063D02*
X14384865Y-25037063D01*
X14384865Y-25007063D02*
X14354865Y-25037063D01*
X14354865Y-25985133D02*
X14384865Y-26015133D01*
X14384865Y-25985133D02*
X14354865Y-26015133D01*
X14831085Y-30880443D02*
X14861085Y-30910443D01*
X14861085Y-30880443D02*
X14831085Y-30910443D01*
X14831085Y-31674143D02*
X14861085Y-31704143D01*
X14861085Y-31674143D02*
X14831085Y-31704143D01*
X15307305Y-26991313D02*
X15337305Y-27021313D01*
X15337305Y-26991313D02*
X15307305Y-27021313D01*
X15307305Y-27864383D02*
X15337305Y-27894383D01*
X15337305Y-27864383D02*
X15307305Y-27894383D01*
X15545415Y-32705953D02*
X15575415Y-32735953D01*
X15575415Y-32705953D02*
X15545415Y-32735953D01*
X15783525Y-28896193D02*
X15813525Y-28926193D01*
X15813525Y-28896193D02*
X15783525Y-28926193D01*
X15783525Y-29769263D02*
X15813525Y-29799263D01*
X15813525Y-29769263D02*
X15783525Y-29799263D01*
X16021635Y-23102183D02*
X16051635Y-23132183D01*
X16051635Y-23102183D02*
X16021635Y-23132183D01*
X16259745Y-25007063D02*
X16289745Y-25037063D01*
X16289745Y-25007063D02*
X16259745Y-25037063D01*
X16259745Y-25985133D02*
X16289745Y-26015133D01*
X16289745Y-25985133D02*
X16259745Y-26015133D01*
X16497855Y-31699773D02*
X16527855Y-31729773D01*
X16527855Y-31699773D02*
X16497855Y-31729773D01*
X16735965Y-30801073D02*
X16765965Y-30831073D01*
X16765965Y-30801073D02*
X16735965Y-30831073D01*
X17212185Y-26991313D02*
X17242185Y-27021313D01*
X17242185Y-26991313D02*
X17212185Y-27021313D01*
X17212185Y-27883753D02*
X17242185Y-27913753D01*
X17242185Y-27883753D02*
X17212185Y-27913753D01*
X17688405Y-28896193D02*
X17718405Y-28926193D01*
X17718405Y-28896193D02*
X17688405Y-28926193D01*
X17688405Y-29769263D02*
X17718405Y-29799263D01*
X17718405Y-29769263D02*
X17688405Y-29799263D01*
X17926515Y-23102183D02*
X17956515Y-23132183D01*
X17956515Y-23102183D02*
X17926515Y-23132183D01*
X18164625Y-25985133D02*
X18194625Y-26015133D01*
X18194625Y-25985133D02*
X18164625Y-26015133D01*
X18640845Y-24848323D02*
X18670845Y-24878323D01*
X18670845Y-24848323D02*
X18640845Y-24878323D01*
X18640845Y-30801073D02*
X18670845Y-30831073D01*
X18670845Y-30801073D02*
X18640845Y-30831073D01*
X19117065Y-26991313D02*
X19147065Y-27021313D01*
X19147065Y-26991313D02*
X19117065Y-27021313D01*
X19117065Y-27883753D02*
X19147065Y-27913753D01*
X19147065Y-27883753D02*
X19117065Y-27913753D01*
X19593285Y-28896193D02*
X19623285Y-28926193D01*
X19623285Y-28896193D02*
X19593285Y-28926193D01*
X19593285Y-29769263D02*
X19623285Y-29799263D01*
X19623285Y-29769263D02*
X19593285Y-29799263D01*
X19831395Y-23102183D02*
X19861395Y-23132183D01*
X19861395Y-23102183D02*
X19831395Y-23132183D01*
X20069505Y-25985133D02*
X20099505Y-26015133D01*
X20099505Y-25985133D02*
X20069505Y-26015133D01*
X20148875Y-24610213D02*
X20178875Y-24640213D01*
X20178875Y-24610213D02*
X20148875Y-24640213D01*
X20545725Y-30801073D02*
X20575725Y-30831073D01*
X20575725Y-30801073D02*
X20545725Y-30831073D01*
X21021945Y-26991313D02*
X21051945Y-27021313D01*
X21051945Y-26991313D02*
X21021945Y-27021313D01*
X21021945Y-27864383D02*
X21051945Y-27894383D01*
X21051945Y-27864383D02*
X21021945Y-27894383D01*
X21498165Y-28896193D02*
X21528165Y-28926193D01*
X21528165Y-28896193D02*
X21498165Y-28926193D01*
X21498165Y-29769263D02*
X21528165Y-29799263D01*
X21528165Y-29769263D02*
X21498165Y-29799263D01*
X21974385Y-25985133D02*
X22004385Y-26015133D01*
X22004385Y-25985133D02*
X21974385Y-26015133D01*
X22133125Y-24372103D02*
X22163125Y-24402103D01*
X22163125Y-24372103D02*
X22133125Y-24402103D01*
X22450605Y-30801073D02*
X22480605Y-30831073D01*
X22480605Y-30801073D02*
X22450605Y-30831073D01*
X22450605Y-31674143D02*
X22480605Y-31704143D01*
X22480605Y-31674143D02*
X22450605Y-31704143D01*
X22688715Y-23102183D02*
X22718715Y-23132183D01*
X22718715Y-23102183D02*
X22688715Y-23132183D01*
X22688715Y-32705953D02*
X22718715Y-32735953D01*
X22718715Y-32705953D02*
X22688715Y-32735953D01*
X22926825Y-26991313D02*
X22956825Y-27021313D01*
X22956825Y-26991313D02*
X22926825Y-27021313D01*
X22926825Y-27864383D02*
X22956825Y-27894383D01*
X22956825Y-27864383D02*
X22926825Y-27894383D01*
X23403045Y-28896193D02*
X23433045Y-28926193D01*
X23433045Y-28896193D02*
X23403045Y-28926193D01*
X23403045Y-29769263D02*
X23433045Y-29799263D01*
X23433045Y-29769263D02*
X23403045Y-29799263D01*
X23879265Y-25959503D02*
X23909265Y-25989503D01*
X23909265Y-25959503D02*
X23879265Y-25989503D01*
X24355485Y-30801073D02*
X24385485Y-30831073D01*
X24385485Y-30801073D02*
X24355485Y-30831073D01*
X24593595Y-23102183D02*
X24623595Y-23132183D01*
X24623595Y-23102183D02*
X24593595Y-23132183D01*
X24831705Y-26991313D02*
X24861705Y-27021313D01*
X24861705Y-26991313D02*
X24831705Y-27021313D01*
X24831705Y-27864383D02*
X24861705Y-27894383D01*
X24861705Y-27864383D02*
X24831705Y-27894383D01*
X25307925Y-23895883D02*
X25337925Y-23925883D01*
X25337925Y-23895883D02*
X25307925Y-23925883D01*
X25307925Y-28896193D02*
X25337925Y-28926193D01*
X25337925Y-28896193D02*
X25307925Y-28926193D01*
X25307925Y-29769263D02*
X25337925Y-29799263D01*
X25337925Y-29769263D02*
X25307925Y-29799263D01*
X25784145Y-25985133D02*
X25814145Y-26015133D01*
X25814145Y-25985133D02*
X25784145Y-26015133D01*
X26260365Y-30801073D02*
X26290365Y-30831073D01*
X26290365Y-30801073D02*
X26260365Y-30831073D01*
X26498475Y-23102183D02*
X26528475Y-23132183D01*
X26528475Y-23102183D02*
X26498475Y-23132183D01*
X26736585Y-26991313D02*
X26766585Y-27021313D01*
X26766585Y-26991313D02*
X26736585Y-27021313D01*
X26736585Y-27864383D02*
X26766585Y-27894383D01*
X26766585Y-27864383D02*
X26736585Y-27894383D01*
X27054065Y-23895883D02*
X27084065Y-23925883D01*
X27084065Y-23895883D02*
X27054065Y-23925883D01*
X27212805Y-28896193D02*
X27242805Y-28926193D01*
X27242805Y-28896193D02*
X27212805Y-28926193D01*
X27212805Y-29794893D02*
X27242805Y-29824893D01*
X27242805Y-29794893D02*
X27212805Y-29824893D01*
X27689025Y-25959503D02*
X27719025Y-25989503D01*
X27719025Y-25959503D02*
X27689025Y-25989503D01*
X28165245Y-30801073D02*
X28195245Y-30831073D01*
X28195245Y-30801073D02*
X28165245Y-30831073D01*
X28403355Y-23102183D02*
X28433355Y-23132183D01*
X28433355Y-23102183D02*
X28403355Y-23132183D01*
X28641465Y-26991313D02*
X28671465Y-27021313D01*
X28671465Y-26991313D02*
X28641465Y-27021313D01*
X28641465Y-27864383D02*
X28671465Y-27894383D01*
X28671465Y-27864383D02*
X28641465Y-27894383D01*
X29117685Y-28896193D02*
X29147685Y-28926193D01*
X29147685Y-28896193D02*
X29117685Y-28926193D01*
X29117685Y-29794893D02*
X29147685Y-29824893D01*
X29147685Y-29794893D02*
X29117685Y-29824893D01*
X29197055Y-23895883D02*
X29227055Y-23925883D01*
X29227055Y-23895883D02*
X29197055Y-23925883D01*
X29593905Y-25959503D02*
X29623905Y-25989503D01*
X29623905Y-25959503D02*
X29593905Y-25989503D01*
X29832015Y-32705953D02*
X29862015Y-32735953D01*
X29862015Y-32705953D02*
X29832015Y-32735953D01*
X30070125Y-30801073D02*
X30100125Y-30831073D01*
X30100125Y-30801073D02*
X30070125Y-30831073D01*
X30070125Y-31674143D02*
X30100125Y-31704143D01*
X30100125Y-31674143D02*
X30070125Y-31704143D01*
X30546345Y-26991313D02*
X30576345Y-27021313D01*
X30576345Y-26991313D02*
X30546345Y-27021313D01*
X30546345Y-27864383D02*
X30576345Y-27894383D01*
X30576345Y-27864383D02*
X30546345Y-27894383D01*
X31022565Y-28896193D02*
X31052565Y-28926193D01*
X31052565Y-28896193D02*
X31022565Y-28926193D01*
X31022565Y-29769263D02*
X31052565Y-29799263D01*
X31052565Y-29769263D02*
X31022565Y-29799263D01*
X31260675Y-23102183D02*
X31290675Y-23132183D01*
X31290675Y-23102183D02*
X31260675Y-23132183D01*
X31498785Y-25985133D02*
X31528785Y-26015133D01*
X31528785Y-25985133D02*
X31498785Y-26015133D01*
X31816265Y-23895883D02*
X31846265Y-23925883D01*
X31846265Y-23895883D02*
X31816265Y-23925883D01*
X31975005Y-30801073D02*
X32005005Y-30831073D01*
X32005005Y-30801073D02*
X31975005Y-30831073D01*
X31975005Y-31674143D02*
X32005005Y-31704143D01*
X32005005Y-31674143D02*
X31975005Y-31704143D01*
X32213115Y-32705953D02*
X32243115Y-32735953D01*
X32243115Y-32705953D02*
X32213115Y-32735953D01*
X32451225Y-26991313D02*
X32481225Y-27021313D01*
X32481225Y-26991313D02*
X32451225Y-27021313D01*
X32451225Y-27864383D02*
X32481225Y-27894383D01*
X32481225Y-27864383D02*
X32451225Y-27894383D01*
X32927445Y-23895883D02*
X32957445Y-23925883D01*
X32957445Y-23895883D02*
X32927445Y-23925883D01*
X32927445Y-28896193D02*
X32957445Y-28926193D01*
X32957445Y-28896193D02*
X32927445Y-28926193D01*
X32927445Y-29769263D02*
X32957445Y-29799263D01*
X32957445Y-29769263D02*
X32927445Y-29799263D01*
X33165555Y-23102183D02*
X33195555Y-23132183D01*
X33195555Y-23102183D02*
X33165555Y-23132183D01*
X33403665Y-25985133D02*
X33433665Y-26015133D01*
X33433665Y-25985133D02*
X33403665Y-26015133D01*
X34356105Y-26991313D02*
X34386105Y-27021313D01*
X34386105Y-26991313D02*
X34356105Y-27021313D01*
X34356105Y-27883753D02*
X34386105Y-27913753D01*
X34386105Y-27883753D02*
X34356105Y-27913753D01*
X34594215Y-32705953D02*
X34624215Y-32735953D01*
X34624215Y-32705953D02*
X34594215Y-32735953D01*
X34911695Y-23895883D02*
X34941695Y-23925883D01*
X34941695Y-23895883D02*
X34911695Y-23925883D01*
X35070435Y-23102183D02*
X35100435Y-23132183D01*
X35100435Y-23102183D02*
X35070435Y-23132183D01*
X35546655Y-30801073D02*
X35576655Y-30831073D01*
X35576655Y-30801073D02*
X35546655Y-30831073D01*
X35546655Y-31674143D02*
X35576655Y-31704143D01*
X35576655Y-31674143D02*
X35546655Y-31704143D01*
X36022875Y-28896193D02*
X36052875Y-28926193D01*
X36052875Y-28896193D02*
X36022875Y-28926193D01*
X36260985Y-25959503D02*
X36290985Y-25989503D01*
X36290985Y-25959503D02*
X36260985Y-25989503D01*
X36737205Y-26991313D02*
X36767205Y-27021313D01*
X36767205Y-26991313D02*
X36737205Y-27021313D01*
X36737205Y-27864383D02*
X36767205Y-27894383D01*
X36767205Y-27864383D02*
X36737205Y-27894383D01*
X36975315Y-23102183D02*
X37005315Y-23132183D01*
X37005315Y-23102183D02*
X36975315Y-23132183D01*
X36975315Y-32705953D02*
X37005315Y-32735953D01*
X37005315Y-32705953D02*
X36975315Y-32735953D01*
X39356415Y-23102183D02*
X39386415Y-23132183D01*
X39386415Y-23102183D02*
X39356415Y-23132183D01*
X39594525Y-25086433D02*
X39624525Y-25116433D01*
X39624525Y-25086433D02*
X39594525Y-25116433D01*
X39594525Y-25959503D02*
X39624525Y-25989503D01*
X39624525Y-25959503D02*
X39594525Y-25989503D01*
X39594525Y-26991313D02*
X39624525Y-27021313D01*
X39624525Y-26991313D02*
X39594525Y-27021313D01*
X39594525Y-27864383D02*
X39624525Y-27894383D01*
X39624525Y-27864383D02*
X39594525Y-27894383D01*
X39594525Y-32705953D02*
X39624525Y-32735953D01*
X39624525Y-32705953D02*
X39594525Y-32735953D01*
X41499405Y-23102183D02*
X41529405Y-23132183D01*
X41529405Y-23102183D02*
X41499405Y-23132183D01*
X41499405Y-25086433D02*
X41529405Y-25116433D01*
X41529405Y-25086433D02*
X41499405Y-25116433D01*
X41499405Y-25959503D02*
X41529405Y-25989503D01*
X41529405Y-25959503D02*
X41499405Y-25989503D01*
X41499405Y-26991313D02*
X41529405Y-27021313D01*
X41529405Y-26991313D02*
X41499405Y-27021313D01*
X41499405Y-27883753D02*
X41529405Y-27913753D01*
X41529405Y-27883753D02*
X41499405Y-27913753D01*
X41499405Y-30801073D02*
X41529405Y-30831073D01*
X41529405Y-30801073D02*
X41499405Y-30831073D01*
X41499405Y-31699773D02*
X41529405Y-31729773D01*
X41529405Y-31699773D02*
X41499405Y-31729773D01*
X41499405Y-32705953D02*
X41529405Y-32735953D01*
X41529405Y-32705953D02*
X41499405Y-32735953D01*
X43404285Y-23127813D02*
X43434285Y-23157813D01*
X43434285Y-23127813D02*
X43404285Y-23157813D01*
X43404285Y-25086433D02*
X43434285Y-25116433D01*
X43434285Y-25086433D02*
X43404285Y-25116433D01*
X43404285Y-25985133D02*
X43434285Y-26015133D01*
X43434285Y-25985133D02*
X43404285Y-26015133D01*
X43404285Y-26991313D02*
X43434285Y-27021313D01*
X43434285Y-26991313D02*
X43404285Y-27021313D01*
X43404285Y-27864383D02*
X43434285Y-27894383D01*
X43434285Y-27864383D02*
X43404285Y-27894383D01*
X43404285Y-32705953D02*
X43434285Y-32735953D01*
X43434285Y-32705953D02*
X43404285Y-32735953D01*
X45785385Y-25959503D02*
X45815385Y-25989503D01*
X45815385Y-25959503D02*
X45785385Y-25989503D01*
X45785385Y-26991313D02*
X45815385Y-27021313D01*
X45815385Y-26991313D02*
X45785385Y-27021313D01*
X45785385Y-27883753D02*
X45815385Y-27913753D01*
X45815385Y-27883753D02*
X45785385Y-27913753D01*
X45785385Y-28896193D02*
X45815385Y-28926193D01*
X45815385Y-28896193D02*
X45785385Y-28926193D01*
X45785385Y-29794893D02*
X45815385Y-29824893D01*
X45815385Y-29794893D02*
X45785385Y-29824893D01*
X45785385Y-30801073D02*
X45815385Y-30831073D01*
X45815385Y-30801073D02*
X45785385Y-30831073D01*
X45785385Y-31674143D02*
X45815385Y-31704143D01*
X45815385Y-31674143D02*
X45785385Y-31704143D01*
X46737825Y-32705953D02*
X46767825Y-32735953D01*
X46767825Y-32705953D02*
X46737825Y-32735953D01*
X47690265Y-25959503D02*
X47720265Y-25989503D01*
X47720265Y-25959503D02*
X47690265Y-25989503D01*
X47690265Y-26991313D02*
X47720265Y-27021313D01*
X47720265Y-26991313D02*
X47690265Y-27021313D01*
X47690265Y-27864383D02*
X47720265Y-27894383D01*
X47720265Y-27864383D02*
X47690265Y-27894383D01*
X47690265Y-28896193D02*
X47720265Y-28926193D01*
X47720265Y-28896193D02*
X47690265Y-28926193D01*
X47690265Y-29794893D02*
X47720265Y-29824893D01*
X47720265Y-29794893D02*
X47690265Y-29824893D01*
X47690265Y-30801073D02*
X47720265Y-30831073D01*
X47720265Y-30801073D02*
X47690265Y-30831073D01*
X48046914Y-23710922D02*
X48076914Y-23740922D01*
X48076914Y-23710922D02*
X48046914Y-23740922D01*
X48463744Y-23160253D02*
X48493744Y-23190253D01*
X48493744Y-23160253D02*
X48463744Y-23190253D01*
X48463745Y-23258503D02*
X48493745Y-23288503D01*
X48493745Y-23258503D02*
X48463745Y-23288503D01*
X48463745Y-23358503D02*
X48493745Y-23388503D01*
X48493745Y-23358503D02*
X48463745Y-23388503D01*
X48463745Y-23633503D02*
X48493745Y-23663503D01*
X48493745Y-23633503D02*
X48463745Y-23663503D01*
X48601995Y-23951003D02*
X48631995Y-23981003D01*
X48631995Y-23951003D02*
X48601995Y-23981003D01*
X48627744Y-23704503D02*
X48657744Y-23734503D01*
X48657744Y-23704503D02*
X48627744Y-23734503D01*
X48627744Y-23089253D02*
X48657744Y-23119253D01*
X48657744Y-23089253D02*
X48627744Y-23119253D01*
X48704741Y-23763404D02*
X48734741Y-23793404D01*
X48734741Y-23763404D02*
X48704741Y-23793404D01*
X48845995Y-23922753D02*
X48875995Y-23952753D01*
X48875995Y-23922753D02*
X48845995Y-23952753D01*
X48901995Y-23283503D02*
X48931995Y-23313503D01*
X48931995Y-23283503D02*
X48901995Y-23313503D01*
X48916995Y-24086753D02*
X48946995Y-24116753D01*
X48946995Y-24086753D02*
X48916995Y-24116753D01*
X48966995Y-23648503D02*
X48996995Y-23678503D01*
X48996995Y-23648503D02*
X48966995Y-23678503D01*
X49416995Y-23068503D02*
X49446995Y-23098503D01*
X49446995Y-23068503D02*
X49416995Y-23098503D01*
X49458245Y-23333503D02*
X49488245Y-23363503D01*
X49488245Y-23333503D02*
X49458245Y-23363503D01*
X49466995Y-22630253D02*
X49496995Y-22660253D01*
X49496995Y-22630253D02*
X49466995Y-22660253D01*
X49481995Y-23583503D02*
X49511995Y-23613503D01*
X49511995Y-23583503D02*
X49481995Y-23613503D01*
X49548244Y-23824003D02*
X49578244Y-23854003D01*
X49578244Y-23824003D02*
X49548244Y-23854003D01*
X49548244Y-23725753D02*
X49578244Y-23755753D01*
X49578244Y-23725753D02*
X49548244Y-23755753D01*
X49565245Y-22630253D02*
X49595245Y-22660253D01*
X49595245Y-22630253D02*
X49565245Y-22660253D01*
X49595145Y-25959503D02*
X49625145Y-25989503D01*
X49625145Y-25959503D02*
X49595145Y-25989503D01*
X49595145Y-26991313D02*
X49625145Y-27021313D01*
X49625145Y-26991313D02*
X49595145Y-27021313D01*
X49595145Y-27864383D02*
X49625145Y-27894383D01*
X49625145Y-27864383D02*
X49595145Y-27894383D01*
X49595145Y-28896193D02*
X49625145Y-28926193D01*
X49625145Y-28896193D02*
X49595145Y-28926193D01*
X49595145Y-29769263D02*
X49625145Y-29799263D01*
X49625145Y-29769263D02*
X49595145Y-29799263D01*
X49595145Y-30801073D02*
X49625145Y-30831073D01*
X49625145Y-30801073D02*
X49595145Y-30831073D01*
X49595145Y-31699773D02*
X49625145Y-31729773D01*
X49625145Y-31699773D02*
X49595145Y-31729773D01*
X49595145Y-32705953D02*
X49625145Y-32735953D01*
X49625145Y-32705953D02*
X49595145Y-32735953D01*
X49636245Y-22794252D02*
X49666245Y-22824252D01*
X49666245Y-22794252D02*
X49636245Y-22824252D01*
X49712244Y-23922753D02*
X49742244Y-23952753D01*
X49742244Y-23922753D02*
X49712244Y-23952753D01*
X50683245Y-23333503D02*
X50713245Y-23363503D01*
X50713245Y-23333503D02*
X50683245Y-23363503D01*
X50748245Y-23172253D02*
X50778245Y-23202253D01*
X50778245Y-23172253D02*
X50748245Y-23202253D01*
X51073995Y-22379003D02*
X51103995Y-22409003D01*
X51103995Y-22379003D02*
X51073995Y-22409003D01*
X51500025Y-25959503D02*
X51530025Y-25989503D01*
X51530025Y-25959503D02*
X51500025Y-25989503D01*
X51500025Y-27943753D02*
X51530025Y-27973753D01*
X51530025Y-27943753D02*
X51500025Y-27973753D01*
X51500025Y-28842453D02*
X51530025Y-28872453D01*
X51530025Y-28842453D02*
X51500025Y-28872453D01*
X51500025Y-31753513D02*
X51530025Y-31783513D01*
X51530025Y-31753513D02*
X51500025Y-31783513D01*
X51944495Y-22606003D02*
G75*
G02*
X51849495Y-22606003I-47500J0D01*
G01*
X51849495Y-22606003D02*
G75*
G02*
X51944495Y-22606003I47500J0D01*
G01*
X51944495Y-22856003D02*
G75*
G02*
X51849495Y-22856003I-47500J0D01*
G01*
X51849495Y-22856003D02*
G75*
G02*
X51944495Y-22856003I47500J0D01*
G01*
X51944495Y-23106003D02*
G75*
G02*
X51849495Y-23106003I-47500J0D01*
G01*
X51849495Y-23106003D02*
G75*
G02*
X51944495Y-23106003I47500J0D01*
G01*
X51944495Y-23356003D02*
G75*
G02*
X51849495Y-23356003I-47500J0D01*
G01*
X51849495Y-23356003D02*
G75*
G02*
X51944495Y-23356003I47500J0D01*
G01*
D13*
X10893495Y-22629503D02*
X10893495Y-22779503D01*
X10818495Y-22704503D02*
X10968495Y-22704503D01*
X10893495Y-25487003D02*
X10893495Y-25637003D01*
X10818495Y-25562003D02*
X10968495Y-25562003D01*
X11131620Y-33107003D02*
X11131620Y-33257003D01*
X11056620Y-33182003D02*
X11206620Y-33182003D01*
X11369745Y-27392003D02*
X11369745Y-27542003D01*
X11294745Y-27467003D02*
X11444745Y-27467003D01*
X11528495Y-22375503D02*
X11528495Y-22525503D01*
X11453495Y-22450503D02*
X11603495Y-22450503D01*
X11528495Y-25233003D02*
X11528495Y-25383003D01*
X11453495Y-25308003D02*
X11603495Y-25308003D01*
X11607870Y-29297003D02*
X11607870Y-29447003D01*
X11532870Y-29372003D02*
X11682870Y-29372003D01*
X11766620Y-32853003D02*
X11766620Y-33003003D01*
X11691620Y-32928003D02*
X11841620Y-32928003D01*
X12004745Y-27138003D02*
X12004745Y-27288003D01*
X11929745Y-27213003D02*
X12079745Y-27213003D01*
X12084120Y-31202003D02*
X12084120Y-31352003D01*
X12009120Y-31277003D02*
X12159120Y-31277003D01*
X12242870Y-29043003D02*
X12242870Y-29193003D01*
X12167870Y-29118003D02*
X12317870Y-29118003D01*
X12719120Y-30948003D02*
X12719120Y-31098003D01*
X12644120Y-31023003D02*
X12794120Y-31023003D01*
X12798495Y-25487003D02*
X12798495Y-25637003D01*
X12723495Y-25562003D02*
X12873495Y-25562003D01*
X13433495Y-25233003D02*
X13433495Y-25383003D01*
X13358495Y-25308003D02*
X13508495Y-25308003D01*
X13512870Y-33107003D02*
X13512870Y-33257003D01*
X13437870Y-33182003D02*
X13587870Y-33182003D01*
X13750995Y-27392003D02*
X13750995Y-27542003D01*
X13675995Y-27467003D02*
X13825995Y-27467003D01*
X14147870Y-32853003D02*
X14147870Y-33003003D01*
X14072870Y-32928003D02*
X14222870Y-32928003D01*
X14227245Y-29297003D02*
X14227245Y-29447003D01*
X14152245Y-29372003D02*
X14302245Y-29372003D01*
X14385995Y-27138003D02*
X14385995Y-27288003D01*
X14310995Y-27213003D02*
X14460995Y-27213003D01*
X14703495Y-22629503D02*
X14703495Y-22779503D01*
X14628495Y-22704503D02*
X14778495Y-22704503D01*
X14703495Y-25487003D02*
X14703495Y-25637003D01*
X14628495Y-25562003D02*
X14778495Y-25562003D01*
X14862245Y-29043003D02*
X14862245Y-29193003D01*
X14787245Y-29118003D02*
X14937245Y-29118003D01*
X15179745Y-31202003D02*
X15179745Y-31352003D01*
X15104745Y-31277003D02*
X15254745Y-31277003D01*
X15338495Y-22375503D02*
X15338495Y-22525503D01*
X15263495Y-22450503D02*
X15413495Y-22450503D01*
X15338495Y-25233003D02*
X15338495Y-25383003D01*
X15263495Y-25308003D02*
X15413495Y-25308003D01*
X15655995Y-27392003D02*
X15655995Y-27542003D01*
X15580995Y-27467003D02*
X15730995Y-27467003D01*
X15814745Y-30948003D02*
X15814745Y-31098003D01*
X15739745Y-31023003D02*
X15889745Y-31023003D01*
X15894120Y-33107003D02*
X15894120Y-33257003D01*
X15819120Y-33182003D02*
X15969120Y-33182003D01*
X16132245Y-29297003D02*
X16132245Y-29447003D01*
X16057245Y-29372003D02*
X16207245Y-29372003D01*
X16290995Y-27138003D02*
X16290995Y-27288003D01*
X16215995Y-27213003D02*
X16365995Y-27213003D01*
X16529120Y-32853003D02*
X16529120Y-33003003D01*
X16454120Y-32928003D02*
X16604120Y-32928003D01*
X16608495Y-22629503D02*
X16608495Y-22779503D01*
X16533495Y-22704503D02*
X16683495Y-22704503D01*
X16608495Y-25487003D02*
X16608495Y-25637003D01*
X16533495Y-25562003D02*
X16683495Y-25562003D01*
X16767245Y-29043003D02*
X16767245Y-29193003D01*
X16692245Y-29118003D02*
X16842245Y-29118003D01*
X17084745Y-31202003D02*
X17084745Y-31352003D01*
X17009745Y-31277003D02*
X17159745Y-31277003D01*
X17243495Y-22375503D02*
X17243495Y-22525503D01*
X17168495Y-22450503D02*
X17318495Y-22450503D01*
X17243495Y-25233003D02*
X17243495Y-25383003D01*
X17168495Y-25308003D02*
X17318495Y-25308003D01*
X17560995Y-27392003D02*
X17560995Y-27542003D01*
X17485995Y-27467003D02*
X17635995Y-27467003D01*
X17719745Y-30948003D02*
X17719745Y-31098003D01*
X17644745Y-31023003D02*
X17794745Y-31023003D01*
X18037245Y-29297003D02*
X18037245Y-29447003D01*
X17962245Y-29372003D02*
X18112245Y-29372003D01*
X18195995Y-27138003D02*
X18195995Y-27288003D01*
X18120995Y-27213003D02*
X18270995Y-27213003D01*
X18513495Y-22629503D02*
X18513495Y-22779503D01*
X18438495Y-22704503D02*
X18588495Y-22704503D01*
X18513495Y-25487003D02*
X18513495Y-25637003D01*
X18438495Y-25562003D02*
X18588495Y-25562003D01*
X18672245Y-29043003D02*
X18672245Y-29193003D01*
X18597245Y-29118003D02*
X18747245Y-29118003D01*
X18989745Y-31202003D02*
X18989745Y-31352003D01*
X18914745Y-31277003D02*
X19064745Y-31277003D01*
X19148495Y-22375503D02*
X19148495Y-22525503D01*
X19073495Y-22450503D02*
X19223495Y-22450503D01*
X19148495Y-25233003D02*
X19148495Y-25383003D01*
X19073495Y-25308003D02*
X19223495Y-25308003D01*
X19465995Y-27392003D02*
X19465995Y-27542003D01*
X19390995Y-27467003D02*
X19540995Y-27467003D01*
X19624745Y-30948003D02*
X19624745Y-31098003D01*
X19549745Y-31023003D02*
X19699745Y-31023003D01*
X19942245Y-29297003D02*
X19942245Y-29447003D01*
X19867245Y-29372003D02*
X20017245Y-29372003D01*
X20100995Y-27138003D02*
X20100995Y-27288003D01*
X20025995Y-27213003D02*
X20175995Y-27213003D01*
X20418495Y-22629503D02*
X20418495Y-22779503D01*
X20343495Y-22704503D02*
X20493495Y-22704503D01*
X20418495Y-25487003D02*
X20418495Y-25637003D01*
X20343495Y-25562003D02*
X20493495Y-25562003D01*
X20577245Y-29043003D02*
X20577245Y-29193003D01*
X20502245Y-29118003D02*
X20652245Y-29118003D01*
X20894745Y-31202003D02*
X20894745Y-31352003D01*
X20819745Y-31277003D02*
X20969745Y-31277003D01*
X21053495Y-22375503D02*
X21053495Y-22525503D01*
X20978495Y-22450503D02*
X21128495Y-22450503D01*
X21053495Y-25233003D02*
X21053495Y-25383003D01*
X20978495Y-25308003D02*
X21128495Y-25308003D01*
X21370995Y-27392003D02*
X21370995Y-27542003D01*
X21295995Y-27467003D02*
X21445995Y-27467003D01*
X21529745Y-30948003D02*
X21529745Y-31098003D01*
X21454745Y-31023003D02*
X21604745Y-31023003D01*
X21847245Y-29297003D02*
X21847245Y-29447003D01*
X21772245Y-29372003D02*
X21922245Y-29372003D01*
X22005995Y-27138003D02*
X22005995Y-27288003D01*
X21930995Y-27213003D02*
X22080995Y-27213003D01*
X22323495Y-25487003D02*
X22323495Y-25637003D01*
X22248495Y-25562003D02*
X22398495Y-25562003D01*
X22482245Y-29043003D02*
X22482245Y-29193003D01*
X22407245Y-29118003D02*
X22557245Y-29118003D01*
X22799745Y-31202003D02*
X22799745Y-31352003D01*
X22724745Y-31277003D02*
X22874745Y-31277003D01*
X22958495Y-25233003D02*
X22958495Y-25383003D01*
X22883495Y-25308003D02*
X23033495Y-25308003D01*
X23037870Y-33107003D02*
X23037870Y-33257003D01*
X22962870Y-33182003D02*
X23112870Y-33182003D01*
X23275995Y-22629503D02*
X23275995Y-22779503D01*
X23200995Y-22704503D02*
X23350995Y-22704503D01*
X23275995Y-27392003D02*
X23275995Y-27542003D01*
X23200995Y-27467003D02*
X23350995Y-27467003D01*
X23434745Y-30948003D02*
X23434745Y-31098003D01*
X23359745Y-31023003D02*
X23509745Y-31023003D01*
X23672870Y-32853003D02*
X23672870Y-33003003D01*
X23597870Y-32928003D02*
X23747870Y-32928003D01*
X23752245Y-29297003D02*
X23752245Y-29447003D01*
X23677245Y-29372003D02*
X23827245Y-29372003D01*
X23910995Y-22375503D02*
X23910995Y-22525503D01*
X23835995Y-22450503D02*
X23985995Y-22450503D01*
X23910995Y-27138003D02*
X23910995Y-27288003D01*
X23835995Y-27213003D02*
X23985995Y-27213003D01*
X24228495Y-25487003D02*
X24228495Y-25637003D01*
X24153495Y-25562003D02*
X24303495Y-25562003D01*
X24387245Y-29043003D02*
X24387245Y-29193003D01*
X24312245Y-29118003D02*
X24462245Y-29118003D01*
X24704745Y-31202003D02*
X24704745Y-31352003D01*
X24629745Y-31277003D02*
X24779745Y-31277003D01*
X24863495Y-25233003D02*
X24863495Y-25383003D01*
X24788495Y-25308003D02*
X24938495Y-25308003D01*
X25175995Y-22629503D02*
X25175995Y-22779503D01*
X25100995Y-22704503D02*
X25250995Y-22704503D01*
X25180995Y-27392003D02*
X25180995Y-27542003D01*
X25105995Y-27467003D02*
X25255995Y-27467003D01*
X25339745Y-30948003D02*
X25339745Y-31098003D01*
X25264745Y-31023003D02*
X25414745Y-31023003D01*
X25657245Y-29297003D02*
X25657245Y-29447003D01*
X25582245Y-29372003D02*
X25732245Y-29372003D01*
X25810995Y-22375503D02*
X25810995Y-22525503D01*
X25735995Y-22450503D02*
X25885995Y-22450503D01*
X25815995Y-27138003D02*
X25815995Y-27288003D01*
X25740995Y-27213003D02*
X25890995Y-27213003D01*
X26133495Y-25487003D02*
X26133495Y-25637003D01*
X26058495Y-25562003D02*
X26208495Y-25562003D01*
X26292245Y-29043003D02*
X26292245Y-29193003D01*
X26217245Y-29118003D02*
X26367245Y-29118003D01*
X26609745Y-31202003D02*
X26609745Y-31352003D01*
X26534745Y-31277003D02*
X26684745Y-31277003D01*
X26768495Y-25233003D02*
X26768495Y-25383003D01*
X26693495Y-25308003D02*
X26843495Y-25308003D01*
X27075995Y-22629503D02*
X27075995Y-22779503D01*
X27000995Y-22704503D02*
X27150995Y-22704503D01*
X27085995Y-27392003D02*
X27085995Y-27542003D01*
X27010995Y-27467003D02*
X27160995Y-27467003D01*
X27244745Y-30948003D02*
X27244745Y-31098003D01*
X27169745Y-31023003D02*
X27319745Y-31023003D01*
X27562245Y-29297003D02*
X27562245Y-29447003D01*
X27487245Y-29372003D02*
X27637245Y-29372003D01*
X27710995Y-22375503D02*
X27710995Y-22525503D01*
X27635995Y-22450503D02*
X27785995Y-22450503D01*
X27720995Y-27138003D02*
X27720995Y-27288003D01*
X27645995Y-27213003D02*
X27795995Y-27213003D01*
X28038495Y-25487003D02*
X28038495Y-25637003D01*
X27963495Y-25562003D02*
X28113495Y-25562003D01*
X28197245Y-29043003D02*
X28197245Y-29193003D01*
X28122245Y-29118003D02*
X28272245Y-29118003D01*
X28514745Y-31202003D02*
X28514745Y-31352003D01*
X28439745Y-31277003D02*
X28589745Y-31277003D01*
X28673495Y-25233003D02*
X28673495Y-25383003D01*
X28598495Y-25308003D02*
X28748495Y-25308003D01*
X28975995Y-22629503D02*
X28975995Y-22779503D01*
X28900995Y-22704503D02*
X29050995Y-22704503D01*
X28990995Y-27392003D02*
X28990995Y-27542003D01*
X28915995Y-27467003D02*
X29065995Y-27467003D01*
X29149745Y-30948003D02*
X29149745Y-31098003D01*
X29074745Y-31023003D02*
X29224745Y-31023003D01*
X29467245Y-29297003D02*
X29467245Y-29447003D01*
X29392245Y-29372003D02*
X29542245Y-29372003D01*
X29610995Y-22375503D02*
X29610995Y-22525503D01*
X29535995Y-22450503D02*
X29685995Y-22450503D01*
X29625995Y-27138003D02*
X29625995Y-27288003D01*
X29550995Y-27213003D02*
X29700995Y-27213003D01*
X29943495Y-25487003D02*
X29943495Y-25637003D01*
X29868495Y-25562003D02*
X30018495Y-25562003D01*
X30102245Y-29043003D02*
X30102245Y-29193003D01*
X30027245Y-29118003D02*
X30177245Y-29118003D01*
X30181620Y-33107003D02*
X30181620Y-33257003D01*
X30106620Y-33182003D02*
X30256620Y-33182003D01*
X30419745Y-31202003D02*
X30419745Y-31352003D01*
X30344745Y-31277003D02*
X30494745Y-31277003D01*
X30578495Y-25233003D02*
X30578495Y-25383003D01*
X30503495Y-25308003D02*
X30653495Y-25308003D01*
X30816620Y-32853003D02*
X30816620Y-33003003D01*
X30741620Y-32928003D02*
X30891620Y-32928003D01*
X30895995Y-27392003D02*
X30895995Y-27542003D01*
X30820995Y-27467003D02*
X30970995Y-27467003D01*
X31054745Y-30948003D02*
X31054745Y-31098003D01*
X30979745Y-31023003D02*
X31129745Y-31023003D01*
X31372245Y-29297003D02*
X31372245Y-29447003D01*
X31297245Y-29372003D02*
X31447245Y-29372003D01*
X31530995Y-27138003D02*
X31530995Y-27288003D01*
X31455995Y-27213003D02*
X31605995Y-27213003D01*
X31848495Y-22629503D02*
X31848495Y-22779503D01*
X31773495Y-22704503D02*
X31923495Y-22704503D01*
X31848495Y-25487003D02*
X31848495Y-25637003D01*
X31773495Y-25562003D02*
X31923495Y-25562003D01*
X32007245Y-29043003D02*
X32007245Y-29193003D01*
X31932245Y-29118003D02*
X32082245Y-29118003D01*
X32324745Y-31202003D02*
X32324745Y-31352003D01*
X32249745Y-31277003D02*
X32399745Y-31277003D01*
X32483495Y-22375503D02*
X32483495Y-22525503D01*
X32408495Y-22450503D02*
X32558495Y-22450503D01*
X32483495Y-25233003D02*
X32483495Y-25383003D01*
X32408495Y-25308003D02*
X32558495Y-25308003D01*
X32562870Y-33107003D02*
X32562870Y-33257003D01*
X32487870Y-33182003D02*
X32637870Y-33182003D01*
X32800995Y-27392003D02*
X32800995Y-27542003D01*
X32725995Y-27467003D02*
X32875995Y-27467003D01*
X32959745Y-30948003D02*
X32959745Y-31098003D01*
X32884745Y-31023003D02*
X33034745Y-31023003D01*
X33197870Y-32853003D02*
X33197870Y-33003003D01*
X33122870Y-32928003D02*
X33272870Y-32928003D01*
X33277245Y-29297003D02*
X33277245Y-29447003D01*
X33202245Y-29372003D02*
X33352245Y-29372003D01*
X33435995Y-27138003D02*
X33435995Y-27288003D01*
X33360995Y-27213003D02*
X33510995Y-27213003D01*
X33748495Y-22629503D02*
X33748495Y-22779503D01*
X33673495Y-22704503D02*
X33823495Y-22704503D01*
X33753495Y-25487003D02*
X33753495Y-25637003D01*
X33678495Y-25562003D02*
X33828495Y-25562003D01*
X33912245Y-29043003D02*
X33912245Y-29193003D01*
X33837245Y-29118003D02*
X33987245Y-29118003D01*
X34383495Y-22375503D02*
X34383495Y-22525503D01*
X34308495Y-22450503D02*
X34458495Y-22450503D01*
X34388495Y-25233003D02*
X34388495Y-25383003D01*
X34313495Y-25308003D02*
X34463495Y-25308003D01*
X34705995Y-27392003D02*
X34705995Y-27542003D01*
X34630995Y-27467003D02*
X34780995Y-27467003D01*
X34944120Y-33107003D02*
X34944120Y-33257003D01*
X34869120Y-33182003D02*
X35019120Y-33182003D01*
X35340995Y-27138003D02*
X35340995Y-27288003D01*
X35265995Y-27213003D02*
X35415995Y-27213003D01*
X35579120Y-32853003D02*
X35579120Y-33003003D01*
X35504120Y-32928003D02*
X35654120Y-32928003D01*
X35648495Y-22629503D02*
X35648495Y-22779503D01*
X35573495Y-22704503D02*
X35723495Y-22704503D01*
X35896620Y-31202003D02*
X35896620Y-31352003D01*
X35821620Y-31277003D02*
X35971620Y-31277003D01*
X36283495Y-22375503D02*
X36283495Y-22525503D01*
X36208495Y-22450503D02*
X36358495Y-22450503D01*
X36372870Y-29297003D02*
X36372870Y-29447003D01*
X36297870Y-29372003D02*
X36447870Y-29372003D01*
X36531620Y-30948003D02*
X36531620Y-31098003D01*
X36456620Y-31023003D02*
X36606620Y-31023003D01*
X36610995Y-25487003D02*
X36610995Y-25637003D01*
X36535995Y-25562003D02*
X36685995Y-25562003D01*
X37007870Y-29043003D02*
X37007870Y-29193003D01*
X36932870Y-29118003D02*
X37082870Y-29118003D01*
X37087245Y-27392003D02*
X37087245Y-27542003D01*
X37012245Y-27467003D02*
X37162245Y-27467003D01*
X37245995Y-25233003D02*
X37245995Y-25383003D01*
X37170995Y-25308003D02*
X37320995Y-25308003D01*
X37325370Y-33107003D02*
X37325370Y-33257003D01*
X37250370Y-33182003D02*
X37400370Y-33182003D01*
X37561495Y-22629503D02*
X37561495Y-22779503D01*
X37486495Y-22704503D02*
X37636495Y-22704503D01*
X37722245Y-27138003D02*
X37722245Y-27288003D01*
X37647245Y-27213003D02*
X37797245Y-27213003D01*
X37960370Y-32853003D02*
X37960370Y-33003003D01*
X37885370Y-32928003D02*
X38035370Y-32928003D01*
X38196495Y-22375503D02*
X38196495Y-22525503D01*
X38121495Y-22450503D02*
X38271495Y-22450503D01*
X39944745Y-22629503D02*
X39944745Y-22779503D01*
X39869745Y-22704503D02*
X40019745Y-22704503D01*
X39944745Y-25487003D02*
X39944745Y-25637003D01*
X39869745Y-25562003D02*
X40019745Y-25562003D01*
X39944745Y-27392003D02*
X39944745Y-27542003D01*
X39869745Y-27467003D02*
X40019745Y-27467003D01*
X39944745Y-33107003D02*
X39944745Y-33257003D01*
X39869745Y-33182003D02*
X40019745Y-33182003D01*
X40579745Y-22375503D02*
X40579745Y-22525503D01*
X40504745Y-22450503D02*
X40654745Y-22450503D01*
X40579745Y-25233003D02*
X40579745Y-25383003D01*
X40504745Y-25308003D02*
X40654745Y-25308003D01*
X40579745Y-27138003D02*
X40579745Y-27288003D01*
X40504745Y-27213003D02*
X40654745Y-27213003D01*
X40579745Y-32853003D02*
X40579745Y-33003003D01*
X40504745Y-32928003D02*
X40654745Y-32928003D01*
X41849745Y-22629503D02*
X41849745Y-22779503D01*
X41774745Y-22704503D02*
X41924745Y-22704503D01*
X41849745Y-25487003D02*
X41849745Y-25637003D01*
X41774745Y-25562003D02*
X41924745Y-25562003D01*
X41849745Y-27392003D02*
X41849745Y-27542003D01*
X41774745Y-27467003D02*
X41924745Y-27467003D01*
X41849745Y-31202003D02*
X41849745Y-31352003D01*
X41774745Y-31277003D02*
X41924745Y-31277003D01*
X41849745Y-33107003D02*
X41849745Y-33257003D01*
X41774745Y-33182003D02*
X41924745Y-33182003D01*
X42484745Y-22375503D02*
X42484745Y-22525503D01*
X42409745Y-22450503D02*
X42559745Y-22450503D01*
X42484745Y-25233003D02*
X42484745Y-25383003D01*
X42409745Y-25308003D02*
X42559745Y-25308003D01*
X42484745Y-27138003D02*
X42484745Y-27288003D01*
X42409745Y-27213003D02*
X42559745Y-27213003D01*
X42484745Y-30948003D02*
X42484745Y-31098003D01*
X42409745Y-31023003D02*
X42559745Y-31023003D01*
X42484745Y-32853003D02*
X42484745Y-33003003D01*
X42409745Y-32928003D02*
X42559745Y-32928003D01*
X43754745Y-22629503D02*
X43754745Y-22779503D01*
X43679745Y-22704503D02*
X43829745Y-22704503D01*
X43754745Y-25487003D02*
X43754745Y-25637003D01*
X43679745Y-25562003D02*
X43829745Y-25562003D01*
X43754745Y-27392003D02*
X43754745Y-27542003D01*
X43679745Y-27467003D02*
X43829745Y-27467003D01*
X43754745Y-33107003D02*
X43754745Y-33257003D01*
X43679745Y-33182003D02*
X43829745Y-33182003D01*
X44389745Y-22375503D02*
X44389745Y-22525503D01*
X44314745Y-22450503D02*
X44464745Y-22450503D01*
X44389745Y-25233003D02*
X44389745Y-25383003D01*
X44314745Y-25308003D02*
X44464745Y-25308003D01*
X44389745Y-27138003D02*
X44389745Y-27288003D01*
X44314745Y-27213003D02*
X44464745Y-27213003D01*
X44389745Y-32853003D02*
X44389745Y-33003003D01*
X44314745Y-32928003D02*
X44464745Y-32928003D01*
X46135995Y-25487003D02*
X46135995Y-25637003D01*
X46060995Y-25562003D02*
X46210995Y-25562003D01*
X46135995Y-27392003D02*
X46135995Y-27542003D01*
X46060995Y-27467003D02*
X46210995Y-27467003D01*
X46135995Y-29297003D02*
X46135995Y-29447003D01*
X46060995Y-29372003D02*
X46210995Y-29372003D01*
X46135995Y-31202003D02*
X46135995Y-31352003D01*
X46060995Y-31277003D02*
X46210995Y-31277003D01*
X46770995Y-25233003D02*
X46770995Y-25383003D01*
X46695995Y-25308003D02*
X46845995Y-25308003D01*
X46770995Y-27138003D02*
X46770995Y-27288003D01*
X46695995Y-27213003D02*
X46845995Y-27213003D01*
X46770995Y-29043003D02*
X46770995Y-29193003D01*
X46695995Y-29118003D02*
X46845995Y-29118003D01*
X46770995Y-30948003D02*
X46770995Y-31098003D01*
X46695995Y-31023003D02*
X46845995Y-31023003D01*
X47088495Y-33107003D02*
X47088495Y-33257003D01*
X47013495Y-33182003D02*
X47163495Y-33182003D01*
X47723495Y-32853003D02*
X47723495Y-33003003D01*
X47648495Y-32928003D02*
X47798495Y-32928003D01*
X48040995Y-25487003D02*
X48040995Y-25637003D01*
X47965995Y-25562003D02*
X48115995Y-25562003D01*
X48040995Y-27392003D02*
X48040995Y-27542003D01*
X47965995Y-27467003D02*
X48115995Y-27467003D01*
X48040995Y-29297003D02*
X48040995Y-29447003D01*
X47965995Y-29372003D02*
X48115995Y-29372003D01*
X48040995Y-31202003D02*
X48040995Y-31352003D01*
X47965995Y-31277003D02*
X48115995Y-31277003D01*
X48675995Y-25233003D02*
X48675995Y-25383003D01*
X48600995Y-25308003D02*
X48750995Y-25308003D01*
X48675995Y-27138003D02*
X48675995Y-27288003D01*
X48600995Y-27213003D02*
X48750995Y-27213003D01*
X48675995Y-29043003D02*
X48675995Y-29193003D01*
X48600995Y-29118003D02*
X48750995Y-29118003D01*
X48675995Y-30948003D02*
X48675995Y-31098003D01*
X48600995Y-31023003D02*
X48750995Y-31023003D01*
X49945995Y-25487003D02*
X49945995Y-25637003D01*
X49870995Y-25562003D02*
X50020995Y-25562003D01*
X49945995Y-27392003D02*
X49945995Y-27542003D01*
X49870995Y-27467003D02*
X50020995Y-27467003D01*
X49945995Y-29297003D02*
X49945995Y-29447003D01*
X49870995Y-29372003D02*
X50020995Y-29372003D01*
X49945995Y-31202003D02*
X49945995Y-31352003D01*
X49870995Y-31277003D02*
X50020995Y-31277003D01*
X49945995Y-33107003D02*
X49945995Y-33257003D01*
X49870995Y-33182003D02*
X50020995Y-33182003D01*
X50580995Y-25233003D02*
X50580995Y-25383003D01*
X50505995Y-25308003D02*
X50655995Y-25308003D01*
X50580995Y-27138003D02*
X50580995Y-27288003D01*
X50505995Y-27213003D02*
X50655995Y-27213003D01*
X50580995Y-29043003D02*
X50580995Y-29193003D01*
X50505995Y-29118003D02*
X50655995Y-29118003D01*
X50580995Y-30948003D02*
X50580995Y-31098003D01*
X50505995Y-31023003D02*
X50655995Y-31023003D01*
X50580995Y-32853003D02*
X50580995Y-33003003D01*
X50505995Y-32928003D02*
X50655995Y-32928003D01*
X51850995Y-25487003D02*
X51850995Y-25637003D01*
X51775995Y-25562003D02*
X51925995Y-25562003D01*
X51850995Y-28344503D02*
X51850995Y-28494503D01*
X51775995Y-28419503D02*
X51925995Y-28419503D01*
X51850995Y-32154503D02*
X51850995Y-32304503D01*
X51775995Y-32229503D02*
X51925995Y-32229503D01*
X52485995Y-25233003D02*
X52485995Y-25383003D01*
X52410995Y-25308003D02*
X52560995Y-25308003D01*
X52485995Y-28090503D02*
X52485995Y-28240503D01*
X52410995Y-28165503D02*
X52560995Y-28165503D01*
X52485995Y-31900503D02*
X52485995Y-32050503D01*
X52410995Y-31975503D02*
X52560995Y-31975503D01*
D11*
X9972359Y-35339299D02*
X9972359Y-35139299D01*
X9972359Y-35139299D02*
X10019978Y-35139299D01*
X10019978Y-35139299D02*
X10048549Y-35148823D01*
X10048549Y-35148823D02*
X10067597Y-35167871D01*
X10067597Y-35167871D02*
X10077121Y-35186918D01*
X10077121Y-35186918D02*
X10086645Y-35225014D01*
X10086645Y-35225014D02*
X10086645Y-35253585D01*
X10086645Y-35253585D02*
X10077121Y-35291680D01*
X10077121Y-35291680D02*
X10067597Y-35310728D01*
X10067597Y-35310728D02*
X10048549Y-35329776D01*
X10048549Y-35329776D02*
X10019978Y-35339299D01*
X10019978Y-35339299D02*
X9972359Y-35339299D01*
X10172359Y-35339299D02*
X10172359Y-35205966D01*
X10172359Y-35244061D02*
X10181883Y-35225014D01*
X10181883Y-35225014D02*
X10191406Y-35215490D01*
X10191406Y-35215490D02*
X10210454Y-35205966D01*
X10210454Y-35205966D02*
X10229502Y-35205966D01*
X10296168Y-35339299D02*
X10296168Y-35205966D01*
X10296168Y-35139299D02*
X10286645Y-35148823D01*
X10286645Y-35148823D02*
X10296168Y-35158347D01*
X10296168Y-35158347D02*
X10305692Y-35148823D01*
X10305692Y-35148823D02*
X10296168Y-35139299D01*
X10296168Y-35139299D02*
X10296168Y-35158347D01*
X10419978Y-35339299D02*
X10400930Y-35329776D01*
X10400930Y-35329776D02*
X10391406Y-35310728D01*
X10391406Y-35310728D02*
X10391406Y-35139299D01*
X10524740Y-35339299D02*
X10505692Y-35329776D01*
X10505692Y-35329776D02*
X10496168Y-35310728D01*
X10496168Y-35310728D02*
X10496168Y-35139299D01*
X10753311Y-35339299D02*
X10753311Y-35139299D01*
X10753311Y-35139299D02*
X10819978Y-35282156D01*
X10819978Y-35282156D02*
X10886645Y-35139299D01*
X10886645Y-35139299D02*
X10886645Y-35339299D01*
X11067597Y-35339299D02*
X11067597Y-35234537D01*
X11067597Y-35234537D02*
X11058073Y-35215490D01*
X11058073Y-35215490D02*
X11039026Y-35205966D01*
X11039026Y-35205966D02*
X11000930Y-35205966D01*
X11000930Y-35205966D02*
X10981883Y-35215490D01*
X11067597Y-35329776D02*
X11048549Y-35339299D01*
X11048549Y-35339299D02*
X11000930Y-35339299D01*
X11000930Y-35339299D02*
X10981883Y-35329776D01*
X10981883Y-35329776D02*
X10972359Y-35310728D01*
X10972359Y-35310728D02*
X10972359Y-35291680D01*
X10972359Y-35291680D02*
X10981883Y-35272633D01*
X10981883Y-35272633D02*
X11000930Y-35263109D01*
X11000930Y-35263109D02*
X11048549Y-35263109D01*
X11048549Y-35263109D02*
X11067597Y-35253585D01*
X11162835Y-35205966D02*
X11162835Y-35405966D01*
X11162835Y-35215490D02*
X11181883Y-35205966D01*
X11181883Y-35205966D02*
X11219978Y-35205966D01*
X11219978Y-35205966D02*
X11239025Y-35215490D01*
X11239025Y-35215490D02*
X11248549Y-35225014D01*
X11248549Y-35225014D02*
X11258073Y-35244061D01*
X11258073Y-35244061D02*
X11258073Y-35301204D01*
X11258073Y-35301204D02*
X11248549Y-35320252D01*
X11248549Y-35320252D02*
X11239025Y-35329776D01*
X11239025Y-35329776D02*
X11219978Y-35339299D01*
X11219978Y-35339299D02*
X11181883Y-35339299D01*
X11181883Y-35339299D02*
X11162835Y-35329776D01*
X11343787Y-35320252D02*
X11353311Y-35329776D01*
X11353311Y-35329776D02*
X11343787Y-35339299D01*
X11343787Y-35339299D02*
X11334264Y-35329776D01*
X11334264Y-35329776D02*
X11343787Y-35320252D01*
X11343787Y-35320252D02*
X11343787Y-35339299D01*
X11343787Y-35215490D02*
X11353311Y-35225014D01*
X11353311Y-35225014D02*
X11343787Y-35234537D01*
X11343787Y-35234537D02*
X11334264Y-35225014D01*
X11334264Y-35225014D02*
X11343787Y-35215490D01*
X11343787Y-35215490D02*
X11343787Y-35234537D01*
D12*
X9681582Y-35652816D02*
X9711582Y-35682816D01*
X9711582Y-35652816D02*
X9681582Y-35682816D01*
D11*
X10010454Y-35559299D02*
X10029502Y-35559299D01*
X10029502Y-35559299D02*
X10048549Y-35568823D01*
X10048549Y-35568823D02*
X10058073Y-35578347D01*
X10058073Y-35578347D02*
X10067597Y-35597395D01*
X10067597Y-35597395D02*
X10077121Y-35635490D01*
X10077121Y-35635490D02*
X10077121Y-35683109D01*
X10077121Y-35683109D02*
X10067597Y-35721204D01*
X10067597Y-35721204D02*
X10058073Y-35740252D01*
X10058073Y-35740252D02*
X10048549Y-35749776D01*
X10048549Y-35749776D02*
X10029502Y-35759299D01*
X10029502Y-35759299D02*
X10010454Y-35759299D01*
X10010454Y-35759299D02*
X9991406Y-35749776D01*
X9991406Y-35749776D02*
X9981883Y-35740252D01*
X9981883Y-35740252D02*
X9972359Y-35721204D01*
X9972359Y-35721204D02*
X9962835Y-35683109D01*
X9962835Y-35683109D02*
X9962835Y-35635490D01*
X9962835Y-35635490D02*
X9972359Y-35597395D01*
X9972359Y-35597395D02*
X9981883Y-35578347D01*
X9981883Y-35578347D02*
X9991406Y-35568823D01*
X9991406Y-35568823D02*
X10010454Y-35559299D01*
X10162835Y-35740252D02*
X10172359Y-35749776D01*
X10172359Y-35749776D02*
X10162835Y-35759299D01*
X10162835Y-35759299D02*
X10153311Y-35749776D01*
X10153311Y-35749776D02*
X10162835Y-35740252D01*
X10162835Y-35740252D02*
X10162835Y-35759299D01*
X10239026Y-35559299D02*
X10362835Y-35559299D01*
X10362835Y-35559299D02*
X10296168Y-35635490D01*
X10296168Y-35635490D02*
X10324740Y-35635490D01*
X10324740Y-35635490D02*
X10343787Y-35645014D01*
X10343787Y-35645014D02*
X10353311Y-35654537D01*
X10353311Y-35654537D02*
X10362835Y-35673585D01*
X10362835Y-35673585D02*
X10362835Y-35721204D01*
X10362835Y-35721204D02*
X10353311Y-35740252D01*
X10353311Y-35740252D02*
X10343787Y-35749776D01*
X10343787Y-35749776D02*
X10324740Y-35759299D01*
X10324740Y-35759299D02*
X10267597Y-35759299D01*
X10267597Y-35759299D02*
X10248549Y-35749776D01*
X10248549Y-35749776D02*
X10239026Y-35740252D01*
X10486645Y-35559299D02*
X10505692Y-35559299D01*
X10505692Y-35559299D02*
X10524740Y-35568823D01*
X10524740Y-35568823D02*
X10534264Y-35578347D01*
X10534264Y-35578347D02*
X10543787Y-35597395D01*
X10543787Y-35597395D02*
X10553311Y-35635490D01*
X10553311Y-35635490D02*
X10553311Y-35683109D01*
X10553311Y-35683109D02*
X10543787Y-35721204D01*
X10543787Y-35721204D02*
X10534264Y-35740252D01*
X10534264Y-35740252D02*
X10524740Y-35749776D01*
X10524740Y-35749776D02*
X10505692Y-35759299D01*
X10505692Y-35759299D02*
X10486645Y-35759299D01*
X10486645Y-35759299D02*
X10467597Y-35749776D01*
X10467597Y-35749776D02*
X10458073Y-35740252D01*
X10458073Y-35740252D02*
X10448549Y-35721204D01*
X10448549Y-35721204D02*
X10439026Y-35683109D01*
X10439026Y-35683109D02*
X10439026Y-35635490D01*
X10439026Y-35635490D02*
X10448549Y-35597395D01*
X10448549Y-35597395D02*
X10458073Y-35578347D01*
X10458073Y-35578347D02*
X10467597Y-35568823D01*
X10467597Y-35568823D02*
X10486645Y-35559299D01*
X10677121Y-35559299D02*
X10696168Y-35559299D01*
X10696168Y-35559299D02*
X10715216Y-35568823D01*
X10715216Y-35568823D02*
X10724740Y-35578347D01*
X10724740Y-35578347D02*
X10734264Y-35597395D01*
X10734264Y-35597395D02*
X10743787Y-35635490D01*
X10743787Y-35635490D02*
X10743787Y-35683109D01*
X10743787Y-35683109D02*
X10734264Y-35721204D01*
X10734264Y-35721204D02*
X10724740Y-35740252D01*
X10724740Y-35740252D02*
X10715216Y-35749776D01*
X10715216Y-35749776D02*
X10696168Y-35759299D01*
X10696168Y-35759299D02*
X10677121Y-35759299D01*
X10677121Y-35759299D02*
X10658073Y-35749776D01*
X10658073Y-35749776D02*
X10648549Y-35740252D01*
X10648549Y-35740252D02*
X10639026Y-35721204D01*
X10639026Y-35721204D02*
X10629502Y-35683109D01*
X10629502Y-35683109D02*
X10629502Y-35635490D01*
X10629502Y-35635490D02*
X10639026Y-35597395D01*
X10639026Y-35597395D02*
X10648549Y-35578347D01*
X10648549Y-35578347D02*
X10658073Y-35568823D01*
X10658073Y-35568823D02*
X10677121Y-35559299D01*
X10829502Y-35759299D02*
X10829502Y-35625966D01*
X10829502Y-35645014D02*
X10839026Y-35635490D01*
X10839026Y-35635490D02*
X10858073Y-35625966D01*
X10858073Y-35625966D02*
X10886645Y-35625966D01*
X10886645Y-35625966D02*
X10905692Y-35635490D01*
X10905692Y-35635490D02*
X10915216Y-35654537D01*
X10915216Y-35654537D02*
X10915216Y-35759299D01*
X10915216Y-35654537D02*
X10924740Y-35635490D01*
X10924740Y-35635490D02*
X10943787Y-35625966D01*
X10943787Y-35625966D02*
X10972359Y-35625966D01*
X10972359Y-35625966D02*
X10991407Y-35635490D01*
X10991407Y-35635490D02*
X11000930Y-35654537D01*
X11000930Y-35654537D02*
X11000930Y-35759299D01*
X11096168Y-35759299D02*
X11096168Y-35625966D01*
X11096168Y-35645014D02*
X11105692Y-35635490D01*
X11105692Y-35635490D02*
X11124740Y-35625966D01*
X11124740Y-35625966D02*
X11153311Y-35625966D01*
X11153311Y-35625966D02*
X11172359Y-35635490D01*
X11172359Y-35635490D02*
X11181883Y-35654537D01*
X11181883Y-35654537D02*
X11181883Y-35759299D01*
X11181883Y-35654537D02*
X11191406Y-35635490D01*
X11191406Y-35635490D02*
X11210454Y-35625966D01*
X11210454Y-35625966D02*
X11239025Y-35625966D01*
X11239025Y-35625966D02*
X11258073Y-35635490D01*
X11258073Y-35635490D02*
X11267597Y-35654537D01*
X11267597Y-35654537D02*
X11267597Y-35759299D01*
X11658073Y-35549776D02*
X11486645Y-35806918D01*
X11915216Y-35559299D02*
X11934264Y-35559299D01*
X11934264Y-35559299D02*
X11953311Y-35568823D01*
X11953311Y-35568823D02*
X11962835Y-35578347D01*
X11962835Y-35578347D02*
X11972359Y-35597395D01*
X11972359Y-35597395D02*
X11981883Y-35635490D01*
X11981883Y-35635490D02*
X11981883Y-35683109D01*
X11981883Y-35683109D02*
X11972359Y-35721204D01*
X11972359Y-35721204D02*
X11962835Y-35740252D01*
X11962835Y-35740252D02*
X11953311Y-35749776D01*
X11953311Y-35749776D02*
X11934264Y-35759299D01*
X11934264Y-35759299D02*
X11915216Y-35759299D01*
X11915216Y-35759299D02*
X11896168Y-35749776D01*
X11896168Y-35749776D02*
X11886645Y-35740252D01*
X11886645Y-35740252D02*
X11877121Y-35721204D01*
X11877121Y-35721204D02*
X11867597Y-35683109D01*
X11867597Y-35683109D02*
X11867597Y-35635490D01*
X11867597Y-35635490D02*
X11877121Y-35597395D01*
X11877121Y-35597395D02*
X11886645Y-35578347D01*
X11886645Y-35578347D02*
X11896168Y-35568823D01*
X11896168Y-35568823D02*
X11915216Y-35559299D01*
X12067597Y-35740252D02*
X12077121Y-35749776D01*
X12077121Y-35749776D02*
X12067597Y-35759299D01*
X12067597Y-35759299D02*
X12058073Y-35749776D01*
X12058073Y-35749776D02*
X12067597Y-35740252D01*
X12067597Y-35740252D02*
X12067597Y-35759299D01*
X12200930Y-35559299D02*
X12219978Y-35559299D01*
X12219978Y-35559299D02*
X12239026Y-35568823D01*
X12239026Y-35568823D02*
X12248549Y-35578347D01*
X12248549Y-35578347D02*
X12258073Y-35597395D01*
X12258073Y-35597395D02*
X12267597Y-35635490D01*
X12267597Y-35635490D02*
X12267597Y-35683109D01*
X12267597Y-35683109D02*
X12258073Y-35721204D01*
X12258073Y-35721204D02*
X12248549Y-35740252D01*
X12248549Y-35740252D02*
X12239026Y-35749776D01*
X12239026Y-35749776D02*
X12219978Y-35759299D01*
X12219978Y-35759299D02*
X12200930Y-35759299D01*
X12200930Y-35759299D02*
X12181883Y-35749776D01*
X12181883Y-35749776D02*
X12172359Y-35740252D01*
X12172359Y-35740252D02*
X12162835Y-35721204D01*
X12162835Y-35721204D02*
X12153311Y-35683109D01*
X12153311Y-35683109D02*
X12153311Y-35635490D01*
X12153311Y-35635490D02*
X12162835Y-35597395D01*
X12162835Y-35597395D02*
X12172359Y-35578347D01*
X12172359Y-35578347D02*
X12181883Y-35568823D01*
X12181883Y-35568823D02*
X12200930Y-35559299D01*
X12458073Y-35759299D02*
X12343788Y-35759299D01*
X12400930Y-35759299D02*
X12400930Y-35559299D01*
X12400930Y-35559299D02*
X12381883Y-35587871D01*
X12381883Y-35587871D02*
X12362835Y-35606918D01*
X12362835Y-35606918D02*
X12343788Y-35616442D01*
X12648549Y-35759299D02*
X12534264Y-35759299D01*
X12591407Y-35759299D02*
X12591407Y-35559299D01*
X12591407Y-35559299D02*
X12572359Y-35587871D01*
X12572359Y-35587871D02*
X12553311Y-35606918D01*
X12553311Y-35606918D02*
X12534264Y-35616442D01*
X12762835Y-35645014D02*
X12743788Y-35635490D01*
X12743788Y-35635490D02*
X12734264Y-35625966D01*
X12734264Y-35625966D02*
X12724740Y-35606918D01*
X12724740Y-35606918D02*
X12724740Y-35597395D01*
X12724740Y-35597395D02*
X12734264Y-35578347D01*
X12734264Y-35578347D02*
X12743788Y-35568823D01*
X12743788Y-35568823D02*
X12762835Y-35559299D01*
X12762835Y-35559299D02*
X12800930Y-35559299D01*
X12800930Y-35559299D02*
X12819978Y-35568823D01*
X12819978Y-35568823D02*
X12829502Y-35578347D01*
X12829502Y-35578347D02*
X12839026Y-35597395D01*
X12839026Y-35597395D02*
X12839026Y-35606918D01*
X12839026Y-35606918D02*
X12829502Y-35625966D01*
X12829502Y-35625966D02*
X12819978Y-35635490D01*
X12819978Y-35635490D02*
X12800930Y-35645014D01*
X12800930Y-35645014D02*
X12762835Y-35645014D01*
X12762835Y-35645014D02*
X12743788Y-35654537D01*
X12743788Y-35654537D02*
X12734264Y-35664061D01*
X12734264Y-35664061D02*
X12724740Y-35683109D01*
X12724740Y-35683109D02*
X12724740Y-35721204D01*
X12724740Y-35721204D02*
X12734264Y-35740252D01*
X12734264Y-35740252D02*
X12743788Y-35749776D01*
X12743788Y-35749776D02*
X12762835Y-35759299D01*
X12762835Y-35759299D02*
X12800930Y-35759299D01*
X12800930Y-35759299D02*
X12819978Y-35749776D01*
X12819978Y-35749776D02*
X12829502Y-35740252D01*
X12829502Y-35740252D02*
X12839026Y-35721204D01*
X12839026Y-35721204D02*
X12839026Y-35683109D01*
X12839026Y-35683109D02*
X12829502Y-35664061D01*
X12829502Y-35664061D02*
X12819978Y-35654537D01*
X12819978Y-35654537D02*
X12800930Y-35645014D01*
X12915216Y-35559299D02*
X12915216Y-35597395D01*
X12991407Y-35559299D02*
X12991407Y-35597395D01*
X13286645Y-35835490D02*
X13277121Y-35825966D01*
X13277121Y-35825966D02*
X13258073Y-35797395D01*
X13258073Y-35797395D02*
X13248550Y-35778347D01*
X13248550Y-35778347D02*
X13239026Y-35749776D01*
X13239026Y-35749776D02*
X13229502Y-35702156D01*
X13229502Y-35702156D02*
X13229502Y-35664061D01*
X13229502Y-35664061D02*
X13239026Y-35616442D01*
X13239026Y-35616442D02*
X13248550Y-35587871D01*
X13248550Y-35587871D02*
X13258073Y-35568823D01*
X13258073Y-35568823D02*
X13277121Y-35540252D01*
X13277121Y-35540252D02*
X13286645Y-35530728D01*
X13467597Y-35759299D02*
X13353311Y-35759299D01*
X13410454Y-35759299D02*
X13410454Y-35559299D01*
X13410454Y-35559299D02*
X13391407Y-35587871D01*
X13391407Y-35587871D02*
X13372359Y-35606918D01*
X13372359Y-35606918D02*
X13353311Y-35616442D01*
X13581883Y-35645014D02*
X13562835Y-35635490D01*
X13562835Y-35635490D02*
X13553311Y-35625966D01*
X13553311Y-35625966D02*
X13543788Y-35606918D01*
X13543788Y-35606918D02*
X13543788Y-35597395D01*
X13543788Y-35597395D02*
X13553311Y-35578347D01*
X13553311Y-35578347D02*
X13562835Y-35568823D01*
X13562835Y-35568823D02*
X13581883Y-35559299D01*
X13581883Y-35559299D02*
X13619978Y-35559299D01*
X13619978Y-35559299D02*
X13639026Y-35568823D01*
X13639026Y-35568823D02*
X13648550Y-35578347D01*
X13648550Y-35578347D02*
X13658073Y-35597395D01*
X13658073Y-35597395D02*
X13658073Y-35606918D01*
X13658073Y-35606918D02*
X13648550Y-35625966D01*
X13648550Y-35625966D02*
X13639026Y-35635490D01*
X13639026Y-35635490D02*
X13619978Y-35645014D01*
X13619978Y-35645014D02*
X13581883Y-35645014D01*
X13581883Y-35645014D02*
X13562835Y-35654537D01*
X13562835Y-35654537D02*
X13553311Y-35664061D01*
X13553311Y-35664061D02*
X13543788Y-35683109D01*
X13543788Y-35683109D02*
X13543788Y-35721204D01*
X13543788Y-35721204D02*
X13553311Y-35740252D01*
X13553311Y-35740252D02*
X13562835Y-35749776D01*
X13562835Y-35749776D02*
X13581883Y-35759299D01*
X13581883Y-35759299D02*
X13619978Y-35759299D01*
X13619978Y-35759299D02*
X13639026Y-35749776D01*
X13639026Y-35749776D02*
X13648550Y-35740252D01*
X13648550Y-35740252D02*
X13658073Y-35721204D01*
X13658073Y-35721204D02*
X13658073Y-35683109D01*
X13658073Y-35683109D02*
X13648550Y-35664061D01*
X13648550Y-35664061D02*
X13639026Y-35654537D01*
X13639026Y-35654537D02*
X13619978Y-35645014D01*
X13848550Y-35759299D02*
X13734264Y-35759299D01*
X13791407Y-35759299D02*
X13791407Y-35559299D01*
X13791407Y-35559299D02*
X13772359Y-35587871D01*
X13772359Y-35587871D02*
X13753311Y-35606918D01*
X13753311Y-35606918D02*
X13734264Y-35616442D01*
X14086645Y-35759299D02*
X14086645Y-35559299D01*
X14172359Y-35759299D02*
X14172359Y-35654537D01*
X14172359Y-35654537D02*
X14162835Y-35635490D01*
X14162835Y-35635490D02*
X14143788Y-35625966D01*
X14143788Y-35625966D02*
X14115216Y-35625966D01*
X14115216Y-35625966D02*
X14096169Y-35635490D01*
X14096169Y-35635490D02*
X14086645Y-35645014D01*
X14296169Y-35759299D02*
X14277121Y-35749776D01*
X14277121Y-35749776D02*
X14267597Y-35740252D01*
X14267597Y-35740252D02*
X14258073Y-35721204D01*
X14258073Y-35721204D02*
X14258073Y-35664061D01*
X14258073Y-35664061D02*
X14267597Y-35645014D01*
X14267597Y-35645014D02*
X14277121Y-35635490D01*
X14277121Y-35635490D02*
X14296169Y-35625966D01*
X14296169Y-35625966D02*
X14324740Y-35625966D01*
X14324740Y-35625966D02*
X14343788Y-35635490D01*
X14343788Y-35635490D02*
X14353312Y-35645014D01*
X14353312Y-35645014D02*
X14362835Y-35664061D01*
X14362835Y-35664061D02*
X14362835Y-35721204D01*
X14362835Y-35721204D02*
X14353312Y-35740252D01*
X14353312Y-35740252D02*
X14343788Y-35749776D01*
X14343788Y-35749776D02*
X14324740Y-35759299D01*
X14324740Y-35759299D02*
X14296169Y-35759299D01*
X14477121Y-35759299D02*
X14458073Y-35749776D01*
X14458073Y-35749776D02*
X14448550Y-35730728D01*
X14448550Y-35730728D02*
X14448550Y-35559299D01*
X14629502Y-35749776D02*
X14610454Y-35759299D01*
X14610454Y-35759299D02*
X14572359Y-35759299D01*
X14572359Y-35759299D02*
X14553312Y-35749776D01*
X14553312Y-35749776D02*
X14543788Y-35730728D01*
X14543788Y-35730728D02*
X14543788Y-35654537D01*
X14543788Y-35654537D02*
X14553312Y-35635490D01*
X14553312Y-35635490D02*
X14572359Y-35625966D01*
X14572359Y-35625966D02*
X14610454Y-35625966D01*
X14610454Y-35625966D02*
X14629502Y-35635490D01*
X14629502Y-35635490D02*
X14639026Y-35654537D01*
X14639026Y-35654537D02*
X14639026Y-35673585D01*
X14639026Y-35673585D02*
X14543788Y-35692633D01*
X14715216Y-35749776D02*
X14734264Y-35759299D01*
X14734264Y-35759299D02*
X14772359Y-35759299D01*
X14772359Y-35759299D02*
X14791407Y-35749776D01*
X14791407Y-35749776D02*
X14800931Y-35730728D01*
X14800931Y-35730728D02*
X14800931Y-35721204D01*
X14800931Y-35721204D02*
X14791407Y-35702156D01*
X14791407Y-35702156D02*
X14772359Y-35692633D01*
X14772359Y-35692633D02*
X14743788Y-35692633D01*
X14743788Y-35692633D02*
X14724740Y-35683109D01*
X14724740Y-35683109D02*
X14715216Y-35664061D01*
X14715216Y-35664061D02*
X14715216Y-35654537D01*
X14715216Y-35654537D02*
X14724740Y-35635490D01*
X14724740Y-35635490D02*
X14743788Y-35625966D01*
X14743788Y-35625966D02*
X14772359Y-35625966D01*
X14772359Y-35625966D02*
X14791407Y-35635490D01*
X14867597Y-35835490D02*
X14877121Y-35825966D01*
X14877121Y-35825966D02*
X14896169Y-35797395D01*
X14896169Y-35797395D02*
X14905693Y-35778347D01*
X14905693Y-35778347D02*
X14915216Y-35749776D01*
X14915216Y-35749776D02*
X14924740Y-35702156D01*
X14924740Y-35702156D02*
X14924740Y-35664061D01*
X14924740Y-35664061D02*
X14915216Y-35616442D01*
X14915216Y-35616442D02*
X14905693Y-35587871D01*
X14905693Y-35587871D02*
X14896169Y-35568823D01*
X14896169Y-35568823D02*
X14877121Y-35540252D01*
X14877121Y-35540252D02*
X14867597Y-35530728D01*
D12*
X9711582Y-35931816D02*
G75*
G02*
X9616582Y-35931816I-47500J0D01*
G01*
X9616582Y-35931816D02*
G75*
G02*
X9711582Y-35931816I47500J0D01*
G01*
D11*
X10010454Y-35823299D02*
X10029502Y-35823299D01*
X10029502Y-35823299D02*
X10048549Y-35832823D01*
X10048549Y-35832823D02*
X10058073Y-35842347D01*
X10058073Y-35842347D02*
X10067597Y-35861395D01*
X10067597Y-35861395D02*
X10077121Y-35899490D01*
X10077121Y-35899490D02*
X10077121Y-35947109D01*
X10077121Y-35947109D02*
X10067597Y-35985204D01*
X10067597Y-35985204D02*
X10058073Y-36004252D01*
X10058073Y-36004252D02*
X10048549Y-36013776D01*
X10048549Y-36013776D02*
X10029502Y-36023299D01*
X10029502Y-36023299D02*
X10010454Y-36023299D01*
X10010454Y-36023299D02*
X9991406Y-36013776D01*
X9991406Y-36013776D02*
X9981883Y-36004252D01*
X9981883Y-36004252D02*
X9972359Y-35985204D01*
X9972359Y-35985204D02*
X9962835Y-35947109D01*
X9962835Y-35947109D02*
X9962835Y-35899490D01*
X9962835Y-35899490D02*
X9972359Y-35861395D01*
X9972359Y-35861395D02*
X9981883Y-35842347D01*
X9981883Y-35842347D02*
X9991406Y-35832823D01*
X9991406Y-35832823D02*
X10010454Y-35823299D01*
X10162835Y-36004252D02*
X10172359Y-36013776D01*
X10172359Y-36013776D02*
X10162835Y-36023299D01*
X10162835Y-36023299D02*
X10153311Y-36013776D01*
X10153311Y-36013776D02*
X10162835Y-36004252D01*
X10162835Y-36004252D02*
X10162835Y-36023299D01*
X10267597Y-36023299D02*
X10305692Y-36023299D01*
X10305692Y-36023299D02*
X10324740Y-36013776D01*
X10324740Y-36013776D02*
X10334264Y-36004252D01*
X10334264Y-36004252D02*
X10353311Y-35975680D01*
X10353311Y-35975680D02*
X10362835Y-35937585D01*
X10362835Y-35937585D02*
X10362835Y-35861395D01*
X10362835Y-35861395D02*
X10353311Y-35842347D01*
X10353311Y-35842347D02*
X10343787Y-35832823D01*
X10343787Y-35832823D02*
X10324740Y-35823299D01*
X10324740Y-35823299D02*
X10286645Y-35823299D01*
X10286645Y-35823299D02*
X10267597Y-35832823D01*
X10267597Y-35832823D02*
X10258073Y-35842347D01*
X10258073Y-35842347D02*
X10248549Y-35861395D01*
X10248549Y-35861395D02*
X10248549Y-35909014D01*
X10248549Y-35909014D02*
X10258073Y-35928061D01*
X10258073Y-35928061D02*
X10267597Y-35937585D01*
X10267597Y-35937585D02*
X10286645Y-35947109D01*
X10286645Y-35947109D02*
X10324740Y-35947109D01*
X10324740Y-35947109D02*
X10343787Y-35937585D01*
X10343787Y-35937585D02*
X10353311Y-35928061D01*
X10353311Y-35928061D02*
X10362835Y-35909014D01*
X10543787Y-35823299D02*
X10448549Y-35823299D01*
X10448549Y-35823299D02*
X10439026Y-35918537D01*
X10439026Y-35918537D02*
X10448549Y-35909014D01*
X10448549Y-35909014D02*
X10467597Y-35899490D01*
X10467597Y-35899490D02*
X10515216Y-35899490D01*
X10515216Y-35899490D02*
X10534264Y-35909014D01*
X10534264Y-35909014D02*
X10543787Y-35918537D01*
X10543787Y-35918537D02*
X10553311Y-35937585D01*
X10553311Y-35937585D02*
X10553311Y-35985204D01*
X10553311Y-35985204D02*
X10543787Y-36004252D01*
X10543787Y-36004252D02*
X10534264Y-36013776D01*
X10534264Y-36013776D02*
X10515216Y-36023299D01*
X10515216Y-36023299D02*
X10467597Y-36023299D01*
X10467597Y-36023299D02*
X10448549Y-36013776D01*
X10448549Y-36013776D02*
X10439026Y-36004252D01*
X10677121Y-35823299D02*
X10696168Y-35823299D01*
X10696168Y-35823299D02*
X10715216Y-35832823D01*
X10715216Y-35832823D02*
X10724740Y-35842347D01*
X10724740Y-35842347D02*
X10734264Y-35861395D01*
X10734264Y-35861395D02*
X10743787Y-35899490D01*
X10743787Y-35899490D02*
X10743787Y-35947109D01*
X10743787Y-35947109D02*
X10734264Y-35985204D01*
X10734264Y-35985204D02*
X10724740Y-36004252D01*
X10724740Y-36004252D02*
X10715216Y-36013776D01*
X10715216Y-36013776D02*
X10696168Y-36023299D01*
X10696168Y-36023299D02*
X10677121Y-36023299D01*
X10677121Y-36023299D02*
X10658073Y-36013776D01*
X10658073Y-36013776D02*
X10648549Y-36004252D01*
X10648549Y-36004252D02*
X10639026Y-35985204D01*
X10639026Y-35985204D02*
X10629502Y-35947109D01*
X10629502Y-35947109D02*
X10629502Y-35899490D01*
X10629502Y-35899490D02*
X10639026Y-35861395D01*
X10639026Y-35861395D02*
X10648549Y-35842347D01*
X10648549Y-35842347D02*
X10658073Y-35832823D01*
X10658073Y-35832823D02*
X10677121Y-35823299D01*
X10829502Y-36023299D02*
X10829502Y-35889966D01*
X10829502Y-35909014D02*
X10839026Y-35899490D01*
X10839026Y-35899490D02*
X10858073Y-35889966D01*
X10858073Y-35889966D02*
X10886645Y-35889966D01*
X10886645Y-35889966D02*
X10905692Y-35899490D01*
X10905692Y-35899490D02*
X10915216Y-35918537D01*
X10915216Y-35918537D02*
X10915216Y-36023299D01*
X10915216Y-35918537D02*
X10924740Y-35899490D01*
X10924740Y-35899490D02*
X10943787Y-35889966D01*
X10943787Y-35889966D02*
X10972359Y-35889966D01*
X10972359Y-35889966D02*
X10991407Y-35899490D01*
X10991407Y-35899490D02*
X11000930Y-35918537D01*
X11000930Y-35918537D02*
X11000930Y-36023299D01*
X11096168Y-36023299D02*
X11096168Y-35889966D01*
X11096168Y-35909014D02*
X11105692Y-35899490D01*
X11105692Y-35899490D02*
X11124740Y-35889966D01*
X11124740Y-35889966D02*
X11153311Y-35889966D01*
X11153311Y-35889966D02*
X11172359Y-35899490D01*
X11172359Y-35899490D02*
X11181883Y-35918537D01*
X11181883Y-35918537D02*
X11181883Y-36023299D01*
X11181883Y-35918537D02*
X11191406Y-35899490D01*
X11191406Y-35899490D02*
X11210454Y-35889966D01*
X11210454Y-35889966D02*
X11239025Y-35889966D01*
X11239025Y-35889966D02*
X11258073Y-35899490D01*
X11258073Y-35899490D02*
X11267597Y-35918537D01*
X11267597Y-35918537D02*
X11267597Y-36023299D01*
X11658073Y-35813776D02*
X11486645Y-36070918D01*
X11915216Y-35823299D02*
X11934264Y-35823299D01*
X11934264Y-35823299D02*
X11953311Y-35832823D01*
X11953311Y-35832823D02*
X11962835Y-35842347D01*
X11962835Y-35842347D02*
X11972359Y-35861395D01*
X11972359Y-35861395D02*
X11981883Y-35899490D01*
X11981883Y-35899490D02*
X11981883Y-35947109D01*
X11981883Y-35947109D02*
X11972359Y-35985204D01*
X11972359Y-35985204D02*
X11962835Y-36004252D01*
X11962835Y-36004252D02*
X11953311Y-36013776D01*
X11953311Y-36013776D02*
X11934264Y-36023299D01*
X11934264Y-36023299D02*
X11915216Y-36023299D01*
X11915216Y-36023299D02*
X11896168Y-36013776D01*
X11896168Y-36013776D02*
X11886645Y-36004252D01*
X11886645Y-36004252D02*
X11877121Y-35985204D01*
X11877121Y-35985204D02*
X11867597Y-35947109D01*
X11867597Y-35947109D02*
X11867597Y-35899490D01*
X11867597Y-35899490D02*
X11877121Y-35861395D01*
X11877121Y-35861395D02*
X11886645Y-35842347D01*
X11886645Y-35842347D02*
X11896168Y-35832823D01*
X11896168Y-35832823D02*
X11915216Y-35823299D01*
X12067597Y-36004252D02*
X12077121Y-36013776D01*
X12077121Y-36013776D02*
X12067597Y-36023299D01*
X12067597Y-36023299D02*
X12058073Y-36013776D01*
X12058073Y-36013776D02*
X12067597Y-36004252D01*
X12067597Y-36004252D02*
X12067597Y-36023299D01*
X12200930Y-35823299D02*
X12219978Y-35823299D01*
X12219978Y-35823299D02*
X12239026Y-35832823D01*
X12239026Y-35832823D02*
X12248549Y-35842347D01*
X12248549Y-35842347D02*
X12258073Y-35861395D01*
X12258073Y-35861395D02*
X12267597Y-35899490D01*
X12267597Y-35899490D02*
X12267597Y-35947109D01*
X12267597Y-35947109D02*
X12258073Y-35985204D01*
X12258073Y-35985204D02*
X12248549Y-36004252D01*
X12248549Y-36004252D02*
X12239026Y-36013776D01*
X12239026Y-36013776D02*
X12219978Y-36023299D01*
X12219978Y-36023299D02*
X12200930Y-36023299D01*
X12200930Y-36023299D02*
X12181883Y-36013776D01*
X12181883Y-36013776D02*
X12172359Y-36004252D01*
X12172359Y-36004252D02*
X12162835Y-35985204D01*
X12162835Y-35985204D02*
X12153311Y-35947109D01*
X12153311Y-35947109D02*
X12153311Y-35899490D01*
X12153311Y-35899490D02*
X12162835Y-35861395D01*
X12162835Y-35861395D02*
X12172359Y-35842347D01*
X12172359Y-35842347D02*
X12181883Y-35832823D01*
X12181883Y-35832823D02*
X12200930Y-35823299D01*
X12334264Y-35823299D02*
X12458073Y-35823299D01*
X12458073Y-35823299D02*
X12391407Y-35899490D01*
X12391407Y-35899490D02*
X12419978Y-35899490D01*
X12419978Y-35899490D02*
X12439026Y-35909014D01*
X12439026Y-35909014D02*
X12448549Y-35918537D01*
X12448549Y-35918537D02*
X12458073Y-35937585D01*
X12458073Y-35937585D02*
X12458073Y-35985204D01*
X12458073Y-35985204D02*
X12448549Y-36004252D01*
X12448549Y-36004252D02*
X12439026Y-36013776D01*
X12439026Y-36013776D02*
X12419978Y-36023299D01*
X12419978Y-36023299D02*
X12362835Y-36023299D01*
X12362835Y-36023299D02*
X12343788Y-36013776D01*
X12343788Y-36013776D02*
X12334264Y-36004252D01*
X12524740Y-35823299D02*
X12658073Y-35823299D01*
X12658073Y-35823299D02*
X12572359Y-36023299D01*
X12819978Y-35889966D02*
X12819978Y-36023299D01*
X12772359Y-35813776D02*
X12724740Y-35956633D01*
X12724740Y-35956633D02*
X12848549Y-35956633D01*
X12915216Y-35823299D02*
X12915216Y-35861395D01*
X12991407Y-35823299D02*
X12991407Y-35861395D01*
X13286645Y-36099490D02*
X13277121Y-36089966D01*
X13277121Y-36089966D02*
X13258073Y-36061395D01*
X13258073Y-36061395D02*
X13248550Y-36042347D01*
X13248550Y-36042347D02*
X13239026Y-36013776D01*
X13239026Y-36013776D02*
X13229502Y-35966156D01*
X13229502Y-35966156D02*
X13229502Y-35928061D01*
X13229502Y-35928061D02*
X13239026Y-35880442D01*
X13239026Y-35880442D02*
X13248550Y-35851871D01*
X13248550Y-35851871D02*
X13258073Y-35832823D01*
X13258073Y-35832823D02*
X13277121Y-35804252D01*
X13277121Y-35804252D02*
X13286645Y-35794728D01*
X13448550Y-35889966D02*
X13448550Y-36023299D01*
X13400930Y-35813776D02*
X13353311Y-35956633D01*
X13353311Y-35956633D02*
X13477121Y-35956633D01*
X13705692Y-36023299D02*
X13705692Y-35823299D01*
X13791407Y-36023299D02*
X13791407Y-35918537D01*
X13791407Y-35918537D02*
X13781883Y-35899490D01*
X13781883Y-35899490D02*
X13762835Y-35889966D01*
X13762835Y-35889966D02*
X13734264Y-35889966D01*
X13734264Y-35889966D02*
X13715216Y-35899490D01*
X13715216Y-35899490D02*
X13705692Y-35909014D01*
X13915216Y-36023299D02*
X13896169Y-36013776D01*
X13896169Y-36013776D02*
X13886645Y-36004252D01*
X13886645Y-36004252D02*
X13877121Y-35985204D01*
X13877121Y-35985204D02*
X13877121Y-35928061D01*
X13877121Y-35928061D02*
X13886645Y-35909014D01*
X13886645Y-35909014D02*
X13896169Y-35899490D01*
X13896169Y-35899490D02*
X13915216Y-35889966D01*
X13915216Y-35889966D02*
X13943788Y-35889966D01*
X13943788Y-35889966D02*
X13962835Y-35899490D01*
X13962835Y-35899490D02*
X13972359Y-35909014D01*
X13972359Y-35909014D02*
X13981883Y-35928061D01*
X13981883Y-35928061D02*
X13981883Y-35985204D01*
X13981883Y-35985204D02*
X13972359Y-36004252D01*
X13972359Y-36004252D02*
X13962835Y-36013776D01*
X13962835Y-36013776D02*
X13943788Y-36023299D01*
X13943788Y-36023299D02*
X13915216Y-36023299D01*
X14096169Y-36023299D02*
X14077121Y-36013776D01*
X14077121Y-36013776D02*
X14067597Y-35994728D01*
X14067597Y-35994728D02*
X14067597Y-35823299D01*
X14248550Y-36013776D02*
X14229502Y-36023299D01*
X14229502Y-36023299D02*
X14191407Y-36023299D01*
X14191407Y-36023299D02*
X14172359Y-36013776D01*
X14172359Y-36013776D02*
X14162835Y-35994728D01*
X14162835Y-35994728D02*
X14162835Y-35918537D01*
X14162835Y-35918537D02*
X14172359Y-35899490D01*
X14172359Y-35899490D02*
X14191407Y-35889966D01*
X14191407Y-35889966D02*
X14229502Y-35889966D01*
X14229502Y-35889966D02*
X14248550Y-35899490D01*
X14248550Y-35899490D02*
X14258073Y-35918537D01*
X14258073Y-35918537D02*
X14258073Y-35937585D01*
X14258073Y-35937585D02*
X14162835Y-35956633D01*
X14334264Y-36013776D02*
X14353312Y-36023299D01*
X14353312Y-36023299D02*
X14391407Y-36023299D01*
X14391407Y-36023299D02*
X14410454Y-36013776D01*
X14410454Y-36013776D02*
X14419978Y-35994728D01*
X14419978Y-35994728D02*
X14419978Y-35985204D01*
X14419978Y-35985204D02*
X14410454Y-35966156D01*
X14410454Y-35966156D02*
X14391407Y-35956633D01*
X14391407Y-35956633D02*
X14362835Y-35956633D01*
X14362835Y-35956633D02*
X14343788Y-35947109D01*
X14343788Y-35947109D02*
X14334264Y-35928061D01*
X14334264Y-35928061D02*
X14334264Y-35918537D01*
X14334264Y-35918537D02*
X14343788Y-35899490D01*
X14343788Y-35899490D02*
X14362835Y-35889966D01*
X14362835Y-35889966D02*
X14391407Y-35889966D01*
X14391407Y-35889966D02*
X14410454Y-35899490D01*
X14486645Y-36099490D02*
X14496169Y-36089966D01*
X14496169Y-36089966D02*
X14515216Y-36061395D01*
X14515216Y-36061395D02*
X14524740Y-36042347D01*
X14524740Y-36042347D02*
X14534264Y-36013776D01*
X14534264Y-36013776D02*
X14543788Y-35966156D01*
X14543788Y-35966156D02*
X14543788Y-35928061D01*
X14543788Y-35928061D02*
X14534264Y-35880442D01*
X14534264Y-35880442D02*
X14524740Y-35851871D01*
X14524740Y-35851871D02*
X14515216Y-35832823D01*
X14515216Y-35832823D02*
X14496169Y-35804252D01*
X14496169Y-35804252D02*
X14486645Y-35794728D01*
D13*
X9636582Y-36120816D02*
X9636582Y-36270816D01*
X9561582Y-36195816D02*
X9711582Y-36195816D01*
D11*
X10077121Y-36287299D02*
X9962835Y-36287299D01*
X10019978Y-36287299D02*
X10019978Y-36087299D01*
X10019978Y-36087299D02*
X10000930Y-36115871D01*
X10000930Y-36115871D02*
X9981883Y-36134918D01*
X9981883Y-36134918D02*
X9962835Y-36144442D01*
X10162835Y-36268252D02*
X10172359Y-36277776D01*
X10172359Y-36277776D02*
X10162835Y-36287299D01*
X10162835Y-36287299D02*
X10153311Y-36277776D01*
X10153311Y-36277776D02*
X10162835Y-36268252D01*
X10162835Y-36268252D02*
X10162835Y-36287299D01*
X10353311Y-36087299D02*
X10258073Y-36087299D01*
X10258073Y-36087299D02*
X10248549Y-36182537D01*
X10248549Y-36182537D02*
X10258073Y-36173014D01*
X10258073Y-36173014D02*
X10277121Y-36163490D01*
X10277121Y-36163490D02*
X10324740Y-36163490D01*
X10324740Y-36163490D02*
X10343787Y-36173014D01*
X10343787Y-36173014D02*
X10353311Y-36182537D01*
X10353311Y-36182537D02*
X10362835Y-36201585D01*
X10362835Y-36201585D02*
X10362835Y-36249204D01*
X10362835Y-36249204D02*
X10353311Y-36268252D01*
X10353311Y-36268252D02*
X10343787Y-36277776D01*
X10343787Y-36277776D02*
X10324740Y-36287299D01*
X10324740Y-36287299D02*
X10277121Y-36287299D01*
X10277121Y-36287299D02*
X10258073Y-36277776D01*
X10258073Y-36277776D02*
X10248549Y-36268252D01*
X10486645Y-36087299D02*
X10505692Y-36087299D01*
X10505692Y-36087299D02*
X10524740Y-36096823D01*
X10524740Y-36096823D02*
X10534264Y-36106347D01*
X10534264Y-36106347D02*
X10543787Y-36125395D01*
X10543787Y-36125395D02*
X10553311Y-36163490D01*
X10553311Y-36163490D02*
X10553311Y-36211109D01*
X10553311Y-36211109D02*
X10543787Y-36249204D01*
X10543787Y-36249204D02*
X10534264Y-36268252D01*
X10534264Y-36268252D02*
X10524740Y-36277776D01*
X10524740Y-36277776D02*
X10505692Y-36287299D01*
X10505692Y-36287299D02*
X10486645Y-36287299D01*
X10486645Y-36287299D02*
X10467597Y-36277776D01*
X10467597Y-36277776D02*
X10458073Y-36268252D01*
X10458073Y-36268252D02*
X10448549Y-36249204D01*
X10448549Y-36249204D02*
X10439026Y-36211109D01*
X10439026Y-36211109D02*
X10439026Y-36163490D01*
X10439026Y-36163490D02*
X10448549Y-36125395D01*
X10448549Y-36125395D02*
X10458073Y-36106347D01*
X10458073Y-36106347D02*
X10467597Y-36096823D01*
X10467597Y-36096823D02*
X10486645Y-36087299D01*
X10677121Y-36087299D02*
X10696168Y-36087299D01*
X10696168Y-36087299D02*
X10715216Y-36096823D01*
X10715216Y-36096823D02*
X10724740Y-36106347D01*
X10724740Y-36106347D02*
X10734264Y-36125395D01*
X10734264Y-36125395D02*
X10743787Y-36163490D01*
X10743787Y-36163490D02*
X10743787Y-36211109D01*
X10743787Y-36211109D02*
X10734264Y-36249204D01*
X10734264Y-36249204D02*
X10724740Y-36268252D01*
X10724740Y-36268252D02*
X10715216Y-36277776D01*
X10715216Y-36277776D02*
X10696168Y-36287299D01*
X10696168Y-36287299D02*
X10677121Y-36287299D01*
X10677121Y-36287299D02*
X10658073Y-36277776D01*
X10658073Y-36277776D02*
X10648549Y-36268252D01*
X10648549Y-36268252D02*
X10639026Y-36249204D01*
X10639026Y-36249204D02*
X10629502Y-36211109D01*
X10629502Y-36211109D02*
X10629502Y-36163490D01*
X10629502Y-36163490D02*
X10639026Y-36125395D01*
X10639026Y-36125395D02*
X10648549Y-36106347D01*
X10648549Y-36106347D02*
X10658073Y-36096823D01*
X10658073Y-36096823D02*
X10677121Y-36087299D01*
X10829502Y-36287299D02*
X10829502Y-36153966D01*
X10829502Y-36173014D02*
X10839026Y-36163490D01*
X10839026Y-36163490D02*
X10858073Y-36153966D01*
X10858073Y-36153966D02*
X10886645Y-36153966D01*
X10886645Y-36153966D02*
X10905692Y-36163490D01*
X10905692Y-36163490D02*
X10915216Y-36182537D01*
X10915216Y-36182537D02*
X10915216Y-36287299D01*
X10915216Y-36182537D02*
X10924740Y-36163490D01*
X10924740Y-36163490D02*
X10943787Y-36153966D01*
X10943787Y-36153966D02*
X10972359Y-36153966D01*
X10972359Y-36153966D02*
X10991407Y-36163490D01*
X10991407Y-36163490D02*
X11000930Y-36182537D01*
X11000930Y-36182537D02*
X11000930Y-36287299D01*
X11096168Y-36287299D02*
X11096168Y-36153966D01*
X11096168Y-36173014D02*
X11105692Y-36163490D01*
X11105692Y-36163490D02*
X11124740Y-36153966D01*
X11124740Y-36153966D02*
X11153311Y-36153966D01*
X11153311Y-36153966D02*
X11172359Y-36163490D01*
X11172359Y-36163490D02*
X11181883Y-36182537D01*
X11181883Y-36182537D02*
X11181883Y-36287299D01*
X11181883Y-36182537D02*
X11191406Y-36163490D01*
X11191406Y-36163490D02*
X11210454Y-36153966D01*
X11210454Y-36153966D02*
X11239025Y-36153966D01*
X11239025Y-36153966D02*
X11258073Y-36163490D01*
X11258073Y-36163490D02*
X11267597Y-36182537D01*
X11267597Y-36182537D02*
X11267597Y-36287299D01*
X11658073Y-36077776D02*
X11486645Y-36334918D01*
X11915216Y-36087299D02*
X11934264Y-36087299D01*
X11934264Y-36087299D02*
X11953311Y-36096823D01*
X11953311Y-36096823D02*
X11962835Y-36106347D01*
X11962835Y-36106347D02*
X11972359Y-36125395D01*
X11972359Y-36125395D02*
X11981883Y-36163490D01*
X11981883Y-36163490D02*
X11981883Y-36211109D01*
X11981883Y-36211109D02*
X11972359Y-36249204D01*
X11972359Y-36249204D02*
X11962835Y-36268252D01*
X11962835Y-36268252D02*
X11953311Y-36277776D01*
X11953311Y-36277776D02*
X11934264Y-36287299D01*
X11934264Y-36287299D02*
X11915216Y-36287299D01*
X11915216Y-36287299D02*
X11896168Y-36277776D01*
X11896168Y-36277776D02*
X11886645Y-36268252D01*
X11886645Y-36268252D02*
X11877121Y-36249204D01*
X11877121Y-36249204D02*
X11867597Y-36211109D01*
X11867597Y-36211109D02*
X11867597Y-36163490D01*
X11867597Y-36163490D02*
X11877121Y-36125395D01*
X11877121Y-36125395D02*
X11886645Y-36106347D01*
X11886645Y-36106347D02*
X11896168Y-36096823D01*
X11896168Y-36096823D02*
X11915216Y-36087299D01*
X12067597Y-36268252D02*
X12077121Y-36277776D01*
X12077121Y-36277776D02*
X12067597Y-36287299D01*
X12067597Y-36287299D02*
X12058073Y-36277776D01*
X12058073Y-36277776D02*
X12067597Y-36268252D01*
X12067597Y-36268252D02*
X12067597Y-36287299D01*
X12200930Y-36087299D02*
X12219978Y-36087299D01*
X12219978Y-36087299D02*
X12239026Y-36096823D01*
X12239026Y-36096823D02*
X12248549Y-36106347D01*
X12248549Y-36106347D02*
X12258073Y-36125395D01*
X12258073Y-36125395D02*
X12267597Y-36163490D01*
X12267597Y-36163490D02*
X12267597Y-36211109D01*
X12267597Y-36211109D02*
X12258073Y-36249204D01*
X12258073Y-36249204D02*
X12248549Y-36268252D01*
X12248549Y-36268252D02*
X12239026Y-36277776D01*
X12239026Y-36277776D02*
X12219978Y-36287299D01*
X12219978Y-36287299D02*
X12200930Y-36287299D01*
X12200930Y-36287299D02*
X12181883Y-36277776D01*
X12181883Y-36277776D02*
X12172359Y-36268252D01*
X12172359Y-36268252D02*
X12162835Y-36249204D01*
X12162835Y-36249204D02*
X12153311Y-36211109D01*
X12153311Y-36211109D02*
X12153311Y-36163490D01*
X12153311Y-36163490D02*
X12162835Y-36125395D01*
X12162835Y-36125395D02*
X12172359Y-36106347D01*
X12172359Y-36106347D02*
X12181883Y-36096823D01*
X12181883Y-36096823D02*
X12200930Y-36087299D01*
X12448549Y-36087299D02*
X12353311Y-36087299D01*
X12353311Y-36087299D02*
X12343788Y-36182537D01*
X12343788Y-36182537D02*
X12353311Y-36173014D01*
X12353311Y-36173014D02*
X12372359Y-36163490D01*
X12372359Y-36163490D02*
X12419978Y-36163490D01*
X12419978Y-36163490D02*
X12439026Y-36173014D01*
X12439026Y-36173014D02*
X12448549Y-36182537D01*
X12448549Y-36182537D02*
X12458073Y-36201585D01*
X12458073Y-36201585D02*
X12458073Y-36249204D01*
X12458073Y-36249204D02*
X12448549Y-36268252D01*
X12448549Y-36268252D02*
X12439026Y-36277776D01*
X12439026Y-36277776D02*
X12419978Y-36287299D01*
X12419978Y-36287299D02*
X12372359Y-36287299D01*
X12372359Y-36287299D02*
X12353311Y-36277776D01*
X12353311Y-36277776D02*
X12343788Y-36268252D01*
X12553311Y-36287299D02*
X12591407Y-36287299D01*
X12591407Y-36287299D02*
X12610454Y-36277776D01*
X12610454Y-36277776D02*
X12619978Y-36268252D01*
X12619978Y-36268252D02*
X12639026Y-36239680D01*
X12639026Y-36239680D02*
X12648549Y-36201585D01*
X12648549Y-36201585D02*
X12648549Y-36125395D01*
X12648549Y-36125395D02*
X12639026Y-36106347D01*
X12639026Y-36106347D02*
X12629502Y-36096823D01*
X12629502Y-36096823D02*
X12610454Y-36087299D01*
X12610454Y-36087299D02*
X12572359Y-36087299D01*
X12572359Y-36087299D02*
X12553311Y-36096823D01*
X12553311Y-36096823D02*
X12543788Y-36106347D01*
X12543788Y-36106347D02*
X12534264Y-36125395D01*
X12534264Y-36125395D02*
X12534264Y-36173014D01*
X12534264Y-36173014D02*
X12543788Y-36192061D01*
X12543788Y-36192061D02*
X12553311Y-36201585D01*
X12553311Y-36201585D02*
X12572359Y-36211109D01*
X12572359Y-36211109D02*
X12610454Y-36211109D01*
X12610454Y-36211109D02*
X12629502Y-36201585D01*
X12629502Y-36201585D02*
X12639026Y-36192061D01*
X12639026Y-36192061D02*
X12648549Y-36173014D01*
X12839026Y-36287299D02*
X12724740Y-36287299D01*
X12781883Y-36287299D02*
X12781883Y-36087299D01*
X12781883Y-36087299D02*
X12762835Y-36115871D01*
X12762835Y-36115871D02*
X12743788Y-36134918D01*
X12743788Y-36134918D02*
X12724740Y-36144442D01*
X12915216Y-36087299D02*
X12915216Y-36125395D01*
X12991407Y-36087299D02*
X12991407Y-36125395D01*
X13286645Y-36363490D02*
X13277121Y-36353966D01*
X13277121Y-36353966D02*
X13258073Y-36325395D01*
X13258073Y-36325395D02*
X13248550Y-36306347D01*
X13248550Y-36306347D02*
X13239026Y-36277776D01*
X13239026Y-36277776D02*
X13229502Y-36230156D01*
X13229502Y-36230156D02*
X13229502Y-36192061D01*
X13229502Y-36192061D02*
X13239026Y-36144442D01*
X13239026Y-36144442D02*
X13248550Y-36115871D01*
X13248550Y-36115871D02*
X13258073Y-36096823D01*
X13258073Y-36096823D02*
X13277121Y-36068252D01*
X13277121Y-36068252D02*
X13286645Y-36058728D01*
X13353311Y-36106347D02*
X13362835Y-36096823D01*
X13362835Y-36096823D02*
X13381883Y-36087299D01*
X13381883Y-36087299D02*
X13429502Y-36087299D01*
X13429502Y-36087299D02*
X13448550Y-36096823D01*
X13448550Y-36096823D02*
X13458073Y-36106347D01*
X13458073Y-36106347D02*
X13467597Y-36125395D01*
X13467597Y-36125395D02*
X13467597Y-36144442D01*
X13467597Y-36144442D02*
X13458073Y-36173014D01*
X13458073Y-36173014D02*
X13343788Y-36287299D01*
X13343788Y-36287299D02*
X13467597Y-36287299D01*
X13591407Y-36087299D02*
X13610454Y-36087299D01*
X13610454Y-36087299D02*
X13629502Y-36096823D01*
X13629502Y-36096823D02*
X13639026Y-36106347D01*
X13639026Y-36106347D02*
X13648550Y-36125395D01*
X13648550Y-36125395D02*
X13658073Y-36163490D01*
X13658073Y-36163490D02*
X13658073Y-36211109D01*
X13658073Y-36211109D02*
X13648550Y-36249204D01*
X13648550Y-36249204D02*
X13639026Y-36268252D01*
X13639026Y-36268252D02*
X13629502Y-36277776D01*
X13629502Y-36277776D02*
X13610454Y-36287299D01*
X13610454Y-36287299D02*
X13591407Y-36287299D01*
X13591407Y-36287299D02*
X13572359Y-36277776D01*
X13572359Y-36277776D02*
X13562835Y-36268252D01*
X13562835Y-36268252D02*
X13553311Y-36249204D01*
X13553311Y-36249204D02*
X13543788Y-36211109D01*
X13543788Y-36211109D02*
X13543788Y-36163490D01*
X13543788Y-36163490D02*
X13553311Y-36125395D01*
X13553311Y-36125395D02*
X13562835Y-36106347D01*
X13562835Y-36106347D02*
X13572359Y-36096823D01*
X13572359Y-36096823D02*
X13591407Y-36087299D01*
X13772359Y-36173014D02*
X13753311Y-36163490D01*
X13753311Y-36163490D02*
X13743788Y-36153966D01*
X13743788Y-36153966D02*
X13734264Y-36134918D01*
X13734264Y-36134918D02*
X13734264Y-36125395D01*
X13734264Y-36125395D02*
X13743788Y-36106347D01*
X13743788Y-36106347D02*
X13753311Y-36096823D01*
X13753311Y-36096823D02*
X13772359Y-36087299D01*
X13772359Y-36087299D02*
X13810454Y-36087299D01*
X13810454Y-36087299D02*
X13829502Y-36096823D01*
X13829502Y-36096823D02*
X13839026Y-36106347D01*
X13839026Y-36106347D02*
X13848550Y-36125395D01*
X13848550Y-36125395D02*
X13848550Y-36134918D01*
X13848550Y-36134918D02*
X13839026Y-36153966D01*
X13839026Y-36153966D02*
X13829502Y-36163490D01*
X13829502Y-36163490D02*
X13810454Y-36173014D01*
X13810454Y-36173014D02*
X13772359Y-36173014D01*
X13772359Y-36173014D02*
X13753311Y-36182537D01*
X13753311Y-36182537D02*
X13743788Y-36192061D01*
X13743788Y-36192061D02*
X13734264Y-36211109D01*
X13734264Y-36211109D02*
X13734264Y-36249204D01*
X13734264Y-36249204D02*
X13743788Y-36268252D01*
X13743788Y-36268252D02*
X13753311Y-36277776D01*
X13753311Y-36277776D02*
X13772359Y-36287299D01*
X13772359Y-36287299D02*
X13810454Y-36287299D01*
X13810454Y-36287299D02*
X13829502Y-36277776D01*
X13829502Y-36277776D02*
X13839026Y-36268252D01*
X13839026Y-36268252D02*
X13848550Y-36249204D01*
X13848550Y-36249204D02*
X13848550Y-36211109D01*
X13848550Y-36211109D02*
X13839026Y-36192061D01*
X13839026Y-36192061D02*
X13829502Y-36182537D01*
X13829502Y-36182537D02*
X13810454Y-36173014D01*
X14086645Y-36287299D02*
X14086645Y-36087299D01*
X14172359Y-36287299D02*
X14172359Y-36182537D01*
X14172359Y-36182537D02*
X14162835Y-36163490D01*
X14162835Y-36163490D02*
X14143788Y-36153966D01*
X14143788Y-36153966D02*
X14115216Y-36153966D01*
X14115216Y-36153966D02*
X14096169Y-36163490D01*
X14096169Y-36163490D02*
X14086645Y-36173014D01*
X14296169Y-36287299D02*
X14277121Y-36277776D01*
X14277121Y-36277776D02*
X14267597Y-36268252D01*
X14267597Y-36268252D02*
X14258073Y-36249204D01*
X14258073Y-36249204D02*
X14258073Y-36192061D01*
X14258073Y-36192061D02*
X14267597Y-36173014D01*
X14267597Y-36173014D02*
X14277121Y-36163490D01*
X14277121Y-36163490D02*
X14296169Y-36153966D01*
X14296169Y-36153966D02*
X14324740Y-36153966D01*
X14324740Y-36153966D02*
X14343788Y-36163490D01*
X14343788Y-36163490D02*
X14353312Y-36173014D01*
X14353312Y-36173014D02*
X14362835Y-36192061D01*
X14362835Y-36192061D02*
X14362835Y-36249204D01*
X14362835Y-36249204D02*
X14353312Y-36268252D01*
X14353312Y-36268252D02*
X14343788Y-36277776D01*
X14343788Y-36277776D02*
X14324740Y-36287299D01*
X14324740Y-36287299D02*
X14296169Y-36287299D01*
X14477121Y-36287299D02*
X14458073Y-36277776D01*
X14458073Y-36277776D02*
X14448550Y-36258728D01*
X14448550Y-36258728D02*
X14448550Y-36087299D01*
X14629502Y-36277776D02*
X14610454Y-36287299D01*
X14610454Y-36287299D02*
X14572359Y-36287299D01*
X14572359Y-36287299D02*
X14553312Y-36277776D01*
X14553312Y-36277776D02*
X14543788Y-36258728D01*
X14543788Y-36258728D02*
X14543788Y-36182537D01*
X14543788Y-36182537D02*
X14553312Y-36163490D01*
X14553312Y-36163490D02*
X14572359Y-36153966D01*
X14572359Y-36153966D02*
X14610454Y-36153966D01*
X14610454Y-36153966D02*
X14629502Y-36163490D01*
X14629502Y-36163490D02*
X14639026Y-36182537D01*
X14639026Y-36182537D02*
X14639026Y-36201585D01*
X14639026Y-36201585D02*
X14543788Y-36220633D01*
X14715216Y-36277776D02*
X14734264Y-36287299D01*
X14734264Y-36287299D02*
X14772359Y-36287299D01*
X14772359Y-36287299D02*
X14791407Y-36277776D01*
X14791407Y-36277776D02*
X14800931Y-36258728D01*
X14800931Y-36258728D02*
X14800931Y-36249204D01*
X14800931Y-36249204D02*
X14791407Y-36230156D01*
X14791407Y-36230156D02*
X14772359Y-36220633D01*
X14772359Y-36220633D02*
X14743788Y-36220633D01*
X14743788Y-36220633D02*
X14724740Y-36211109D01*
X14724740Y-36211109D02*
X14715216Y-36192061D01*
X14715216Y-36192061D02*
X14715216Y-36182537D01*
X14715216Y-36182537D02*
X14724740Y-36163490D01*
X14724740Y-36163490D02*
X14743788Y-36153966D01*
X14743788Y-36153966D02*
X14772359Y-36153966D01*
X14772359Y-36153966D02*
X14791407Y-36163490D01*
X14867597Y-36363490D02*
X14877121Y-36353966D01*
X14877121Y-36353966D02*
X14896169Y-36325395D01*
X14896169Y-36325395D02*
X14905693Y-36306347D01*
X14905693Y-36306347D02*
X14915216Y-36277776D01*
X14915216Y-36277776D02*
X14924740Y-36230156D01*
X14924740Y-36230156D02*
X14924740Y-36192061D01*
X14924740Y-36192061D02*
X14915216Y-36144442D01*
X14915216Y-36144442D02*
X14905693Y-36115871D01*
X14905693Y-36115871D02*
X14896169Y-36096823D01*
X14896169Y-36096823D02*
X14877121Y-36068252D01*
X14877121Y-36068252D02*
X14867597Y-36058728D01*
M02*
