M48
; DRILL file {KiCad 8.0.5} date 2025-06-15T08:44:19-0700
; FORMAT={-:-/ absolute / inch / decimal}
; #@! TF.CreationDate,2025-06-15T08:44:19-07:00
; #@! TF.GenerationSoftware,Kicad,Pcbnew,8.0.5
; #@! TF.FileFunction,NonPlated,1,4,NPTH
FMAT,2
INCH
; #@! TA.AperFunction,NonPlated,NPTH,ComponentDrill
T1C0.0689
; #@! TA.AperFunction,NonPlated,NPTH,ComponentDrill
T2C0.1200
; #@! TA.AperFunction,NonPlated,NPTH,ComponentDrill
T3C0.1570
; #@! TA.AperFunction,NonPlated,NPTH,ComponentDrill
T4C0.1575
%
G90
G05
T1
X4.2388Y-9.0388
X4.2388Y-10.1638
X4.3325Y-13.1638
X4.4263Y-10.9138
X4.52Y-11.6638
X4.6388Y-9.0388
X4.6388Y-10.1638
X4.7075Y-12.4138
X4.7325Y-13.1638
X4.8263Y-10.9138
X4.92Y-11.6638
X4.9888Y-10.1638
X5.1075Y-12.4138
X5.27Y-13.1638
X5.3638Y-10.9138
X5.3888Y-10.1638
X5.5513Y-11.6638
X5.67Y-13.1638
X5.7388Y-9.0388
X5.7388Y-10.1638
X5.7638Y-10.9138
X5.9263Y-12.4138
X5.9513Y-11.6638
X6.1138Y-10.9138
X6.1388Y-9.0388
X6.1388Y-10.1638
X6.2075Y-13.1638
X6.3013Y-11.6638
X6.3263Y-12.4138
X6.4888Y-9.0388
X6.4888Y-10.1638
X6.5138Y-10.9138
X6.6075Y-13.1638
X6.6763Y-12.4138
X6.7013Y-11.6638
X6.8638Y-10.9138
X6.8888Y-9.0388
X6.8888Y-10.1638
X7.0513Y-11.6638
X7.0763Y-12.4138
X7.2388Y-9.0388
X7.2388Y-10.1638
X7.2638Y-10.9138
X7.4263Y-12.4138
X7.4513Y-11.6638
X7.6138Y-10.9138
X7.6388Y-9.0388
X7.6388Y-10.1638
X7.8013Y-11.6638
X7.8263Y-12.4138
X7.9888Y-9.0388
X7.9888Y-10.1638
X8.0138Y-10.9138
X8.1763Y-12.4138
X8.2013Y-11.6638
X8.3638Y-10.9138
X8.3888Y-9.0388
X8.3888Y-10.1638
X8.5513Y-11.6638
X8.5763Y-12.4138
X8.7388Y-10.1638
X8.7638Y-10.9138
X8.9263Y-12.4138
X8.9513Y-11.6638
X9.1138Y-9.0388
X9.1138Y-10.9138
X9.1388Y-10.1638
X9.3013Y-11.6638
X9.3263Y-12.4138
X9.4888Y-10.1638
X9.5138Y-9.0388
X9.5138Y-10.9138
X9.6763Y-12.4138
X9.7013Y-11.6638
X9.8618Y-9.0388
X9.8638Y-10.9138
X9.8888Y-10.1638
X10.0513Y-11.6638
X10.0763Y-12.4138
X10.2388Y-10.1638
X10.2618Y-9.0388
X10.2638Y-10.9138
X10.4263Y-12.4138
X10.4513Y-11.6638
X10.6098Y-9.0388
X10.6138Y-10.9138
X10.6388Y-10.1638
X10.8013Y-11.6638
X10.8263Y-12.4138
X10.9888Y-10.1638
X11.0098Y-9.0388
X11.0138Y-10.9138
X11.1763Y-12.4138
X11.2013Y-11.6638
X11.3579Y-9.0388
X11.3638Y-10.9138
X11.3888Y-10.1638
X11.5513Y-11.6638
X11.5763Y-12.4138
X11.7388Y-10.1638
X11.7579Y-9.0388
X11.7638Y-10.9138
X11.8325Y-13.1638
X11.9263Y-12.4138
X11.9513Y-11.6638
X12.1138Y-10.9138
X12.1388Y-10.1638
X12.2325Y-13.1638
X12.3013Y-11.6638
X12.3263Y-12.4138
X12.4888Y-9.0388
X12.4888Y-10.1638
X12.5138Y-10.9138
X12.6763Y-12.4138
X12.7013Y-11.6638
X12.77Y-13.1638
X12.8638Y-10.9138
X12.8888Y-9.0388
X12.8888Y-10.1638
X13.0513Y-11.6638
X13.0763Y-12.4138
X13.17Y-13.1638
X13.2368Y-9.0388
X13.2388Y-10.1638
X13.2638Y-10.9138
X13.4513Y-11.6638
X13.6138Y-10.9138
X13.6368Y-9.0388
X13.6388Y-10.1638
X13.7075Y-13.1638
X13.9848Y-9.0388
X14.0138Y-10.9138
X14.0825Y-12.4138
X14.1075Y-13.1638
X14.27Y-11.6638
X14.3638Y-10.1638
X14.3848Y-9.0388
X14.4825Y-12.4138
X14.5513Y-10.9138
X14.645Y-13.1638
X14.67Y-11.6638
X14.738Y-9.0388
X14.7638Y-10.1638
X14.9513Y-10.9138
X15.045Y-13.1638
X15.138Y-9.0388
X15.6763Y-9.0388
X15.6763Y-10.1638
X15.6763Y-10.9138
X15.6763Y-13.1638
X16.0763Y-9.0388
X16.0763Y-10.1638
X16.0763Y-10.9138
X16.0763Y-13.1638
X16.4263Y-9.0388
X16.4263Y-10.1638
X16.4263Y-10.9138
X16.4263Y-12.4138
X16.4263Y-13.1638
X16.8263Y-9.0388
X16.8263Y-10.1638
X16.8263Y-10.9138
X16.8263Y-12.4138
X16.8263Y-13.1638
X17.1763Y-9.0388
X17.1763Y-10.1638
X17.1763Y-10.9138
X17.1763Y-13.1638
X17.5763Y-9.0388
X17.5763Y-10.1638
X17.5763Y-10.9138
X17.5763Y-13.1638
X18.1138Y-10.1638
X18.1138Y-10.9138
X18.1138Y-11.6638
X18.1138Y-12.4138
X18.4888Y-13.1638
X18.5138Y-10.1638
X18.5138Y-10.9138
X18.5138Y-11.6638
X18.5138Y-12.4138
X18.8638Y-10.1638
X18.8638Y-10.9138
X18.8638Y-11.6638
X18.8638Y-12.4138
X18.8888Y-13.1638
X19.2638Y-10.1638
X19.2638Y-10.9138
X19.2638Y-11.6638
X19.2638Y-12.4138
X19.6138Y-10.1638
X19.6138Y-10.9138
X19.6138Y-11.6638
X19.6138Y-12.4138
X19.6138Y-13.1638
X20.0138Y-10.1638
X20.0138Y-10.9138
X20.0138Y-11.6638
X20.0138Y-12.4138
X20.0138Y-13.1638
X20.3638Y-10.1638
X20.3638Y-11.2888
X20.3638Y-12.7888
X20.7638Y-10.1638
X20.7638Y-11.2888
X20.7638Y-12.7888
T2
X4.4375Y-12.1388
X5.3775Y-12.1388
X7.2515Y-12.8888
X11.1885Y-12.8888
X13.8125Y-12.1388
X14.0Y-11.3888
X14.0938Y-9.8888
X14.7525Y-12.1388
X14.94Y-11.3888
X15.0338Y-9.8888
X18.2188Y-12.8888
X19.1588Y-12.8888
X20.2888Y-10.8188
X20.2888Y-11.7588
X20.2888Y-12.3188
X20.2888Y-13.2588
T3
X4.4375Y-12.7376
X5.3775Y-12.7376
X7.2515Y-13.4876
X11.1885Y-13.4876
X13.8125Y-12.7376
X14.0Y-11.9876
X14.0938Y-10.4876
X14.7525Y-12.7376
X14.94Y-11.9876
X15.0338Y-10.4876
X18.2188Y-13.4876
X19.1588Y-13.4876
X20.8876Y-10.8188
X20.8876Y-11.7588
X20.8876Y-12.3188
X20.8876Y-13.2588
T4
X4.4388Y-9.0388
X4.4388Y-10.1638
X4.5325Y-13.1638
X4.6263Y-10.9138
X4.72Y-11.6638
X4.9075Y-12.4138
X5.1888Y-10.1638
X5.47Y-13.1638
X5.5638Y-10.9138
X5.7513Y-11.6638
X5.9388Y-9.0388
X5.9388Y-10.1638
X6.1263Y-12.4138
X6.3138Y-10.9138
X6.4075Y-13.1638
X6.5013Y-11.6638
X6.6888Y-9.0388
X6.6888Y-10.1638
X6.8763Y-12.4138
X7.0638Y-10.9138
X7.2513Y-11.6638
X7.4388Y-9.0388
X7.4388Y-10.1638
X7.6263Y-12.4138
X7.8138Y-10.9138
X8.0013Y-11.6638
X8.1888Y-9.0388
X8.1888Y-10.1638
X8.3763Y-12.4138
X8.5638Y-10.9138
X8.7513Y-11.6638
X8.9388Y-10.1638
X9.1263Y-12.4138
X9.22Y-13.1638
X9.3138Y-9.0388
X9.3138Y-10.9138
X9.5013Y-11.6638
X9.6888Y-10.1638
X9.8763Y-12.4138
X10.0618Y-9.0388
X10.0638Y-10.9138
X10.2513Y-11.6638
X10.4388Y-10.1638
X10.6263Y-12.4138
X10.8098Y-9.0388
X10.8138Y-10.9138
X11.0013Y-11.6638
X11.1888Y-10.1638
X11.3763Y-12.4138
X11.5579Y-9.0388
X11.5638Y-10.9138
X11.7513Y-11.6638
X11.9388Y-10.1638
X12.0325Y-13.1638
X12.1263Y-12.4138
X12.3138Y-10.9138
X12.5013Y-11.6638
X12.6888Y-9.0388
X12.6888Y-10.1638
X12.8763Y-12.4138
X12.97Y-13.1638
X13.0638Y-10.9138
X13.2513Y-11.6638
X13.4368Y-9.0388
X13.4388Y-10.1638
X13.8138Y-10.9138
X13.9075Y-13.1638
X14.1848Y-9.0388
X14.2825Y-12.4138
X14.47Y-11.6638
X14.5638Y-10.1638
X14.7513Y-10.9138
X14.845Y-13.1638
X14.938Y-9.0388
X15.8763Y-9.0388
X15.8763Y-10.1638
X15.8763Y-10.9138
X15.8763Y-13.1638
X16.6263Y-9.0388
X16.6263Y-10.1638
X16.6263Y-10.9138
X16.6263Y-12.4138
X16.6263Y-13.1638
X17.3763Y-9.0388
X17.3763Y-10.1638
X17.3763Y-10.9138
X17.3763Y-13.1638
X18.3138Y-10.1638
X18.3138Y-10.9138
X18.3138Y-11.6638
X18.3138Y-12.4138
X18.6888Y-13.1638
X19.0638Y-10.1638
X19.0638Y-10.9138
X19.0638Y-11.6638
X19.0638Y-12.4138
X19.8138Y-10.1638
X19.8138Y-10.9138
X19.8138Y-11.6638
X19.8138Y-12.4138
X19.8138Y-13.1638
X20.5638Y-10.1638
X20.5638Y-11.2888
X20.5638Y-12.7888
M30
